<svg width="139" height="212" viewBox="0 0 139 212" fill="none" xmlns="http://www.w3.org/2000/svg">
<ellipse cx="69" cy="201" rx="56" ry="11" fill="url(#paint0_radial)"/>
<path d="M74.8033 166.346C73.758 166.799 36.5777 170.882 32.1876 166.346C27.7975 161.809 57.2741 142.178 61.5493 142.529C62.5945 142.609 63.4412 143.731 65.0196 146.215C69.901 153.802 74.8033 166.346 74.8033 166.346Z" fill="url(#paint1_linear)"/>
<path d="M61.5492 142.529C59.6364 142.79 66.3471 163.647 74.8033 166.346C74.8033 166.346 66.5979 141.826 61.5492 142.529Z" fill="url(#paint2_linear)"/>
<path style="mix-blend-mode:multiply" opacity="0.3" d="M74.8033 166.346C73.7581 166.799 36.7868 170.644 32.1876 166.346C32.1876 166.346 43.0793 168.319 53.0199 164.588C62.9604 160.857 63.1486 151.443 63.1486 151.443L63.7548 143.505C68.6362 151.115 74.8033 166.346 74.8033 166.346Z" fill="url(#paint3_linear)"/>
<path d="M35.6265 131.665C35.6265 131.665 33.8182 122.331 41.6577 112.385C51.8178 99.4897 73.0159 89.9404 76.5593 91.7096C80.1028 93.4788 68.5107 113.745 68.5107 113.745C68.5107 113.745 53.8769 117.76 46.1001 127.536C38.3233 137.312 35.6265 131.665 35.6265 131.665Z" fill="url(#paint4_linear)"/>
<path d="M110.813 144.072C109.768 153.145 105.952 160.256 99.4195 164.123C95.0293 166.709 89.4476 167.854 82.6951 167.117C72.7233 165.983 66.6294 157.919 63.9535 146.873C62.7284 141.574 62.1867 136.116 62.3438 130.655C62.7305 111.976 71.8034 97.2894 78.0646 92.7189C88.4337 85.1544 103.088 89.5207 104.729 102.801C106.046 113.507 112.496 128.943 110.813 144.072Z" fill="url(#paint5_linear)"/>
<path d="M101.562 95.6223C99.8166 94.8625 98.8027 112.43 105.963 122.682C105.963 122.682 109.224 120.414 107.823 111.806C106.423 103.198 103.914 96.6544 101.562 95.6223Z" fill="url(#paint6_linear)"/>
<path d="M100.297 102.041C100.297 102.041 106.778 112.022 104.677 120.63C104.677 120.63 100.559 113.916 100.297 102.041Z" fill="#6340A2"/>
<path d="M99.409 164.123C95.0188 166.709 89.4371 167.854 82.6846 167.117C72.7127 165.983 66.6188 157.919 63.9429 146.873C61.152 134.67 66.2111 118.429 81.3989 118.429C96.5867 118.429 104.06 135.362 104.803 147.236C105.095 151.931 104.594 161.333 99.409 164.123Z" fill="url(#paint7_radial)"/>
<path d="M99.409 164.123C95.0188 166.709 89.4371 167.854 82.6846 167.117C72.7127 165.983 66.6188 157.919 63.9429 146.873C61.152 134.67 66.2111 118.429 81.3989 118.429C96.5867 118.429 104.06 135.362 104.803 147.236C105.095 151.931 104.594 161.333 99.409 164.123Z" fill="url(#paint8_linear)"/>
<path d="M129.962 160.482C130.168 162.551 129.63 164.625 128.462 166.275C127.294 167.924 125.585 169.022 123.691 169.34C119.905 169.822 116.078 169.799 112.297 169.272H112.025C106.506 168.625 101.238 167.276 100.966 165.223C100.787 163.818 100.714 162.399 100.747 160.981C100.872 149.062 107.249 135.634 111.315 136.541C113.823 137.108 117.471 139.739 120.879 143.346C123.708 146.238 126.106 149.59 127.987 153.281C129.13 155.492 129.805 157.952 129.962 160.482Z" fill="url(#paint9_linear)"/>
<path style="mix-blend-mode:multiply" opacity="0.5" d="M120.889 143.278C120.889 143.278 113.123 140.885 106.998 146.374C102.66 150.253 101.426 158.407 100.726 160.959C100.851 149.039 107.228 135.611 111.294 136.519C113.834 137.086 117.482 139.717 120.889 143.278Z" fill="url(#paint10_linear)"/>
<path d="M127.976 125.121C127.266 129.34 118.945 135.543 104.855 134.443C104.855 134.443 98.1443 128.568 98.8028 122.127C98.8028 122.127 99.4091 121.866 100.245 121.412C101.897 120.516 107.144 118.339 107.667 116.411C108.712 112.759 105.095 107.678 102.953 102.37C100.956 97.4595 102.472 93.1612 103.517 92.923C104.562 92.6849 111.357 95.248 118.088 101.996C118.778 102.688 119.426 103.391 120.022 104.083C127.537 112.747 128.635 121.219 127.976 125.121Z" fill="url(#paint11_linear)"/>
<path d="M100.026 122.047C96.7575 119.518 93.2995 117.291 89.6881 115.39C89.6881 115.39 85.507 116.274 84.723 118.724C83.9391 121.174 93.1688 125.937 93.1688 125.937L100.026 122.047Z" fill="url(#paint12_linear)"/>
<path d="M39.5569 122.909C39.5569 122.909 43.2049 115.322 46.1002 114.347C48.9956 113.371 50.783 113.757 51.2743 114.347C51.7656 114.936 51.8074 117.885 50.6681 120.199C49.5287 122.512 44.8877 125.132 44.8877 125.132L39.5569 122.909Z" fill="url(#paint13_linear)"/>
<path d="M45.5776 114.585C45.9392 116.03 46.7855 117.275 47.9504 118.078C48.8992 118.734 50.0431 118.974 51.1489 118.747C51.1489 118.747 52.8004 114.948 50.9921 113.745C49.4137 112.702 46.0062 113.859 45.5776 114.585Z" fill="url(#paint14_linear)"/>
<path d="M95.1338 150.332C90.2524 152.408 82.1306 143.267 76.9984 139.955C71.8661 136.643 62.8245 135.657 58.7375 137.539C54.6505 139.422 48.4625 147.52 42.8703 146.476C41.825 146.283 41.501 143.471 41.7309 139.603C42.1699 131.597 45.0549 119.076 49.56 115.991C56.2393 111.455 83.2491 112.589 89.6566 119.087C93.0746 122.569 95.3742 130.848 96.2523 138.004C97.0153 144.253 96.7017 149.652 95.1338 150.332Z" fill="url(#paint15_linear)"/>
<path style="mix-blend-mode:multiply" opacity="0.5" d="M95.1338 150.332C90.2524 152.408 82.1306 143.267 76.9983 139.955C71.8661 136.643 62.8245 135.657 58.7375 137.539C54.6505 139.422 48.4625 147.519 42.8703 146.476C41.825 146.283 41.501 143.471 41.7309 139.603L43.2257 136.791L53.417 130.054C53.417 130.054 53.5111 134.057 54.4623 134.59C55.4135 135.124 58.9465 134.284 65.6049 134.216C72.2633 134.148 77.4374 137.834 80.5732 135.691C83.709 133.547 85.9668 128.342 85.9668 128.342L88.8935 127.99L96.2104 138.027C97.0153 144.253 96.7017 149.652 95.1338 150.332Z" fill="url(#paint16_linear)"/>
<path d="M38.9609 120.63C38.9609 120.63 45.3893 120.176 52.9153 126.164C52.9153 126.164 55.0059 134.534 50.6784 139.773C48.203 141.137 45.5362 142.045 42.7866 142.461C38.1247 143.278 38.9609 120.63 38.9609 120.63Z" fill="url(#paint17_linear)"/>
<path d="M98.8027 122.127C100.575 122.199 102.307 122.718 103.862 123.644C105.417 124.569 106.752 125.875 107.761 127.457C110.426 131.993 106.318 134.534 106.318 134.534C106.318 134.534 99.3149 134.012 98.8027 122.127Z" fill="url(#paint18_linear)"/>
<path d="M38.9611 120.63C35.9925 120.425 33.7347 135.781 36.6928 140.442C39.6509 145.104 47.0097 141.338 48.3476 139.671C49.6856 138.004 51.7552 130.678 50.9817 127.684C50.2082 124.69 46.2362 121.129 38.9611 120.63Z" fill="url(#paint19_linear)"/>
<path d="M50.6784 115.356C50.6784 115.356 50.1349 119.166 61.5283 120.72C72.9218 122.274 83.479 121.344 87.4406 117.465C87.4406 117.511 69.002 109.47 50.6784 115.356Z" fill="url(#paint20_linear)"/>
<path d="M25.6443 162.739C17.2821 162.739 4.52978 162.047 1.01767 158.055C0.658862 157.685 0.382129 157.232 0.208312 156.729C0.0344953 156.226 -0.0318737 155.687 0.0142047 155.152C0.442766 150.525 7.06979 148.007 14.094 145.331C21.1182 142.654 28.2365 139.966 29.2191 135.316C29.8776 132.311 28.8846 128.648 27.9229 125.109C26.6686 120.493 25.3725 115.707 27.4944 111.92C29.0937 109.062 32.4385 107.134 37.7171 106.022C57.8491 101.792 67.4133 113.258 67.5074 113.371L66.6921 114.142C66.6084 114.029 57.41 103.073 37.9262 107.179C32.9612 108.222 29.8462 109.969 28.4142 112.521C26.5432 115.923 27.7139 120.199 28.9578 124.78C30.003 128.478 30.996 132.3 30.2644 135.6C29.1041 140.873 21.6618 143.709 14.4703 146.442C8.07325 148.869 1.46713 151.387 1.05948 155.265C1.0409 155.627 1.09694 155.989 1.22352 156.325C1.35009 156.66 1.54401 156.961 1.79117 157.205C6.69349 162.785 32.7939 161.367 33.0552 161.356L33.1179 162.49C32.7521 162.569 29.7313 162.739 25.6443 162.739Z" fill="url(#paint21_linear)"/>
<path style="mix-blend-mode:multiply" opacity="0.5" d="M63.943 95.3274C63.943 95.3274 70.1519 106.237 82.2248 105.75C94.2976 105.262 100.736 93.8191 100.736 93.8191L65.6154 94.5336L63.943 95.3274Z" fill="url(#paint22_linear)"/>
<path d="M112.903 12.6276C112.903 12.6276 119.436 6.5034 127.443 5.44867C127.443 5.44867 129.889 6.74156 132.67 16.3135C135.45 25.8855 130.276 44.7686 130.276 44.7686L112.903 12.6276Z" fill="url(#paint23_linear)"/>
<path d="M127.474 5.44861C123.259 10.9743 120.966 17.9301 120.994 25.1028L123.502 26.8154L130.819 10.4387C130.819 10.4387 128.373 5.30117 127.474 5.44861Z" fill="url(#paint24_linear)"/>
<path d="M123.262 25.9988C123.262 25.9988 121.537 15.633 127.819 8.01172C127.819 8.01172 134.927 11.6409 137.864 25.1028C140.802 38.5648 133.15 46.651 133.15 46.651L123.262 25.9988Z" fill="url(#paint25_linear)"/>
<path d="M119.604 8.46533C118.402 9.16847 118.496 10.5861 120.994 10.2232C123.492 9.86027 124.861 7.75084 124.59 7.33122C124.318 6.9116 120.962 7.67145 119.604 8.46533Z" fill="white"/>
<path d="M58.079 14.1586C58.079 14.1586 51.546 8.04574 43.5392 6.97968C43.5392 6.97968 41.0933 8.27257 38.3129 17.8445C35.5324 27.4164 40.7065 46.2994 40.7065 46.2994L58.079 14.1586Z" fill="url(#paint26_linear)"/>
<path d="M43.5393 6.9797C47.7567 12.5083 50.0504 19.4686 50.0199 26.6452L47.5113 28.3577L40.2153 12.0378C40.2153 12.0378 42.6404 6.83226 43.5393 6.9797Z" fill="url(#paint27_linear)"/>
<path d="M47.7518 27.5298C47.7518 27.5298 49.4765 17.164 43.1839 9.54272C43.1839 9.54272 36.0865 13.1832 33.1493 26.6452C32.3153 30.5874 32.3842 34.6913 33.3499 38.598C34.3157 42.5046 36.1489 46.0951 38.6893 49.0553L47.7518 27.5298Z" fill="url(#paint28_linear)"/>
<path d="M51.3998 9.9964C52.6123 10.6995 52.5182 12.1172 50.0095 11.7656C47.5009 11.414 46.1525 9.28192 46.4242 8.87364C46.696 8.46536 50.0514 9.20253 51.3998 9.9964Z" fill="white"/>
<path d="M39.7344 79.7106C49.7481 104.775 124.705 96.9605 133.663 76.3082C143.436 53.8414 120.91 -1.80971 84.9947 0.787414C54.6505 2.96492 26.8358 47.4903 39.7344 79.7106Z" fill="url(#paint29_linear)"/>
<path d="M43.8529 73.5635C53.4276 94.1251 118.851 90.7227 128.415 71.8283C136.527 55.7693 117.356 6.90019 84.493 8.63539C51.6297 10.3706 34.6545 53.8299 43.8529 73.5635Z" fill="url(#paint30_linear)"/>
<path d="M95.5728 5.43718C94.8933 6.33316 102.89 10.0759 103.935 9.54282C104.98 9.00976 97.8619 2.47704 95.5728 5.43718Z" fill="white"/>
<path style="mix-blend-mode:screen" opacity="0.5" d="M55.4135 29.2424C54.6609 34.1304 63.2112 33.5747 76.8938 33.0871C93.3255 32.4973 109.841 47.8306 119.447 36.8296C121.036 35.0151 105.304 11.1759 86.3117 11.7089C67.3191 12.242 56.0407 24.9895 55.4135 29.2424Z" fill="url(#paint31_linear)"/>
<path style="mix-blend-mode:screen" opacity="0.5" d="M63.8489 80.3344C62.9813 83.8842 69.8279 87.434 86.6567 86.538C106.998 85.4039 111.315 80.8674 110.322 79.5519C109.715 78.7806 103.621 82.9542 86.918 78.9734C75.88 76.3536 64.821 76.6031 63.8489 80.3344Z" fill="url(#paint32_linear)"/>
<path style="mix-blend-mode:screen" opacity="0.2" d="M45.6716 69.2994C45.251 65.2946 45.2931 61.2485 45.7971 57.255C46.6333 50.3483 48.3475 45.9139 49.3614 46.5036C50.3753 47.0934 50.2185 53.8981 50.8248 60.5667C51.2952 65.7496 52.215 70.6263 52.215 70.6263C52.215 70.6263 47.8144 75.1854 45.6716 69.2994Z" fill="url(#paint33_linear)"/>
<path style="mix-blend-mode:multiply" opacity="0.5" d="M47.0514 88.1599C47.0514 88.1599 48.0966 86.9691 53.4902 83.51C57.1278 81.2417 60.9535 78.4404 61.497 77.4311C62.3019 75.0608 45.912 76.4671 45.912 76.4671L39.6404 79.7107C41.4051 83.1676 43.9565 86.0764 47.0514 88.1599Z" fill="url(#paint34_linear)"/>
<path d="M34.5082 35.7295C34.5082 35.7295 38.7416 38.6895 35.9716 45.5282C35.9716 45.5282 16.216 57.1983 17.3553 69.9117C18.3169 80.5271 45.5776 75.3895 45.5776 75.3895L46.6229 78.9506C46.6229 78.9506 23.4388 83.8727 15.4424 77.964C15.4424 77.964 12.7247 70.9551 19.4667 58.3097C23.8135 50.2855 28.8497 42.7251 34.5082 35.7295Z" fill="url(#paint35_linear)"/>
<path d="M42.191 74.4143C39.7346 77.4537 44.9609 80.7992 49.3197 81.3096C54.1906 81.888 62.835 79.7899 62.3124 74.505C61.7897 69.2202 48.0236 67.2468 42.191 74.4143Z" fill="url(#paint36_linear)"/>
<path d="M42.5253 74.9699C42.3686 75.8319 59.7514 76.1041 60.159 72.7017C60.5667 69.2993 43.6647 68.2332 42.5253 74.9699Z" fill="url(#paint37_linear)"/>
<path style="mix-blend-mode:screen" opacity="0.72" d="M133.589 14.0906C133.589 14.0906 131.29 10.9944 128.143 11.8223C124.997 12.6502 124.799 23.3675 126.68 23.6397C128.562 23.9119 129.356 17.697 130.788 16.733C132.03 16.132 133.403 15.9237 134.75 16.1319L133.589 14.0906Z" fill="url(#paint38_linear)"/>
<path style="mix-blend-mode:screen" opacity="0.72" d="M35.7834 18.6724C36.3178 18.1708 36.9581 17.8203 37.6474 17.6521C38.3368 17.4839 39.0538 17.5033 39.7346 17.7084C42.4523 18.1848 44.0202 24.2523 45.4104 23.6398C46.8006 23.0274 45.7658 13.172 42.0864 10.28C42.0864 10.28 37.3409 14.6803 35.7834 18.6724Z" fill="url(#paint39_linear)"/>
<path d="M30.7661 42.6591C30.7661 42.6591 21.3586 54.5671 21.9126 55.395C22.4666 56.2229 31.3723 43.7932 30.7661 42.6591Z" fill="url(#paint40_linear)"/>
<path d="M98.4265 54.2382C100.13 58.1736 115.067 58.684 117.471 52.469C119.635 46.8891 112.935 32.0548 104.008 33.4498C97.2244 34.4592 95.5311 47.5923 98.4265 54.2382Z" fill="url(#paint41_radial)"/>
<path d="M72.9636 54.2383C71.2494 58.1737 56.3125 58.684 53.9083 52.4691C51.7551 46.8892 58.0894 32.6901 67.3714 33.45C74.1657 34.0057 75.8486 47.5924 72.9636 54.2383Z" fill="url(#paint42_radial)"/>
<path d="M80.8032 66.7137C80.8032 66.7137 85.8519 61.44 89.6149 61.7576C93.3779 62.0751 90.6602 67.3715 90.6602 67.3715C87.3708 67.9602 84.0013 67.7354 80.8032 66.7137Z" fill="#2F95CD"/>
<path style="mix-blend-mode:multiply" opacity="0.3" d="M127.976 125.121C127.265 129.34 118.945 135.543 104.855 134.443C104.855 134.443 98.1443 128.568 98.8028 122.127C98.8028 122.127 98.1129 122.626 98.9596 122.127L101.75 122.648C107.764 124.124 113.98 124.359 120.074 123.34C129.586 121.56 122.907 108.404 120.074 104.06C127.537 112.747 128.635 121.219 127.976 125.121Z" fill="url(#paint43_linear)"/>
<path d="M106.026 136.122H105.9L105.524 136.269C105.504 136.277 105.481 136.277 105.461 136.269C104.792 136.553 103.58 137.086 102.127 137.755C101.426 138.072 100.674 138.447 99.8898 138.832C97.3743 140.156 94.9313 141.637 92.5729 143.267C92.5729 143.267 85.1411 139.569 84.7334 134.681C84.4512 131.279 86.3536 126.311 88.6741 123.34C89.4513 122.169 90.5483 121.292 91.8099 120.834C94.2031 120.45 96.6474 120.788 98.8759 121.809C100.377 121.838 101.841 122.327 103.097 123.22C104.353 124.113 105.35 125.373 105.973 126.856C106.645 128.29 106.999 129.874 107.008 131.482C107.017 133.09 106.681 134.679 106.026 136.122Z" fill="url(#paint44_linear)"/>
<path d="M106.026 136.122H105.9L105.524 136.269C105.504 136.277 105.481 136.277 105.461 136.269C104.792 136.609 103.883 137.131 102.89 137.732C99.2732 139.921 94.3918 143.278 94.3918 143.278H92.6044C93.9931 140.637 96.1569 138.577 98.7505 137.426C101.06 136.424 103.542 135.979 106.026 136.122Z" fill="url(#paint45_linear)"/>
<path style="mix-blend-mode:screen" opacity="0.72" d="M71.9288 159.586C73.4053 161.463 75.2188 162.993 77.2587 164.083C79.2985 165.173 81.5218 165.8 83.7926 165.926C91.768 166.539 95.3846 164.112 95.3846 164.112C94.873 163.218 94.1863 162.459 93.3733 161.886C92.5603 161.314 91.6411 160.943 90.6809 160.8C87.2734 160.199 83.3641 163.352 79.6325 162.807C76.9072 162.244 74.2977 161.153 71.9288 159.586Z" fill="url(#paint46_linear)"/>
<path style="mix-blend-mode:multiply" opacity="0.3" d="M129.962 160.483C130.168 162.551 129.63 164.625 128.462 166.275C127.294 167.924 125.585 169.022 123.691 169.34C119.905 169.822 116.078 169.799 112.297 169.272C113.698 169.385 120.147 169.828 121.6 167.979C123.241 165.904 123.335 162.445 125.185 160.959C127.036 159.473 128.792 160.573 129.367 160.471C129.565 160.451 129.765 160.455 129.962 160.483Z" fill="url(#paint47_linear)"/>
<path d="M119.51 157.806C119.238 158.668 121.987 161.14 123.555 160.505C125.123 159.87 123.9 157.398 123.147 156.876C122.395 156.354 119.74 157.103 119.51 157.806Z" fill="white"/>
<path d="M37.832 159.586C37.7484 160.38 42.0132 158.452 42.8076 156.978C43.602 155.504 43.8529 153.746 43.5811 153.644C43.3093 153.542 37.9784 158.339 37.832 159.586Z" fill="white"/>
<path d="M91.8099 122.127C91.5695 122.898 94.5694 126.425 95.322 125.903C96.0746 125.381 95.4579 122.875 93.9527 122.127C92.4476 121.378 91.9981 121.707 91.8099 122.127Z" fill="white"/>
<path d="M112.161 112.396C111.294 112.623 111.409 114.063 110.656 115.356C109.904 116.649 108.503 117.624 108.66 117.908C108.817 118.191 112.36 118.146 112.977 116.172C113.593 114.199 112.653 112.26 112.161 112.396Z" fill="white"/>
<path d="M111.231 110.922C110.607 110.203 110.256 109.255 110.249 108.268C110.468 107.633 111.461 108.37 111.639 109.005C111.816 109.64 111.681 111.024 111.231 110.922Z" fill="white"/>
<path d="M38.8982 121.832C38.9819 123.227 43.7588 123.51 44.2291 122.773C44.6995 122.036 43.8215 121.389 42.2431 121.106C40.6648 120.822 38.8878 121.491 38.8982 121.832Z" fill="white"/>
<path style="mix-blend-mode:multiply" opacity="0.3" d="M102.89 137.823C99.2732 140.012 94.3918 143.369 94.3918 143.369H92.5939C92.5939 143.369 85.1621 139.671 84.7544 134.783C84.4722 131.381 86.3746 126.414 88.6951 123.442C89.2491 125.019 92.4058 133.558 95.6356 136.099C96.5765 136.807 97.6454 137.29 98.7715 137.516C99.8818 137.765 101.014 137.879 102.148 137.857L102.89 137.823Z" fill="url(#paint48_linear)"/>
<path style="mix-blend-mode:multiply" opacity="0.3" d="M63.2844 115.719C63.2844 115.719 63.7443 117.318 68.3122 117.465C72.8801 117.613 76.6744 114.165 76.6744 114.165L67.9568 113.224L63.2844 115.719Z" fill="url(#paint49_linear)"/>
<path d="M53.4171 103.107C53.3544 103.811 59.7827 102.041 59.1033 99.7959C58.6748 98.3669 53.5321 101.849 53.4171 103.107Z" fill="white"/>
<path d="M63.2844 115.719L62.8767 110.967C64.2229 110.68 65.5917 110.535 66.9638 110.536C68.1867 110.683 70.6431 116.104 70.6431 116.104C70.6431 116.104 66.5561 118.305 63.2844 115.719Z" fill="url(#paint50_linear)"/>
<defs>
<radialGradient id="paint0_radial" cx="0" cy="0" r="1" gradientUnits="userSpaceOnUse" gradientTransform="translate(69 201) rotate(90) scale(11 56)">
<stop stop-color="#E8DCF7"/>
<stop offset="1" stop-color="#C4C4C4" stop-opacity="0"/>
</radialGradient>
<linearGradient id="paint1_linear" x1="52.769" y1="170.134" x2="56.6222" y2="141.847" gradientUnits="userSpaceOnUse">
<stop stop-color="#DAD3F9"/>
<stop offset="1" stop-color="#BE9DEA"/>
</linearGradient>
<linearGradient id="paint2_linear" x1="68.0195" y1="166.346" x2="68.0195" y2="142.507" gradientUnits="userSpaceOnUse">
<stop stop-color="#BE9DEA"/>
<stop offset="1" stop-color="#9E8CEF"/>
</linearGradient>
<linearGradient id="paint3_linear" x1="53.5007" y1="168.364" x2="53.5007" y2="143.505" gradientUnits="userSpaceOnUse">
<stop stop-color="#9D68C2"/>
<stop offset="1" stop-color="#CCEDFF"/>
</linearGradient>
<linearGradient id="paint4_linear" x1="2173.25" y1="5053.97" x2="2386.8" y2="3352.74" gradientUnits="userSpaceOnUse">
<stop stop-color="#DAD3F9"/>
<stop offset="1" stop-color="#BE9DEA"/>
</linearGradient>
<linearGradient id="paint5_linear" x1="82.9774" y1="167.162" x2="93.5676" y2="89.4625" gradientUnits="userSpaceOnUse">
<stop stop-color="#CBC1F7"/>
<stop offset="1" stop-color="#E8DCF7"/>
</linearGradient>
<linearGradient id="paint6_linear" x1="873.697" y1="2997.91" x2="1103.42" y2="2464.72" gradientUnits="userSpaceOnUse">
<stop stop-color="#BE9DEA"/>
<stop offset="1" stop-color="#9E8CEF"/>
</linearGradient>
<radialGradient id="paint7_radial" cx="0" cy="0" r="1" gradientUnits="userSpaceOnUse" gradientTransform="translate(84.7334 159.335) scale(30.9609 34.6003)">
<stop stop-color="#45FFCD"/>
<stop offset="1" stop-color="#22E0FF"/>
</radialGradient>
<linearGradient id="paint8_linear" x1="84.0396" y1="118.429" x2="84.0396" y2="167.337" gradientUnits="userSpaceOnUse">
<stop stop-color="#23E0FF"/>
<stop offset="1" stop-color="#23E0FF"/>
</linearGradient>
<linearGradient id="paint9_linear" x1="3300.97" y1="5078.13" x2="3433.98" y2="4141.73" gradientUnits="userSpaceOnUse">
<stop stop-color="#CBC1F7"/>
<stop offset="1" stop-color="#E8DCF7"/>
</linearGradient>
<linearGradient id="paint10_linear" x1="110.823" y1="160.959" x2="110.823" y2="136.473" gradientUnits="userSpaceOnUse">
<stop stop-color="#8DA4E5"/>
<stop offset="1" stop-color="#755CBB"/>
</linearGradient>
<linearGradient id="paint11_linear" x1="3247.55" y1="5042.14" x2="3509.89" y2="3568.7" gradientUnits="userSpaceOnUse">
<stop stop-color="#CBC1F7"/>
<stop offset="1" stop-color="#E8DCF7"/>
</linearGradient>
<linearGradient id="paint12_linear" x1="1431.79" y1="1278.03" x2="1439.83" y2="1185.08" gradientUnits="userSpaceOnUse">
<stop stop-color="#DAD3F9"/>
<stop offset="1" stop-color="#BE9DEA"/>
</linearGradient>
<linearGradient id="paint13_linear" x1="557.475" y1="1362.49" x2="571.586" y2="1243.47" gradientUnits="userSpaceOnUse">
<stop stop-color="#CBC1F7"/>
<stop offset="1" stop-color="#E8DCF7"/>
</linearGradient>
<linearGradient id="paint14_linear" x1="337.211" y1="686.4" x2="337.211" y2="659.716" gradientUnits="userSpaceOnUse">
<stop stop-color="#BE9DEA"/>
<stop offset="1" stop-color="#9E8CEF"/>
</linearGradient>
<linearGradient id="paint15_linear" x1="69.1555" y1="113.249" x2="69.1555" y2="150.635" gradientUnits="userSpaceOnUse">
<stop stop-color="#42E8E0"/>
<stop offset="1" stop-color="#40B6CB"/>
</linearGradient>
<linearGradient id="paint16_linear" x1="3678.45" y1="3121.7" x2="3678.45" y2="2669.25" gradientUnits="userSpaceOnUse">
<stop stop-color="#8DA4E5"/>
<stop offset="1" stop-color="#755CBB"/>
</linearGradient>
<linearGradient id="paint17_linear" x1="679.852" y1="2854.56" x2="679.852" y2="2432.2" gradientUnits="userSpaceOnUse">
<stop stop-color="#BE9DEA"/>
<stop offset="1" stop-color="#9E8CEF"/>
</linearGradient>
<linearGradient id="paint18_linear" x1="1076.96" y1="1586.29" x2="1076.96" y2="1450.56" gradientUnits="userSpaceOnUse">
<stop stop-color="#BE9DEA"/>
<stop offset="1" stop-color="#9E8CEF"/>
</linearGradient>
<linearGradient id="paint19_linear" x1="668.889" y1="2886.36" x2="741.268" y2="2473.19" gradientUnits="userSpaceOnUse">
<stop stop-color="#CBC1F7"/>
<stop offset="1" stop-color="#E8DCF7"/>
</linearGradient>
<linearGradient id="paint20_linear" x1="69.0575" y1="113.201" x2="69.0575" y2="121.436" gradientUnits="userSpaceOnUse">
<stop offset="0.0965816" stop-color="#42E8E0"/>
<stop offset="1" stop-color="#393091"/>
</linearGradient>
<linearGradient id="paint21_linear" x1="25.1001" y1="105.086" x2="25.1001" y2="162.739" gradientUnits="userSpaceOnUse">
<stop stop-color="#180D5B"/>
<stop offset="0.23238" stop-color="#24126A" stop-opacity="0.94"/>
<stop offset="0.560511" stop-color="#1F72BA"/>
<stop offset="0.857392" stop-color="#42E8E0"/>
</linearGradient>
<linearGradient id="paint22_linear" x1="2961.8" y1="1200.55" x2="2961.8" y2="1074.76" gradientUnits="userSpaceOnUse">
<stop stop-color="#8DA4E5"/>
<stop offset="1" stop-color="#755CBB"/>
</linearGradient>
<linearGradient id="paint23_linear" x1="123.262" y1="44.7686" x2="123.262" y2="5.44867" gradientUnits="userSpaceOnUse">
<stop stop-color="#B9ACF4"/>
<stop offset="1" stop-color="#E1D1F5"/>
</linearGradient>
<linearGradient id="paint24_linear" x1="1304.32" y1="497.594" x2="1304.32" y2="94.7715" gradientUnits="userSpaceOnUse">
<stop stop-color="#BE9DEA"/>
<stop offset="1" stop-color="#9E8CEF"/>
</linearGradient>
<linearGradient id="paint25_linear" x1="2061.06" y1="1573.68" x2="2061.06" y2="257.235" gradientUnits="userSpaceOnUse">
<stop stop-color="#45FFCD"/>
<stop offset="1" stop-color="#22E0FF"/>
</linearGradient>
<linearGradient id="paint26_linear" x1="10146.2" y1="1588.03" x2="10146.2" y2="224.811" gradientUnits="userSpaceOnUse">
<stop stop-color="#B9ACF4"/>
<stop offset="1" stop-color="#E1D1F5"/>
</linearGradient>
<linearGradient id="paint27_linear" x1="4526.29" y1="528.462" x2="4526.29" y2="125.428" gradientUnits="userSpaceOnUse">
<stop stop-color="#BE9DEA"/>
<stop offset="1" stop-color="#9E8CEF"/>
</linearGradient>
<linearGradient id="paint28_linear" x1="7348.64" y1="1694.36" x2="7348.64" y2="317.741" gradientUnits="userSpaceOnUse">
<stop stop-color="#45FFCD"/>
<stop offset="1" stop-color="#22E0FF"/>
</linearGradient>
<linearGradient id="paint29_linear" x1="7861.46" y1="8017.65" x2="8817.02" y2="30.8078" gradientUnits="userSpaceOnUse">
<stop stop-color="#CBC1F7"/>
<stop offset="1" stop-color="#E8DCF7"/>
</linearGradient>
<linearGradient id="paint30_linear" x1="51625.8" y1="7135.09" x2="51625.8" y2="1638.41" gradientUnits="userSpaceOnUse">
<stop stop-color="#0665BD"/>
<stop offset="1" stop-color="#1A1F77"/>
</linearGradient>
<linearGradient id="paint31_linear" x1="55.3403" y1="26.2597" x2="119.53" y2="26.2597" gradientUnits="userSpaceOnUse">
<stop/>
<stop offset="1" stop-color="#6A9BFF"/>
</linearGradient>
<linearGradient id="paint32_linear" x1="2911.55" y1="753.937" x2="4995.21" y2="753.937" gradientUnits="userSpaceOnUse">
<stop/>
<stop offset="1" stop-color="#6A9BFF"/>
</linearGradient>
<linearGradient id="paint33_linear" x1="48.439" y1="72.275" x2="50.3529" y2="46.5329" gradientUnits="userSpaceOnUse">
<stop/>
<stop offset="1" stop-color="#00E3FF"/>
</linearGradient>
<linearGradient id="paint34_linear" x1="1099.55" y1="1009.74" x2="1099.55" y2="880.563" gradientUnits="userSpaceOnUse">
<stop stop-color="#8DA4E5"/>
<stop offset="1" stop-color="#755CBB"/>
</linearGradient>
<linearGradient id="paint35_linear" x1="928.174" y1="3250.83" x2="1247.52" y2="1463.15" gradientUnits="userSpaceOnUse">
<stop stop-color="#BE9DEA"/>
<stop offset="1" stop-color="#9E8CEF"/>
</linearGradient>
<linearGradient id="paint36_linear" x1="816.538" y1="-582.816" x2="849.181" y2="-709.705" gradientUnits="userSpaceOnUse">
<stop stop-color="#DD1A8F"/>
<stop offset="1" stop-color="#FE117E"/>
</linearGradient>
<linearGradient id="paint37_linear" x1="908.923" y1="433.389" x2="908.923" y2="406.895" gradientUnits="userSpaceOnUse">
<stop stop-color="#D93DE3"/>
<stop offset="1" stop-color="#FF6DBA"/>
</linearGradient>
<linearGradient id="paint38_linear" x1="125.478" y1="17.663" x2="134.75" y2="17.663" gradientUnits="userSpaceOnUse">
<stop/>
<stop offset="1" stop-color="#D4E2FF"/>
</linearGradient>
<linearGradient id="paint39_linear" x1="35.7834" y1="16.9599" x2="45.9957" y2="16.9599" gradientUnits="userSpaceOnUse">
<stop stop-color="#D4E2FF"/>
<stop offset="1"/>
</linearGradient>
<linearGradient id="paint40_linear" x1="246.247" y1="658.693" x2="246.247" y2="514.841" gradientUnits="userSpaceOnUse">
<stop stop-color="#CBC1F7"/>
<stop offset="1" stop-color="#E8DCF7"/>
</linearGradient>
<radialGradient id="paint41_radial" cx="0" cy="0" r="1" gradientUnits="userSpaceOnUse" gradientTransform="translate(2243.29 1141.8) scale(307.971 352.492)">
<stop stop-color="#45FFCD"/>
<stop offset="1" stop-color="#22E0FF"/>
</radialGradient>
<radialGradient id="paint42_radial" cx="0" cy="0" r="1" gradientUnits="userSpaceOnUse" gradientTransform="translate(-18218.1 1139.18) rotate(180) scale(308.447 351.799)">
<stop stop-color="#45FFCD"/>
<stop offset="1" stop-color="#22E0FF"/>
</radialGradient>
<linearGradient id="paint43_linear" x1="3307.86" y1="3705.64" x2="3307.86" y2="2887.02" gradientUnits="userSpaceOnUse">
<stop stop-color="#9D68C2"/>
<stop offset="1" stop-color="#CCEDFF"/>
</linearGradient>
<linearGradient id="paint44_linear" x1="2103.09" y1="2967.5" x2="2160.25" y2="2518.88" gradientUnits="userSpaceOnUse">
<stop stop-color="#CBC1F7"/>
<stop offset="1" stop-color="#E8DCF7"/>
</linearGradient>
<linearGradient id="paint45_linear" x1="1367.49" y1="1039.64" x2="1367.49" y2="993.603" gradientUnits="userSpaceOnUse">
<stop stop-color="#BE9DEA"/>
<stop offset="1" stop-color="#9E8CEF"/>
</linearGradient>
<linearGradient id="paint46_linear" x1="1948.86" y1="1098.23" x2="1948.86" y2="1061.66" gradientUnits="userSpaceOnUse">
<stop stop-color="#D4E2FF"/>
<stop offset="1"/>
</linearGradient>
<linearGradient id="paint47_linear" x1="2164.3" y1="1577.28" x2="2164.3" y2="1497.58" gradientUnits="userSpaceOnUse">
<stop stop-color="#9D68C2"/>
<stop offset="1" stop-color="#CCEDFF"/>
</linearGradient>
<linearGradient id="paint48_linear" x1="1714.51" y1="2630.18" x2="1714.51" y2="2279.87" gradientUnits="userSpaceOnUse">
<stop stop-color="#9D68C2"/>
<stop offset="1" stop-color="#CCEDFF"/>
</linearGradient>
<linearGradient id="paint49_linear" x1="959.61" y1="550.408" x2="959.61" y2="534.528" gradientUnits="userSpaceOnUse">
<stop stop-color="#8DA4E5"/>
<stop offset="1" stop-color="#755CBB"/>
</linearGradient>
<linearGradient id="paint50_linear" x1="65.7644" y1="110.536" x2="65.7644" y2="116.977" gradientUnits="userSpaceOnUse">
<stop stop-color="#180D5B"/>
<stop offset="0.23238" stop-color="#24126A" stop-opacity="0.94"/>
<stop offset="0.560511" stop-color="#1F72BA"/>
<stop offset="0.857392" stop-color="#42E8E0"/>
</linearGradient>
</defs>
</svg>
