<svg width="146" height="222" viewBox="0 0 146 222" fill="none" xmlns="http://www.w3.org/2000/svg">
<path d="M120.231 109.671C120.231 109.671 120.231 117.609 116.951 122.571C115.091 125.392 111.821 127.007 108.061 127.493C105.011 127.845 101.919 127.56 98.9913 126.657C91.9213 124.536 87.2713 113.825 84.7813 103.308C82.2913 92.7915 88.2813 89.5811 89.1313 89.873C90.7013 90.4275 94.6113 95.389 99.1313 99.8642C101.243 102.082 103.623 104.043 106.221 105.701C110.474 108.149 115.293 109.515 120.231 109.671Z" fill="url(#paint0_linear)"/>
<path style="mix-blend-mode:multiply" opacity="0.3" d="M108.061 127.493C105.011 127.845 101.919 127.56 98.9913 126.657C91.9213 124.536 87.2713 113.825 84.7813 103.308C82.2913 92.7915 88.2813 89.5811 89.1313 89.873C90.7013 90.4275 94.6113 95.389 99.1313 99.8642C96.8109 105.51 96.0925 111.659 97.0513 117.667C98.6213 127.882 108.061 127.493 108.061 127.493Z" fill="url(#paint1_linear)"/>
<path d="M69.3214 155.414C69.3214 162.224 66.8914 178.51 61.9414 177.683C60.8714 177.508 59.5914 176.447 58.2214 174.764C54.0414 169.754 48.9614 159.373 46.0914 152.262C44.5214 148.37 43.6114 145.452 43.8614 144.927C45.4114 141.58 67.4714 151.221 68.8614 152.466C69.1814 152.739 69.3214 153.818 69.3214 155.414Z" fill="url(#paint2_linear)"/>
<path d="M43.8614 144.956C42.1714 148.108 62.2314 157.671 69.1514 153.108C69.1514 153.108 46.1114 140.773 43.8614 144.956Z" fill="url(#paint3_linear)"/>
<path style="mix-blend-mode:multiply" opacity="0.3" d="M53.7414 155.317C52.9614 156.688 56.9714 172.04 61.9414 177.692C60.8714 177.517 59.5914 176.457 58.2214 174.774C57.1114 172.157 55.4614 168.265 53.8614 164.374C51.8758 160.001 49.2595 155.926 46.0914 152.272C44.5214 148.38 43.6114 145.462 43.8614 144.936C45.4114 141.59 67.4714 151.231 68.8614 152.476C69.1314 152.719 69.2714 153.799 69.2714 155.395C69.3214 155.414 54.5214 153.926 53.7414 155.317Z" fill="url(#paint4_linear)"/>
<path d="M93.2313 148.088C93.0513 148.692 92.8613 149.324 92.6613 149.976C89.6613 159.899 84.3313 174.297 80.3413 179.268C79.3413 180.446 78.5113 181.088 77.7613 180.99C77.5554 180.961 77.3559 180.899 77.1713 180.805C76.353 180.34 75.6792 179.667 75.2213 178.86C71.3313 173.023 68.5413 156.484 69.1113 151.834C69.1168 151.421 69.2453 151.019 69.4813 150.676C72.7413 147.534 94.1714 138.409 95.0214 139.975C95.2514 140.432 94.5213 143.623 93.2313 148.088Z" fill="url(#paint5_linear)"/>
<path d="M69.1214 151.814C68.2914 153.147 89.4414 153.04 95.0314 139.994C95.0314 139.994 76.8714 139.333 69.1214 151.814Z" fill="url(#paint6_linear)"/>
<path d="M79.6712 158.274C78.7812 158.391 77.5312 164.899 78.8812 165.473C80.2312 166.047 81.7112 157.982 79.6712 158.274Z" fill="white"/>
<path style="mix-blend-mode:multiply" opacity="0.3" d="M93.2313 148.088C93.2313 148.088 81.4213 149.606 77.9813 154.412C74.5413 159.218 73.5113 171.719 75.2313 178.889C71.3413 173.052 68.5513 156.513 69.1213 151.863C69.1268 151.451 69.2554 151.048 69.4913 150.705C72.7513 147.563 94.1813 138.438 95.0313 140.004C95.2513 140.432 94.5213 143.623 93.2313 148.088Z" fill="url(#paint7_linear)"/>
<path d="M47.8813 93.064C47.8813 98.9011 47.0113 107.404 44.2713 114.253C39.7513 125.596 32.9513 139.868 32.7413 140.315C28.5913 142.777 23.6213 142.65 20.4513 142.203C19.3792 142.059 18.3195 141.838 17.2812 141.541C18.6894 131.915 21.6385 122.563 26.0213 113.825C29.4889 106.989 33.6531 100.51 38.4513 94.4843C38.4767 94.4668 38.4973 94.4434 38.5113 94.4162C38.5556 94.3474 38.6057 94.2823 38.6612 94.2216L38.7413 94.1146C38.7762 94.0895 38.8037 94.056 38.8213 94.0173L38.9213 93.8909C43.0313 88.8126 46.3713 85.7384 47.0713 86.1081C47.5213 86.3026 47.8913 89.085 47.8813 93.064Z" fill="url(#paint8_linear)"/>
<path d="M17.3313 141.035C17.3313 141.035 22.6813 132.455 28.2013 133.564C33.7213 134.673 32.7313 140.374 32.7313 140.374C30.4573 141.808 27.831 142.625 25.1237 142.742C22.4164 142.858 19.7263 142.269 17.3313 141.035Z" fill="url(#paint9_linear)"/>
<path style="mix-blend-mode:multiply" opacity="0.3" d="M47.8812 93.064C47.8812 98.9011 47.0112 107.404 44.2712 114.253C39.7512 125.596 32.9512 139.868 32.7412 140.315L20.4412 142.251C19.3691 142.108 18.3095 141.887 17.2712 141.59C18.6793 131.964 21.6284 122.612 26.0112 113.873C29.4788 107.038 33.643 100.559 38.4412 94.533C36.1312 97.5099 26.4412 110.459 23.8312 121.462C20.8312 133.982 32.8312 129.167 37.7312 121.462C42.6312 113.757 47.7312 93.1029 47.7312 93.1029L47.8812 93.064Z" fill="url(#paint10_linear)"/>
<path d="M34.5013 113.066C33.5013 112.716 38.5613 101.625 40.1213 101.518C41.6813 101.411 35.3313 113.377 34.5013 113.066Z" fill="white"/>
<path d="M33.9912 114.262C33.2212 113.863 32.4912 115.936 33.2012 116.208C33.9112 116.481 34.8612 114.71 33.9912 114.262Z" fill="white"/>
<path d="M93.8013 10.8093C93.8013 10.8093 100.061 5.5559 107.711 4.64142C107.711 4.64142 110.051 5.7602 112.711 13.9614C115.371 22.1625 110.421 38.38 110.421 38.38L93.8013 10.8093Z" fill="url(#paint11_linear)"/>
<path d="M107.711 4.64144C103.685 9.38778 101.494 15.3566 101.521 21.5107L103.911 22.9797L110.911 8.93172C110.911 8.93172 108.621 4.5247 107.711 4.64144Z" fill="url(#paint12_linear)"/>
<path d="M103.681 22.2695C103.681 22.2695 102.041 13.3776 108.051 6.84979C108.051 6.84979 114.841 9.96292 117.661 21.5107C120.481 33.0584 113.151 39.9949 113.151 39.9949L103.681 22.2695Z" fill="url(#paint13_linear)"/>
<path d="M100.191 7.22919C99.0313 7.84209 99.1313 9.04841 101.521 8.74683C103.911 8.44525 105.211 6.6163 104.951 6.26608C104.691 5.91585 101.491 6.5482 100.191 7.22919Z" fill="white"/>
<path d="M41.3314 12.1226C41.3314 12.1226 35.0713 6.86923 27.4213 5.96448C27.4213 5.96448 25.0713 7.07353 22.4213 15.2844C19.7713 23.4953 24.6213 39.6933 24.6213 39.6933L41.3314 12.1226Z" fill="url(#paint14_linear)"/>
<path d="M27.4212 5.96446C31.4538 10.7044 33.6481 16.6712 33.6212 22.824L31.2312 24.293L24.2312 10.245C24.2312 10.245 26.5612 5.83799 27.4212 5.96446Z" fill="url(#paint15_linear)"/>
<path d="M31.4412 23.5634C31.4412 23.5634 33.0912 14.6812 27.0812 8.14368C27.0812 8.14368 20.2812 11.2568 17.4712 22.8045C16.6716 26.1892 16.7366 29.7129 17.6606 33.0675C18.5845 36.422 20.3392 39.5053 22.7712 42.0475L31.4412 23.5634Z" fill="url(#paint16_linear)"/>
<path d="M34.9412 8.54254C36.1013 9.15543 36.0012 10.3715 33.6112 10.0602C31.2212 9.74886 29.9212 7.93937 30.1812 7.57942C30.4412 7.21947 33.6212 7.86154 34.9412 8.54254Z" fill="white"/>
<path d="M94.7512 133.612C92.8512 144.547 82.7512 151.834 68.3512 151.834C55.7912 151.834 45.1412 147.281 42.3512 137.241C39.5612 127.201 40.6312 108.678 44.3512 97.1207C44.8981 95.4236 45.5664 93.7657 46.3512 92.1592C47.0454 90.7529 47.8372 89.3943 48.7212 88.0927C53.3112 81.38 60.0212 76.9924 67.6012 76.9924C71.015 76.9047 74.4061 77.5576 77.5283 78.9038C80.6504 80.25 83.4252 82.2557 85.6512 84.7752C87.5611 86.9611 89.0789 89.4441 90.1412 92.1203C91.3983 95.2684 92.434 98.496 93.2412 101.781C93.2412 101.781 93.2412 101.839 93.2412 101.878C95.8736 112.258 96.3866 123.04 94.7512 133.612Z" fill="url(#paint17_linear)"/>
<path style="mix-blend-mode:multiply" opacity="0.3" d="M94.7512 133.612C92.8512 144.547 82.7512 151.834 68.3512 151.834C55.7912 151.834 45.1412 147.281 42.3512 137.241C39.5612 127.201 40.6312 108.678 44.3512 97.1207C44.8981 95.4235 45.5664 93.7656 46.3512 92.1592C46.3512 92.1592 38.7512 116.675 44.8212 132.289C50.8912 147.904 79.2112 147.573 88.8212 137.154C97.9312 127.279 93.7212 104.077 93.2912 101.868C95.9082 112.255 96.4042 123.04 94.7512 133.612Z" fill="url(#paint18_linear)"/>
<path d="M42.8714 127.114C45.0214 112.433 57.1314 102.491 70.5714 103.765C85.0714 105.098 92.8614 118.562 92.6514 130.11C92.4414 141.658 83.7614 150.676 68.2114 150.676C52.6614 150.676 40.8614 140.85 42.8714 127.114Z" fill="url(#paint19_linear)"/>
<path d="M43.0113 128.33C45.1613 113.649 57.2613 103.707 70.7113 104.981C85.2013 106.314 92.9913 119.778 92.7813 131.326C92.5713 142.874 83.9013 151.892 68.3513 151.892C52.8013 151.892 41.0013 142.066 43.0113 128.33Z" fill="url(#paint20_radial)"/>
<path style="mix-blend-mode:multiply" opacity="0.5" d="M85.7014 84.853C82.6314 89.5519 65.7013 92.2759 55.9213 91.4101C47.4113 90.6512 48.7013 88.4137 48.7613 88.1413C53.3513 81.4286 60.0614 77.041 67.6414 77.041C71.0592 76.9554 74.4538 77.6122 77.5779 78.9635C80.702 80.3149 83.4772 82.3269 85.7014 84.853Z" fill="url(#paint21_linear)"/>
<path d="M79.6913 92.9375C78.9013 93.1904 78.8613 99.368 79.6913 100.36C80.5213 101.353 81.8314 101.051 82.2714 99.5917C82.7114 98.1325 80.8813 92.5581 79.6913 92.9375Z" fill="white"/>
<path d="M81.1414 102.004C80.4814 102.16 80.4114 103.687 80.7114 104.223C80.8218 104.338 80.9594 104.426 81.1124 104.478C81.2653 104.53 81.4291 104.546 81.5895 104.523C81.7499 104.5 81.9022 104.439 82.0332 104.346C82.1641 104.253 82.2699 104.131 82.3414 103.989C82.5314 103.337 81.8014 101.849 81.1414 102.004Z" fill="white"/>
<path style="mix-blend-mode:screen" opacity="0.72" d="M51.5212 143.283C51.5212 143.283 54.9912 149.168 67.9312 149.217C80.8712 149.266 86.1312 141.775 86.1312 141.775C83.9367 142.951 81.5233 143.689 79.0321 143.948C76.5409 144.207 74.0216 143.981 71.6212 143.283C63.0912 141.016 54.6212 139.732 51.5212 143.283Z" fill="url(#paint22_linear)"/>
<path style="mix-blend-mode:screen" opacity="0.72" d="M48.1513 119.02C50.7013 122.979 61.2213 120.868 73.0713 121.997C84.9213 123.125 86.9312 126.861 89.4312 126.112C91.9312 125.363 87.9812 107.997 70.2812 106.82C52.5812 105.643 47.5113 118.027 48.1513 119.02Z" fill="url(#paint23_linear)"/>
<path d="M23.7512 68.3146C33.3312 89.8146 105.041 83.1117 113.611 65.4544C122.981 46.1336 101.441 -1.614 67.0712 0.613829C38.0412 2.53035 11.4412 40.7051 23.7512 68.3146Z" fill="url(#paint24_linear)"/>
<path d="M27.7113 65.3085C36.8713 82.9073 99.4713 80.0374 108.621 63.82C116.391 50.0541 98.0513 8.13397 66.6213 9.63217C35.1913 11.1304 18.9213 48.3906 27.7113 65.3085Z" fill="url(#paint25_linear)"/>
<path d="M95.6712 44.5284C94.4412 47.7388 77.9312 47.3593 77.9512 46.2114C78.0512 39.7906 81.5712 31.3755 88.1612 31.4338C94.9712 31.4922 97.9712 38.5453 95.6712 44.5284Z" fill="url(#paint26_linear)"/>
<path d="M40.0413 44.9661C41.4613 48.1085 57.9214 46.834 57.8314 45.6763C57.3714 39.2749 53.3613 31.0835 46.7813 31.4824C39.9913 31.9007 37.4013 39.129 40.0413 44.9661Z" fill="url(#paint27_linear)"/>
<path d="M58.1211 56.8252C55.6311 57.4089 60.8211 65.4836 69.1211 65.4836C76.5211 65.4836 80.6811 57.1949 79.7511 56.8252C78.8211 56.4555 74.3711 58.6931 68.2112 58.6931C62.0512 58.6931 59.1611 56.582 58.1211 56.8252Z" fill="#2F95CD"/>
<path d="M17.2712 141.551C17.2712 141.551 20.5712 136.998 25.3412 136.395C30.1112 135.792 31.8212 137.066 32.7312 140.286C33.6412 143.506 26.8812 155.404 18.4812 164.345C14.8512 164.637 13.7612 160.307 13.2312 157.535C13.2312 155.132 15.6212 145.374 17.2712 141.551Z" fill="url(#paint28_linear)"/>
<path d="M28.8511 136.414C28.8511 136.414 19.8512 148.497 17.0612 155.463C15.5312 159.218 14.6611 161.679 14.6611 161.679C14.6611 161.679 16.9811 167.409 20.8411 162.652C26.3011 155.842 33.6211 145.647 32.2911 140.734C31.1711 136.482 30.4111 135.694 28.8511 136.414Z" fill="url(#paint29_linear)"/>
<path d="M113.621 108.678C109.521 109.924 109.031 123.466 112.941 125.217C116.851 126.968 122.311 115.089 120.281 109.651C120.231 109.671 116.621 107.764 113.621 108.678Z" fill="url(#paint30_linear)"/>
<path d="M113.931 110.254C113.036 111.249 112.414 112.447 112.122 113.738C111.83 115.029 111.878 116.37 112.261 117.638C113.511 122.211 119.761 125.295 127.571 125.197C135.381 125.1 140.381 119.613 141.471 116.276C141.471 116.276 140.071 113.474 132.411 111.752C127.211 110.575 120.231 109.671 120.231 109.671C118.113 109.39 115.957 109.59 113.931 110.254Z" fill="url(#paint31_linear)"/>
<path d="M112.621 118.514C117.501 119.85 122.626 120.109 127.621 119.273C135.741 117.852 133.271 112.21 133.271 112.21C130.839 111.046 128.28 110.155 125.641 109.554C122.001 108.834 114.101 109.554 114.101 109.554C112.862 110.672 112.042 112.162 111.774 113.786C111.506 115.41 111.804 117.074 112.621 118.514Z" fill="url(#paint32_linear)"/>
<path style="mix-blend-mode:multiply" opacity="0.5" d="M117.561 123.213C117.561 123.213 118.291 117.59 117.621 114.885C117.621 114.885 119.921 120.722 120.231 124.244L117.561 123.213Z" fill="url(#paint33_linear)"/>
<path d="M140.871 143.224L137.661 143.448L140.291 143.944L139.841 147.388H139.541C138.941 147.388 137.481 147.515 135.541 147.602C129.66 147.937 123.761 147.859 117.891 147.369C117.891 147.369 120.801 130.052 117.891 116.549L117.601 113.766L117.541 113.241L129.041 112.093C132.935 118.519 136.383 125.192 139.361 132.066C140.261 134.206 141.091 136.375 141.771 138.477L140.871 143.224Z" fill="url(#paint34_linear)"/>
<path style="mix-blend-mode:multiply" opacity="0.5" d="M139.361 132.046L122.621 134.819L119.191 116.899L133.621 121.996C133.621 121.996 138.701 130.431 139.361 132.046Z" fill="url(#paint35_linear)"/>
<path style="mix-blend-mode:multiply" opacity="0.5" d="M119.561 146.143C119.561 146.143 129.941 147.33 139.841 147.369H139.541C138.941 147.369 137.481 147.495 135.541 147.583C130.491 147.826 122.261 148.069 117.891 147.349C117.891 147.349 120.801 130.032 117.891 116.529L117.601 113.747L118.601 113.134L137.711 129.906L139.341 131.988C140.241 134.128 141.071 136.297 141.751 138.399H124.151L122.621 141.814L137.691 143.467L122.291 142.495L119.561 146.143Z" fill="url(#paint36_linear)"/>
<path d="M117.561 113.28C117.561 113.28 122.111 110.361 131.191 109.748C131.191 109.748 139.961 119.068 145.191 129.954L122.891 130.538C122.891 130.538 120.671 119.068 117.561 113.28Z" fill="url(#paint37_linear)"/>
<path style="mix-blend-mode:multiply" opacity="0.5" d="M119.201 112.443C121.484 114.752 124.339 116.451 127.491 117.376C132.181 118.485 134.921 114.116 134.921 114.116L133.301 112.093L119.201 112.443Z" fill="url(#paint38_linear)"/>
<path d="M114.531 109.884C113.361 106.372 129.621 106.411 131.791 107.773C132.791 108.377 134.391 110.458 133.711 111.733C133.031 113.007 127.711 113.776 125.461 113.562C123.211 113.348 115.311 112.19 114.531 109.884Z" fill="url(#paint39_linear)"/>
<path d="M126.981 113.581C126.981 113.581 126.821 110.118 128.671 108.717C129.15 108.318 129.728 108.048 130.347 107.934C130.966 107.819 131.606 107.865 132.201 108.065C132.201 108.065 134.621 109.816 133.711 111.714C132.801 113.611 128.191 114.039 126.981 113.581Z" fill="url(#paint40_linear)"/>
<g style="mix-blend-mode:multiply" opacity="0.5">
<path d="M127.021 116.529C123.621 118.047 124.891 125.382 129.221 127.347C133.551 129.312 136.861 124.711 136.291 120.664C135.721 116.617 129.291 115.517 127.021 116.529Z" fill="#D9D2EC"/>
</g>
<path d="M129.941 118.65C130.138 118.606 130.339 118.583 130.541 118.582C130.761 118.582 131.001 118.582 131.261 118.582L131.561 119.856C131.437 119.806 131.305 119.773 131.171 119.759C131.051 119.75 130.931 119.75 130.811 119.759C130.691 119.749 130.571 119.749 130.451 119.759C130.304 119.827 130.187 119.945 130.121 120.09C130.056 120.252 130.056 120.433 130.121 120.596C130.165 120.751 130.256 120.89 130.381 120.995C130.5 121.102 130.635 121.19 130.781 121.257C130.94 121.338 131.104 121.41 131.271 121.471C131.449 121.543 131.62 121.631 131.781 121.734C131.953 121.842 132.108 121.973 132.241 122.123C132.396 122.308 132.515 122.519 132.591 122.746C132.668 122.961 132.698 123.19 132.681 123.417C132.674 123.612 132.626 123.804 132.541 123.981C132.461 124.144 132.353 124.292 132.221 124.419C132.098 124.545 131.956 124.653 131.801 124.74L133.141 127.162H131.921L131.291 124.954H131.131H130.841H130.471C130.339 124.946 130.21 124.913 130.091 124.857L129.771 123.631C129.937 123.686 130.108 123.725 130.281 123.748C130.428 123.757 130.575 123.757 130.721 123.748C130.867 123.741 131.011 123.718 131.151 123.68C131.242 123.597 131.306 123.49 131.336 123.373C131.366 123.256 131.361 123.133 131.321 123.018C131.281 122.888 131.201 122.772 131.091 122.687C130.957 122.591 130.817 122.503 130.671 122.425L130.141 122.162C129.948 122.074 129.766 121.963 129.601 121.831C129.419 121.699 129.254 121.546 129.111 121.374C128.963 121.176 128.848 120.956 128.771 120.722C128.641 120.35 128.641 119.946 128.771 119.574C128.887 119.241 129.116 118.956 129.421 118.767L128.331 116.159L129.331 116.432L129.941 118.65Z" fill="white"/>
<path d="M77.2011 4.64141C76.5411 5.40023 84.1512 8.61063 85.2012 8.16312C86.2512 7.71561 79.3911 2.10228 77.2011 4.64141Z" fill="white"/>
<path style="mix-blend-mode:screen" opacity="0.5" d="M38.7512 27.2894C38.0312 31.4922 46.2112 31.0155 59.2912 30.5874C75.0212 30.0815 90.8212 43.2345 100.011 33.7978C101.531 32.2413 86.4712 11.7919 68.3012 12.2491C50.1312 12.7063 39.3712 23.6412 38.7512 27.2894Z" fill="url(#paint41_linear)"/>
<path style="mix-blend-mode:screen" opacity="0.5" d="M46.8512 71.1261C46.0212 74.1516 52.6212 77.2161 68.6212 76.4475C88.0912 75.4747 92.2212 71.5833 91.2612 70.4548C90.6912 69.7933 84.8612 73.3734 68.8712 69.9587C58.3612 67.7017 47.7212 67.9157 46.8512 71.1261Z" fill="url(#paint42_linear)"/>
<path style="mix-blend-mode:screen" opacity="0.2" d="M29.4612 61.6603C29.066 58.2204 29.1198 54.7457 29.6212 51.3189C30.4212 45.3942 32.0512 41.5904 33.0312 42.106C34.0112 42.6216 33.8512 48.449 34.4312 54.1694C34.8712 58.6153 35.7512 62.7888 35.7512 62.7888C35.7512 62.7888 31.5112 66.7094 29.4612 61.6603Z" fill="url(#paint43_linear)"/>
<path style="mix-blend-mode:multiply" opacity="0.5" d="M30.8012 75.6013C30.8012 75.6013 31.8012 74.6285 36.9612 71.6127C40.4512 69.6669 44.1012 67.264 44.6212 66.3982C45.3912 64.3649 29.7212 65.5615 29.7212 65.5615L23.7212 68.3439C25.4079 71.3098 27.8448 73.8078 30.8012 75.6013Z" fill="url(#paint44_linear)"/>
<path d="M18.8213 30.6263C18.8213 30.6263 22.8213 33.1557 20.2113 39.022C20.2113 39.022 1.32127 49.0327 2.41127 59.9481C3.32127 69.054 29.4113 64.6469 29.4113 64.6469L30.3513 67.6822C30.3513 67.6822 8.17132 71.9044 0.52132 66.8261C0.52132 66.8261 -2.0887 60.8139 4.37129 49.9763C8.546 43.0949 13.3845 36.6157 18.8213 30.6263Z" fill="url(#paint45_linear)"/>
<path d="M26.1312 63.8006C23.7512 66.4176 28.8012 69.2777 32.9512 69.7252C37.6112 70.2117 45.8812 68.4216 45.3812 63.8881C44.8812 59.3547 31.7012 57.6619 26.1312 63.8006Z" fill="url(#paint46_linear)"/>
<path d="M26.4413 64.2773C26.3013 65.0264 42.9313 65.2501 43.3213 62.3316C43.7113 59.413 27.5313 58.5082 26.4413 64.2773Z" fill="url(#paint47_linear)"/>
<path style="mix-blend-mode:screen" opacity="0.72" d="M113.621 12.0643C113.621 12.0643 111.411 9.40837 108.411 10.1186C105.411 10.8287 105.211 20.032 107.001 20.2558C108.791 20.4795 109.561 15.1677 110.941 14.331C112.126 13.8165 113.438 13.641 114.721 13.8252L113.621 12.0643Z" fill="url(#paint48_linear)"/>
<path style="mix-blend-mode:screen" opacity="0.72" d="M19.9912 15.9849C20.4979 15.5533 21.1054 15.2487 21.7607 15.0978C22.4161 14.9469 23.0994 14.9542 23.7512 15.1191C26.3612 15.5374 27.8612 20.7325 29.1912 20.2168C30.5212 19.7012 29.5512 11.2665 26.0312 8.79547C26.0312 8.79547 21.4912 12.5604 19.9912 15.9849Z" fill="url(#paint49_linear)"/>
<path style="mix-blend-mode:multiply" opacity="0.5" d="M21.3113 147.495C21.3113 147.495 22.5613 153.926 26.6213 154.898L27.2513 139.42C27.2513 139.42 22.5113 145.51 21.3113 147.495Z" fill="url(#paint50_linear)"/>
<path d="M25.2313 143.107C24.6313 144.596 25.7914 154.344 26.8814 155.443C27.9714 156.542 30.4913 154.684 31.1913 152.709C31.8913 150.735 35.0413 139.975 31.0013 136.521C31.0013 136.521 27.7313 136.871 25.2313 143.107Z" fill="url(#paint51_linear)"/>
<path d="M27.0614 144.411C26.6114 144.489 26.0614 147.836 26.4814 148.429C26.9014 149.022 27.5914 148.964 27.9414 148.205C28.2914 147.446 27.7314 144.294 27.0614 144.411Z" fill="white"/>
<path d="M15.1914 36.5314C15.1914 36.5314 6.19137 46.7367 6.73137 47.4469C7.27137 48.157 15.7614 37.5627 15.1914 36.5314Z" fill="url(#paint52_linear)"/>
<ellipse cx="66.6421" cy="211.655" rx="56" ry="9.86303" fill="url(#paint53_radial)"/>
<defs>
<linearGradient id="paint0_linear" x1="22135.5" y1="5431.06" x2="22316.2" y2="4058.18" gradientUnits="userSpaceOnUse">
<stop stop-color="#CBC1F7"/>
<stop offset="1" stop-color="#E8DCF7"/>
</linearGradient>
<linearGradient id="paint1_linear" x1="14616.2" y1="5454.86" x2="14616.2" y2="3985.8" gradientUnits="userSpaceOnUse">
<stop stop-color="#9D68C2"/>
<stop offset="1" stop-color="#CCEDFF"/>
</linearGradient>
<linearGradient id="paint2_linear" x1="15673.4" y1="4079.02" x2="15668.5" y2="2909.57" gradientUnits="userSpaceOnUse">
<stop stop-color="#CBC1F7"/>
<stop offset="1" stop-color="#E8DCF7"/>
</linearGradient>
<linearGradient id="paint3_linear" x1="14866.8" y1="-588.172" x2="14843.3" y2="-726.975" gradientUnits="userSpaceOnUse">
<stop stop-color="#BE9DEA"/>
<stop offset="1" stop-color="#9E8CEF"/>
</linearGradient>
<linearGradient id="paint4_linear" x1="15737.7" y1="4077.45" x2="15532.6" y2="2865.82" gradientUnits="userSpaceOnUse">
<stop stop-color="#9D68C2"/>
<stop offset="1" stop-color="#CCEDFF"/>
</linearGradient>
<linearGradient id="paint5_linear" x1="13662.4" y1="10478.3" x2="14295.1" y2="8739.21" gradientUnits="userSpaceOnUse">
<stop stop-color="#CBC1F7"/>
<stop offset="1" stop-color="#E8DCF7"/>
</linearGradient>
<linearGradient id="paint6_linear" x1="14684.2" y1="4515.47" x2="14714.9" y2="4315.29" gradientUnits="userSpaceOnUse">
<stop stop-color="#BE9DEA"/>
<stop offset="1" stop-color="#9E8CEF"/>
</linearGradient>
<linearGradient id="paint7_linear" x1="13845" y1="10035" x2="14097.5" y2="8387.41" gradientUnits="userSpaceOnUse">
<stop stop-color="#9D68C2"/>
<stop offset="1" stop-color="#CCEDFF"/>
</linearGradient>
<linearGradient id="paint8_linear" x1="16598.6" y1="8999.99" x2="17354.8" y2="5731.85" gradientUnits="userSpaceOnUse">
<stop stop-color="#CBC1F7"/>
<stop offset="1" stop-color="#E8DCF7"/>
</linearGradient>
<linearGradient id="paint9_linear" x1="8330.99" y1="1597.1" x2="8330.99" y2="1508.27" gradientUnits="userSpaceOnUse">
<stop stop-color="#BE9DEA"/>
<stop offset="1" stop-color="#9E8CEF"/>
</linearGradient>
<linearGradient id="paint10_linear" x1="16698.2" y1="7813.5" x2="16698.2" y2="5328.56" gradientUnits="userSpaceOnUse">
<stop stop-color="#9D68C2"/>
<stop offset="1" stop-color="#CCEDFF"/>
</linearGradient>
<linearGradient id="paint11_linear" x1="12227.3" y1="1699.33" x2="12227.3" y2="529.276" gradientUnits="userSpaceOnUse">
<stop stop-color="#B9ACF4"/>
<stop offset="1" stop-color="#E1D1F5"/>
</linearGradient>
<linearGradient id="paint12_linear" x1="5910.11" y1="635.554" x2="5910.11" y2="289.835" gradientUnits="userSpaceOnUse">
<stop stop-color="#BE9DEA"/>
<stop offset="1" stop-color="#9E8CEF"/>
</linearGradient>
<linearGradient id="paint13_linear" x1="9346.66" y1="1726.75" x2="9346.66" y2="597.495" gradientUnits="userSpaceOnUse">
<stop stop-color="#45FFCD"/>
<stop offset="1" stop-color="#22E0FF"/>
</linearGradient>
<linearGradient id="paint14_linear" x1="-8457.26" y1="1745.7" x2="-8457.26" y2="576.319" gradientUnits="userSpaceOnUse">
<stop stop-color="#B9ACF4"/>
<stop offset="1" stop-color="#E1D1F5"/>
</linearGradient>
<linearGradient id="paint15_linear" x1="-4097.54" y1="661.304" x2="-4097.54" y2="315.76" gradientUnits="userSpaceOnUse">
<stop stop-color="#BE9DEA"/>
<stop offset="1" stop-color="#9E8CEF"/>
</linearGradient>
<linearGradient id="paint16_linear" x1="-6444.61" y1="1839.29" x2="-6444.61" y2="658.08" gradientUnits="userSpaceOnUse">
<stop stop-color="#45FFCD"/>
<stop offset="1" stop-color="#22E0FF"/>
</linearGradient>
<linearGradient id="paint17_linear" x1="31709.2" y1="12555.9" x2="32672.8" y2="6923.56" gradientUnits="userSpaceOnUse">
<stop stop-color="#CBC1F7"/>
<stop offset="1" stop-color="#E8DCF7"/>
</linearGradient>
<linearGradient id="paint18_linear" x1="31934.4" y1="10048.9" x2="31934.4" y2="6388.44" gradientUnits="userSpaceOnUse">
<stop stop-color="#9D68C2"/>
<stop offset="1" stop-color="#CCEDFF"/>
</linearGradient>
<linearGradient id="paint19_linear" x1="29048.6" y1="7890.77" x2="29048.6" y2="5618.73" gradientUnits="userSpaceOnUse">
<stop stop-color="#BE9DEA"/>
<stop offset="1" stop-color="#9E8CEF"/>
</linearGradient>
<radialGradient id="paint20_radial" cx="0" cy="0" r="1" gradientUnits="userSpaceOnUse" gradientTransform="translate(29091.4 7598.09) scale(1843.41 1733.65)">
<stop stop-color="#45FFCD"/>
<stop offset="1" stop-color="#22E0FF"/>
</radialGradient>
<linearGradient id="paint21_linear" x1="21517.5" y1="1601.28" x2="21517.5" y2="1383.82" gradientUnits="userSpaceOnUse">
<stop stop-color="#8DA4E5"/>
<stop offset="1" stop-color="#755CBB"/>
</linearGradient>
<linearGradient id="paint22_linear" x1="20166.8" y1="1477.72" x2="20166.8" y2="1409.57" gradientUnits="userSpaceOnUse">
<stop stop-color="#D4E2FF"/>
<stop offset="1"/>
</linearGradient>
<linearGradient id="paint23_linear" x1="23595.8" y1="2647.63" x2="25360.8" y2="2647.63" gradientUnits="userSpaceOnUse">
<stop/>
<stop offset="1" stop-color="#D4E2FF"/>
</linearGradient>
<linearGradient id="paint24_linear" x1="54902.4" y1="7801.7" x2="55638.8" y2="931.186" gradientUnits="userSpaceOnUse">
<stop stop-color="#CBC1F7"/>
<stop offset="1" stop-color="#E8DCF7"/>
</linearGradient>
<linearGradient id="paint25_linear" x1="49379.6" y1="6119.95" x2="49379.6" y2="1407.02" gradientUnits="userSpaceOnUse">
<stop stop-color="#0665BD"/>
<stop offset="1" stop-color="#1A1F77"/>
</linearGradient>
<linearGradient id="paint26_linear" x1="-11273.4" y1="-459.622" x2="-11240.1" y2="-720.078" gradientUnits="userSpaceOnUse">
<stop stop-color="#45FFCD"/>
<stop offset="1" stop-color="#22E0FF"/>
</linearGradient>
<linearGradient id="paint27_linear" x1="12344.7" y1="-1293.33" x2="12296.9" y2="-1549.71" gradientUnits="userSpaceOnUse">
<stop stop-color="#45FFCD"/>
<stop offset="1" stop-color="#22E0FF"/>
</linearGradient>
<linearGradient id="paint28_linear" x1="10458.4" y1="5200.36" x2="10606.5" y2="4377.91" gradientUnits="userSpaceOnUse">
<stop stop-color="#CBC1F7"/>
<stop offset="1" stop-color="#E8DCF7"/>
</linearGradient>
<linearGradient id="paint29_linear" x1="9570.83" y1="5217.29" x2="9445.3" y2="4445.62" gradientUnits="userSpaceOnUse">
<stop stop-color="#BE9DEA"/>
<stop offset="1" stop-color="#9E8CEF"/>
</linearGradient>
<linearGradient id="paint30_linear" x1="6686.89" y1="2472.31" x2="6639.82" y2="2187.04" gradientUnits="userSpaceOnUse">
<stop stop-color="#BE9DEA"/>
<stop offset="1" stop-color="#9E8CEF"/>
</linearGradient>
<linearGradient id="paint31_linear" x1="18952.3" y1="2292.39" x2="18968.2" y2="2054.17" gradientUnits="userSpaceOnUse">
<stop stop-color="#CBC1F7"/>
<stop offset="1" stop-color="#E8DCF7"/>
</linearGradient>
<linearGradient id="paint32_linear" x1="14059.1" y1="1517.88" x2="14053.2" y2="1397.64" gradientUnits="userSpaceOnUse">
<stop stop-color="#BE9DEA"/>
<stop offset="1" stop-color="#9E8CEF"/>
</linearGradient>
<linearGradient id="paint33_linear" x1="1803.07" y1="1410.98" x2="1803.07" y2="1320.95" gradientUnits="userSpaceOnUse">
<stop stop-color="#8DA4E5"/>
<stop offset="1" stop-color="#755CBB"/>
</linearGradient>
<linearGradient id="paint34_linear" x1="129.671" y1="147.836" x2="129.671" y2="112.073" gradientUnits="userSpaceOnUse">
<stop stop-color="#6FCAF4"/>
<stop offset="1" stop-color="#7DFFCF"/>
</linearGradient>
<linearGradient id="paint35_linear" x1="129.261" y1="134.819" x2="129.261" y2="116.899" gradientUnits="userSpaceOnUse">
<stop stop-color="#755CBB"/>
<stop offset="1" stop-color="#CCEDFF"/>
</linearGradient>
<linearGradient id="paint36_linear" x1="15623.8" y1="5760.84" x2="15623.8" y2="4523.68" gradientUnits="userSpaceOnUse">
<stop stop-color="#755CBB"/>
<stop offset="1" stop-color="#CCEDFF"/>
</linearGradient>
<linearGradient id="paint37_linear" x1="17904.4" y1="3123.44" x2="17904.4" y2="2679.16" gradientUnits="userSpaceOnUse">
<stop stop-color="#6FCAF4"/>
<stop offset="1" stop-color="#7DFFCF"/>
</linearGradient>
<linearGradient id="paint38_linear" x1="10047.6" y1="815.784" x2="10294.7" y2="815.784" gradientUnits="userSpaceOnUse">
<stop stop-color="#755CBB"/>
<stop offset="1" stop-color="#CCEDFF"/>
</linearGradient>
<linearGradient id="paint39_linear" x1="11281.8" y1="4834.57" x2="11306.8" y2="4769.79" gradientUnits="userSpaceOnUse">
<stop stop-color="#CBC1F7"/>
<stop offset="1" stop-color="#E8DCF7"/>
</linearGradient>
<linearGradient id="paint40_linear" x1="4588.08" y1="857.505" x2="4585.14" y2="823.491" gradientUnits="userSpaceOnUse">
<stop stop-color="#CBC1F7"/>
<stop offset="1" stop-color="#D4BEF1"/>
</linearGradient>
<linearGradient id="paint41_linear" x1="33881" y1="916.548" x2="37652.2" y2="916.548" gradientUnits="userSpaceOnUse">
<stop/>
<stop offset="1" stop-color="#6A9BFF"/>
</linearGradient>
<linearGradient id="paint42_linear" x1="24989.5" y1="760.239" x2="26981.2" y2="760.239" gradientUnits="userSpaceOnUse">
<stop/>
<stop offset="1" stop-color="#6A9BFF"/>
</linearGradient>
<linearGradient id="paint43_linear" x1="32.0754" y1="64.196" x2="33.549" y2="42.0904" gradientUnits="userSpaceOnUse">
<stop/>
<stop offset="1" stop-color="#00E3FF"/>
</linearGradient>
<linearGradient id="paint44_linear" x1="11462.3" y1="984.588" x2="11462.3" y2="873.627" gradientUnits="userSpaceOnUse">
<stop stop-color="#8DA4E5"/>
<stop offset="1" stop-color="#755CBB"/>
</linearGradient>
<linearGradient id="paint45_linear" x1="15993.3" y1="3227.06" x2="16240.6" y2="1685.09" gradientUnits="userSpaceOnUse">
<stop stop-color="#BE9DEA"/>
<stop offset="1" stop-color="#9E8CEF"/>
</linearGradient>
<linearGradient id="paint46_linear" x1="10199.1" y1="2273.15" x2="10224.5" y2="2162.97" gradientUnits="userSpaceOnUse">
<stop stop-color="#DD1A8F"/>
<stop offset="1" stop-color="#FE117E"/>
</linearGradient>
<linearGradient id="paint47_linear" x1="9268.47" y1="425.524" x2="9268.47" y2="402.746" gradientUnits="userSpaceOnUse">
<stop stop-color="#D93DE3"/>
<stop offset="1" stop-color="#FF6DBA"/>
</linearGradient>
<linearGradient id="paint48_linear" x1="5584.52" y1="280.167" x2="5663.04" y2="280.167" gradientUnits="userSpaceOnUse">
<stop/>
<stop offset="1" stop-color="#D4E2FF"/>
</linearGradient>
<linearGradient id="paint49_linear" x1="5221.74" y1="303.363" x2="5317.21" y2="303.363" gradientUnits="userSpaceOnUse">
<stop stop-color="#D4E2FF"/>
<stop offset="1"/>
</linearGradient>
<linearGradient id="paint50_linear" x1="3216.14" y1="2772.55" x2="3155.24" y2="2543.52" gradientUnits="userSpaceOnUse">
<stop stop-color="#8DA4E5"/>
<stop offset="1" stop-color="#755CBB"/>
</linearGradient>
<linearGradient id="paint51_linear" x1="4319.53" y1="3426.09" x2="4427.83" y2="3069.9" gradientUnits="userSpaceOnUse">
<stop stop-color="#CBC1F7"/>
<stop offset="1" stop-color="#E8DCF7"/>
</linearGradient>
<linearGradient id="paint52_linear" x1="4460.78" y1="689.016" x2="4460.78" y2="565.724" gradientUnits="userSpaceOnUse">
<stop stop-color="#CBC1F7"/>
<stop offset="1" stop-color="#E8DCF7"/>
</linearGradient>
<radialGradient id="paint53_radial" cx="0" cy="0" r="1" gradientUnits="userSpaceOnUse" gradientTransform="translate(66.6421 211.655) rotate(90) scale(9.86303 56)">
<stop stop-color="#E8DCF7"/>
<stop offset="1" stop-color="#C4C4C4" stop-opacity="0"/>
</radialGradient>
</defs>
</svg>
