<svg width="152" height="223" viewBox="0 0 152 223" fill="none" xmlns="http://www.w3.org/2000/svg">
<ellipse cx="76" cy="212" rx="56" ry="11" fill="url(#paint0_radial)"/>
<path d="M54.6509 5.97522C54.6509 5.97522 46.7903 12.0939 43.6116 25.7129C40.4329 39.3319 58.7201 22.5341 58.7201 22.5341L54.6509 5.97522Z" fill="url(#paint1_linear)"/>
<path d="M47.7383 20.2382C47.7383 20.2382 53.6936 3.84556 59.2277 1.23811C64.7617 -1.36934 72.9192 3.75207 72.9192 3.75207L47.7383 20.2382Z" fill="url(#paint2_linear)"/>
<path d="M115.813 75.7533C101.451 92.2915 46.1489 83.8354 38.4223 72.4602C35.3825 67.8403 33.7126 62.325 33.6351 56.6492C32.8213 31.7173 56.2213 -0.185129 85.2032 2.2769C104.84 3.94941 117.843 24.5598 121.28 44.3703C123.434 56.7531 121.854 68.8243 115.813 75.7533Z" fill="url(#paint3_linear)"/>
<path d="M103.481 82.5782C95.2441 84.4314 86.8303 85.1918 78.4244 84.8428C65.384 84.0222 56.0776 81.8406 50.9457 79.2332C47.5755 77.5192 46.0053 75.6285 46.3404 73.8002C46.5511 72.699 49.2128 71.8784 53.234 71.3174C65.1925 69.728 89.7223 70.5591 102.811 73.5509C103.931 73.8106 104.984 74.0807 105.913 74.3715L106.497 74.5585H106.612C108.852 75.3169 110.441 76.1583 111.102 77.1036C111.261 77.3171 111.375 77.5651 111.437 77.8308C111.82 79.7422 108.431 81.3628 103.481 82.5782Z" fill="url(#paint4_linear)"/>
<path style="mix-blend-mode:multiply" opacity="0.3" d="M115.813 75.7532C101.451 92.2914 46.149 83.8353 38.4224 72.4601C35.3826 67.8402 33.7126 62.3249 33.6351 56.6491C33.6351 56.6491 36.9383 64.752 48.1309 66.9439C59.3234 69.1359 92.2883 69.3956 99.2394 64.4611C106.19 59.5267 104.927 34.8649 104.927 34.8649L121.28 44.3806C123.434 56.753 121.854 68.8242 115.813 75.7532Z" fill="url(#paint5_linear)"/>
<path style="mix-blend-mode:multiply" opacity="0.5" d="M103.481 82.5782C97.9946 79.576 81.9478 71.681 68.6298 74.0703C52.2957 76.979 50.9457 79.2644 50.9457 79.2644C47.5755 77.5504 46.0053 75.6597 46.3404 73.8314C46.5511 72.7302 49.2128 71.9096 53.234 71.3486C65.1925 69.7592 89.7223 70.5903 102.811 73.5821C104.17 73.9353 105.405 74.2677 106.497 74.6209H106.612C108.852 75.3792 110.441 76.2207 111.102 77.166C111.261 77.3795 111.375 77.6275 111.437 77.8932C111.82 79.7423 108.431 81.3628 103.481 82.5782Z" fill="url(#paint6_linear)"/>
<path d="M105.913 74.3714C102.657 77.3737 87.7212 79.2124 79.3148 78.6826C64.2159 77.7165 55.1871 74.5273 53.2244 71.3173C66.2073 69.5928 94.0403 70.7148 105.913 74.3714Z" fill="url(#paint7_linear)"/>
<path d="M33.434 57.7607C35.3489 65.3753 83.135 71.0993 96.0797 58.7995C109.024 46.4998 99.8233 2.27697 74.2787 4.68704C49.9308 6.95169 29.8819 43.9651 33.434 57.7607Z" fill="#DFE3FB"/>
<path d="M33.6351 56.6388C35.5978 64.2534 83.3361 69.9669 96.2808 57.6776C109.225 45.3882 100.024 1.23805 74.4797 3.56503C50.1319 5.81928 30.0829 42.8431 33.6351 56.6388Z" fill="url(#paint8_linear)"/>
<path d="M100.168 11.1174C100.168 11.1174 97.7362 36.7348 112.299 45.6999C112.299 45.6999 119.441 46.4998 123.578 41.7731C123.578 41.7731 117.144 48.4009 110.288 41.5654C103.433 34.7299 104.984 15.7817 110.183 9.60067C115.382 3.41965 122.821 4.99867 122.821 4.99867L119.757 2.08996C119.757 2.08996 108.747 -0.288957 100.168 11.1174Z" fill="url(#paint9_linear)"/>
<path d="M119.757 2.0899C119.757 2.0899 111.657 1.32117 106.047 11.5536C100.091 22.4093 104.544 41.1082 111.858 43.913C119.173 46.7178 126.459 16.3841 126.459 16.3841L122.122 4.35454C121.58 3.342 120.751 2.54737 119.757 2.0899Z" fill="url(#paint10_linear)"/>
<path d="M130.356 27.8321C129.341 33.6911 127.168 38.4801 124.248 41.5239L123.434 42.3134C122.315 43.3578 121.007 44.1374 119.594 44.6025C118.181 45.0675 116.694 45.2078 115.229 45.0143C105.357 43.7054 103.96 28.2269 105.08 19.4384C106.353 9.30981 114.31 3.17033 120.715 4.03256C128.25 5.05061 132.348 16.3738 130.356 27.8321Z" fill="url(#paint11_linear)"/>
<path d="M33.367 49.6578C28.4635 51.1101 23.8965 53.6655 19.9628 57.1581C13.4426 62.9548 11.7287 70.0292 19.7617 69.3955L23.4862 67.027C23.4862 67.027 18.6989 67.7541 19.3213 62.4561C19.9436 57.1581 33.1947 50.6343 33.1947 50.6343L33.367 49.6578Z" fill="url(#paint12_linear)"/>
<path d="M18.3542 65.0532C15.9415 67.723 20.6521 70.133 24.5968 70.8394C29.0202 71.6185 37.0436 71.0991 36.7564 66.2063C36.4691 61.3135 24.0127 58.8307 18.3542 65.0532Z" fill="url(#paint13_linear)"/>
<path d="M18.6319 65.583C18.4595 66.3725 34.3436 67.5048 34.9085 64.4819C35.4734 61.459 19.9915 59.4956 18.6319 65.583Z" fill="url(#paint14_linear)"/>
<path d="M74.7 34.5325C74.3649 35.0415 80.9713 30.3772 91.5031 34.8545C92.5372 35.2908 81.4596 24.4976 74.7 34.5325Z" fill="url(#paint15_linear)"/>
<path d="M41.5053 34.5846C41.1606 35.0832 44.6362 31.468 53.8851 33.8885C54.967 34.169 47.5755 25.6297 41.5053 34.5846Z" fill="url(#paint16_linear)"/>
<path style="mix-blend-mode:screen" opacity="0.5" d="M46.9148 24.8403C48.0063 26.6167 57.0446 21.5161 67.0212 22.6068C76.9978 23.6976 87.8648 34.2937 96.0223 32.9951C102.495 31.9563 93.9542 6.69196 77.467 4.4377C60.9797 2.18344 45.8425 23.0535 46.9148 24.8403Z" fill="url(#paint17_linear)"/>
<path style="mix-blend-mode:screen" opacity="0.5" d="M43.9756 58.9242C51.5556 57.0524 59.3707 56.5679 67.0979 57.4906C79.8894 59.0385 81.9575 60.5136 81.7181 61.8121C81.4787 63.1107 72.1436 65.8012 60.4341 64.4508C48.7245 63.1003 43.9756 58.9242 43.9756 58.9242Z" fill="url(#paint18_linear)"/>
<path style="mix-blend-mode:screen" opacity="0.5" d="M33.999 54.6131C33.999 54.6131 32.6873 44.8689 40.8256 30.9902C40.8256 30.9902 42.5681 28.819 43.3724 29.5982C44.1767 30.3773 36.0288 40.4123 33.999 54.6131Z" fill="url(#paint19_linear)"/>
<path style="mix-blend-mode:screen" opacity="0.72" d="M106.707 31.8108C106.707 31.8108 107.799 41.3057 114.233 43.321C120.667 45.3363 125.885 40.2668 127.503 33.1301C127.503 33.1301 125.512 39.2903 117.124 37.7633C108.737 36.2362 106.707 31.8108 106.707 31.8108Z" fill="url(#paint20_linear)"/>
<path style="mix-blend-mode:screen" opacity="0.72" d="M107.808 13.8495C107.895 15.6155 119.681 11.8757 123.444 12.3951C127.206 12.9146 128.815 17.9114 129.418 17.7867C130.021 17.662 128.374 5.99591 121.385 5.16485C114.396 4.33378 107.751 12.6652 107.808 13.8495Z" fill="url(#paint21_linear)"/>
<path d="M52.3627 44.3701C52.3627 44.3701 64.0914 44.8168 70.7457 42.9988C70.7457 42.9988 69.1659 54.935 61.5542 54.935C53.9425 54.935 52.3627 44.3701 52.3627 44.3701Z" fill="#2F95CD"/>
<path d="M51.8936 114.823C51.8936 114.823 32.2085 126.936 27.5744 126.458C22.9404 125.98 24.9702 114.553 24.9702 114.553C25.583 113.764 26.2723 112.943 27.0095 112.112C34.4489 103.625 47.0872 92.8107 54.3447 87.6686C57.3989 85.4974 59.5053 84.3339 59.8596 84.7702C62.5596 88.0114 51.8936 114.823 51.8936 114.823Z" fill="url(#paint22_linear)"/>
<path d="M24.9702 114.543C24.9702 114.543 27.5457 112.195 30.7149 115.353C33.884 118.511 30.6191 126.084 27.5266 126.458C24.4341 126.832 22.6245 119.457 24.9702 114.543Z" fill="url(#paint23_linear)"/>
<path style="mix-blend-mode:multiply" opacity="0.3" d="M51.8936 114.823C51.8936 114.823 32.2085 126.936 27.5744 126.458C22.9404 125.98 24.9702 114.553 24.9702 114.553C25.583 113.764 26.2723 112.943 27.0095 112.112C27.0095 112.112 31.7968 115.229 40.701 113.722C49.6053 112.216 54.3447 87.6686 54.3447 87.6686C57.3989 85.4974 59.5053 84.3339 59.8596 84.7702C62.5596 88.0114 51.8936 114.823 51.8936 114.823Z" fill="url(#paint24_linear)"/>
<path d="M74.8914 154.361C75.1882 158.901 70.6499 174.348 66.0637 179.106C65.734 179.516 65.3321 179.85 64.8816 180.09C64.4311 180.329 63.941 180.468 63.4403 180.498C59.6106 180.332 55.168 161.446 53.4829 150.673C52.8318 146.518 52.6021 143.568 52.985 143.402C56.1925 141.875 74.5276 148.949 74.8914 154.361Z" fill="url(#paint25_linear)"/>
<path d="M75.0925 155.826C75.0925 155.826 70.9372 159.244 63.3159 156.564C57.3606 154.486 52.2862 145.282 52.9755 143.391C53.6649 141.501 76.6723 148.44 75.0925 155.826Z" fill="url(#paint26_linear)"/>
<path style="mix-blend-mode:multiply" opacity="0.3" d="M74.8914 154.361C75.1883 158.901 70.65 174.348 66.0638 179.106C69.2425 173.652 67.9787 163.825 64.9053 159.753C62.5787 156.636 56.3649 152.481 53.4734 150.684C52.8223 146.528 52.5925 143.578 52.9755 143.412C56.1925 141.875 74.5276 148.949 74.8914 154.361Z" fill="url(#paint27_linear)"/>
<path d="M60.3957 161.217C59.2276 161.124 60.0031 164.552 60.2234 164.739C60.4436 164.926 60.9893 163.773 61.0372 162.838C61.0851 161.903 60.8266 161.217 60.3957 161.217Z" fill="white"/>
<path d="M102.207 126.77C103.366 143.786 96.8169 153.354 81.6605 158.018C66.8009 162.578 52.9371 148.108 52.0946 126.136C51.568 112.112 51.9318 99.3969 56.2595 90.1617C58.6983 84.773 62.8601 80.5306 67.969 78.2255C72.3446 76.1479 76.8254 77.6022 81.0573 81.1239C92.0584 90.2967 101.317 113.65 102.207 126.77Z" fill="url(#paint28_linear)"/>
<path style="mix-blend-mode:multiply" opacity="0.3" d="M86.0457 99.3346C88.7992 105.942 91.225 112.704 93.3127 119.592C96.0222 129.45 93.4754 140.669 93.4754 140.669L102.332 129.648C102.453 125.049 101.774 120.468 100.331 116.143C97.985 109.723 96.6637 106.866 96.6637 106.866L86.0457 99.3346Z" fill="url(#paint29_linear)"/>
<path d="M51.9031 128.931C51.9031 128.931 52.0275 115.748 62.6648 112.309C75.4084 108.154 88.1999 120.693 90.2775 131.31C92.3552 141.927 92.1063 152.585 80.1765 156.886C80.1765 156.896 57.5233 163.628 51.9031 128.931Z" fill="url(#paint30_linear)"/>
<path d="M52.4298 130.364C52.4298 130.364 52.5543 117.182 63.1915 113.743C75.9351 109.588 88.7266 122.137 90.8043 132.743C92.8819 143.35 92.633 154.018 80.7032 158.319C80.7032 158.33 58.0021 165.061 52.4298 130.364Z" fill="url(#paint31_radial)"/>
<path d="M95.5818 110.699C95.1979 110.745 94.8095 110.697 94.445 110.559C94.0805 110.42 93.7492 110.195 93.4754 109.899C89.7414 106.908 83.901 96.6752 82.2159 90.4838C81.5648 88.0738 81.5552 86.3285 82.5414 85.7468C84.1595 84.8742 89.3201 89.9852 93.4084 98.2127C95.8212 103.043 97.9467 109.941 95.5818 110.699Z" fill="url(#paint32_linear)"/>
<path d="M93.4755 109.899C89.7415 106.908 83.901 96.6752 82.2159 90.4838C84.5234 92.2914 87.7979 96.4363 90.5744 102.025C91.8343 104.511 92.8086 107.156 93.4755 109.899Z" fill="#6340A2"/>
<path style="mix-blend-mode:multiply" opacity="0.5" d="M80.8946 81.0304C80.8946 81.0304 67.0978 92.4369 60.884 93.6315C54.8904 94.8054 56.0297 90.328 56.0968 90.0683C58.5347 84.6741 62.6961 80.4248 67.8063 78.1113C72.1818 76.0856 76.6722 77.5088 80.8946 81.0304Z" fill="url(#paint33_linear)"/>
<path style="mix-blend-mode:screen" opacity="0.72" d="M53.483 128.827C56.0011 131.621 60.8075 125.44 68.5245 123.965C76.2415 122.49 81.4308 125.471 83.2595 123.602C85.0883 121.732 75.0159 111.811 63.4117 115.031C54.1532 117.587 52.6309 127.871 53.483 128.827Z" fill="url(#paint34_linear)"/>
<path style="mix-blend-mode:screen" opacity="0.72" d="M70.0946 156.241C72.9958 157.741 76.2921 158.079 79.401 157.197C84.6383 155.722 85.6149 152.45 85.6149 152.45C83.5043 152.357 81.4127 152.915 79.5829 154.06C76.6852 155.779 73.386 156.538 70.0946 156.241Z" fill="url(#paint35_linear)"/>
<path d="M73.5988 94.1612C72.6988 94.4729 73.7424 104.55 74.5563 104.622C75.3701 104.695 75.7914 102.368 75.6477 99.0022C75.5041 95.6364 74.4605 93.8496 73.5988 94.1612Z" fill="white"/>
<path d="M137.106 124.09C138.514 130.489 132.999 134.8 130.576 134.603C128.47 134.426 121.5 131.85 112.337 124.806C110.997 123.768 109.599 122.635 108.163 121.399C96.9605 111.759 81.086 90.9303 86.1413 88.9045C100.656 83.0248 135.699 117.711 137.106 124.09Z" fill="url(#paint36_linear)"/>
<path d="M125.875 133.096C125.875 133.096 123.233 128.079 126.325 123.747C129.418 119.415 136.532 122.708 136.532 122.708C136.956 123.472 137.231 124.322 137.343 125.205C137.454 126.089 137.398 126.988 137.178 127.847C136.959 128.706 136.58 129.508 136.066 130.203C135.551 130.899 134.912 131.473 134.186 131.891C128.757 135.527 125.875 133.096 125.875 133.096Z" fill="url(#paint37_linear)"/>
<path style="mix-blend-mode:multiply" opacity="0.3" d="M137.106 124.09C138.514 130.489 132.999 134.8 130.576 134.603C128.47 134.426 121.5 131.85 112.337 124.807C113.17 125.368 119.24 129.336 121.816 127.674C124.583 125.877 125.349 114.065 110.326 100.02C95.8211 86.422 86.6583 88.7282 86.103 88.8944C100.656 83.0251 135.699 117.711 137.106 124.09Z" fill="url(#paint38_linear)"/>
<path d="M128.48 125.762C130.395 123.612 135.134 123.269 137.499 124.474C139.864 125.679 147.657 132.141 151.86 144.264C151.86 144.264 151.133 151.411 146.681 152.813C143.301 153.852 137.422 144.877 132.951 138.665C128.48 132.452 125.301 129.315 128.48 125.762Z" fill="url(#paint39_linear)"/>
<path d="M147.418 152.741C147.418 152.741 136.781 129.834 126.594 131.6C126.594 131.6 128.508 135.195 134.684 142.394C140.859 149.593 145.245 153.447 147.418 152.741Z" fill="url(#paint40_linear)"/>
<path style="mix-blend-mode:multiply" opacity="0.5" d="M140.256 141.043C140.256 141.043 140.409 145.562 139.452 147.089C138.909 147.984 138.086 148.633 137.135 148.918L135.613 135.86C137.348 137.377 138.907 139.118 140.256 141.043Z" fill="url(#paint41_linear)"/>
<path d="M135.613 135.86C135.613 135.86 130.72 131.081 126.651 132.224C126.651 132.224 125.866 137.678 134.866 149.177C134.866 149.177 138.083 150.216 138.782 146.061C138.178 142.514 137.111 139.079 135.613 135.86Z" fill="url(#paint42_linear)"/>
<path d="M132.463 135.319C133.525 134.468 135.402 140.867 134.761 141.199C134.119 141.532 131.582 136.036 132.463 135.319Z" fill="white"/>
<path d="M99.5553 107.354C98.2627 109.899 102.38 111.811 103.471 111.416C104.563 111.021 100.436 105.609 99.5553 107.354Z" fill="white"/>
<path d="M104.323 112.393C103.931 112.715 105.606 114.325 106.008 114.595C106.784 115.114 108.345 115.343 108.421 115.031C108.498 114.72 104.773 111.998 104.323 112.393Z" fill="white"/>
<path d="M34.0755 106.502C34.2862 107.23 38.9202 104.965 38.9394 102.783C38.9585 100.602 33.7787 105.443 34.0755 106.502Z" fill="white"/>
<path d="M117.393 175.429C116.579 176.322 115.037 176.291 113.074 175.636C110.435 174.612 107.916 173.256 105.568 171.595H105.52C97.8606 166.474 89.5213 158.537 89.0713 156.221C87.5298 148.211 94.9979 137.927 99.766 132.847C101.623 130.853 103.079 129.668 103.404 129.731C104.601 129.834 121.672 170.837 117.393 175.429Z" fill="url(#paint43_linear)"/>
<path style="mix-blend-mode:multiply" opacity="0.3" d="M117.392 175.429C116.579 176.322 115.037 176.291 113.074 175.636L105.568 171.606C106.277 171.938 114.338 175.439 111.61 162.817C108.737 149.624 99.4883 133.844 99.4883 133.844L99.7659 132.805C101.623 130.811 103.079 129.627 103.404 129.689C104.601 129.834 121.672 170.837 117.392 175.429Z" fill="url(#paint44_linear)"/>
<path d="M95.0074 153.52C93.217 154.725 97.6787 158.807 98.1861 158.839C98.6936 158.87 98.3585 156.564 97.5159 155.14C96.7787 153.873 95.6393 153.094 95.0074 153.52Z" fill="white"/>
<path d="M98.8276 159.275C98.5691 159.732 99.9477 161.01 100.158 160.542C100.221 160.282 100.213 160.008 100.137 159.752C100.061 159.496 99.9185 159.27 99.7275 159.098C99.5796 159.021 99.4128 158.996 99.251 159.027C99.0892 159.059 98.941 159.146 98.8276 159.275Z" fill="white"/>
<path d="M11.1064 116.548C11.1639 117.41 16.7841 114.585 16.7841 113.566C16.7841 112.548 11.0203 115.114 11.1064 116.548Z" fill="white"/>
<path d="M0 127.217C0.10057 128.59 0.452075 129.929 1.03404 131.154C1.03404 131.154 3.76276 133.232 9.11489 132.961C14.467 132.691 25.4585 126.645 26.9808 125.544C28.5032 124.443 29.317 121.046 29.317 121.046L0 127.217Z" fill="url(#paint45_linear)"/>
<path d="M28.9149 114.855C26.2149 113.67 19.2543 115.291 14.9936 116.932C10.733 118.574 3.77234 123.851 0 127.165C0 127.165 0.0765953 130.281 5.64894 131.05C11.2213 131.819 26.2053 124.942 28.7139 121.96C31.2224 118.979 28.9149 114.855 28.9149 114.855Z" fill="url(#paint46_linear)"/>
<path d="M9.651 119.935C9.651 119.935 19.1106 118.553 23.9361 114.626C23.8978 114.626 15.7691 114.252 9.651 119.935Z" fill="url(#paint47_linear)"/>
<path d="M22.4712 114.855C18.9577 116.97 15.0716 118.255 11.068 118.626C11.068 118.626 5.13191 118.709 4.80638 117.961C4.48085 117.213 4.28936 114.387 5.76382 113.67C7.23828 112.954 17.617 111.665 22.4712 114.855Z" fill="url(#paint48_linear)"/>
<path d="M10.5127 119.789C15.6511 120.375 20.6443 121.992 25.2383 124.557L26.1383 124.017C26.1383 124.017 20.6042 119.789 10.5127 119.789Z" fill="url(#paint49_linear)"/>
<path d="M10.2638 128.858C12.2481 127.654 14.482 127.018 16.7553 127.009C16.7553 127.009 12.2744 129.253 10.2638 128.858Z" fill="white"/>
<defs>
<radialGradient id="paint0_radial" cx="0" cy="0" r="1" gradientUnits="userSpaceOnUse" gradientTransform="translate(76 212) rotate(90) scale(11 56)">
<stop stop-color="#E8DCF7"/>
<stop offset="1" stop-color="#C4C4C4" stop-opacity="0"/>
</radialGradient>
<linearGradient id="paint1_linear" x1="49.7474" y1="32.0759" x2="55.1826" y2="6.08685" gradientUnits="userSpaceOnUse">
<stop stop-color="#45FFCD"/>
<stop offset="1" stop-color="#22E0FF"/>
</linearGradient>
<linearGradient id="paint2_linear" x1="58.4718" y1="22.4852" x2="63.1121" y2="0.297139" gradientUnits="userSpaceOnUse">
<stop stop-color="#B9ACF4"/>
<stop offset="1" stop-color="#E1D1F5"/>
</linearGradient>
<linearGradient id="paint3_linear" x1="68.5776" y1="86.0762" x2="97.1156" y2="5.47434" gradientUnits="userSpaceOnUse">
<stop stop-color="#CBC1F7"/>
<stop offset="1" stop-color="#E8DCF7"/>
</linearGradient>
<linearGradient id="paint4_linear" x1="46.8885" y1="70.7279" x2="110.787" y2="82.0796" gradientUnits="userSpaceOnUse">
<stop stop-color="#8879EA"/>
<stop offset="1" stop-color="#9E8CEF"/>
</linearGradient>
<linearGradient id="paint5_linear" x1="73.0647" y1="85.0785" x2="84.4652" y2="30.5661" gradientUnits="userSpaceOnUse">
<stop stop-color="#9D68C2"/>
<stop offset="1" stop-color="#CCEDFF"/>
</linearGradient>
<linearGradient id="paint6_linear" x1="77.3533" y1="84.7586" x2="80.6686" y2="68.9058" gradientUnits="userSpaceOnUse">
<stop stop-color="#8DA4E5"/>
<stop offset="1" stop-color="#755CBB"/>
</linearGradient>
<linearGradient id="paint7_linear" x1="78.4467" y1="79.4761" x2="80.5321" y2="69.0445" gradientUnits="userSpaceOnUse">
<stop stop-color="#5E36CC"/>
<stop offset="1" stop-color="#6C4A96"/>
</linearGradient>
<linearGradient id="paint8_linear" x1="40002.5" y1="5540.46" x2="40002.5" y2="1269.77" gradientUnits="userSpaceOnUse">
<stop stop-color="#0665BD"/>
<stop offset="1" stop-color="#1A1F77"/>
</linearGradient>
<linearGradient id="paint9_linear" x1="3187.26" y1="1696.65" x2="3177.09" y2="-154.957" gradientUnits="userSpaceOnUse">
<stop stop-color="#B9ACF4"/>
<stop offset="1" stop-color="#E1D1F5"/>
</linearGradient>
<linearGradient id="paint10_linear" x1="114.967" y1="44.071" x2="114.736" y2="2.09276" gradientUnits="userSpaceOnUse">
<stop stop-color="#BE9DEA"/>
<stop offset="1" stop-color="#9E8CEF"/>
</linearGradient>
<linearGradient id="paint11_linear" x1="3687.43" y1="1566.18" x2="3678.48" y2="-64.0158" gradientUnits="userSpaceOnUse">
<stop stop-color="#45FFCD"/>
<stop offset="1" stop-color="#22E0FF"/>
</linearGradient>
<linearGradient id="paint12_linear" x1="419.498" y1="3325.7" x2="569.562" y2="2894.7" gradientUnits="userSpaceOnUse">
<stop stop-color="#BE9DEA"/>
<stop offset="1" stop-color="#9E8CEF"/>
</linearGradient>
<linearGradient id="paint13_linear" x1="25.9446" y1="71.413" x2="29.2413" y2="61.0627" gradientUnits="userSpaceOnUse">
<stop stop-color="#DD1A8F"/>
<stop offset="1" stop-color="#FE117E"/>
</linearGradient>
<linearGradient id="paint14_linear" x1="27.382" y1="66.5714" x2="27.6535" y2="61.5666" gradientUnits="userSpaceOnUse">
<stop stop-color="#D93DE3"/>
<stop offset="1" stop-color="#FF6DBA"/>
</linearGradient>
<linearGradient id="paint15_linear" x1="1928.08" y1="578.523" x2="1928.08" y2="552.094" gradientUnits="userSpaceOnUse">
<stop stop-color="#45FFCD"/>
<stop offset="1" stop-color="#22E0FF"/>
</linearGradient>
<linearGradient id="paint16_linear" x1="959.533" y1="550.397" x2="959.533" y2="528.361" gradientUnits="userSpaceOnUse">
<stop stop-color="#45FFCD"/>
<stop offset="1" stop-color="#22E0FF"/>
</linearGradient>
<linearGradient id="paint17_linear" x1="49.0849" y1="11.9845" x2="99.7403" y2="20.9834" gradientUnits="userSpaceOnUse">
<stop/>
<stop offset="1" stop-color="#6A9BFF"/>
</linearGradient>
<linearGradient id="paint18_linear" x1="2839.36" y1="1190.78" x2="4322.19" y2="1190.78" gradientUnits="userSpaceOnUse">
<stop/>
<stop offset="1" stop-color="#6A9BFF"/>
</linearGradient>
<linearGradient id="paint19_linear" x1="653.494" y1="3697.43" x2="653.494" y2="3052.98" gradientUnits="userSpaceOnUse">
<stop/>
<stop offset="1" stop-color="#6A9BFF"/>
</linearGradient>
<linearGradient id="paint20_linear" x1="117.158" y1="43.7578" x2="117.092" y2="31.7388" gradientUnits="userSpaceOnUse">
<stop stop-color="#D4E2FF"/>
<stop offset="1"/>
</linearGradient>
<linearGradient id="paint21_linear" x1="107.797" y1="11.5324" x2="129.502" y2="11.4312" gradientUnits="userSpaceOnUse">
<stop/>
<stop offset="1" stop-color="#D4E2FF"/>
</linearGradient>
<linearGradient id="paint22_linear" x1="39.4851" y1="128.089" x2="45.6672" y2="82.7656" gradientUnits="userSpaceOnUse">
<stop stop-color="#CBC1F7"/>
<stop offset="1" stop-color="#D4BEF1"/>
</linearGradient>
<linearGradient id="paint23_linear" x1="395.626" y1="1728" x2="371.068" y2="1574.55" gradientUnits="userSpaceOnUse">
<stop stop-color="#BE9DEA"/>
<stop offset="1" stop-color="#9E8CEF"/>
</linearGradient>
<linearGradient id="paint24_linear" x1="2178.95" y1="5373.94" x2="2178.95" y2="3692.21" gradientUnits="userSpaceOnUse">
<stop stop-color="#9D68C2"/>
<stop offset="1" stop-color="#CCEDFF"/>
</linearGradient>
<linearGradient id="paint25_linear" x1="2482.59" y1="4103.58" x2="2542.61" y2="2770.26" gradientUnits="userSpaceOnUse">
<stop stop-color="#CBC1F7"/>
<stop offset="1" stop-color="#E8DCF7"/>
</linearGradient>
<linearGradient id="paint26_linear" x1="1927.67" y1="1145.12" x2="2400.61" y2="1078.73" gradientUnits="userSpaceOnUse">
<stop stop-color="#8879EA"/>
<stop offset="1" stop-color="#9E8CEF"/>
</linearGradient>
<linearGradient id="paint27_linear" x1="2535.05" y1="3894.64" x2="2324.13" y2="2618.27" gradientUnits="userSpaceOnUse">
<stop stop-color="#9D68C2"/>
<stop offset="1" stop-color="#CCEDFF"/>
</linearGradient>
<linearGradient id="paint28_linear" x1="6041.05" y1="1401.74" x2="5325.07" y2="-4903.21" gradientUnits="userSpaceOnUse">
<stop stop-color="#CBC1F7"/>
<stop offset="1" stop-color="#E8DCF7"/>
</linearGradient>
<linearGradient id="paint29_linear" x1="2401.14" y1="514.387" x2="1892.22" y2="-1061" gradientUnits="userSpaceOnUse">
<stop stop-color="#9D68C2"/>
<stop offset="1" stop-color="#CCEDFF"/>
</linearGradient>
<linearGradient id="paint30_linear" x1="3420.47" y1="-270.286" x2="4880.81" y2="-671.015" gradientUnits="userSpaceOnUse">
<stop stop-color="#BE9DEA"/>
<stop offset="1" stop-color="#9E8CEF"/>
</linearGradient>
<radialGradient id="paint31_radial" cx="0" cy="0" r="1" gradientUnits="userSpaceOnUse" gradientTransform="translate(4382.82 257.429) rotate(-17.9025) scale(1145.9 1317.73)">
<stop stop-color="#45FFCD"/>
<stop offset="1" stop-color="#22E0FF"/>
</radialGradient>
<linearGradient id="paint32_linear" x1="1780.68" y1="-766.049" x2="1922.49" y2="-804.964" gradientUnits="userSpaceOnUse">
<stop stop-color="#8879EA"/>
<stop offset="1" stop-color="#9E8CEF"/>
</linearGradient>
<linearGradient id="paint33_linear" x1="2653.1" y1="-1130.52" x2="2590.2" y2="-1325.21" gradientUnits="userSpaceOnUse">
<stop stop-color="#8DA4E5"/>
<stop offset="1" stop-color="#755CBB"/>
</linearGradient>
<linearGradient id="paint34_linear" x1="2583.17" y1="-589.895" x2="3512.6" y2="-844.936" gradientUnits="userSpaceOnUse">
<stop/>
<stop offset="1" stop-color="#D4E2FF"/>
</linearGradient>
<linearGradient id="paint35_linear" x1="1698.79" y1="-47.831" x2="1692.94" y2="-65.945" gradientUnits="userSpaceOnUse">
<stop stop-color="#D4E2FF"/>
<stop offset="1"/>
</linearGradient>
<linearGradient id="paint36_linear" x1="7359.53" y1="-8247.89" x2="6143.46" y2="-10674.4" gradientUnits="userSpaceOnUse">
<stop stop-color="#CBC1F7"/>
<stop offset="1" stop-color="#E8DCF7"/>
</linearGradient>
<linearGradient id="paint37_linear" x1="2013.23" y1="-1885.61" x2="1939.02" y2="-2000.94" gradientUnits="userSpaceOnUse">
<stop stop-color="#BE9DEA"/>
<stop offset="1" stop-color="#9E8CEF"/>
</linearGradient>
<linearGradient id="paint38_linear" x1="7460.68" y1="-8241.96" x2="5933.96" y2="-10614.7" gradientUnits="userSpaceOnUse">
<stop stop-color="#9D68C2"/>
<stop offset="1" stop-color="#CCEDFF"/>
</linearGradient>
<linearGradient id="paint39_linear" x1="-4909.77" y1="2793.46" x2="-5574.05" y2="2173.6" gradientUnits="userSpaceOnUse">
<stop stop-color="#CBC1F7"/>
<stop offset="1" stop-color="#E8DCF7"/>
</linearGradient>
<linearGradient id="paint40_linear" x1="-4121.76" y1="2628.07" x2="-4504.03" y2="2158.3" gradientUnits="userSpaceOnUse">
<stop stop-color="#BE9DEA"/>
<stop offset="1" stop-color="#9E8CEF"/>
</linearGradient>
<linearGradient id="paint41_linear" x1="-961.671" y1="390.979" x2="-1052.21" y2="279.72" gradientUnits="userSpaceOnUse">
<stop stop-color="#8DA4E5"/>
<stop offset="1" stop-color="#755CBB"/>
</linearGradient>
<linearGradient id="paint42_linear" x1="-2500.99" y1="1338.17" x2="-2738.27" y2="1128.64" gradientUnits="userSpaceOnUse">
<stop stop-color="#CBC1F7"/>
<stop offset="1" stop-color="#E8DCF7"/>
</linearGradient>
<linearGradient id="paint43_linear" x1="4623.14" y1="437.674" x2="4272.16" y2="-1665.24" gradientUnits="userSpaceOnUse">
<stop stop-color="#CBC1F7"/>
<stop offset="1" stop-color="#E8DCF7"/>
</linearGradient>
<linearGradient id="paint44_linear" x1="3341.66" y1="987.771" x2="2585.31" y2="-1018.51" gradientUnits="userSpaceOnUse">
<stop stop-color="#9D68C2"/>
<stop offset="1" stop-color="#CCEDFF"/>
</linearGradient>
<linearGradient id="paint45_linear" x1="1053.07" y1="1694.11" x2="989.248" y2="1482.81" gradientUnits="userSpaceOnUse">
<stop stop-color="#BE9DEA"/>
<stop offset="1" stop-color="#9E8CEF"/>
</linearGradient>
<linearGradient id="paint46_linear" x1="13.883" y1="132.224" x2="16.502" y2="113.007" gradientUnits="userSpaceOnUse">
<stop stop-color="#E8DCF7"/>
<stop offset="1" stop-color="#CBC1F7"/>
</linearGradient>
<linearGradient id="paint47_linear" x1="507.488" y1="750.278" x2="499.285" y2="720.567" gradientUnits="userSpaceOnUse">
<stop stop-color="#BE9DEA"/>
<stop offset="1" stop-color="#9E8CEF"/>
</linearGradient>
<linearGradient id="paint48_linear" x1="533.876" y1="810.643" x2="535.436" y2="772.39" gradientUnits="userSpaceOnUse">
<stop stop-color="#CBC1F7"/>
<stop offset="1" stop-color="#E8DCF7"/>
</linearGradient>
<linearGradient id="paint49_linear" x1="460.373" y1="680.302" x2="504.781" y2="787.181" gradientUnits="userSpaceOnUse">
<stop stop-color="#BE9DEA"/>
<stop offset="1" stop-color="#9E8CEF"/>
</linearGradient>
</defs>
</svg>
