<svg width="170" height="232" viewBox="0 0 170 232" fill="none" xmlns="http://www.w3.org/2000/svg">
<ellipse cx="65.8395" cy="222.141" rx="53.4811" ry="9.70668" fill="url(#paint0_radial)"/>
<path style="mix-blend-mode:multiply" opacity="0.5" d="M84.9457 230.999C106.455 230.999 123.891 227.107 123.891 222.306C123.891 217.504 106.455 213.612 84.9457 213.612C63.4366 213.612 46 217.504 46 222.306C46 227.107 63.4366 230.999 84.9457 230.999Z" fill="url(#paint1_radial)"/>
<path d="M166.195 1.1731L169.093 2.36988L166.195 33.6299L163.713 34.6927L150.075 36.0139L149.043 41.5096L139.117 33.6299L166.195 1.1731Z" fill="url(#paint2_linear)"/>
<path d="M64.0291 168.024C62.848 174.669 57.6072 190.045 52.9123 188.408C51.9197 188.064 50.8378 186.819 49.7857 185C46.5697 179.456 43.4133 168.561 41.8451 161.188C40.9914 157.167 40.6043 154.19 40.9517 153.711C43.0461 150.714 62.9373 163.687 64.1284 165.133C64.3567 165.411 64.3071 166.483 64.0291 168.024Z" fill="url(#paint3_linear)"/>
<path d="M95.5334 159.053C95.454 159.666 95.3647 160.308 95.2753 160.968C93.8659 171.069 90.9675 185.861 87.8409 191.28C87.0965 192.573 86.3322 193.32 85.5778 193.339C85.3722 193.347 85.1667 193.318 84.9724 193.253C84.1042 192.931 83.3426 192.389 82.7689 191.683C78.0243 186.551 72.6743 170.973 72.4858 166.32C72.4273 165.919 72.4893 165.511 72.6644 165.143C75.3642 161.6 94.9279 149.536 96.0198 150.973C96.3076 151.346 96.0892 154.563 95.5334 159.053Z" fill="url(#paint4_linear)"/>
<path d="M40.9619 153.711C38.7584 156.487 56.7042 169.03 64.2676 165.765C64.2676 165.765 43.89 150.025 40.9619 153.711Z" fill="url(#paint5_linear)"/>
<path d="M72.486 166.311C71.8904 167.728 92.6154 164.482 96.02 150.992C96.02 150.963 78.104 152.983 72.486 166.311Z" fill="url(#paint6_linear)"/>
<path style="mix-blend-mode:multiply" opacity="0.3" d="M48.8031 165.372C47.8105 166.579 49.0413 182.127 52.9124 188.408C51.9198 188.064 50.8379 186.819 49.7857 185C49.1505 182.271 48.2175 178.231 47.3341 174.2C46.1602 169.633 44.3152 165.251 41.8551 161.188C41.0015 157.167 40.6143 154.19 40.9617 153.711C43.0561 150.714 62.9473 163.687 64.1384 165.133C64.3567 165.411 64.3071 166.483 64.0292 168.005C64.0292 168.024 49.7957 164.185 48.8031 165.372Z" fill="url(#paint7_linear)"/>
<path d="M83.8508 171.012C83.0071 171.27 82.8582 177.781 84.218 178.135C85.5778 178.489 85.8061 170.447 83.8508 171.012Z" fill="white"/>
<path style="mix-blend-mode:multiply" opacity="0.3" d="M95.5334 159.053C95.5334 159.053 84.1982 162.289 81.5778 167.479C78.9574 172.668 79.94 184.961 82.7689 191.673C78.0243 186.541 72.6743 170.964 72.4858 166.311C72.4273 165.91 72.4893 165.501 72.6644 165.133C75.3642 161.59 94.9279 149.527 96.0198 150.963C96.3076 151.346 96.0892 154.563 95.5334 159.053Z" fill="url(#paint8_linear)"/>
<path d="M46.5596 108.099C46.5596 113.843 45.6961 122.211 42.9863 128.952C38.49 140.115 31.7404 154.17 31.532 154.601C27.4128 157.024 22.4797 156.899 19.3332 156.459C18.2682 156.318 17.2162 156.097 16.1868 155.798C17.586 146.327 20.5166 137.126 24.8718 128.53C28.3063 121.8 32.4401 115.422 37.2095 109.497C37.2126 109.471 37.2126 109.446 37.2095 109.42L37.3584 109.229L37.4478 109.133L37.5172 109.037L37.6264 108.913C41.7059 103.915 45.0211 100.88 45.7159 101.253C46.2023 101.445 46.5695 104.173 46.5596 108.099Z" fill="url(#paint9_linear)"/>
<path d="M16.2368 155.31C16.2368 155.31 21.5471 146.856 27.0261 147.957C32.5051 149.058 31.5225 154.659 31.5225 154.659C29.2643 156.067 26.6578 156.87 23.9712 156.985C21.2846 157.099 18.615 156.521 16.2368 155.31Z" fill="url(#paint10_linear)"/>
<path style="mix-blend-mode:multiply" opacity="0.3" d="M46.5595 108.099C46.5595 113.843 45.696 122.211 42.9862 128.952C38.4899 140.115 31.7403 154.17 31.5319 154.601L19.3232 156.468C18.2582 156.327 17.2062 156.106 16.1768 155.808C17.576 146.336 20.5066 137.135 24.8618 128.54C28.2963 121.809 32.4301 115.432 37.1995 109.506C34.9067 112.427 25.2787 125.179 22.6881 135.979C19.7103 148.301 31.6212 143.553 36.4849 135.979C41.3485 128.406 46.4106 108.07 46.4106 108.07L46.5595 108.099Z" fill="url(#paint11_linear)"/>
<path d="M33.2792 127.793C32.2866 127.439 37.309 116.524 38.8574 116.428C40.4059 116.333 34.103 128.09 33.2792 127.793Z" fill="white"/>
<path d="M32.773 128.952C32.0087 128.569 31.2941 130.608 31.9889 130.867C32.6837 131.125 33.6366 129.402 32.773 128.952Z" fill="white"/>
<path d="M25.2591 150.503C22.4203 150.053 18.311 152.619 17.0207 154.917C15.7303 157.215 15.0554 170.447 18.3011 181.381C18.3011 181.381 22.8769 182.578 26.3013 181.381C29.7256 180.184 32.1178 170.533 32.3063 163.276C32.4949 156.018 29.944 151.241 25.2591 150.503Z" fill="url(#paint12_linear)"/>
<path d="M24.8323 181.745C24.8323 181.745 20.6635 158.46 30.1525 153.701C30.1525 153.701 32.9715 158.316 31.9292 167.326C30.887 176.335 29.2691 180.921 24.8323 181.745Z" fill="url(#paint13_linear)"/>
<path style="mix-blend-mode:multiply" opacity="0.5" d="M24.1475 168.819C24.1475 168.819 26.5892 172.266 28.2567 172.821C29.2156 173.174 30.2756 173.174 31.2345 172.821L25.0805 162.289C24.4947 164.421 24.1813 166.614 24.1475 168.819Z" fill="url(#paint14_linear)"/>
<path d="M25.0706 162.222C25.0706 162.222 26.4205 155.769 30.4602 154.19C30.4602 154.19 34.2122 157.761 33.2593 171.644C33.2593 171.644 31.165 174.305 28.2071 171.644C26.7045 168.662 25.6484 165.49 25.0706 162.222Z" fill="url(#paint15_linear)"/>
<path d="M27.3731 159.915C26.0033 159.915 28.0877 165.775 28.8024 165.66C29.517 165.545 28.5244 159.915 27.3731 159.915Z" fill="white"/>
<path d="M42.9765 26.0855C42.9765 26.0855 36.7729 20.9153 29.1797 20.0154C29.1797 20.0154 26.8472 21.1164 24.1573 29.1875C21.4674 37.2586 26.4303 53.219 26.4303 53.219L42.9765 26.0855Z" fill="url(#paint16_linear)"/>
<path d="M26.2317 24.0461C26.9233 22.5176 27.9374 21.1449 29.2094 20.0154C29.2094 20.0154 35.4527 25.5876 35.1649 38.8767L33.3683 40.6767L26.2317 24.0461Z" fill="url(#paint17_linear)"/>
<path d="M94.3525 26.0855C94.3525 26.0855 100.566 20.9153 108.159 20.0154C108.159 20.0154 110.492 21.1164 113.122 29.1875C115.753 37.2586 110.849 53.219 110.849 53.219L94.3525 26.0855Z" fill="url(#paint18_linear)"/>
<path d="M108.159 20.0153C104.162 24.6864 101.988 30.5606 102.015 36.6171L104.387 38.0629L111.335 24.2376C111.335 24.2376 109.013 19.9004 108.159 20.0153Z" fill="url(#paint19_linear)"/>
<path d="M104.169 37.3639C104.169 37.3639 102.531 28.613 108.497 22.1887C108.497 22.1887 115.246 25.2524 118.035 36.6171C120.824 47.9818 113.559 54.8083 113.559 54.8083L104.169 37.3639Z" fill="url(#paint20_linear)"/>
<path d="M33.1698 37.3639C33.1698 37.3639 34.8076 28.613 28.8422 22.1887C28.8422 22.1887 22.0927 25.2524 19.3036 36.6171C16.5144 47.9818 23.7801 54.8083 23.7801 54.8083L33.1698 37.3639Z" fill="url(#paint21_linear)"/>
<path d="M112.447 85.7238C98.5507 104.461 33.4873 103.072 25.0107 87.9163C19.4821 78.0165 20.0478 63.138 25.4177 49.4467C32.3657 31.4757 47.5323 15.5345 67.5922 15.5345C91.2056 15.5345 109.35 38.2256 114.819 58.954C117.578 69.4379 117.102 79.4239 112.447 85.7238Z" fill="url(#paint22_linear)"/>
<path d="M29.8745 68.3464C32.9713 81.109 90.2033 82.4973 104.258 70.9315C118.313 59.3657 98.0744 18.2727 67.0663 20.0727C38.7084 21.7195 24.7925 47.4361 29.8745 68.3464Z" fill="#DFE3FB"/>
<path d="M29.5767 66.7954C32.6735 79.5579 89.9054 80.9462 103.96 69.3804C118.015 57.8146 97.7766 16.7217 66.7685 18.5216C38.4106 20.1301 24.4947 45.8946 29.5767 66.7954Z" fill="url(#paint23_linear)"/>
<path style="mix-blend-mode:multiply" opacity="0.3" d="M112.447 85.7238C98.5507 104.461 33.4873 103.072 25.0107 87.9163C19.4821 78.0165 20.0478 63.138 25.4177 49.4467C25.1894 50.251 19.7401 69.4474 25.3085 77.892C31.0059 86.5089 53.5374 85.3312 77.7264 84.3355C101.916 83.3398 109.916 79.9505 113.975 73.3633C117.171 68.1836 113.975 56.7615 112.447 52.1371L114.819 58.9636C117.578 69.4379 117.102 79.4239 112.447 85.7238Z" fill="url(#paint24_linear)"/>
<path d="M67.662 99.5204C54.1232 99.5204 44.3662 98.0364 38.8773 95.93C35.2941 94.5417 33.557 92.895 33.8151 91.2003C33.964 90.1663 36.6241 89.2854 40.7632 88.5195C53.0612 86.3653 78.4811 85.7238 92.1985 87.7248C93.3796 87.8972 94.4715 88.0886 95.4641 88.2993L96.0794 88.4429H96.1986C98.5609 88.9982 100.238 89.6876 100.983 90.5205C101.155 90.7108 101.287 90.932 101.37 91.1716C102.72 95.4322 79.8905 99.53 67.662 99.5204Z" fill="url(#paint25_linear)"/>
<path style="mix-blend-mode:multiply" opacity="0.5" d="M101.29 90.1566C101.235 90.2979 101.158 90.4302 101.062 90.5492C99.7321 92.3587 94.3622 94.6853 94.3622 94.6853C94.3622 94.6853 73.6968 86.5375 56.952 90.1566C40.2072 93.7757 38.9268 95.9012 38.9268 95.9012C35.3436 94.513 33.6066 92.8662 33.8647 91.1715C34.0136 90.1375 36.6737 89.2567 40.8127 88.4907C53.1107 86.3365 78.5306 85.695 92.248 87.696C93.6873 87.945 94.9876 88.1843 96.129 88.4141H96.2481C99.5236 89.1513 101.41 89.7449 101.29 90.1566Z" fill="url(#paint26_linear)"/>
<path d="M95.5434 88.2993C92.3473 91.2577 77.0021 93.8523 68.2575 93.7949C52.5847 93.7949 43.056 91.3917 40.8425 88.5195C54.1927 86.1929 83.0568 85.6185 95.5434 88.2993Z" fill="url(#paint27_linear)"/>
<path d="M94.5607 147.468C92.6748 158.23 82.6498 165.401 68.3567 165.401C55.8899 165.401 45.319 160.92 42.5497 151.04C39.7804 141.159 40.8425 122.92 44.5348 111.555C45.076 109.884 45.7394 108.253 46.52 106.672C47.2134 105.291 47.9992 103.954 48.8724 102.67C53.468 96.0161 60.1282 91.6981 67.6619 91.6981C71.0421 91.6189 74.3983 92.2649 77.4881 93.5896C80.5779 94.9142 83.3241 96.8843 85.5282 99.3576C87.4169 101.514 88.9228 103.956 89.9849 106.586C91.2341 109.684 92.2621 112.86 93.0619 116.093C93.0578 116.125 93.0578 116.157 93.0619 116.189C95.6812 126.42 96.1905 137.048 94.5607 147.468Z" fill="url(#paint28_linear)"/>
<path d="M84.7839 98.5534C84.7839 98.5534 86.0048 111.335 93.7866 119.119C93.7866 119.119 91.6327 107.199 84.7839 98.5534Z" fill="url(#paint29_linear)"/>
<path d="M128.785 82.928C116.586 106.261 95.0372 114.226 95.0372 114.226C89.0817 110.54 83.96 98.4767 85.9948 96.1214C86.0909 96.0003 86.2172 95.9048 86.3621 95.8438C112.616 83.7227 120.467 71.1613 120.467 71.1613C121.915 71.2293 123.315 71.6869 124.508 72.4821C125.7 73.2773 126.639 74.3785 127.217 75.6612C128.282 77.9442 128.817 80.4244 128.785 82.928Z" fill="url(#paint30_linear)"/>
<path style="mix-blend-mode:multiply" opacity="0.5" d="M24.9813 87.9163C27.3189 85.5829 30.0943 83.6985 33.1602 82.3632C38.5498 79.8739 43.5127 77.9207 44.277 75.9197C45.0413 73.9186 29.4777 75.0963 29.4777 75.0963L21.7356 78.342C21.7356 78.342 22.9962 84.3355 24.9813 87.9163Z" fill="url(#paint31_linear)"/>
<path d="M120.517 71.1613C118.333 71.7262 118.532 85.7238 121.341 87.1121C124.15 88.5003 128.785 82.9281 128.785 82.9281C128.785 82.9281 128.269 69.1698 120.517 71.1613Z" fill="url(#paint32_linear)"/>
<path d="M79.0667 46.1436C81.1312 49.6574 94.8288 46.5266 95.603 44.4489C96.5956 41.6532 92.8138 32.8832 85.578 33.6778C78.3421 34.4725 78.0642 44.4394 79.0667 46.1436Z" fill="url(#paint33_linear)"/>
<path d="M57.6668 46.1436C55.5923 49.6574 41.8947 46.5266 41.1304 44.4489C40.0882 41.6532 43.9196 32.8832 51.1555 33.6778C58.3913 34.4725 58.6693 44.4394 57.6668 46.1436Z" fill="url(#paint34_linear)"/>
<path d="M53.8455 52.6159C53.8455 52.6159 57.7364 56.5126 68.8234 56.5126C79.9105 56.5126 85.5782 52.0222 85.5782 52.0222C85.5782 52.0222 80.6947 58.4274 68.8234 58.4274C56.9522 58.4274 53.8455 52.6159 53.8455 52.6159Z" fill="#2F95CD"/>
<path d="M18.6684 40.6766C18.6684 40.6766 22.6387 43.166 20.048 48.9393C20.048 48.9393 1.28836 58.7912 2.38019 69.5336C3.28344 78.4951 29.1797 74.158 29.1797 74.158L30.1028 77.1452C30.1028 77.1452 8.10736 81.3004 0.514152 76.3026C0.514152 76.3026 -2.06654 70.3857 4.33557 59.7199C8.47829 52.9494 13.2774 46.5731 18.6684 40.6766Z" fill="url(#paint35_linear)"/>
<path d="M25.9143 73.325C23.5519 75.9005 28.5644 78.7153 32.6836 79.1558C37.309 79.6345 45.5275 77.8728 45.0313 73.4112C44.535 68.9496 31.4528 67.2837 25.9143 73.325Z" fill="url(#paint36_linear)"/>
<path style="mix-blend-mode:screen" opacity="0.5" d="M38.9664 34.4917C38.2517 38.6278 47.7904 38.4459 60.803 38.0342C76.4063 37.5363 92.089 50.4808 101.221 41.1937C102.72 39.6618 87.7812 19.5366 69.7461 19.9866C51.711 20.4366 39.5818 30.9396 38.9664 34.4917Z" fill="url(#paint37_linear)"/>
<path style="mix-blend-mode:screen" opacity="0.5" d="M47.8106 70.5293C46.9867 73.5261 53.4881 76.5228 69.4686 75.7665C88.7841 74.809 92.8835 70.9793 91.9306 69.8687C91.3648 69.2176 85.5781 72.741 69.7167 69.3804C59.2351 67.1592 48.684 67.3794 47.8106 70.5293Z" fill="url(#paint38_linear)"/>
<path style="mix-blend-mode:multiply" opacity="0.3" d="M112.328 51.7254L111.861 50.3755C111.931 50.634 112.109 51.0935 112.328 51.7254Z" fill="url(#paint39_linear)"/>
<path style="mix-blend-mode:multiply" opacity="0.3" d="M94.5607 147.468C92.6748 158.23 82.6498 165.401 68.3567 165.401C55.8899 165.401 45.319 160.92 42.5497 151.04C39.7804 141.159 40.8425 122.92 44.5348 111.555C45.076 109.884 45.7394 108.253 46.52 106.672C46.52 106.672 38.9764 130.8 45.0014 146.176C51.0263 161.552 79.136 161.217 88.6747 150.963C97.7171 141.245 93.5383 118.41 93.1115 116.237C95.7078 126.456 96.2001 137.067 94.5607 147.468Z" fill="url(#paint40_linear)"/>
<path d="M43.066 141.044C45.2001 126.596 57.2202 116.802 70.5604 118.066C84.9428 119.377 92.675 132.628 92.4765 143.993C92.278 155.358 83.6525 164.233 68.2179 164.233C52.7833 164.233 41.071 154.563 43.066 141.044Z" fill="url(#paint41_linear)"/>
<path d="M43.2049 142.241C45.339 127.793 57.3492 117.999 70.6993 119.263C85.0817 120.574 92.8139 133.825 92.6055 145.19C92.397 156.555 83.7914 165.43 68.3568 165.43C52.9223 165.43 41.2099 155.76 43.2049 142.241Z" fill="url(#paint42_radial)"/>
<path style="mix-blend-mode:multiply" opacity="0.5" d="M85.5778 99.4055C82.5306 104.03 65.7263 106.711 56.0189 105.859C47.5622 105.112 48.8525 102.91 48.9121 102.632C53.468 96.0161 60.1282 91.6981 67.6618 91.6981C71.0543 91.6176 74.4226 92.2677 77.5218 93.6009C80.621 94.9342 83.3731 96.9171 85.5778 99.4055Z" fill="url(#paint43_linear)"/>
<path d="M79.5728 107.41C78.7887 107.658 78.749 113.738 79.5728 114.715C80.3966 115.691 81.6969 115.395 82.1336 113.958C82.5703 112.522 80.7937 107.036 79.5728 107.41Z" fill="white"/>
<path d="M81.0518 116.333C80.3967 116.476 80.3272 117.989 80.625 118.516C80.7345 118.63 80.8711 118.716 81.023 118.767C81.1748 118.819 81.3373 118.834 81.4965 118.811C81.6558 118.789 81.8069 118.729 81.9369 118.637C82.0669 118.546 82.1719 118.425 82.2429 118.286C82.4215 117.645 81.7069 116.18 81.0518 116.333Z" fill="white"/>
<path style="mix-blend-mode:screen" opacity="0.72" d="M51.6519 156.957C51.6519 156.957 55.0961 162.787 67.94 162.787C80.784 162.787 86.0049 155.463 86.0049 155.463C83.8313 156.618 81.4414 157.345 78.9741 157.601C76.5067 157.858 74.0112 157.638 71.6324 156.957C63.136 154.726 54.7586 153.462 51.6519 156.957Z" fill="url(#paint44_linear)"/>
<path d="M78.6397 18.2153C77.27 18.5217 88.7839 24.3908 89.2504 23.6919C89.7169 22.9929 82.4413 17.3249 78.6397 18.2153Z" fill="white"/>
<path d="M100.695 22.5621C99.5434 23.1653 99.6426 24.3525 102.015 24.0557C104.387 23.7589 105.677 21.9589 105.419 21.6142C105.161 21.2695 101.985 21.8919 100.695 22.5621Z" fill="white"/>
<path style="mix-blend-mode:multiply" opacity="0.3" d="M128.785 82.9281C116.586 106.261 95.0372 114.226 95.0372 114.226C89.0817 110.54 83.96 98.4768 85.9948 96.1215C86.1104 96.0208 86.2331 95.928 86.3621 95.8438C86.3621 95.8438 90.2033 109.439 101.459 105.667C114.809 101.196 120.268 78.859 120.268 78.859V72.2527L127.217 75.6612C128.282 77.9443 128.817 80.4245 128.785 82.9281Z" fill="url(#paint45_linear)"/>
<path d="M119.732 75.1154C119.732 75.1154 119.633 82.4876 123.971 83.6844C128.308 84.8812 133.738 77.059 135.753 73.8229C137.768 70.5867 140.815 55.9668 137.926 52.4817C135.038 48.9967 129.45 49.8871 125.728 54.77C125.728 54.77 119.941 68.8346 119.732 75.1154Z" fill="url(#paint46_linear)"/>
<path d="M119.971 72.9229C119.971 72.9229 125.003 69.2273 126.145 63.5497C127.286 57.8721 133.38 50.3754 133.38 50.3754C133.38 50.3754 130.174 50.0882 125.728 54.77C121.281 59.4519 119.971 72.9229 119.971 72.9229Z" fill="url(#paint47_linear)"/>
<path style="mix-blend-mode:multiply" opacity="0.5" d="M124.933 55.7466L128.784 57.1444C127.759 58.85 126.952 60.6698 126.382 62.5635C125.589 64.7863 124.477 66.8908 123.077 68.8155L124.933 55.7466Z" fill="url(#paint48_linear)"/>
<path d="M119.971 71.5251C118.967 68.9084 118.459 66.1388 118.472 63.3486C118.283 57.9679 119.613 53.7743 120.229 52.9797C120.844 52.185 123.018 52.3286 124.05 53.5254C125.083 54.7222 125.827 60.6391 125.827 60.6391C125.827 60.6391 124.437 70.223 119.971 71.5251Z" fill="url(#paint49_linear)"/>
<path d="M126.145 63.5497C126.145 63.5497 128.725 71.774 134.959 75.0389L135.753 73.8038C131.381 71.2003 128.073 67.2243 126.383 62.5444L126.145 63.5497Z" fill="url(#paint50_linear)"/>
<path d="M121.599 57.0104C120.973 56.9338 121.182 62.238 121.956 62.0178C122.73 61.7976 122.482 57.1062 121.599 57.0104Z" fill="white"/>
<path d="M26.2318 73.7942C26.0929 74.5314 42.5895 74.7516 42.9766 71.8793C43.3637 69.007 27.3137 68.1166 26.2318 73.7942Z" fill="url(#paint51_linear)"/>
<path style="mix-blend-mode:screen" opacity="0.2" d="M30.2912 62.5923C29.8858 59.2085 29.9258 55.7889 30.4104 52.4148C31.1945 46.584 32.8223 42.8405 33.795 43.3479C34.7678 43.8554 34.609 49.5808 35.1747 55.2105C35.6214 59.5859 36.4948 63.7029 36.4948 63.7029C36.4948 63.7029 32.3161 67.5517 30.2912 62.5923Z" fill="url(#paint52_linear)"/>
<path style="mix-blend-mode:screen" opacity="0.72" d="M48.3069 133.107C50.838 137.004 61.2799 134.926 73.032 136.037C84.7841 137.147 86.799 140.824 89.2804 140.087C91.7619 139.349 87.8412 122.259 70.2726 121.101C52.704 119.942 47.6716 132.15 48.3069 133.107Z" fill="url(#paint53_linear)"/>
<path d="M129.271 1.17311C129.271 1.17311 129.172 23.711 130.949 34.6353L149.053 41.5096L146.155 36.6172L163.724 34.7023C163.724 34.7023 165.59 9.35914 166.205 1.19226C166.195 1.17311 152.349 -1.41195 129.271 1.17311Z" fill="url(#paint54_linear)"/>
<path style="mix-blend-mode:screen" opacity="0.72" d="M113.638 27.3301C113.638 27.3301 111.454 24.7163 108.477 25.4152C105.499 26.1142 105.3 35.1715 107.077 35.3917C108.854 35.6119 109.618 30.3843 110.988 29.5609C112.164 29.0533 113.465 28.8774 114.74 29.0535L113.638 27.3301Z" fill="url(#paint55_linear)"/>
<path style="mix-blend-mode:screen" opacity="0.72" d="M21.5369 30.48C22.0384 30.053 22.6414 29.7519 23.2923 29.6033C23.9433 29.4546 24.6222 29.4631 25.269 29.6279C27.8596 30.0396 29.3484 35.1523 30.6686 34.6352C31.9887 34.1182 31.016 25.8364 27.5221 23.4046C27.5221 23.4046 22.996 27.1098 21.5369 30.48Z" fill="url(#paint56_linear)"/>
<path d="M18.033 42.5436C18.033 42.5436 8.89137 52.4531 9.44721 53.152C10.0031 53.8509 18.5789 43.5681 18.033 42.5436Z" fill="url(#paint57_linear)"/>
<path d="M146.443 26C145.791 26 145.173 25.739 144.778 25.2889L139.423 19.2185C139.258 19.031 139.137 18.8174 139.068 18.5898C138.998 18.3623 138.982 18.1252 139.02 17.8922C139.057 17.6592 139.148 17.4349 139.287 17.232C139.425 17.0291 139.609 16.8517 139.828 16.7098C140.047 16.5674 140.296 16.4634 140.561 16.4037C140.827 16.3441 141.103 16.33 141.375 16.3622C141.647 16.3945 141.909 16.4724 142.146 16.5917C142.382 16.7109 142.589 16.869 142.755 17.057L146.278 21.0483L155.136 8.84311C155.43 8.44013 155.898 8.15358 156.438 8.04631C156.977 7.93904 157.545 8.01982 158.015 8.27092C158.994 8.79297 159.295 9.89878 158.683 10.7397L148.217 25.1539C148.038 25.4011 147.792 25.6071 147.5 25.7541C147.207 25.9011 146.877 25.9846 146.539 25.9974C146.506 26 146.476 26 146.443 26Z" fill="white"/>
<defs>
<radialGradient id="paint0_radial" cx="0" cy="0" r="1" gradientUnits="userSpaceOnUse" gradientTransform="translate(65.8395 222.141) rotate(90) scale(9.70668 53.4811)">
<stop stop-color="#E8DCF7"/>
<stop offset="1" stop-color="#C4C4C4" stop-opacity="0"/>
</radialGradient>
<radialGradient id="paint1_radial" cx="0" cy="0" r="1" gradientUnits="userSpaceOnUse" gradientTransform="translate(7317.16 -1089.03) scale(3177.19 709.219)">
<stop stop-color="#BE9DEA"/>
<stop offset="0.39" stop-color="#E0BFF5"/>
<stop offset="1" stop-color="white"/>
</radialGradient>
<linearGradient id="paint2_linear" x1="5364.79" y1="1758.63" x2="5530.21" y2="25.5518" gradientUnits="userSpaceOnUse">
<stop/>
<stop offset="1" stop-color="#393091"/>
</linearGradient>
<linearGradient id="paint3_linear" x1="1685.7" y1="7076.4" x2="1913.55" y2="5870.3" gradientUnits="userSpaceOnUse">
<stop stop-color="#CBC1F7"/>
<stop offset="1" stop-color="#E8DCF7"/>
</linearGradient>
<linearGradient id="paint4_linear" x1="2476.22" y1="8700.3" x2="2892.52" y2="6852.94" gradientUnits="userSpaceOnUse">
<stop stop-color="#CBC1F7"/>
<stop offset="1" stop-color="#E8DCF7"/>
</linearGradient>
<linearGradient id="paint5_linear" x1="1773.29" y1="2437.29" x2="1773.29" y2="2256.59" gradientUnits="userSpaceOnUse">
<stop stop-color="#BE9DEA"/>
<stop offset="1" stop-color="#9E8CEF"/>
</linearGradient>
<linearGradient id="paint6_linear" x1="2561.58" y1="2869.71" x2="2561.58" y2="2614.24" gradientUnits="userSpaceOnUse">
<stop stop-color="#BE9DEA"/>
<stop offset="1" stop-color="#9E8CEF"/>
</linearGradient>
<linearGradient id="paint7_linear" x1="1770.23" y1="7068.42" x2="1770.23" y2="5778.24" gradientUnits="userSpaceOnUse">
<stop stop-color="#9D68C2"/>
<stop offset="1" stop-color="#CCEDFF"/>
</linearGradient>
<linearGradient id="paint8_linear" x1="2577.58" y1="8323.41" x2="2577.58" y2="6582.5" gradientUnits="userSpaceOnUse">
<stop stop-color="#9D68C2"/>
<stop offset="1" stop-color="#CCEDFF"/>
</linearGradient>
<linearGradient id="paint9_linear" x1="1515.1" y1="9231.4" x2="2253.67" y2="6012.23" gradientUnits="userSpaceOnUse">
<stop stop-color="#CBC1F7"/>
<stop offset="1" stop-color="#E8DCF7"/>
</linearGradient>
<linearGradient id="paint10_linear" x1="706.099" y1="1646.59" x2="706.099" y2="1559.3" gradientUnits="userSpaceOnUse">
<stop stop-color="#BE9DEA"/>
<stop offset="1" stop-color="#9E8CEF"/>
</linearGradient>
<linearGradient id="paint11_linear" x1="1609.14" y1="8016.32" x2="1609.14" y2="5571.25" gradientUnits="userSpaceOnUse">
<stop stop-color="#9D68C2"/>
<stop offset="1" stop-color="#CCEDFF"/>
</linearGradient>
<linearGradient id="paint12_linear" x1="713.548" y1="6127.09" x2="952.164" y2="5138.42" gradientUnits="userSpaceOnUse">
<stop stop-color="#CBC1F7"/>
<stop offset="1" stop-color="#E8DCF7"/>
</linearGradient>
<linearGradient id="paint13_linear" x1="428.342" y1="5476.3" x2="428.342" y2="4654.91" gradientUnits="userSpaceOnUse">
<stop stop-color="#BE9DEA"/>
<stop offset="1" stop-color="#9E8CEF"/>
</linearGradient>
<linearGradient id="paint14_linear" x1="369.426" y1="2113.62" x2="369.426" y2="1991.3" gradientUnits="userSpaceOnUse">
<stop stop-color="#8DA4E5"/>
<stop offset="1" stop-color="#755CBB"/>
</linearGradient>
<linearGradient id="paint15_linear" x1="437.92" y1="3512.57" x2="532.011" y2="3176.8" gradientUnits="userSpaceOnUse">
<stop stop-color="#CBC1F7"/>
<stop offset="1" stop-color="#E8DCF7"/>
</linearGradient>
<linearGradient id="paint16_linear" x1="-494.391" y1="1864.81" x2="-494.391" y2="713.307" gradientUnits="userSpaceOnUse">
<stop stop-color="#B9ACF4"/>
<stop offset="1" stop-color="#E1D1F5"/>
</linearGradient>
<linearGradient id="paint17_linear" x1="489.203" y1="897.296" x2="489.203" y2="451.424" gradientUnits="userSpaceOnUse">
<stop stop-color="#BE9DEA"/>
<stop offset="1" stop-color="#9E8CEF"/>
</linearGradient>
<linearGradient id="paint18_linear" x1="2552.76" y1="1864.81" x2="2552.76" y2="713.307" gradientUnits="userSpaceOnUse">
<stop stop-color="#B9ACF4"/>
<stop offset="1" stop-color="#E1D1F5"/>
</linearGradient>
<linearGradient id="paint19_linear" x1="1297.75" y1="737.13" x2="1297.75" y2="396.892" gradientUnits="userSpaceOnUse">
<stop stop-color="#BE9DEA"/>
<stop offset="1" stop-color="#9E8CEF"/>
</linearGradient>
<linearGradient id="paint20_linear" x1="2060.04" y1="1888.69" x2="2060.04" y2="777.334" gradientUnits="userSpaceOnUse">
<stop stop-color="#45FFCD"/>
<stop offset="1" stop-color="#22E0FF"/>
</linearGradient>
<linearGradient id="paint21_linear" x1="-468.176" y1="1888.69" x2="-468.176" y2="777.334" gradientUnits="userSpaceOnUse">
<stop stop-color="#45FFCD"/>
<stop offset="1" stop-color="#22E0FF"/>
</linearGradient>
<linearGradient id="paint22_linear" x1="8251.08" y1="8813.4" x2="9069.71" y2="1415.12" gradientUnits="userSpaceOnUse">
<stop stop-color="#CBC1F7"/>
<stop offset="1" stop-color="#E8DCF7"/>
</linearGradient>
<linearGradient id="paint23_linear" x1="7214.73" y1="4763.05" x2="7214.73" y2="1151.1" gradientUnits="userSpaceOnUse">
<stop stop-color="#0665BD"/>
<stop offset="1" stop-color="#1A1F77"/>
</linearGradient>
<linearGradient id="paint24_linear" x1="8623.13" y1="5254.78" x2="8623.13" y2="2634.33" gradientUnits="userSpaceOnUse">
<stop stop-color="#9D68C2"/>
<stop offset="1" stop-color="#CCEDFF"/>
</linearGradient>
<linearGradient id="paint25_linear" x1="3747.75" y1="1349.43" x2="8359.25" y2="1349.43" gradientUnits="userSpaceOnUse">
<stop stop-color="#8879EA"/>
<stop offset="1" stop-color="#9E8CEF"/>
</linearGradient>
<linearGradient id="paint26_linear" x1="6030.69" y1="1029.28" x2="6030.69" y2="936.762" gradientUnits="userSpaceOnUse">
<stop stop-color="#8DA4E5"/>
<stop offset="1" stop-color="#755CBB"/>
</linearGradient>
<linearGradient id="paint27_linear" x1="4894.45" y1="805.235" x2="4895.71" y2="729.945" gradientUnits="userSpaceOnUse">
<stop stop-color="#5E36CC"/>
<stop offset="1" stop-color="#6C4A96"/>
</linearGradient>
<linearGradient id="paint28_linear" x1="4711.72" y1="12811.7" x2="5654.48" y2="7262.85" gradientUnits="userSpaceOnUse">
<stop stop-color="#CBC1F7"/>
<stop offset="1" stop-color="#E8DCF7"/>
</linearGradient>
<linearGradient id="paint29_linear" x1="1041.32" y1="2435.83" x2="1122.97" y2="2435.83" gradientUnits="userSpaceOnUse">
<stop stop-color="#8879EA"/>
<stop offset="1" stop-color="#9E8CEF"/>
</linearGradient>
<linearGradient id="paint30_linear" x1="5513.71" y1="5256.2" x2="5769.34" y2="3211.64" gradientUnits="userSpaceOnUse">
<stop stop-color="#CBC1F7"/>
<stop offset="1" stop-color="#E8DCF7"/>
</linearGradient>
<linearGradient id="paint31_linear" x1="1242.7" y1="1283.23" x2="1242.7" y2="1101.69" gradientUnits="userSpaceOnUse">
<stop stop-color="#8DA4E5"/>
<stop offset="1" stop-color="#755CBB"/>
</linearGradient>
<linearGradient id="paint32_linear" x1="1539.05" y1="1563.91" x2="1539.05" y2="1283.98" gradientUnits="userSpaceOnUse">
<stop stop-color="#BE9DEA"/>
<stop offset="1" stop-color="#9E8CEF"/>
</linearGradient>
<linearGradient id="paint33_linear" x1="1938.95" y1="736.146" x2="1938.95" y2="528.577" gradientUnits="userSpaceOnUse">
<stop stop-color="#45FFCD"/>
<stop offset="1" stop-color="#22E0FF"/>
</linearGradient>
<linearGradient id="paint34_linear" x1="-1819.02" y1="736.146" x2="-1819.02" y2="528.577" gradientUnits="userSpaceOnUse">
<stop stop-color="#45FFCD"/>
<stop offset="1" stop-color="#22E0FF"/>
</linearGradient>
<linearGradient id="paint35_linear" x1="1065.04" y1="3194.05" x2="1306.17" y2="1675.89" gradientUnits="userSpaceOnUse">
<stop stop-color="#BE9DEA"/>
<stop offset="1" stop-color="#9E8CEF"/>
</linearGradient>
<linearGradient id="paint36_linear" x1="10128.4" y1="2247.65" x2="10153.2" y2="2139.12" gradientUnits="userSpaceOnUse">
<stop stop-color="#DD1A8F"/>
<stop offset="1" stop-color="#FE117E"/>
</linearGradient>
<linearGradient id="paint37_linear" x1="3785.8" y1="848.504" x2="7706.13" y2="848.504" gradientUnits="userSpaceOnUse">
<stop/>
<stop offset="1" stop-color="#6A9BFF"/>
</linearGradient>
<linearGradient id="paint38_linear" x1="3102.47" y1="666.75" x2="5081.2" y2="666.75" gradientUnits="userSpaceOnUse">
<stop/>
<stop offset="1" stop-color="#6A9BFF"/>
</linearGradient>
<linearGradient id="paint39_linear" x1="174.254" y1="123.271" x2="174.254" y2="121.368" gradientUnits="userSpaceOnUse">
<stop stop-color="#9D68C2"/>
<stop offset="1" stop-color="#CCEDFF"/>
</linearGradient>
<linearGradient id="paint40_linear" x1="4925.57" y1="10249.1" x2="4925.57" y2="6646.13" gradientUnits="userSpaceOnUse">
<stop stop-color="#9D68C2"/>
<stop offset="1" stop-color="#CCEDFF"/>
</linearGradient>
<linearGradient id="paint41_linear" x1="4460.45" y1="8052.58" x2="4460.45" y2="5816.49" gradientUnits="userSpaceOnUse">
<stop stop-color="#BE9DEA"/>
<stop offset="1" stop-color="#9E8CEF"/>
</linearGradient>
<radialGradient id="paint42_radial" cx="0" cy="0" r="1" gradientUnits="userSpaceOnUse" gradientTransform="translate(4507.87 7764.57) scale(1829.73 1706.23)">
<stop stop-color="#45FFCD"/>
<stop offset="1" stop-color="#22E0FF"/>
</radialGradient>
<linearGradient id="paint43_linear" x1="3304.03" y1="1677.37" x2="3304.03" y2="1463.23" gradientUnits="userSpaceOnUse">
<stop stop-color="#8DA4E5"/>
<stop offset="1" stop-color="#755CBB"/>
</linearGradient>
<linearGradient id="paint44_linear" x1="3149.27" y1="1515.43" x2="3149.27" y2="1448.44" gradientUnits="userSpaceOnUse">
<stop stop-color="#D4E2FF"/>
<stop offset="1"/>
</linearGradient>
<linearGradient id="paint45_linear" x1="5655.98" y1="5078.88" x2="5655.98" y2="3238.75" gradientUnits="userSpaceOnUse">
<stop stop-color="#9D68C2"/>
<stop offset="1" stop-color="#CCEDFF"/>
</linearGradient>
<linearGradient id="paint46_linear" x1="3007.68" y1="2986.78" x2="3257.26" y2="1834.93" gradientUnits="userSpaceOnUse">
<stop stop-color="#CBC1F7"/>
<stop offset="1" stop-color="#E8DCF7"/>
</linearGradient>
<linearGradient id="paint47_linear" x1="2110.64" y1="1767.4" x2="2110.64" y2="1236.33" gradientUnits="userSpaceOnUse">
<stop stop-color="#BE9DEA"/>
<stop offset="1" stop-color="#9E8CEF"/>
</linearGradient>
<linearGradient id="paint48_linear" x1="966.043" y1="994.75" x2="966.043" y2="816.359" gradientUnits="userSpaceOnUse">
<stop stop-color="#8DA4E5"/>
<stop offset="1" stop-color="#755CBB"/>
</linearGradient>
<linearGradient id="paint49_linear" x1="1168.6" y1="1476.24" x2="1281.11" y2="1130" gradientUnits="userSpaceOnUse">
<stop stop-color="#CBC1F7"/>
<stop offset="1" stop-color="#E8DCF7"/>
</linearGradient>
<linearGradient id="paint50_linear" x1="1593.88" y1="1041.74" x2="1593.88" y2="878.684" gradientUnits="userSpaceOnUse">
<stop stop-color="#BE9DEA"/>
<stop offset="1" stop-color="#9E8CEF"/>
</linearGradient>
<linearGradient id="paint51_linear" x1="9194.22" y1="429.31" x2="9194.22" y2="406.893" gradientUnits="userSpaceOnUse">
<stop stop-color="#D93DE3"/>
<stop offset="1" stop-color="#FF6DBA"/>
</linearGradient>
<linearGradient id="paint52_linear" x1="357.86" y1="1560.97" x2="357.86" y2="1063.81" gradientUnits="userSpaceOnUse">
<stop/>
<stop offset="1" stop-color="#00E3FF"/>
</linearGradient>
<linearGradient id="paint53_linear" x1="2944.43" y1="2733.68" x2="4696.31" y2="2733.68" gradientUnits="userSpaceOnUse">
<stop/>
<stop offset="1" stop-color="#D4E2FF"/>
</linearGradient>
<linearGradient id="paint54_linear" x1="147.738" y1="0.0249023" x2="147.738" y2="41.5096" gradientUnits="userSpaceOnUse">
<stop stop-color="#42E8E0"/>
<stop offset="1" stop-color="#40B6CB"/>
</linearGradient>
<linearGradient id="paint55_linear" x1="1228.05" y1="345.227" x2="1306.08" y2="345.227" gradientUnits="userSpaceOnUse">
<stop/>
<stop offset="1" stop-color="#D4E2FF"/>
</linearGradient>
<linearGradient id="paint56_linear" x1="433.926" y1="364.805" x2="528.66" y2="364.805" gradientUnits="userSpaceOnUse">
<stop stop-color="#D4E2FF"/>
<stop offset="1"/>
</linearGradient>
<linearGradient id="paint57_linear" x1="288.611" y1="639.63" x2="290.923" y2="519.793" gradientUnits="userSpaceOnUse">
<stop stop-color="#CBC1F7"/>
<stop offset="1" stop-color="#E8DCF7"/>
</linearGradient>
</defs>
</svg>
