<svg width="973" height="794" viewBox="0 0 973 794" fill="none" xmlns="http://www.w3.org/2000/svg">
<path opacity="0.2" d="M0 -93H985V794C985 794 2.2527 536.725 116.927 308.367C231.601 80.0101 0 -93 0 -93Z" fill="url(#paint0_linear)"/>
<path d="M9 -93H973V772C973 772 11.2047 521.106 123.434 298.413C235.663 75.7191 9 -93 9 -93Z" fill="url(#paint1_linear)"/>
<path d="M49.8378 -120.895L45.3598 -120.767L49.0236 -118.173L49.8871 -119.396C49.0236 -118.173 49.024 -118.173 49.0253 -118.172L49.0324 -118.167L49.0631 -118.145C49.0907 -118.125 49.1327 -118.095 49.1888 -118.055C49.3011 -117.974 49.4697 -117.853 49.6924 -117.69C50.1379 -117.366 50.7999 -116.878 51.6604 -116.231C53.3816 -114.936 55.8968 -113.004 59.0625 -110.458C65.3941 -105.366 74.326 -97.8233 84.7095 -88.0316C105.48 -68.4446 132.039 -39.8783 155.214 -3.95224C201.55 67.8804 234.31 169.03 180.376 286.778C166.581 316.896 170.519 346.968 187.78 376.368C205.004 405.702 235.513 434.425 275.005 462.108C354.005 517.485 469.434 569.03 588.13 613.135C706.852 657.249 828.953 693.959 921.365 719.638C967.573 732.479 1006.36 742.563 1033.6 749.437C1047.22 752.874 1057.95 755.509 1065.28 757.284C1068.95 758.172 1071.76 758.845 1073.66 759.296C1074.6 759.522 1075.32 759.692 1075.81 759.806L1076.35 759.934L1076.49 759.966L1076.53 759.974C1076.53 759.975 1076.53 759.976 1076.56 759.878C1076.59 759.736 1076.67 759.386 1076.87 758.526L1076.54 759.977L1078.44 760.421L1078.37 758.474L1048.58 -148.043L1048.54 -149.542L1047.04 -149.499L49.8378 -120.895Z" stroke="url(#paint2_linear)" stroke-opacity="0.5" stroke-width="3"/>
<defs>
<linearGradient id="paint0_linear" x1="366.236" y1="-93" x2="366.236" y2="794" gradientUnits="userSpaceOnUse">
<stop offset="0.258043" stop-color="#24126A"/>
<stop offset="0.544506" stop-color="#1F72BA"/>
<stop offset="0.9999" stop-color="#278EC3"/>
<stop offset="1" stop-color="#42E8E0" stop-opacity="0.07"/>
</linearGradient>
<linearGradient id="paint1_linear" x1="234.64" y1="-34.3217" x2="884.451" y2="832.421" gradientUnits="userSpaceOnUse">
<stop stop-color="#180D5B"/>
<stop offset="0.414296" stop-color="#24126A" stop-opacity="0.94"/>
<stop offset="0.711176" stop-color="#1F72BA"/>
<stop offset="0.773677" stop-color="#278CC2"/>
<stop offset="1" stop-color="#42E8E0"/>
</linearGradient>
<linearGradient id="paint2_linear" x1="420.658" y1="-130.031" x2="446.664" y2="776.594" gradientUnits="userSpaceOnUse">
<stop stop-color="#24126A"/>
<stop offset="0.544506" stop-color="#1F72BA"/>
<stop offset="1" stop-color="#42E8E0"/>
</linearGradient>
</defs>
</svg>
