<svg width="146" height="222" fill="none" xmlns="http://www.w3.org/2000/svg"><path d="M120.231 109.671s0 7.938-3.28 12.9c-1.86 2.821-5.13 4.436-8.89 4.922-3.05.352-6.142.067-9.07-.836-7.07-2.121-11.72-12.832-14.21-23.349s3.5-13.727 4.35-13.435c1.57.554 5.48 5.516 10 9.991a38.061 38.061 0 007.09 5.837 29.998 29.998 0 0014.01 3.97z" fill="url(#paint0_linear)"/><path style="mix-blend-mode:multiply" opacity=".3" d="M108.061 127.493c-3.05.352-6.142.067-9.07-.836-7.07-2.121-11.72-12.832-14.21-23.349s3.5-13.727 4.35-13.435c1.57.554 5.48 5.516 10 9.991a33.079 33.079 0 00-2.08 17.803c1.57 10.215 11.01 9.826 11.01 9.826z" fill="url(#paint1_linear)"/><path d="M69.321 155.414c0 6.81-2.43 23.096-7.38 22.269-1.07-.175-2.35-1.236-3.72-2.919-4.18-5.01-9.26-15.391-12.13-22.502-1.57-3.892-2.48-6.81-2.23-7.335 1.55-3.347 23.61 6.294 25 7.539.32.273.46 1.352.46 2.948z" fill="url(#paint2_linear)"/><path d="M43.861 144.956c-1.69 3.152 18.37 12.715 25.29 8.152 0 0-23.04-12.335-25.29-8.152z" fill="url(#paint3_linear)"/><path style="mix-blend-mode:multiply" opacity=".3" d="M53.741 155.317c-.78 1.371 3.23 16.723 8.2 22.375-1.07-.175-2.35-1.235-3.72-2.918a1033.7 1033.7 0 01-4.36-10.4 50.091 50.091 0 00-7.77-12.102c-1.57-3.892-2.48-6.81-2.23-7.336 1.55-3.346 23.61 6.295 25 7.54.27.243.41 1.323.41 2.919.05.019-14.75-1.469-15.53-.078z" fill="url(#paint4_linear)"/><path d="M93.231 148.088c-.18.604-.37 1.236-.57 1.888-3 9.923-8.33 24.321-12.32 29.292-1 1.178-1.83 1.82-2.58 1.722a1.876 1.876 0 01-.59-.185 5.184 5.184 0 01-1.95-1.945c-3.89-5.837-6.68-22.376-6.11-27.026a2.09 2.09 0 01.37-1.158c3.26-3.142 24.69-12.267 25.54-10.701.23.457-.5 3.648-1.79 8.113z" fill="url(#paint5_linear)"/><path d="M69.121 151.814c-.83 1.333 20.32 1.226 25.91-11.82 0 0-18.16-.661-25.91 11.82z" fill="url(#paint6_linear)"/><path d="M79.671 158.274c-.89.117-2.14 6.625-.79 7.199 1.35.574 2.83-7.491.79-7.199z" fill="#fff"/><path style="mix-blend-mode:multiply" opacity=".3" d="M93.231 148.088s-11.81 1.518-15.25 6.324c-3.44 4.806-4.47 17.307-2.75 24.477-3.89-5.837-6.68-22.376-6.11-27.026.006-.412.134-.815.37-1.158 3.26-3.142 24.69-12.267 25.54-10.701.22.428-.51 3.619-1.8 8.084z" fill="url(#paint7_linear)"/><path d="M47.881 93.064c0 5.837-.87 14.34-3.61 21.189-4.52 11.343-11.32 25.615-11.53 26.062-4.15 2.462-9.12 2.335-12.29 1.888a22.342 22.342 0 01-3.17-.662 91.28 91.28 0 018.74-27.716 113.418 113.418 0 0112.43-19.34.186.186 0 00.06-.069c.045-.069.095-.134.15-.194l.08-.107a.245.245 0 00.08-.098l.1-.126c4.11-5.078 7.45-8.153 8.15-7.783.45.195.82 2.977.81 6.956z" fill="url(#paint8_linear)"/><path d="M17.331 141.035s5.35-8.58 10.87-7.471 4.53 6.81 4.53 6.81a15.525 15.525 0 01-7.607 2.368 15.569 15.569 0 01-7.793-1.707z" fill="url(#paint9_linear)"/><path style="mix-blend-mode:multiply" opacity=".3" d="M47.881 93.064c0 5.837-.87 14.34-3.61 21.189-4.52 11.343-11.32 25.615-11.53 26.062l-12.3 1.936a22.2 22.2 0 01-3.17-.661 91.292 91.292 0 018.74-27.717 113.464 113.464 0 0112.43-19.34c-2.31 2.977-12 15.926-14.61 26.929-3 12.52 9 7.705 13.9 0s10-28.36 10-28.36l.15-.038z" fill="url(#paint10_linear)"/><path d="M34.501 113.066c-1-.35 4.06-11.441 5.62-11.548 1.56-.107-4.79 11.859-5.62 11.548zm-.51 1.196c-.77-.399-1.5 1.674-.79 1.946.71.273 1.66-1.498.79-1.946z" fill="#fff"/><path d="M93.801 10.81s6.26-5.254 13.91-6.169c0 0 2.34 1.12 5 9.32 2.66 8.202-2.29 24.419-2.29 24.419l-16.62-27.57z" fill="url(#paint11_linear)"/><path d="M107.711 4.641c-4.026 4.747-6.217 10.716-6.19 16.87l2.39 1.469 7-14.048s-2.29-4.407-3.2-4.29z" fill="url(#paint12_linear)"/><path d="M103.681 22.27s-1.64-8.892 4.37-15.42c0 0 6.79 3.113 9.61 14.66 2.82 11.548-4.51 18.485-4.51 18.485l-9.47-17.725z" fill="url(#paint13_linear)"/><path d="M100.191 7.23c-1.16.612-1.06 1.818 1.33 1.517 2.39-.302 3.69-2.13 3.43-2.48-.26-.351-3.46.281-4.76.962z" fill="#fff"/><path d="M41.331 12.123s-6.26-5.254-13.91-6.159c0 0-2.35 1.11-5 9.32-2.65 8.211 2.2 24.41 2.2 24.41l16.71-27.571z" fill="url(#paint14_linear)"/><path d="M27.421 5.964c4.033 4.74 6.227 10.707 6.2 16.86l-2.39 1.469-7-14.048s2.33-4.407 3.19-4.28z" fill="url(#paint15_linear)"/><path d="M31.441 23.563s1.65-8.882-4.36-15.42c0 0-6.8 3.114-9.61 14.662-.8 3.384-.734 6.908.19 10.263a21.101 21.101 0 005.11 8.98l8.67-18.485z" fill="url(#paint16_linear)"/><path d="M34.941 8.543c1.16.612 1.06 1.829-1.33 1.517-2.39-.311-3.69-2.12-3.43-2.48.26-.36 3.44.282 4.76.963z" fill="#fff"/><path d="M94.751 133.612c-1.9 10.935-12 18.222-26.4 18.222-12.56 0-23.21-4.553-26-14.593-2.79-10.04-1.72-28.563 2-40.12a37.525 37.525 0 012-4.962 34.117 34.117 0 012.37-4.066c4.59-6.713 11.3-11.1 18.88-11.1a23.557 23.557 0 019.927 1.91 22.965 22.965 0 018.123 5.872 25.42 25.42 0 014.49 7.345 73.061 73.061 0 013.1 9.661v.097a79.554 79.554 0 011.51 31.734z" fill="url(#paint17_linear)"/><path style="mix-blend-mode:multiply" opacity=".3" d="M94.751 133.612c-1.9 10.935-12 18.222-26.4 18.222-12.56 0-23.21-4.553-26-14.593-2.79-10.04-1.72-28.563 2-40.12a37.514 37.514 0 012-4.962s-7.6 24.516-1.53 40.13c6.07 15.615 34.39 15.284 44 4.865 9.11-9.875 4.9-33.077 4.47-35.286a79.558 79.558 0 011.46 31.744z" fill="url(#paint18_linear)"/><path d="M42.871 127.114c2.15-14.681 14.26-24.623 27.7-23.349 14.5 1.333 22.29 14.797 22.08 26.345-.21 11.548-8.89 20.566-24.44 20.566s-27.35-9.826-25.34-23.562z" fill="url(#paint19_linear)"/><path d="M43.011 128.33c2.15-14.681 14.25-24.623 27.7-23.349 14.49 1.333 22.28 14.797 22.07 26.345-.21 11.548-8.88 20.566-24.43 20.566-15.55 0-27.35-9.826-25.34-23.562z" fill="url(#paint20_radial)"/><path style="mix-blend-mode:multiply" opacity=".5" d="M85.701 84.853c-3.07 4.699-20 7.423-29.78 6.557-8.51-.759-7.22-2.996-7.16-3.269 4.59-6.712 11.3-11.1 18.88-11.1a23.557 23.557 0 019.937 1.922 22.964 22.964 0 018.123 5.89z" fill="url(#paint21_linear)"/><path d="M79.691 92.938c-.79.252-.83 6.43 0 7.422.83.993 2.14.691 2.58-.768.44-1.46-1.39-7.034-2.58-6.654zm1.45 9.066c-.66.156-.73 1.683-.43 2.219a1.03 1.03 0 001.322.123.978.978 0 00.308-.357c.19-.652-.54-2.14-1.2-1.985z" fill="#fff"/><path style="mix-blend-mode:screen" opacity=".72" d="M51.521 143.283s3.47 5.885 16.41 5.934c12.94.049 18.2-7.442 18.2-7.442a19.246 19.246 0 01-7.099 2.173c-2.491.259-5.01.033-7.41-.665-8.53-2.267-17-3.551-20.1 0z" fill="url(#paint22_linear)"/><path style="mix-blend-mode:screen" opacity=".72" d="M48.151 119.02c2.55 3.959 13.07 1.848 24.92 2.977 11.85 1.128 13.86 4.864 16.36 4.115 2.5-.749-1.45-18.115-19.15-19.292-17.7-1.177-22.77 11.207-22.13 12.2z" fill="url(#paint23_linear)"/><path d="M23.751 68.315c9.58 21.5 81.29 14.797 89.86-2.86 9.37-19.321-12.17-67.069-46.54-64.841-29.03 1.916-55.63 40.091-43.32 67.7z" fill="url(#paint24_linear)"/><path d="M27.711 65.308c9.16 17.6 71.76 14.73 80.91-1.488 7.77-13.766-10.57-55.686-42-54.188-31.43 1.498-47.7 38.759-38.91 55.676z" fill="url(#paint25_linear)"/><path d="M95.671 44.528c-1.23 3.21-17.74 2.831-17.72 1.683.1-6.42 3.62-14.835 10.21-14.777 6.81.058 9.81 7.111 7.51 13.094z" fill="url(#paint26_linear)"/><path d="M40.041 44.966c1.42 3.142 17.88 1.868 17.79.71-.46-6.401-4.47-14.593-11.05-14.194-6.79.419-9.38 7.647-6.74 13.484z" fill="url(#paint27_linear)"/><path d="M58.121 56.825c-2.49.584 2.7 8.659 11 8.659 7.4 0 11.56-8.29 10.63-8.659-.93-.37-5.38 1.868-11.54 1.868-6.16 0-9.05-2.111-10.09-1.868z" fill="#2F95CD"/><path d="M17.271 141.551s3.3-4.553 8.07-5.156c4.77-.603 6.48.671 7.39 3.891.91 3.22-5.85 15.118-14.25 24.059-3.63.292-4.72-4.038-5.25-6.81 0-2.403 2.39-12.161 4.04-15.984z" fill="url(#paint28_linear)"/><path d="M28.851 136.414s-9 12.083-11.79 19.049c-1.53 3.755-2.4 6.216-2.4 6.216s2.32 5.73 6.18.973c5.46-6.81 12.78-17.005 11.45-21.918-1.12-4.252-1.88-5.04-3.44-4.32z" fill="url(#paint29_linear)"/><path d="M113.621 108.678c-4.1 1.246-4.59 14.788-.68 16.539 3.91 1.751 9.37-10.128 7.34-15.566-.05.02-3.66-1.887-6.66-.973z" fill="url(#paint30_linear)"/><path d="M113.931 110.254a7.775 7.775 0 00-1.809 3.484 7.643 7.643 0 00.139 3.9c1.25 4.573 7.5 7.657 15.31 7.559 7.81-.097 12.81-5.584 13.9-8.921 0 0-1.4-2.802-9.06-4.524-5.2-1.177-12.18-2.081-12.18-2.081a14.232 14.232 0 00-6.3.583z" fill="url(#paint31_linear)"/><path d="M112.621 118.514a34.978 34.978 0 0015 .759c8.12-1.421 5.65-7.063 5.65-7.063a36.389 36.389 0 00-7.63-2.656c-3.64-.72-11.54 0-11.54 0a7.308 7.308 0 00-2.327 4.232 7.195 7.195 0 00.847 4.728z" fill="url(#paint32_linear)"/><path style="mix-blend-mode:multiply" opacity=".5" d="M117.561 123.213s.73-5.623.06-8.328c0 0 2.3 5.837 2.61 9.359l-2.67-1.031z" fill="url(#paint33_linear)"/><path d="M140.871 143.224l-3.21.224 2.63.496-.45 3.444h-.3c-.6 0-2.06.127-4 .214-5.881.335-11.78.257-17.65-.233 0 0 2.91-17.317 0-30.82l-.29-2.783-.06-.525 11.5-1.148a165.453 165.453 0 0110.32 19.973c.9 2.14 1.73 4.309 2.41 6.411l-.9 4.747z" fill="url(#paint34_linear)"/><path style="mix-blend-mode:multiply" opacity=".5" d="M139.361 132.046l-16.74 2.773-3.43-17.92 14.43 5.097s5.08 8.435 5.74 10.05z" fill="url(#paint35_linear)"/><path style="mix-blend-mode:multiply" opacity=".5" d="M119.561 146.143s10.38 1.187 20.28 1.226h-.3c-.6 0-2.06.126-4 .214-5.05.243-13.28.486-17.65-.234 0 0 2.91-17.317 0-30.82l-.29-2.782 1-.613 19.11 16.772 1.63 2.082c.9 2.14 1.73 4.309 2.41 6.411h-17.6l-1.53 3.415 15.07 1.653-15.4-.972-2.73 3.648z" fill="url(#paint36_linear)"/><path d="M117.561 113.28s4.55-2.919 13.63-3.532c0 0 8.77 9.32 14 20.206l-22.3.584s-2.22-11.47-5.33-17.258z" fill="url(#paint37_linear)"/><path style="mix-blend-mode:multiply" opacity=".5" d="M119.201 112.443a19.293 19.293 0 008.29 4.933c4.69 1.109 7.43-3.26 7.43-3.26l-1.62-2.023-14.1.35z" fill="url(#paint38_linear)"/><path d="M114.531 109.884c-1.17-3.512 15.09-3.473 17.26-2.111 1 .604 2.6 2.685 1.92 3.96-.68 1.274-6 2.043-8.25 1.829-2.25-.214-10.15-1.372-10.93-3.678z" fill="url(#paint39_linear)"/><path d="M126.981 113.581s-.16-3.463 1.69-4.864a3.653 3.653 0 011.676-.783 3.704 3.704 0 011.854.131s2.42 1.751 1.51 3.649c-.91 1.897-5.52 2.325-6.73 1.867z" fill="url(#paint40_linear)"/><path d="M127.021 116.529c-3.4 1.518-2.13 8.853 2.2 10.818 4.33 1.965 7.64-2.636 7.07-6.683-.57-4.047-7-5.147-9.27-4.135z" fill="#D9D2EC" opacity=".5"/><path d="M129.941 118.65c.197-.044.398-.067.6-.068h.72l.3 1.274a1.448 1.448 0 00-.39-.097 2.403 2.403 0 00-.36 0c-.12-.01-.24-.01-.36 0a.673.673 0 00-.33.331.68.68 0 000 .506.812.812 0 00.26.399c.119.107.254.195.4.262.159.081.323.153.49.214.178.072.349.16.51.263.172.108.327.239.46.389.155.185.274.396.35.623.077.215.107.444.09.671a1.421 1.421 0 01-.14.564c-.08.163-.188.311-.32.438a1.857 1.857 0 01-.42.321l1.34 2.422h-1.22l-.63-2.208h-.82a1.04 1.04 0 01-.38-.097l-.32-1.226c.166.055.337.094.51.117.147.009.294.009.44 0 .146-.007.29-.03.43-.068a.627.627 0 00.17-.662.667.667 0 00-.23-.331 3.782 3.782 0 00-.42-.262l-.53-.263a2.574 2.574 0 01-.54-.331 2.69 2.69 0 01-.49-.457 2.28 2.28 0 01-.34-.652 1.738 1.738 0 010-1.148c.116-.333.345-.618.65-.807l-1.09-2.608 1 .273.61 2.218zM77.201 4.641c-.66.76 6.95 3.97 8 3.522 1.05-.447-5.81-6.06-8-3.522z" fill="#fff"/><path style="mix-blend-mode:screen" opacity=".5" d="M38.751 27.29c-.72 4.202 7.46 3.726 20.54 3.297 15.73-.506 31.53 12.647 40.72 3.21 1.52-1.556-13.54-22.005-31.71-21.548-18.17.457-28.93 11.392-29.55 15.04z" fill="url(#paint41_linear)"/><path style="mix-blend-mode:screen" opacity=".5" d="M46.851 71.126c-.83 3.026 5.77 6.09 21.77 5.322 19.47-.973 23.6-4.865 22.64-5.993-.57-.662-6.4 2.918-22.39-.496-10.51-2.257-21.15-2.043-22.02 1.167z" fill="url(#paint42_linear)"/><path style="mix-blend-mode:screen" opacity=".2" d="M29.461 61.66a39.933 39.933 0 01.16-10.341c.8-5.925 2.43-9.729 3.41-9.213s.82 6.343 1.4 12.063c.44 4.446 1.32 8.62 1.32 8.62s-4.24 3.92-6.29-1.129z" fill="url(#paint43_linear)"/><path style="mix-blend-mode:multiply" opacity=".5" d="M30.801 75.601s1-.972 6.16-3.988c3.49-1.946 7.14-4.349 7.66-5.215.77-2.033-14.9-.837-14.9-.837l-6 2.783a20.158 20.158 0 007.08 7.257z" fill="url(#paint44_linear)"/><path d="M18.821 30.626s4 2.53 1.39 8.396c0 0-18.89 10.01-17.8 20.926.91 9.106 27 4.699 27 4.699l.94 3.035s-22.18 4.222-29.83-.856c0 0-2.61-6.012 3.85-16.85a126.124 126.124 0 0114.45-19.35z" fill="url(#paint45_linear)"/><path d="M26.131 63.8c-2.38 2.618 2.67 5.478 6.82 5.925 4.66.487 12.93-1.303 12.43-5.837-.5-4.533-13.68-6.226-19.25-.087z" fill="url(#paint46_linear)"/><path d="M26.441 64.277c-.14.75 16.49.973 16.88-1.945.39-2.919-15.79-3.824-16.88 1.945z" fill="url(#paint47_linear)"/><path style="mix-blend-mode:screen" opacity=".72" d="M113.621 12.064s-2.21-2.656-5.21-1.945c-3 .71-3.2 9.913-1.41 10.137 1.79.224 2.56-5.088 3.94-5.925a7.004 7.004 0 013.78-.506l-1.1-1.76z" fill="url(#paint48_linear)"/><path style="mix-blend-mode:screen" opacity=".72" d="M19.991 15.985a4.173 4.173 0 011.77-.887 4.241 4.241 0 011.99.021c2.61.418 4.11 5.614 5.44 5.098s.36-8.95-3.16-11.422c0 0-4.54 3.765-6.04 7.19z" fill="url(#paint49_linear)"/><path style="mix-blend-mode:multiply" opacity=".5" d="M21.311 147.495s1.25 6.431 5.31 7.403l.63-15.478s-4.74 6.09-5.94 8.075z" fill="url(#paint50_linear)"/><path d="M25.231 143.107c-.6 1.489.56 11.237 1.65 12.336 1.09 1.099 3.61-.759 4.31-2.734.7-1.974 3.85-12.734-.19-16.188 0 0-3.27.35-5.77 6.586z" fill="url(#paint51_linear)"/><path d="M27.061 144.411c-.45.078-1 3.425-.58 4.018.42.593 1.11.535 1.46-.224.35-.759-.21-3.911-.88-3.794z" fill="#fff"/><path d="M15.191 36.531s-9 10.206-8.46 10.916c.54.71 9.03-9.884 8.46-10.916z" fill="url(#paint52_linear)"/><ellipse cx="66.642" cy="211.655" rx="56" ry="9.863" fill="url(#paint53_radial)"/><defs><linearGradient id="paint0_linear" x1="22135.5" y1="5431.06" x2="22316.2" y2="4058.18" gradientUnits="userSpaceOnUse"><stop stop-color="#CBC1F7"/><stop offset="1" stop-color="#E8DCF7"/></linearGradient><linearGradient id="paint1_linear" x1="14616.2" y1="5454.86" x2="14616.2" y2="3985.8" gradientUnits="userSpaceOnUse"><stop stop-color="#9D68C2"/><stop offset="1" stop-color="#CCEDFF"/></linearGradient><linearGradient id="paint2_linear" x1="15673.4" y1="4079.02" x2="15668.5" y2="2909.57" gradientUnits="userSpaceOnUse"><stop stop-color="#CBC1F7"/><stop offset="1" stop-color="#E8DCF7"/></linearGradient><linearGradient id="paint3_linear" x1="14866.8" y1="-588.172" x2="14843.3" y2="-726.975" gradientUnits="userSpaceOnUse"><stop stop-color="#BE9DEA"/><stop offset="1" stop-color="#9E8CEF"/></linearGradient><linearGradient id="paint4_linear" x1="15737.7" y1="4077.45" x2="15532.6" y2="2865.82" gradientUnits="userSpaceOnUse"><stop stop-color="#9D68C2"/><stop offset="1" stop-color="#CCEDFF"/></linearGradient><linearGradient id="paint5_linear" x1="13662.4" y1="10478.3" x2="14295.1" y2="8739.21" gradientUnits="userSpaceOnUse"><stop stop-color="#CBC1F7"/><stop offset="1" stop-color="#E8DCF7"/></linearGradient><linearGradient id="paint6_linear" x1="14684.2" y1="4515.47" x2="14714.9" y2="4315.29" gradientUnits="userSpaceOnUse"><stop stop-color="#BE9DEA"/><stop offset="1" stop-color="#9E8CEF"/></linearGradient><linearGradient id="paint7_linear" x1="13845" y1="10035" x2="14097.5" y2="8387.41" gradientUnits="userSpaceOnUse"><stop stop-color="#9D68C2"/><stop offset="1" stop-color="#CCEDFF"/></linearGradient><linearGradient id="paint8_linear" x1="16598.6" y1="8999.99" x2="17354.8" y2="5731.85" gradientUnits="userSpaceOnUse"><stop stop-color="#CBC1F7"/><stop offset="1" stop-color="#E8DCF7"/></linearGradient><linearGradient id="paint9_linear" x1="8330.99" y1="1597.1" x2="8330.99" y2="1508.27" gradientUnits="userSpaceOnUse"><stop stop-color="#BE9DEA"/><stop offset="1" stop-color="#9E8CEF"/></linearGradient><linearGradient id="paint10_linear" x1="16698.2" y1="7813.5" x2="16698.2" y2="5328.56" gradientUnits="userSpaceOnUse"><stop stop-color="#9D68C2"/><stop offset="1" stop-color="#CCEDFF"/></linearGradient><linearGradient id="paint11_linear" x1="12227.3" y1="1699.33" x2="12227.3" y2="529.276" gradientUnits="userSpaceOnUse"><stop stop-color="#B9ACF4"/><stop offset="1" stop-color="#E1D1F5"/></linearGradient><linearGradient id="paint12_linear" x1="5910.11" y1="635.554" x2="5910.11" y2="289.835" gradientUnits="userSpaceOnUse"><stop stop-color="#BE9DEA"/><stop offset="1" stop-color="#9E8CEF"/></linearGradient><linearGradient id="paint13_linear" x1="9346.66" y1="1726.75" x2="9346.66" y2="597.495" gradientUnits="userSpaceOnUse"><stop stop-color="#45FFCD"/><stop offset="1" stop-color="#22E0FF"/></linearGradient><linearGradient id="paint14_linear" x1="-8457.26" y1="1745.7" x2="-8457.26" y2="576.319" gradientUnits="userSpaceOnUse"><stop stop-color="#B9ACF4"/><stop offset="1" stop-color="#E1D1F5"/></linearGradient><linearGradient id="paint15_linear" x1="-4097.54" y1="661.304" x2="-4097.54" y2="315.76" gradientUnits="userSpaceOnUse"><stop stop-color="#BE9DEA"/><stop offset="1" stop-color="#9E8CEF"/></linearGradient><linearGradient id="paint16_linear" x1="-6444.61" y1="1839.29" x2="-6444.61" y2="658.08" gradientUnits="userSpaceOnUse"><stop stop-color="#45FFCD"/><stop offset="1" stop-color="#22E0FF"/></linearGradient><linearGradient id="paint17_linear" x1="31709.2" y1="12555.9" x2="32672.8" y2="6923.56" gradientUnits="userSpaceOnUse"><stop stop-color="#CBC1F7"/><stop offset="1" stop-color="#E8DCF7"/></linearGradient><linearGradient id="paint18_linear" x1="31934.4" y1="10048.9" x2="31934.4" y2="6388.44" gradientUnits="userSpaceOnUse"><stop stop-color="#9D68C2"/><stop offset="1" stop-color="#CCEDFF"/></linearGradient><linearGradient id="paint19_linear" x1="29048.6" y1="7890.77" x2="29048.6" y2="5618.73" gradientUnits="userSpaceOnUse"><stop stop-color="#BE9DEA"/><stop offset="1" stop-color="#9E8CEF"/></linearGradient><linearGradient id="paint21_linear" x1="21517.5" y1="1601.28" x2="21517.5" y2="1383.82" gradientUnits="userSpaceOnUse"><stop stop-color="#8DA4E5"/><stop offset="1" stop-color="#755CBB"/></linearGradient><linearGradient id="paint22_linear" x1="20166.8" y1="1477.72" x2="20166.8" y2="1409.57" gradientUnits="userSpaceOnUse"><stop stop-color="#D4E2FF"/><stop offset="1"/></linearGradient><linearGradient id="paint23_linear" x1="23595.8" y1="2647.63" x2="25360.8" y2="2647.63" gradientUnits="userSpaceOnUse"><stop/><stop offset="1" stop-color="#D4E2FF"/></linearGradient><linearGradient id="paint24_linear" x1="54902.4" y1="7801.7" x2="55638.8" y2="931.186" gradientUnits="userSpaceOnUse"><stop stop-color="#CBC1F7"/><stop offset="1" stop-color="#E8DCF7"/></linearGradient><linearGradient id="paint25_linear" x1="49379.6" y1="6119.95" x2="49379.6" y2="1407.02" gradientUnits="userSpaceOnUse"><stop stop-color="#0665BD"/><stop offset="1" stop-color="#1A1F77"/></linearGradient><linearGradient id="paint26_linear" x1="-11273.4" y1="-459.622" x2="-11240.1" y2="-720.078" gradientUnits="userSpaceOnUse"><stop stop-color="#45FFCD"/><stop offset="1" stop-color="#22E0FF"/></linearGradient><linearGradient id="paint27_linear" x1="12344.7" y1="-1293.33" x2="12296.9" y2="-1549.71" gradientUnits="userSpaceOnUse"><stop stop-color="#45FFCD"/><stop offset="1" stop-color="#22E0FF"/></linearGradient><linearGradient id="paint28_linear" x1="10458.4" y1="5200.36" x2="10606.5" y2="4377.91" gradientUnits="userSpaceOnUse"><stop stop-color="#CBC1F7"/><stop offset="1" stop-color="#E8DCF7"/></linearGradient><linearGradient id="paint29_linear" x1="9570.83" y1="5217.29" x2="9445.3" y2="4445.62" gradientUnits="userSpaceOnUse"><stop stop-color="#BE9DEA"/><stop offset="1" stop-color="#9E8CEF"/></linearGradient><linearGradient id="paint30_linear" x1="6686.89" y1="2472.31" x2="6639.82" y2="2187.04" gradientUnits="userSpaceOnUse"><stop stop-color="#BE9DEA"/><stop offset="1" stop-color="#9E8CEF"/></linearGradient><linearGradient id="paint31_linear" x1="18952.3" y1="2292.39" x2="18968.2" y2="2054.17" gradientUnits="userSpaceOnUse"><stop stop-color="#CBC1F7"/><stop offset="1" stop-color="#E8DCF7"/></linearGradient><linearGradient id="paint32_linear" x1="14059.1" y1="1517.88" x2="14053.2" y2="1397.64" gradientUnits="userSpaceOnUse"><stop stop-color="#BE9DEA"/><stop offset="1" stop-color="#9E8CEF"/></linearGradient><linearGradient id="paint33_linear" x1="1803.07" y1="1410.98" x2="1803.07" y2="1320.95" gradientUnits="userSpaceOnUse"><stop stop-color="#8DA4E5"/><stop offset="1" stop-color="#755CBB"/></linearGradient><linearGradient id="paint34_linear" x1="129.671" y1="147.836" x2="129.671" y2="112.073" gradientUnits="userSpaceOnUse"><stop stop-color="#6FCAF4"/><stop offset="1" stop-color="#7DFFCF"/></linearGradient><linearGradient id="paint35_linear" x1="129.261" y1="134.819" x2="129.261" y2="116.899" gradientUnits="userSpaceOnUse"><stop stop-color="#755CBB"/><stop offset="1" stop-color="#CCEDFF"/></linearGradient><linearGradient id="paint36_linear" x1="15623.8" y1="5760.84" x2="15623.8" y2="4523.68" gradientUnits="userSpaceOnUse"><stop stop-color="#755CBB"/><stop offset="1" stop-color="#CCEDFF"/></linearGradient><linearGradient id="paint37_linear" x1="17904.4" y1="3123.44" x2="17904.4" y2="2679.16" gradientUnits="userSpaceOnUse"><stop stop-color="#6FCAF4"/><stop offset="1" stop-color="#7DFFCF"/></linearGradient><linearGradient id="paint38_linear" x1="10047.6" y1="815.784" x2="10294.7" y2="815.784" gradientUnits="userSpaceOnUse"><stop stop-color="#755CBB"/><stop offset="1" stop-color="#CCEDFF"/></linearGradient><linearGradient id="paint39_linear" x1="11281.8" y1="4834.57" x2="11306.8" y2="4769.79" gradientUnits="userSpaceOnUse"><stop stop-color="#CBC1F7"/><stop offset="1" stop-color="#E8DCF7"/></linearGradient><linearGradient id="paint40_linear" x1="4588.08" y1="857.505" x2="4585.14" y2="823.491" gradientUnits="userSpaceOnUse"><stop stop-color="#CBC1F7"/><stop offset="1" stop-color="#D4BEF1"/></linearGradient><linearGradient id="paint41_linear" x1="33881" y1="916.548" x2="37652.2" y2="916.548" gradientUnits="userSpaceOnUse"><stop/><stop offset="1" stop-color="#6A9BFF"/></linearGradient><linearGradient id="paint42_linear" x1="24989.5" y1="760.239" x2="26981.2" y2="760.239" gradientUnits="userSpaceOnUse"><stop/><stop offset="1" stop-color="#6A9BFF"/></linearGradient><linearGradient id="paint43_linear" x1="32.075" y1="64.196" x2="33.549" y2="42.09" gradientUnits="userSpaceOnUse"><stop/><stop offset="1" stop-color="#00E3FF"/></linearGradient><linearGradient id="paint44_linear" x1="11462.3" y1="984.588" x2="11462.3" y2="873.627" gradientUnits="userSpaceOnUse"><stop stop-color="#8DA4E5"/><stop offset="1" stop-color="#755CBB"/></linearGradient><linearGradient id="paint45_linear" x1="15993.3" y1="3227.06" x2="16240.6" y2="1685.09" gradientUnits="userSpaceOnUse"><stop stop-color="#BE9DEA"/><stop offset="1" stop-color="#9E8CEF"/></linearGradient><linearGradient id="paint46_linear" x1="10199.1" y1="2273.15" x2="10224.5" y2="2162.97" gradientUnits="userSpaceOnUse"><stop stop-color="#DD1A8F"/><stop offset="1" stop-color="#FE117E"/></linearGradient><linearGradient id="paint47_linear" x1="9268.47" y1="425.524" x2="9268.47" y2="402.746" gradientUnits="userSpaceOnUse"><stop stop-color="#D93DE3"/><stop offset="1" stop-color="#FF6DBA"/></linearGradient><linearGradient id="paint48_linear" x1="5584.52" y1="280.167" x2="5663.04" y2="280.167" gradientUnits="userSpaceOnUse"><stop/><stop offset="1" stop-color="#D4E2FF"/></linearGradient><linearGradient id="paint49_linear" x1="5221.74" y1="303.363" x2="5317.21" y2="303.363" gradientUnits="userSpaceOnUse"><stop stop-color="#D4E2FF"/><stop offset="1"/></linearGradient><linearGradient id="paint50_linear" x1="3216.14" y1="2772.55" x2="3155.24" y2="2543.52" gradientUnits="userSpaceOnUse"><stop stop-color="#8DA4E5"/><stop offset="1" stop-color="#755CBB"/></linearGradient><linearGradient id="paint51_linear" x1="4319.53" y1="3426.09" x2="4427.83" y2="3069.9" gradientUnits="userSpaceOnUse"><stop stop-color="#CBC1F7"/><stop offset="1" stop-color="#E8DCF7"/></linearGradient><linearGradient id="paint52_linear" x1="4460.78" y1="689.016" x2="4460.78" y2="565.724" gradientUnits="userSpaceOnUse"><stop stop-color="#CBC1F7"/><stop offset="1" stop-color="#E8DCF7"/></linearGradient><radialGradient id="paint20_radial" cx="0" cy="0" r="1" gradientUnits="userSpaceOnUse" gradientTransform="matrix(1843.41 0 0 1733.65 29091.4 7598.09)"><stop stop-color="#45FFCD"/><stop offset="1" stop-color="#22E0FF"/></radialGradient><radialGradient id="paint53_radial" cx="0" cy="0" r="1" gradientUnits="userSpaceOnUse" gradientTransform="matrix(0 9.86303 -56 0 66.642 211.655)"><stop stop-color="#E8DCF7"/><stop offset="1" stop-color="#C4C4C4" stop-opacity="0"/></radialGradient></defs></svg>