<svg width="170" height="232" fill="none" xmlns="http://www.w3.org/2000/svg"><ellipse cx="65.84" cy="222.141" rx="53.481" ry="9.707" fill="url(#paint0_radial)"/><path style="mix-blend-mode:multiply" opacity=".5" d="M84.946 230.999c21.509 0 38.945-3.892 38.945-8.693 0-4.802-17.436-8.694-38.945-8.694-21.51 0-38.946 3.892-38.946 8.694 0 4.801 17.437 8.693 38.946 8.693z" fill="url(#paint1_radial)"/><path d="M166.195 1.173l2.898 1.197-2.898 31.26-2.482 1.063-13.638 1.32-1.032 5.497-9.926-7.88 27.078-32.457z" fill="url(#paint2_linear)"/><path d="M64.03 168.024c-1.182 6.645-6.423 22.021-11.118 20.384-.992-.344-2.074-1.589-3.126-3.408-3.216-5.544-6.373-16.439-7.94-23.812-.855-4.021-1.242-6.998-.894-7.477 2.094-2.997 21.985 9.976 23.176 11.422.229.278.18 1.35-.099 2.891z" fill="url(#paint3_linear)"/><path d="M95.533 159.053c-.079.613-.168 1.255-.258 1.915-1.41 10.101-4.308 24.893-7.434 30.312-.744 1.293-1.509 2.04-2.263 2.059a1.701 1.701 0 01-.606-.086 5.136 5.136 0 01-2.203-1.57c-4.745-5.132-10.095-20.71-10.283-25.363a2.047 2.047 0 01.178-1.177c2.7-3.543 22.264-15.607 23.356-14.17.288.373.07 3.59-.487 8.08z" fill="url(#paint4_linear)"/><path d="M40.962 153.711c-2.204 2.776 15.742 15.319 23.306 12.054 0 0-20.378-15.74-23.306-12.054z" fill="url(#paint5_linear)"/><path d="M72.486 166.311c-.596 1.417 20.13-1.829 23.534-15.319 0-.029-17.916 1.991-23.534 15.319z" fill="url(#paint6_linear)"/><path style="mix-blend-mode:multiply" opacity=".3" d="M48.803 165.372c-.992 1.207.238 16.755 4.11 23.036-.993-.344-2.075-1.589-3.127-3.408a878.207 878.207 0 01-2.452-10.8 48.372 48.372 0 00-5.479-13.012c-.853-4.021-1.24-6.998-.893-7.477 2.094-2.997 21.985 9.976 23.176 11.422.219.278.17 1.35-.109 2.872 0 .019-14.233-3.82-15.226-2.633z" fill="url(#paint7_linear)"/><path d="M83.85 171.012c-.843.258-.992 6.769.368 7.123 1.36.354 1.588-7.688-.367-7.123z" fill="#fff"/><path style="mix-blend-mode:multiply" opacity=".3" d="M95.533 159.053s-11.335 3.236-13.955 8.426c-2.62 5.189-1.638 17.482 1.19 24.194-4.744-5.132-10.094-20.709-10.282-25.362a2.05 2.05 0 01.178-1.178c2.7-3.543 22.264-15.606 23.356-14.17.288.383.07 3.6-.487 8.09z" fill="url(#paint8_linear)"/><path d="M46.56 108.099c0 5.744-.864 14.112-3.574 20.853-4.496 11.163-11.246 25.218-11.454 25.649-4.12 2.423-9.052 2.298-12.199 1.858a21.307 21.307 0 01-3.146-.661 89.15 89.15 0 018.685-27.268 110.362 110.362 0 0112.337-19.033.32.32 0 000-.077l.15-.191.089-.096.07-.096.108-.124c4.08-4.998 7.395-8.033 8.09-7.66.486.192.853 2.92.844 6.846z" fill="url(#paint9_linear)"/><path d="M16.237 155.31s5.31-8.454 10.79-7.353c5.478 1.101 4.495 6.702 4.495 6.702a15.537 15.537 0 01-7.55 2.326 15.602 15.602 0 01-7.735-1.675z" fill="url(#paint10_linear)"/><path style="mix-blend-mode:multiply" opacity=".3" d="M46.56 108.099c0 5.744-.864 14.112-3.574 20.853-4.496 11.163-11.246 25.218-11.454 25.649l-12.209 1.867a21.433 21.433 0 01-3.146-.66 89.132 89.132 0 018.685-27.268A110.37 110.37 0 0137.2 109.506c-2.293 2.921-11.921 15.673-14.512 26.473-2.978 12.322 8.933 7.574 13.797 0 4.864-7.573 9.926-27.909 9.926-27.909l.148.029z" fill="url(#paint11_linear)"/><path d="M33.28 127.793c-.993-.354 4.029-11.269 5.577-11.365 1.549-.095-4.754 11.662-5.578 11.365zm-.507 1.159c-.764-.383-1.479 1.656-.784 1.915.695.258 1.648-1.465.784-1.915z" fill="#fff"/><path d="M25.26 150.503c-2.84-.45-6.949 2.116-8.24 4.414-1.29 2.298-1.965 15.53 1.281 26.464 0 0 4.576 1.197 8 0 3.425-1.197 5.817-10.848 6.005-18.105.189-7.258-2.362-12.035-7.047-12.773z" fill="url(#paint12_linear)"/><path d="M24.832 181.745s-4.169-23.285 5.32-28.044c0 0 2.82 4.615 1.777 13.625-1.042 9.009-2.66 13.595-7.097 14.419z" fill="url(#paint13_linear)"/><path style="mix-blend-mode:multiply" opacity=".5" d="M24.148 168.819s2.441 3.447 4.109 4.002a4.319 4.319 0 002.977 0l-6.154-10.532a26.154 26.154 0 00-.932 6.53z" fill="url(#paint14_linear)"/><path d="M25.07 162.222s1.35-6.453 5.39-8.032c0 0 3.752 3.571 2.8 17.454 0 0-2.095 2.661-5.053 0a34.146 34.146 0 01-3.136-9.422z" fill="url(#paint15_linear)"/><path d="M27.373 159.915c-1.37 0 .715 5.86 1.43 5.745.714-.115-.279-5.745-1.43-5.745z" fill="#fff"/><path d="M42.977 26.085s-6.204-5.17-13.797-6.07c0 0-2.333 1.101-5.023 9.172-2.69 8.072 2.273 24.032 2.273 24.032l16.547-27.134z" fill="url(#paint16_linear)"/><path d="M26.232 24.046a12.024 12.024 0 012.977-4.03s6.244 5.572 5.956 18.86l-1.797 1.8-7.136-16.63z" fill="url(#paint17_linear)"/><path d="M94.353 26.085s6.213-5.17 13.806-6.07c0 0 2.333 1.101 4.963 9.172 2.631 8.072-2.273 24.032-2.273 24.032L94.353 26.085z" fill="url(#paint18_linear)"/><path d="M108.159 20.015c-3.997 4.671-6.171 10.546-6.144 16.602l2.372 1.446 6.948-13.825s-2.322-4.338-3.176-4.223z" fill="url(#paint19_linear)"/><path d="M104.169 37.364s-1.638-8.751 4.328-15.175c0 0 6.749 3.063 9.538 14.428 2.789 11.365-4.476 18.191-4.476 18.191l-9.39-17.444z" fill="url(#paint20_linear)"/><path d="M33.17 37.364s1.638-8.751-4.328-15.175c0 0-6.75 3.063-9.538 14.428-2.79 11.365 4.476 18.191 4.476 18.191l9.39-17.444z" fill="url(#paint21_linear)"/><path d="M112.447 85.724c-13.896 18.737-78.96 17.348-87.436 2.192-5.529-9.9-4.963-24.778.407-38.47 6.948-17.97 22.114-33.911 42.174-33.911 23.614 0 41.758 22.69 47.227 43.419 2.759 10.484 2.283 20.47-2.372 26.77z" fill="url(#paint22_linear)"/><path d="M29.875 68.346c3.096 12.763 60.328 14.151 74.383 2.585 14.055-11.565-6.184-52.658-37.192-50.858-28.358 1.646-42.273 27.363-37.192 48.273z" fill="#DFE3FB"/><path d="M29.577 66.795c3.096 12.763 60.328 14.151 74.383 2.585 14.055-11.565-6.183-52.658-37.191-50.858C38.41 20.13 24.495 45.895 29.577 66.795z" fill="url(#paint23_linear)"/><path style="mix-blend-mode:multiply" opacity=".3" d="M112.447 85.724c-13.896 18.737-78.96 17.348-87.436 2.192-5.529-9.9-4.963-24.778.407-38.47-.229.805-5.678 20.001-.11 28.446 5.698 8.617 28.23 7.44 52.418 6.444 24.19-.996 32.19-4.385 36.249-10.973 3.196-5.18 0-16.602-1.528-21.226l2.372 6.827c2.759 10.474 2.283 20.46-2.372 26.76z" fill="url(#paint24_linear)"/><path d="M67.662 99.52c-13.539 0-23.296-1.484-28.785-3.59-3.583-1.388-5.32-3.035-5.062-4.73.149-1.034 2.81-1.915 6.948-2.68 12.298-2.155 37.718-2.796 51.435-.795 1.182.172 2.274.364 3.266.574l.615.144h.12c2.362.555 4.039 1.245 4.784 2.078a1.9 1.9 0 01.387.65c1.35 4.261-21.48 8.359-33.708 8.35z" fill="url(#paint25_linear)"/><path style="mix-blend-mode:multiply" opacity=".5" d="M101.29 90.157a1.481 1.481 0 01-.228.392c-1.33 1.81-6.7 4.136-6.7 4.136s-20.665-8.148-37.41-4.528C40.207 93.776 38.927 95.9 38.927 95.9c-3.583-1.388-5.32-3.035-5.062-4.73.149-1.034 2.809-1.914 6.948-2.68 12.298-2.154 37.718-2.796 51.435-.795 1.44.249 2.74.488 3.881.718h.12c3.275.737 5.161 1.33 5.041 1.743z" fill="url(#paint26_linear)"/><path d="M95.543 88.3c-3.196 2.958-18.54 5.552-27.286 5.495-15.672 0-25.201-2.403-27.415-5.276 13.35-2.326 42.215-2.9 54.701-.22z" fill="url(#paint27_linear)"/><path d="M94.56 147.468c-1.885 10.762-11.91 17.933-26.203 17.933-12.467 0-23.038-4.481-25.807-14.361-2.77-9.881-1.707-28.12 1.985-39.485a36.273 36.273 0 011.985-4.883 35.223 35.223 0 012.352-4.002c4.596-6.654 11.256-10.972 18.79-10.972 3.38-.08 6.736.567 9.826 1.892a22.786 22.786 0 018.04 5.768 25.423 25.423 0 014.457 7.228 71.035 71.035 0 013.077 9.507.376.376 0 000 .096 77.65 77.65 0 011.499 31.279z" fill="url(#paint28_linear)"/><path d="M84.784 98.553s1.22 12.782 9.003 20.566c0 0-2.154-11.92-9.003-20.566z" fill="url(#paint29_linear)"/><path d="M128.785 82.928c-12.199 23.333-33.748 31.298-33.748 31.298-5.955-3.686-11.077-15.75-9.042-18.105a.928.928 0 01.367-.277c26.254-12.121 34.105-24.683 34.105-24.683a7.964 7.964 0 014.041 1.321 7.568 7.568 0 012.709 3.18 16.675 16.675 0 011.568 7.266z" fill="url(#paint30_linear)"/><path style="mix-blend-mode:multiply" opacity=".5" d="M24.981 87.916a26.613 26.613 0 018.18-5.553c5.389-2.49 10.352-4.442 11.116-6.443.764-2.001-14.8-.824-14.8-.824l-7.741 3.246s1.26 5.993 3.245 9.574z" fill="url(#paint31_linear)"/><path d="M120.517 71.161c-2.184.565-1.985 14.563.824 15.951s7.444-4.184 7.444-4.184-.516-13.758-8.268-11.767z" fill="url(#paint32_linear)"/><path d="M79.067 46.144c2.064 3.513 15.762.383 16.536-1.695.993-2.796-2.79-11.566-10.025-10.771-7.236.794-7.514 10.761-6.511 12.466z" fill="url(#paint33_linear)"/><path d="M57.667 46.144c-2.075 3.513-15.772.383-16.537-1.695-1.042-2.796 2.79-11.566 10.026-10.771 7.235.794 7.513 10.761 6.51 12.466z" fill="url(#paint34_linear)"/><path d="M53.846 52.616s3.89 3.897 14.977 3.897c11.088 0 16.755-4.49 16.755-4.49s-4.883 6.404-16.755 6.404c-11.87 0-14.977-5.811-14.977-5.811z" fill="#2F95CD"/><path d="M18.668 40.677s3.97 2.489 1.38 8.262c0 0-18.76 9.852-17.668 20.595.903 8.961 26.8 4.624 26.8 4.624l.923 2.987S8.107 81.3.514 76.303c0 0-2.58-5.917 3.822-16.583a124.623 124.623 0 0114.332-19.043z" fill="url(#paint35_linear)"/><path d="M25.914 73.325c-2.362 2.575 2.65 5.39 6.77 5.83 4.625.48 12.844-1.282 12.347-5.744-.496-4.461-13.578-6.127-19.117-.086z" fill="url(#paint36_linear)"/><path style="mix-blend-mode:screen" opacity=".5" d="M38.966 34.492c-.714 4.136 8.824 3.954 21.837 3.542 15.603-.498 31.286 12.447 40.418 3.16 1.499-1.532-13.44-21.657-31.475-21.207-18.035.45-30.164 10.953-30.78 14.505z" fill="url(#paint37_linear)"/><path style="mix-blend-mode:screen" opacity=".5" d="M47.81 70.53c-.823 2.996 5.678 5.993 21.659 5.236 19.315-.957 23.415-4.787 22.462-5.897-.566-.651-6.353 2.872-22.214-.489-10.482-2.22-21.033-2-21.906 1.15z" fill="url(#paint38_linear)"/><path style="mix-blend-mode:multiply" opacity=".3" d="M112.328 51.725l-.467-1.35c.07.259.248.718.467 1.35z" fill="url(#paint39_linear)"/><path style="mix-blend-mode:multiply" opacity=".3" d="M94.56 147.468c-1.885 10.762-11.91 17.933-26.203 17.933-12.467 0-23.038-4.481-25.807-14.361-2.77-9.881-1.707-28.12 1.985-39.485a36.273 36.273 0 011.985-4.883s-7.544 24.128-1.519 39.504c6.025 15.376 34.135 15.041 43.674 4.787 9.042-9.718 4.863-32.553 4.437-34.726a77.648 77.648 0 011.449 31.231z" fill="url(#paint40_linear)"/><path d="M43.066 141.044c2.134-14.448 14.154-24.242 27.494-22.978 14.383 1.311 22.115 14.562 21.916 25.927-.198 11.365-8.823 20.24-24.258 20.24-15.435 0-27.147-9.67-25.152-23.189z" fill="url(#paint41_linear)"/><path d="M43.205 142.241c2.134-14.448 14.144-24.242 27.494-22.978 14.383 1.311 22.115 14.562 21.907 25.927-.209 11.365-8.815 20.24-24.25 20.24-15.434 0-27.146-9.67-25.151-23.189z" fill="url(#paint42_radial)"/><path style="mix-blend-mode:multiply" opacity=".5" d="M85.578 99.406c-3.047 4.624-19.852 7.305-29.56 6.453-8.456-.747-7.166-2.949-7.106-3.227 4.556-6.616 11.216-10.934 18.75-10.934 3.392-.08 6.76.57 9.86 1.903a22.782 22.782 0 018.056 5.805z" fill="url(#paint43_linear)"/><path d="M79.573 107.41c-.784.248-.824 6.328 0 7.305.824.976 2.124.68 2.56-.757.437-1.436-1.34-6.922-2.56-6.548zm1.479 8.923c-.655.143-.725 1.656-.427 2.183a1.014 1.014 0 001.618-.23c.178-.641-.536-2.106-1.191-1.953z" fill="#fff"/><path style="mix-blend-mode:screen" opacity=".72" d="M51.652 156.957s3.444 5.83 16.288 5.83c12.844 0 18.065-7.324 18.065-7.324a19.215 19.215 0 01-7.03 2.138 19.393 19.393 0 01-7.343-.644c-8.496-2.231-16.873-3.495-19.98 0z" fill="url(#paint44_linear)"/><path d="M78.64 18.215c-1.37.307 10.144 6.176 10.61 5.477.467-.7-6.809-6.367-10.61-5.477zm22.055 4.347c-1.152.603-1.052 1.79 1.32 1.494 2.372-.297 3.662-2.097 3.404-2.442-.258-.345-3.434.278-4.724.948z" fill="#fff"/><path style="mix-blend-mode:multiply" opacity=".3" d="M128.785 82.928c-12.199 23.333-33.748 31.298-33.748 31.298-5.955-3.686-11.077-15.75-9.042-18.105.115-.1.238-.193.367-.277 0 0 3.841 13.595 15.097 9.823 13.35-4.471 18.809-26.808 18.809-26.808v-6.606l6.949 3.408a16.675 16.675 0 011.568 7.267z" fill="url(#paint45_linear)"/><path d="M119.732 75.115s-.099 7.373 4.239 8.57c4.337 1.196 9.767-6.626 11.782-9.862 2.015-3.236 5.062-17.856 2.173-21.341-2.888-3.485-8.476-2.595-12.198 2.288 0 0-5.787 14.065-5.996 20.345z" fill="url(#paint46_linear)"/><path d="M119.971 72.923s5.032-3.696 6.174-9.373c1.141-5.678 7.235-13.175 7.235-13.175s-3.206-.287-7.652 4.395c-4.447 4.682-5.757 18.153-5.757 18.153z" fill="url(#paint47_linear)"/><path style="mix-blend-mode:multiply" opacity=".5" d="M124.933 55.747l3.851 1.397a23.888 23.888 0 00-2.402 5.42 24.789 24.789 0 01-3.305 6.252l1.856-13.07z" fill="url(#paint48_linear)"/><path d="M119.971 71.525a22.522 22.522 0 01-1.499-8.176c-.189-5.381 1.141-9.575 1.757-10.37.615-.794 2.789-.65 3.821.546 1.033 1.197 1.777 7.114 1.777 7.114s-1.39 9.584-5.856 10.886z" fill="url(#paint49_linear)"/><path d="M126.145 63.55s2.58 8.224 8.814 11.489l.794-1.235c-4.372-2.604-7.68-6.58-9.37-11.26l-.238 1.006z" fill="url(#paint50_linear)"/><path d="M121.599 57.01c-.626-.076-.417 5.228.357 5.008.774-.22.526-4.912-.357-5.008z" fill="#fff"/><path d="M26.232 73.794c-.14.737 16.358.958 16.745-1.915.387-2.872-15.663-3.762-16.745 1.915z" fill="url(#paint51_linear)"/><path style="mix-blend-mode:screen" opacity=".2" d="M30.291 62.592a38.964 38.964 0 01.12-10.177c.784-5.831 2.411-9.575 3.384-9.067.973.507.814 6.233 1.38 11.863.446 4.375 1.32 8.492 1.32 8.492s-4.179 3.849-6.204-1.11z" fill="url(#paint52_linear)"/><path style="mix-blend-mode:screen" opacity=".72" d="M48.307 133.107c2.531 3.897 12.973 1.819 24.725 2.93 11.752 1.11 13.767 4.787 16.248 4.05 2.482-.738-1.439-17.828-19.007-18.986-17.569-1.159-22.601 11.049-21.966 12.006z" fill="url(#paint53_linear)"/><path d="M129.271 1.173s-.099 22.538 1.678 33.462l18.104 6.875-2.898-4.893 17.569-1.915s1.866-25.343 2.481-33.51c-.01-.019-13.856-2.604-36.934-.019z" fill="url(#paint54_linear)"/><path style="mix-blend-mode:screen" opacity=".72" d="M113.638 27.33s-2.184-2.614-5.161-1.915c-2.978.7-3.177 9.757-1.4 9.977 1.777.22 2.541-5.008 3.911-5.831a7.047 7.047 0 013.752-.508l-1.102-1.723z" fill="url(#paint55_linear)"/><path style="mix-blend-mode:screen" opacity=".72" d="M21.537 30.48a4.123 4.123 0 011.755-.877 4.214 4.214 0 011.977.025c2.59.412 4.08 5.524 5.4 5.007 1.32-.517.347-8.799-3.147-11.23 0 0-4.526 3.705-5.985 7.075z" fill="url(#paint56_linear)"/><path d="M18.033 42.544s-9.142 9.91-8.586 10.608c.556.699 9.132-9.584 8.586-10.608z" fill="url(#paint57_linear)"/><path d="M146.443 26c-.652 0-1.27-.261-1.665-.711l-5.355-6.07a1.701 1.701 0 01-.355-.63 1.528 1.528 0 01-.048-.697c.037-.233.128-.457.267-.66a1.9 1.9 0 01.541-.522c.219-.143.468-.247.733-.306a2.42 2.42 0 01.814-.042c.272.033.534.11.771.23.236.119.443.277.609.465l3.523 3.991 8.858-12.205c.294-.403.762-.69 1.302-.797a2.388 2.388 0 011.577.225c.979.522 1.28 1.628.668 2.469l-10.466 14.414a1.979 1.979 0 01-.717.6 2.35 2.35 0 01-.961.243c-.033.003-.063.003-.096.003z" fill="#fff"/><defs><linearGradient id="paint2_linear" x1="5364.79" y1="1758.63" x2="5530.21" y2="25.552" gradientUnits="userSpaceOnUse"><stop/><stop offset="1" stop-color="#393091"/></linearGradient><linearGradient id="paint3_linear" x1="1685.7" y1="7076.4" x2="1913.55" y2="5870.3" gradientUnits="userSpaceOnUse"><stop stop-color="#CBC1F7"/><stop offset="1" stop-color="#E8DCF7"/></linearGradient><linearGradient id="paint4_linear" x1="2476.22" y1="8700.3" x2="2892.52" y2="6852.94" gradientUnits="userSpaceOnUse"><stop stop-color="#CBC1F7"/><stop offset="1" stop-color="#E8DCF7"/></linearGradient><linearGradient id="paint5_linear" x1="1773.29" y1="2437.29" x2="1773.29" y2="2256.59" gradientUnits="userSpaceOnUse"><stop stop-color="#BE9DEA"/><stop offset="1" stop-color="#9E8CEF"/></linearGradient><linearGradient id="paint6_linear" x1="2561.58" y1="2869.71" x2="2561.58" y2="2614.24" gradientUnits="userSpaceOnUse"><stop stop-color="#BE9DEA"/><stop offset="1" stop-color="#9E8CEF"/></linearGradient><linearGradient id="paint7_linear" x1="1770.23" y1="7068.42" x2="1770.23" y2="5778.24" gradientUnits="userSpaceOnUse"><stop stop-color="#9D68C2"/><stop offset="1" stop-color="#CCEDFF"/></linearGradient><linearGradient id="paint8_linear" x1="2577.58" y1="8323.41" x2="2577.58" y2="6582.5" gradientUnits="userSpaceOnUse"><stop stop-color="#9D68C2"/><stop offset="1" stop-color="#CCEDFF"/></linearGradient><linearGradient id="paint9_linear" x1="1515.1" y1="9231.4" x2="2253.67" y2="6012.23" gradientUnits="userSpaceOnUse"><stop stop-color="#CBC1F7"/><stop offset="1" stop-color="#E8DCF7"/></linearGradient><linearGradient id="paint10_linear" x1="706.099" y1="1646.59" x2="706.099" y2="1559.3" gradientUnits="userSpaceOnUse"><stop stop-color="#BE9DEA"/><stop offset="1" stop-color="#9E8CEF"/></linearGradient><linearGradient id="paint11_linear" x1="1609.14" y1="8016.32" x2="1609.14" y2="5571.25" gradientUnits="userSpaceOnUse"><stop stop-color="#9D68C2"/><stop offset="1" stop-color="#CCEDFF"/></linearGradient><linearGradient id="paint12_linear" x1="713.548" y1="6127.09" x2="952.164" y2="5138.42" gradientUnits="userSpaceOnUse"><stop stop-color="#CBC1F7"/><stop offset="1" stop-color="#E8DCF7"/></linearGradient><linearGradient id="paint13_linear" x1="428.342" y1="5476.3" x2="428.342" y2="4654.91" gradientUnits="userSpaceOnUse"><stop stop-color="#BE9DEA"/><stop offset="1" stop-color="#9E8CEF"/></linearGradient><linearGradient id="paint14_linear" x1="369.426" y1="2113.62" x2="369.426" y2="1991.3" gradientUnits="userSpaceOnUse"><stop stop-color="#8DA4E5"/><stop offset="1" stop-color="#755CBB"/></linearGradient><linearGradient id="paint15_linear" x1="437.92" y1="3512.57" x2="532.011" y2="3176.8" gradientUnits="userSpaceOnUse"><stop stop-color="#CBC1F7"/><stop offset="1" stop-color="#E8DCF7"/></linearGradient><linearGradient id="paint16_linear" x1="-494.391" y1="1864.81" x2="-494.391" y2="713.307" gradientUnits="userSpaceOnUse"><stop stop-color="#B9ACF4"/><stop offset="1" stop-color="#E1D1F5"/></linearGradient><linearGradient id="paint17_linear" x1="489.203" y1="897.296" x2="489.203" y2="451.424" gradientUnits="userSpaceOnUse"><stop stop-color="#BE9DEA"/><stop offset="1" stop-color="#9E8CEF"/></linearGradient><linearGradient id="paint18_linear" x1="2552.76" y1="1864.81" x2="2552.76" y2="713.307" gradientUnits="userSpaceOnUse"><stop stop-color="#B9ACF4"/><stop offset="1" stop-color="#E1D1F5"/></linearGradient><linearGradient id="paint19_linear" x1="1297.75" y1="737.13" x2="1297.75" y2="396.892" gradientUnits="userSpaceOnUse"><stop stop-color="#BE9DEA"/><stop offset="1" stop-color="#9E8CEF"/></linearGradient><linearGradient id="paint20_linear" x1="2060.04" y1="1888.69" x2="2060.04" y2="777.334" gradientUnits="userSpaceOnUse"><stop stop-color="#45FFCD"/><stop offset="1" stop-color="#22E0FF"/></linearGradient><linearGradient id="paint21_linear" x1="-468.176" y1="1888.69" x2="-468.176" y2="777.334" gradientUnits="userSpaceOnUse"><stop stop-color="#45FFCD"/><stop offset="1" stop-color="#22E0FF"/></linearGradient><linearGradient id="paint22_linear" x1="8251.08" y1="8813.4" x2="9069.71" y2="1415.12" gradientUnits="userSpaceOnUse"><stop stop-color="#CBC1F7"/><stop offset="1" stop-color="#E8DCF7"/></linearGradient><linearGradient id="paint23_linear" x1="7214.73" y1="4763.05" x2="7214.73" y2="1151.1" gradientUnits="userSpaceOnUse"><stop stop-color="#0665BD"/><stop offset="1" stop-color="#1A1F77"/></linearGradient><linearGradient id="paint24_linear" x1="8623.13" y1="5254.78" x2="8623.13" y2="2634.33" gradientUnits="userSpaceOnUse"><stop stop-color="#9D68C2"/><stop offset="1" stop-color="#CCEDFF"/></linearGradient><linearGradient id="paint25_linear" x1="3747.75" y1="1349.43" x2="8359.25" y2="1349.43" gradientUnits="userSpaceOnUse"><stop stop-color="#8879EA"/><stop offset="1" stop-color="#9E8CEF"/></linearGradient><linearGradient id="paint26_linear" x1="6030.69" y1="1029.28" x2="6030.69" y2="936.762" gradientUnits="userSpaceOnUse"><stop stop-color="#8DA4E5"/><stop offset="1" stop-color="#755CBB"/></linearGradient><linearGradient id="paint27_linear" x1="4894.45" y1="805.235" x2="4895.71" y2="729.945" gradientUnits="userSpaceOnUse"><stop stop-color="#5E36CC"/><stop offset="1" stop-color="#6C4A96"/></linearGradient><linearGradient id="paint28_linear" x1="4711.72" y1="12811.7" x2="5654.48" y2="7262.85" gradientUnits="userSpaceOnUse"><stop stop-color="#CBC1F7"/><stop offset="1" stop-color="#E8DCF7"/></linearGradient><linearGradient id="paint29_linear" x1="1041.32" y1="2435.83" x2="1122.97" y2="2435.83" gradientUnits="userSpaceOnUse"><stop stop-color="#8879EA"/><stop offset="1" stop-color="#9E8CEF"/></linearGradient><linearGradient id="paint30_linear" x1="5513.71" y1="5256.2" x2="5769.34" y2="3211.64" gradientUnits="userSpaceOnUse"><stop stop-color="#CBC1F7"/><stop offset="1" stop-color="#E8DCF7"/></linearGradient><linearGradient id="paint31_linear" x1="1242.7" y1="1283.23" x2="1242.7" y2="1101.69" gradientUnits="userSpaceOnUse"><stop stop-color="#8DA4E5"/><stop offset="1" stop-color="#755CBB"/></linearGradient><linearGradient id="paint32_linear" x1="1539.05" y1="1563.91" x2="1539.05" y2="1283.98" gradientUnits="userSpaceOnUse"><stop stop-color="#BE9DEA"/><stop offset="1" stop-color="#9E8CEF"/></linearGradient><linearGradient id="paint33_linear" x1="1938.95" y1="736.146" x2="1938.95" y2="528.577" gradientUnits="userSpaceOnUse"><stop stop-color="#45FFCD"/><stop offset="1" stop-color="#22E0FF"/></linearGradient><linearGradient id="paint34_linear" x1="-1819.02" y1="736.146" x2="-1819.02" y2="528.577" gradientUnits="userSpaceOnUse"><stop stop-color="#45FFCD"/><stop offset="1" stop-color="#22E0FF"/></linearGradient><linearGradient id="paint35_linear" x1="1065.04" y1="3194.05" x2="1306.17" y2="1675.89" gradientUnits="userSpaceOnUse"><stop stop-color="#BE9DEA"/><stop offset="1" stop-color="#9E8CEF"/></linearGradient><linearGradient id="paint36_linear" x1="10128.4" y1="2247.65" x2="10153.2" y2="2139.12" gradientUnits="userSpaceOnUse"><stop stop-color="#DD1A8F"/><stop offset="1" stop-color="#FE117E"/></linearGradient><linearGradient id="paint37_linear" x1="3785.8" y1="848.504" x2="7706.13" y2="848.504" gradientUnits="userSpaceOnUse"><stop/><stop offset="1" stop-color="#6A9BFF"/></linearGradient><linearGradient id="paint38_linear" x1="3102.47" y1="666.75" x2="5081.2" y2="666.75" gradientUnits="userSpaceOnUse"><stop/><stop offset="1" stop-color="#6A9BFF"/></linearGradient><linearGradient id="paint39_linear" x1="174.254" y1="123.271" x2="174.254" y2="121.368" gradientUnits="userSpaceOnUse"><stop stop-color="#9D68C2"/><stop offset="1" stop-color="#CCEDFF"/></linearGradient><linearGradient id="paint40_linear" x1="4925.57" y1="10249.1" x2="4925.57" y2="6646.13" gradientUnits="userSpaceOnUse"><stop stop-color="#9D68C2"/><stop offset="1" stop-color="#CCEDFF"/></linearGradient><linearGradient id="paint41_linear" x1="4460.45" y1="8052.58" x2="4460.45" y2="5816.49" gradientUnits="userSpaceOnUse"><stop stop-color="#BE9DEA"/><stop offset="1" stop-color="#9E8CEF"/></linearGradient><linearGradient id="paint43_linear" x1="3304.03" y1="1677.37" x2="3304.03" y2="1463.23" gradientUnits="userSpaceOnUse"><stop stop-color="#8DA4E5"/><stop offset="1" stop-color="#755CBB"/></linearGradient><linearGradient id="paint44_linear" x1="3149.27" y1="1515.43" x2="3149.27" y2="1448.44" gradientUnits="userSpaceOnUse"><stop stop-color="#D4E2FF"/><stop offset="1"/></linearGradient><linearGradient id="paint45_linear" x1="5655.98" y1="5078.88" x2="5655.98" y2="3238.75" gradientUnits="userSpaceOnUse"><stop stop-color="#9D68C2"/><stop offset="1" stop-color="#CCEDFF"/></linearGradient><linearGradient id="paint46_linear" x1="3007.68" y1="2986.78" x2="3257.26" y2="1834.93" gradientUnits="userSpaceOnUse"><stop stop-color="#CBC1F7"/><stop offset="1" stop-color="#E8DCF7"/></linearGradient><linearGradient id="paint47_linear" x1="2110.64" y1="1767.4" x2="2110.64" y2="1236.33" gradientUnits="userSpaceOnUse"><stop stop-color="#BE9DEA"/><stop offset="1" stop-color="#9E8CEF"/></linearGradient><linearGradient id="paint48_linear" x1="966.043" y1="994.75" x2="966.043" y2="816.359" gradientUnits="userSpaceOnUse"><stop stop-color="#8DA4E5"/><stop offset="1" stop-color="#755CBB"/></linearGradient><linearGradient id="paint49_linear" x1="1168.6" y1="1476.24" x2="1281.11" y2="1130" gradientUnits="userSpaceOnUse"><stop stop-color="#CBC1F7"/><stop offset="1" stop-color="#E8DCF7"/></linearGradient><linearGradient id="paint50_linear" x1="1593.88" y1="1041.74" x2="1593.88" y2="878.684" gradientUnits="userSpaceOnUse"><stop stop-color="#BE9DEA"/><stop offset="1" stop-color="#9E8CEF"/></linearGradient><linearGradient id="paint51_linear" x1="9194.22" y1="429.31" x2="9194.22" y2="406.893" gradientUnits="userSpaceOnUse"><stop stop-color="#D93DE3"/><stop offset="1" stop-color="#FF6DBA"/></linearGradient><linearGradient id="paint52_linear" x1="357.86" y1="1560.97" x2="357.86" y2="1063.81" gradientUnits="userSpaceOnUse"><stop/><stop offset="1" stop-color="#00E3FF"/></linearGradient><linearGradient id="paint53_linear" x1="2944.43" y1="2733.68" x2="4696.31" y2="2733.68" gradientUnits="userSpaceOnUse"><stop/><stop offset="1" stop-color="#D4E2FF"/></linearGradient><linearGradient id="paint54_linear" x1="147.738" y1=".025" x2="147.738" y2="41.51" gradientUnits="userSpaceOnUse"><stop stop-color="#42E8E0"/><stop offset="1" stop-color="#40B6CB"/></linearGradient><linearGradient id="paint55_linear" x1="1228.05" y1="345.227" x2="1306.08" y2="345.227" gradientUnits="userSpaceOnUse"><stop/><stop offset="1" stop-color="#D4E2FF"/></linearGradient><linearGradient id="paint56_linear" x1="433.926" y1="364.805" x2="528.66" y2="364.805" gradientUnits="userSpaceOnUse"><stop stop-color="#D4E2FF"/><stop offset="1"/></linearGradient><linearGradient id="paint57_linear" x1="288.611" y1="639.63" x2="290.923" y2="519.793" gradientUnits="userSpaceOnUse"><stop stop-color="#CBC1F7"/><stop offset="1" stop-color="#E8DCF7"/></linearGradient><radialGradient id="paint0_radial" cx="0" cy="0" r="1" gradientUnits="userSpaceOnUse" gradientTransform="matrix(0 9.70668 -53.4811 0 65.84 222.141)"><stop stop-color="#E8DCF7"/><stop offset="1" stop-color="#C4C4C4" stop-opacity="0"/></radialGradient><radialGradient id="paint1_radial" cx="0" cy="0" r="1" gradientUnits="userSpaceOnUse" gradientTransform="matrix(3177.19 0 0 709.219 7317.16 -1089.03)"><stop stop-color="#BE9DEA"/><stop offset=".39" stop-color="#E0BFF5"/><stop offset="1" stop-color="#fff"/></radialGradient><radialGradient id="paint42_radial" cx="0" cy="0" r="1" gradientUnits="userSpaceOnUse" gradientTransform="matrix(1829.73 0 0 1706.23 4507.87 7764.57)"><stop stop-color="#45FFCD"/><stop offset="1" stop-color="#22E0FF"/></radialGradient></defs></svg>