<svg width="139" height="212" fill="none" xmlns="http://www.w3.org/2000/svg"><ellipse cx="69" cy="201" rx="56" ry="11" fill="url(#paint0_radial)"/><path d="M74.803 166.346c-1.045.453-38.225 4.536-42.615 0-4.39-4.537 25.086-24.168 29.361-23.817 1.045.08 1.892 1.202 3.47 3.686 4.882 7.587 9.784 20.131 9.784 20.131z" fill="url(#paint1_linear)"/><path d="M61.55 142.529c-1.914.261 4.797 21.118 13.253 23.817 0 0-8.205-24.52-13.254-23.817z" fill="url(#paint2_linear)"/><path style="mix-blend-mode:multiply" opacity=".3" d="M74.803 166.346c-1.045.453-38.016 4.298-42.615 0 0 0 10.891 1.973 20.832-1.758 9.94-3.731 10.129-13.145 10.129-13.145l.606-7.938c4.881 7.61 11.048 22.841 11.048 22.841z" fill="url(#paint3_linear)"/><path d="M35.627 131.665s-1.809-9.334 6.03-19.28C51.818 99.49 73.017 89.94 76.56 91.71c3.544 1.769-8.048 22.035-8.048 22.035s-14.634 4.015-22.41 13.791c-7.778 9.776-10.474 4.129-10.474 4.129z" fill="url(#paint4_linear)"/><path d="M110.813 144.072c-1.045 9.073-4.861 16.184-11.394 20.051-4.39 2.586-9.971 3.731-16.724 2.994-9.972-1.134-16.066-9.198-18.741-20.244a63.891 63.891 0 01-1.61-16.218c.386-18.679 9.46-33.366 15.72-37.936 10.37-7.565 25.024-3.198 26.665 10.082 1.317 10.706 7.767 26.142 6.084 41.271z" fill="url(#paint5_linear)"/><path d="M101.562 95.622c-1.745-.76-2.76 16.808 4.401 27.06 0 0 3.261-2.268 1.86-10.876-1.4-8.608-3.909-15.152-6.261-16.184z" fill="url(#paint6_linear)"/><path d="M100.297 102.041s6.481 9.981 4.38 18.589c0 0-4.118-6.714-4.38-18.589z" fill="#6340A2"/><path d="M99.409 164.123c-4.39 2.586-9.972 3.731-16.724 2.994-9.972-1.134-16.066-9.198-18.742-20.244-2.791-12.203 2.268-28.444 17.456-28.444 15.188 0 22.661 16.933 23.404 28.807.292 4.695-.209 14.097-5.394 16.887z" fill="url(#paint7_radial)"/><path d="M99.409 164.123c-4.39 2.586-9.972 3.731-16.724 2.994-9.972-1.134-16.066-9.198-18.742-20.244-2.791-12.203 2.268-28.444 17.456-28.444 15.188 0 22.661 16.933 23.404 28.807.292 4.695-.209 14.097-5.394 16.887z" fill="url(#paint8_linear)"/><path d="M129.962 160.482c.206 2.069-.332 4.143-1.5 5.793-1.168 1.649-2.877 2.747-4.771 3.065a43.079 43.079 0 01-11.394-.068h-.272c-5.519-.647-10.787-1.996-11.059-4.049a28.357 28.357 0 01-.219-4.242c.125-11.919 6.502-25.347 10.568-24.44 2.508.567 6.156 3.198 9.564 6.805a40.478 40.478 0 017.108 9.935 18.146 18.146 0 011.975 7.201z" fill="url(#paint9_linear)"/><path style="mix-blend-mode:multiply" opacity=".5" d="M120.889 143.278s-7.766-2.393-13.891 3.096c-4.338 3.879-5.572 12.033-6.272 14.585.125-11.92 6.502-25.348 10.568-24.44 2.54.567 6.188 3.198 9.595 6.759z" fill="url(#paint10_linear)"/><path d="M127.976 125.121c-.71 4.219-9.031 10.422-23.121 9.322 0 0-6.71-5.875-6.052-12.316 0 0 .606-.261 1.442-.715 1.652-.896 6.899-3.073 7.422-5.001 1.045-3.652-2.572-8.733-4.714-14.041-1.997-4.91-.481-9.209.564-9.447 1.045-.238 7.84 2.325 14.571 9.073.69.692 1.338 1.395 1.934 2.087 7.515 8.664 8.613 17.136 7.954 21.038z" fill="url(#paint11_linear)"/><path d="M100.026 122.047a70.75 70.75 0 00-10.338-6.657s-4.181.884-4.965 3.334c-.784 2.45 8.446 7.213 8.446 7.213l6.857-3.89z" fill="url(#paint12_linear)"/><path d="M39.557 122.909s3.648-7.587 6.543-8.562c2.896-.976 4.683-.59 5.174 0 .492.589.533 3.538-.606 5.852-1.14 2.313-5.78 4.933-5.78 4.933l-5.331-2.223z" fill="url(#paint13_linear)"/><path d="M45.578 114.585c.361 1.445 1.207 2.69 2.372 3.493a4.138 4.138 0 003.199.669s1.651-3.799-.157-5.002c-1.578-1.043-4.986.114-5.414.84z" fill="url(#paint14_linear)"/><path d="M95.134 150.332c-4.882 2.076-13.003-7.065-18.136-10.377-5.132-3.312-14.174-4.298-18.26-2.416-4.087 1.883-10.276 9.981-15.868 8.937-1.045-.193-1.369-3.005-1.14-6.873.44-8.006 3.325-20.527 7.83-23.612 6.68-4.536 33.69-3.402 40.097 3.096 3.418 3.482 5.717 11.761 6.595 18.917.763 6.249.45 11.648-1.118 12.328z" fill="url(#paint15_linear)"/><path style="mix-blend-mode:multiply" opacity=".5" d="M95.134 150.332c-4.882 2.076-13.003-7.065-18.136-10.377-5.132-3.312-14.174-4.298-18.26-2.416-4.087 1.883-10.276 9.98-15.868 8.937-1.045-.193-1.369-3.005-1.14-6.873l1.496-2.812 10.191-6.737s.094 4.003 1.045 4.536c.951.534 4.484-.306 11.143-.374 6.658-.068 11.832 3.618 14.968 1.475 3.136-2.144 5.394-7.349 5.394-7.349l2.927-.352 7.316 10.037c.805 6.226.492 11.625-1.076 12.305z" fill="url(#paint16_linear)"/><path d="M38.96 120.63s6.43-.454 13.955 5.534c0 0 2.09 8.37-2.237 13.609a23.687 23.687 0 01-7.891 2.688c-4.662.817-3.826-21.831-3.826-21.831z" fill="url(#paint17_linear)"/><path d="M98.803 122.127c1.772.072 3.504.591 5.059 1.517a11.802 11.802 0 013.899 3.813c2.665 4.536-1.443 7.077-1.443 7.077s-7.003-.522-7.515-12.407z" fill="url(#paint18_linear)"/><path d="M38.961 120.63c-2.968-.205-5.226 15.151-2.268 19.812 2.958 4.662 10.317.896 11.655-.771 1.338-1.667 3.407-8.993 2.634-11.987-.774-2.994-4.746-6.555-12.02-7.054z" fill="url(#paint19_linear)"/><path d="M50.678 115.356s-.543 3.81 10.85 5.364c11.394 1.554 21.951.624 25.913-3.255 0 .046-18.439-7.995-36.763-2.109z" fill="url(#paint20_linear)"/><path d="M25.644 162.739c-8.362 0-21.114-.692-24.626-4.684a3.583 3.583 0 01-.81-1.326 3.83 3.83 0 01-.194-1.577c.429-4.627 7.056-7.145 14.08-9.821 7.024-2.677 14.143-5.365 15.125-10.015.659-3.005-.334-6.668-1.296-10.207-1.254-4.616-2.55-9.402-.429-13.189 1.6-2.858 4.944-4.786 10.223-5.898 20.132-4.23 29.696 7.236 29.79 7.349l-.815.771c-.084-.113-9.282-11.069-28.766-6.963-4.965 1.043-8.08 2.79-9.512 5.342-1.87 3.402-.7 7.678.544 12.259 1.045 3.698 2.038 7.52 1.306 10.82-1.16 5.273-8.602 8.109-15.794 10.842-6.397 2.427-13.003 4.945-13.41 8.823-.02.362.037.724.164 1.06.126.335.32.636.567.88 4.902 5.58 31.003 4.162 31.264 4.151l.063 1.134c-.366.079-3.387.249-7.474.249z" fill="url(#paint21_linear)"/><path style="mix-blend-mode:multiply" opacity=".5" d="M63.943 95.327s6.209 10.91 18.282 10.423c12.073-.488 18.511-11.93 18.511-11.93l-35.12.714-1.673.793z" fill="url(#paint22_linear)"/><path d="M112.903 12.628s6.533-6.125 14.54-7.18c0 0 2.446 1.294 5.227 10.866 2.78 9.572-2.394 28.455-2.394 28.455l-17.373-32.141z" fill="url(#paint23_linear)"/><path d="M127.474 5.449c-4.215 5.525-6.508 12.481-6.48 19.654l2.508 1.712 7.317-16.376s-2.446-5.138-3.345-4.99z" fill="url(#paint24_linear)"/><path d="M123.262 25.999s-1.725-10.366 4.557-17.987c0 0 7.108 3.629 10.045 17.09 2.938 13.463-4.714 21.549-4.714 21.549l-9.888-20.652z" fill="url(#paint25_linear)"/><path d="M119.604 8.465c-1.202.703-1.108 2.121 1.39 1.758s3.867-2.472 3.596-2.892c-.272-.42-3.628.34-4.986 1.134z" fill="#fff"/><path d="M58.079 14.159s-6.533-6.113-14.54-7.18c0 0-2.446 1.294-5.226 10.866-2.78 9.571 2.393 28.454 2.393 28.454L58.08 14.16z" fill="url(#paint26_linear)"/><path d="M43.54 6.98c4.217 5.528 6.51 12.489 6.48 19.665l-2.509 1.713-7.296-16.32S42.64 6.832 43.54 6.98z" fill="url(#paint27_linear)"/><path d="M47.752 27.53s1.724-10.366-4.568-17.987c0 0-7.097 3.64-10.035 17.102a26.802 26.802 0 00.2 11.953c.967 3.907 2.8 7.497 5.34 10.457l9.063-21.525z" fill="url(#paint28_linear)"/><path d="M51.4 9.996c1.212.704 1.118 2.121-1.39 1.77-2.51-.352-3.857-2.484-3.586-2.892.272-.409 3.627.329 4.976 1.122z" fill="#fff"/><path d="M39.734 79.71c10.014 25.065 84.971 17.25 93.929-3.402C143.436 53.841 120.91-1.81 84.995.788 54.65 2.964 26.835 47.49 39.735 79.71z" fill="url(#paint29_linear)"/><path d="M43.853 73.564c9.575 20.561 74.998 17.159 84.562-1.736C136.527 55.77 117.356 6.9 84.493 8.635 51.63 10.371 34.655 53.83 43.853 73.563z" fill="url(#paint30_linear)"/><path d="M95.573 5.437c-.68.896 7.317 4.639 8.362 4.106 1.045-.533-6.073-7.066-8.362-4.106z" fill="#fff"/><path style="mix-blend-mode:screen" opacity=".5" d="M55.413 29.242c-.752 4.888 7.798 4.333 21.48 3.845 16.433-.59 32.948 14.744 42.554 3.743 1.589-1.815-14.143-25.654-33.135-25.121-18.993.533-30.271 13.28-30.898 17.533z" fill="url(#paint31_linear)"/><path style="mix-blend-mode:screen" opacity=".5" d="M63.849 80.334c-.868 3.55 5.979 7.1 22.808 6.204 20.341-1.134 24.658-5.67 23.665-6.986-.607-.771-6.701 3.402-23.404-.579-11.038-2.62-22.097-2.37-23.07 1.361z" fill="url(#paint32_linear)"/><path style="mix-blend-mode:screen" opacity=".2" d="M45.672 69.3a52.457 52.457 0 01.125-12.045c.836-6.907 2.55-11.341 3.564-10.751 1.014.59.858 7.394 1.464 14.063.47 5.183 1.39 10.06 1.39 10.06s-4.4 4.558-6.543-1.328z" fill="url(#paint33_linear)"/><path style="mix-blend-mode:multiply" opacity=".5" d="M47.051 88.16s1.046-1.19 6.44-4.65c3.637-2.268 7.462-5.07 8.006-6.079.805-2.37-15.585-.964-15.585-.964l-6.272 3.244c1.765 3.457 4.316 6.365 7.411 8.449z" fill="url(#paint34_linear)"/><path d="M34.508 35.73s4.234 2.96 1.464 9.798c0 0-19.756 11.67-18.617 24.384.962 10.615 28.223 5.477 28.223 5.477l1.045 3.562s-23.184 4.922-31.18-.987c0 0-2.718-7.009 4.024-19.654a147.953 147.953 0 0115.041-22.58z" fill="url(#paint35_linear)"/><path d="M42.191 74.414c-2.456 3.04 2.77 6.385 7.129 6.896 4.87.578 13.515-1.52 12.992-6.805-.522-5.285-14.288-7.258-20.121-.09z" fill="url(#paint36_linear)"/><path d="M42.525 74.97c-.156.862 17.226 1.134 17.634-2.268.408-3.403-16.494-4.469-17.634 2.268z" fill="url(#paint37_linear)"/><path style="mix-blend-mode:screen" opacity=".72" d="M133.589 14.09s-2.299-3.096-5.446-2.268c-3.146.828-3.344 11.546-1.463 11.818 1.882.272 2.676-5.943 4.108-6.907a6.714 6.714 0 013.962-.601l-1.161-2.041z" fill="url(#paint38_linear)"/><path style="mix-blend-mode:screen" opacity=".72" d="M35.783 18.672a4.172 4.172 0 011.864-1.02 3.962 3.962 0 012.088.056c2.717.477 4.285 6.544 5.675 5.932 1.39-.613.356-10.468-3.324-13.36 0 0-4.745 4.4-6.303 8.392z" fill="url(#paint39_linear)"/><path d="M30.766 42.66s-9.407 11.907-8.853 12.735c.554.828 9.46-11.602 8.853-12.736z" fill="url(#paint40_linear)"/><path d="M98.427 54.238c1.703 3.936 16.64 4.446 19.044-1.769 2.164-5.58-4.536-20.414-13.463-19.02-6.784 1.01-8.477 14.143-5.581 20.79z" fill="url(#paint41_radial)"/><path d="M72.964 54.238c-1.715 3.936-16.651 4.446-19.056-1.769-2.153-5.58 4.181-19.779 13.463-19.019 6.795.556 8.478 14.142 5.593 20.788z" fill="url(#paint42_radial)"/><path d="M80.803 66.714s5.049-5.274 8.812-4.956c3.763.317 1.045 5.613 1.045 5.613-3.29.59-6.659.364-9.857-.657z" fill="#2F95CD"/><path style="mix-blend-mode:multiply" opacity=".3" d="M127.976 125.121c-.711 4.219-9.031 10.422-23.121 9.322 0 0-6.71-5.875-6.052-12.316 0 0-.69.499.157 0l2.79.521a45.369 45.369 0 0018.324.692c9.512-1.78 2.833-14.936 0-19.28 7.463 8.687 8.561 17.159 7.902 21.061z" fill="url(#paint43_linear)"/><path d="M106.026 136.122h-.126l-.376.147a.086.086 0 01-.063 0c-.669.284-1.881.817-3.334 1.486-.701.317-1.453.692-2.237 1.077a71.183 71.183 0 00-7.317 4.435s-7.432-3.698-7.84-8.586c-.282-3.402 1.62-8.37 3.941-11.341.777-1.171 1.874-2.048 3.136-2.506a12.256 12.256 0 017.066.975 7.528 7.528 0 014.221 1.411c1.256.893 2.253 2.153 2.876 3.636a11.063 11.063 0 011.035 4.626 11.094 11.094 0 01-.982 4.64z" fill="url(#paint44_linear)"/><path d="M106.026 136.122h-.126l-.376.147a.086.086 0 01-.063 0c-.669.34-1.578.862-2.571 1.463-3.617 2.189-8.498 5.546-8.498 5.546h-1.788c1.39-2.641 3.553-4.701 6.147-5.852a15.946 15.946 0 017.275-1.304z" fill="url(#paint45_linear)"/><path style="mix-blend-mode:screen" opacity=".72" d="M71.929 159.586a16.981 16.981 0 005.33 4.497 15.695 15.695 0 006.534 1.843c7.975.613 11.592-1.814 11.592-1.814a6.918 6.918 0 00-2.012-2.226 6.288 6.288 0 00-2.692-1.086c-3.408-.601-7.317 2.552-11.049 2.007a22.046 22.046 0 01-7.703-3.221z" fill="url(#paint46_linear)"/><path style="mix-blend-mode:multiply" opacity=".3" d="M129.962 160.483c.206 2.068-.332 4.142-1.5 5.792-1.168 1.649-2.877 2.747-4.771 3.065a43.079 43.079 0 01-11.394-.068c1.401.113 7.85.556 9.303-1.293 1.641-2.075 1.735-5.534 3.585-7.02 1.851-1.486 3.607-.386 4.182-.488.198-.02.398-.016.595.012z" fill="url(#paint47_linear)"/><path d="M119.51 157.806c-.272.862 2.477 3.334 4.045 2.699 1.568-.635.345-3.107-.408-3.629-.752-.522-3.407.227-3.637.93zm-81.678 1.78c-.084.794 4.181-1.134 4.976-2.608.794-1.474 1.045-3.232.773-3.334-.272-.102-5.603 4.695-5.749 5.942zm53.978-37.459c-.24.771 2.76 4.298 3.512 3.776.753-.522.136-3.028-1.37-3.776-1.504-.749-1.954-.42-2.142 0zm20.351-9.731c-.867.227-.752 1.667-1.505 2.96-.752 1.293-2.153 2.268-1.996 2.552.157.283 3.7.238 4.317-1.736.616-1.973-.324-3.912-.816-3.776zm-.93-1.474a4.1 4.1 0 01-.982-2.654c.219-.635 1.212.102 1.39.737.177.635.042 2.019-.408 1.917zm-72.333 10.91c.084 1.395 4.86 1.678 5.331.941.47-.737-.407-1.384-1.986-1.667-1.578-.284-3.355.385-3.345.726z" fill="#fff"/><path style="mix-blend-mode:multiply" opacity=".3" d="M102.89 137.823c-3.617 2.189-8.498 5.546-8.498 5.546h-1.798s-7.432-3.698-7.84-8.586c-.282-3.402 1.62-8.369 3.941-11.341.554 1.577 3.71 10.116 6.94 12.657a7.753 7.753 0 003.136 1.417c1.11.249 2.243.363 3.377.341l.742-.034z" fill="url(#paint48_linear)"/><path style="mix-blend-mode:multiply" opacity=".3" d="M63.284 115.719s.46 1.599 5.028 1.746c4.568.148 8.362-3.3 8.362-3.3l-8.717-.941-4.673 2.495z" fill="url(#paint49_linear)"/><path d="M53.417 103.107c-.063.704 6.366-1.066 5.686-3.311-.428-1.43-5.57 2.053-5.686 3.311z" fill="#fff"/><path d="M63.284 115.719l-.407-4.752a19.527 19.527 0 014.087-.431c1.223.147 3.68 5.568 3.68 5.568s-4.088 2.201-7.36-.385z" fill="url(#paint50_linear)"/><defs><linearGradient id="paint1_linear" x1="52.769" y1="170.134" x2="56.622" y2="141.847" gradientUnits="userSpaceOnUse"><stop stop-color="#DAD3F9"/><stop offset="1" stop-color="#BE9DEA"/></linearGradient><linearGradient id="paint2_linear" x1="68.019" y1="166.346" x2="68.019" y2="142.507" gradientUnits="userSpaceOnUse"><stop stop-color="#BE9DEA"/><stop offset="1" stop-color="#9E8CEF"/></linearGradient><linearGradient id="paint3_linear" x1="53.501" y1="168.364" x2="53.501" y2="143.505" gradientUnits="userSpaceOnUse"><stop stop-color="#9D68C2"/><stop offset="1" stop-color="#CCEDFF"/></linearGradient><linearGradient id="paint4_linear" x1="2173.25" y1="5053.97" x2="2386.8" y2="3352.74" gradientUnits="userSpaceOnUse"><stop stop-color="#DAD3F9"/><stop offset="1" stop-color="#BE9DEA"/></linearGradient><linearGradient id="paint5_linear" x1="82.977" y1="167.162" x2="93.568" y2="89.463" gradientUnits="userSpaceOnUse"><stop stop-color="#CBC1F7"/><stop offset="1" stop-color="#E8DCF7"/></linearGradient><linearGradient id="paint6_linear" x1="873.697" y1="2997.91" x2="1103.42" y2="2464.72" gradientUnits="userSpaceOnUse"><stop stop-color="#BE9DEA"/><stop offset="1" stop-color="#9E8CEF"/></linearGradient><linearGradient id="paint8_linear" x1="84.04" y1="118.429" x2="84.04" y2="167.337" gradientUnits="userSpaceOnUse"><stop stop-color="#23E0FF"/><stop offset="1" stop-color="#23E0FF"/></linearGradient><linearGradient id="paint9_linear" x1="3300.97" y1="5078.13" x2="3433.98" y2="4141.73" gradientUnits="userSpaceOnUse"><stop stop-color="#CBC1F7"/><stop offset="1" stop-color="#E8DCF7"/></linearGradient><linearGradient id="paint10_linear" x1="110.823" y1="160.959" x2="110.823" y2="136.473" gradientUnits="userSpaceOnUse"><stop stop-color="#8DA4E5"/><stop offset="1" stop-color="#755CBB"/></linearGradient><linearGradient id="paint11_linear" x1="3247.55" y1="5042.14" x2="3509.89" y2="3568.7" gradientUnits="userSpaceOnUse"><stop stop-color="#CBC1F7"/><stop offset="1" stop-color="#E8DCF7"/></linearGradient><linearGradient id="paint12_linear" x1="1431.79" y1="1278.03" x2="1439.83" y2="1185.08" gradientUnits="userSpaceOnUse"><stop stop-color="#DAD3F9"/><stop offset="1" stop-color="#BE9DEA"/></linearGradient><linearGradient id="paint13_linear" x1="557.475" y1="1362.49" x2="571.586" y2="1243.47" gradientUnits="userSpaceOnUse"><stop stop-color="#CBC1F7"/><stop offset="1" stop-color="#E8DCF7"/></linearGradient><linearGradient id="paint14_linear" x1="337.211" y1="686.4" x2="337.211" y2="659.716" gradientUnits="userSpaceOnUse"><stop stop-color="#BE9DEA"/><stop offset="1" stop-color="#9E8CEF"/></linearGradient><linearGradient id="paint15_linear" x1="69.156" y1="113.249" x2="69.156" y2="150.635" gradientUnits="userSpaceOnUse"><stop stop-color="#42E8E0"/><stop offset="1" stop-color="#40B6CB"/></linearGradient><linearGradient id="paint16_linear" x1="3678.45" y1="3121.7" x2="3678.45" y2="2669.25" gradientUnits="userSpaceOnUse"><stop stop-color="#8DA4E5"/><stop offset="1" stop-color="#755CBB"/></linearGradient><linearGradient id="paint17_linear" x1="679.852" y1="2854.56" x2="679.852" y2="2432.2" gradientUnits="userSpaceOnUse"><stop stop-color="#BE9DEA"/><stop offset="1" stop-color="#9E8CEF"/></linearGradient><linearGradient id="paint18_linear" x1="1076.96" y1="1586.29" x2="1076.96" y2="1450.56" gradientUnits="userSpaceOnUse"><stop stop-color="#BE9DEA"/><stop offset="1" stop-color="#9E8CEF"/></linearGradient><linearGradient id="paint19_linear" x1="668.889" y1="2886.36" x2="741.268" y2="2473.19" gradientUnits="userSpaceOnUse"><stop stop-color="#CBC1F7"/><stop offset="1" stop-color="#E8DCF7"/></linearGradient><linearGradient id="paint20_linear" x1="69.058" y1="113.201" x2="69.058" y2="121.436" gradientUnits="userSpaceOnUse"><stop offset=".097" stop-color="#42E8E0"/><stop offset="1" stop-color="#393091"/></linearGradient><linearGradient id="paint21_linear" x1="25.1" y1="105.086" x2="25.1" y2="162.739" gradientUnits="userSpaceOnUse"><stop stop-color="#180D5B"/><stop offset=".232" stop-color="#24126A" stop-opacity=".94"/><stop offset=".561" stop-color="#1F72BA"/><stop offset=".857" stop-color="#42E8E0"/></linearGradient><linearGradient id="paint22_linear" x1="2961.8" y1="1200.55" x2="2961.8" y2="1074.76" gradientUnits="userSpaceOnUse"><stop stop-color="#8DA4E5"/><stop offset="1" stop-color="#755CBB"/></linearGradient><linearGradient id="paint23_linear" x1="123.262" y1="44.769" x2="123.262" y2="5.449" gradientUnits="userSpaceOnUse"><stop stop-color="#B9ACF4"/><stop offset="1" stop-color="#E1D1F5"/></linearGradient><linearGradient id="paint24_linear" x1="1304.32" y1="497.594" x2="1304.32" y2="94.772" gradientUnits="userSpaceOnUse"><stop stop-color="#BE9DEA"/><stop offset="1" stop-color="#9E8CEF"/></linearGradient><linearGradient id="paint25_linear" x1="2061.06" y1="1573.68" x2="2061.06" y2="257.235" gradientUnits="userSpaceOnUse"><stop stop-color="#45FFCD"/><stop offset="1" stop-color="#22E0FF"/></linearGradient><linearGradient id="paint26_linear" x1="10146.2" y1="1588.03" x2="10146.2" y2="224.811" gradientUnits="userSpaceOnUse"><stop stop-color="#B9ACF4"/><stop offset="1" stop-color="#E1D1F5"/></linearGradient><linearGradient id="paint27_linear" x1="4526.29" y1="528.462" x2="4526.29" y2="125.428" gradientUnits="userSpaceOnUse"><stop stop-color="#BE9DEA"/><stop offset="1" stop-color="#9E8CEF"/></linearGradient><linearGradient id="paint28_linear" x1="7348.64" y1="1694.36" x2="7348.64" y2="317.741" gradientUnits="userSpaceOnUse"><stop stop-color="#45FFCD"/><stop offset="1" stop-color="#22E0FF"/></linearGradient><linearGradient id="paint29_linear" x1="7861.46" y1="8017.65" x2="8817.02" y2="30.808" gradientUnits="userSpaceOnUse"><stop stop-color="#CBC1F7"/><stop offset="1" stop-color="#E8DCF7"/></linearGradient><linearGradient id="paint30_linear" x1="51625.8" y1="7135.09" x2="51625.8" y2="1638.41" gradientUnits="userSpaceOnUse"><stop stop-color="#0665BD"/><stop offset="1" stop-color="#1A1F77"/></linearGradient><linearGradient id="paint31_linear" x1="55.34" y1="26.26" x2="119.53" y2="26.26" gradientUnits="userSpaceOnUse"><stop/><stop offset="1" stop-color="#6A9BFF"/></linearGradient><linearGradient id="paint32_linear" x1="2911.55" y1="753.937" x2="4995.21" y2="753.937" gradientUnits="userSpaceOnUse"><stop/><stop offset="1" stop-color="#6A9BFF"/></linearGradient><linearGradient id="paint33_linear" x1="48.439" y1="72.275" x2="50.353" y2="46.533" gradientUnits="userSpaceOnUse"><stop/><stop offset="1" stop-color="#00E3FF"/></linearGradient><linearGradient id="paint34_linear" x1="1099.55" y1="1009.74" x2="1099.55" y2="880.563" gradientUnits="userSpaceOnUse"><stop stop-color="#8DA4E5"/><stop offset="1" stop-color="#755CBB"/></linearGradient><linearGradient id="paint35_linear" x1="928.174" y1="3250.83" x2="1247.52" y2="1463.15" gradientUnits="userSpaceOnUse"><stop stop-color="#BE9DEA"/><stop offset="1" stop-color="#9E8CEF"/></linearGradient><linearGradient id="paint36_linear" x1="816.538" y1="-582.816" x2="849.181" y2="-709.705" gradientUnits="userSpaceOnUse"><stop stop-color="#DD1A8F"/><stop offset="1" stop-color="#FE117E"/></linearGradient><linearGradient id="paint37_linear" x1="908.923" y1="433.389" x2="908.923" y2="406.895" gradientUnits="userSpaceOnUse"><stop stop-color="#D93DE3"/><stop offset="1" stop-color="#FF6DBA"/></linearGradient><linearGradient id="paint38_linear" x1="125.478" y1="17.663" x2="134.75" y2="17.663" gradientUnits="userSpaceOnUse"><stop/><stop offset="1" stop-color="#D4E2FF"/></linearGradient><linearGradient id="paint39_linear" x1="35.783" y1="16.96" x2="45.996" y2="16.96" gradientUnits="userSpaceOnUse"><stop stop-color="#D4E2FF"/><stop offset="1"/></linearGradient><linearGradient id="paint40_linear" x1="246.247" y1="658.693" x2="246.247" y2="514.841" gradientUnits="userSpaceOnUse"><stop stop-color="#CBC1F7"/><stop offset="1" stop-color="#E8DCF7"/></linearGradient><linearGradient id="paint43_linear" x1="3307.86" y1="3705.64" x2="3307.86" y2="2887.02" gradientUnits="userSpaceOnUse"><stop stop-color="#9D68C2"/><stop offset="1" stop-color="#CCEDFF"/></linearGradient><linearGradient id="paint44_linear" x1="2103.09" y1="2967.5" x2="2160.25" y2="2518.88" gradientUnits="userSpaceOnUse"><stop stop-color="#CBC1F7"/><stop offset="1" stop-color="#E8DCF7"/></linearGradient><linearGradient id="paint45_linear" x1="1367.49" y1="1039.64" x2="1367.49" y2="993.603" gradientUnits="userSpaceOnUse"><stop stop-color="#BE9DEA"/><stop offset="1" stop-color="#9E8CEF"/></linearGradient><linearGradient id="paint46_linear" x1="1948.86" y1="1098.23" x2="1948.86" y2="1061.66" gradientUnits="userSpaceOnUse"><stop stop-color="#D4E2FF"/><stop offset="1"/></linearGradient><linearGradient id="paint47_linear" x1="2164.3" y1="1577.28" x2="2164.3" y2="1497.58" gradientUnits="userSpaceOnUse"><stop stop-color="#9D68C2"/><stop offset="1" stop-color="#CCEDFF"/></linearGradient><linearGradient id="paint48_linear" x1="1714.51" y1="2630.18" x2="1714.51" y2="2279.87" gradientUnits="userSpaceOnUse"><stop stop-color="#9D68C2"/><stop offset="1" stop-color="#CCEDFF"/></linearGradient><linearGradient id="paint49_linear" x1="959.61" y1="550.408" x2="959.61" y2="534.528" gradientUnits="userSpaceOnUse"><stop stop-color="#8DA4E5"/><stop offset="1" stop-color="#755CBB"/></linearGradient><linearGradient id="paint50_linear" x1="65.764" y1="110.536" x2="65.764" y2="116.977" gradientUnits="userSpaceOnUse"><stop stop-color="#180D5B"/><stop offset=".232" stop-color="#24126A" stop-opacity=".94"/><stop offset=".561" stop-color="#1F72BA"/><stop offset=".857" stop-color="#42E8E0"/></linearGradient><radialGradient id="paint0_radial" cx="0" cy="0" r="1" gradientUnits="userSpaceOnUse" gradientTransform="matrix(0 11 -56 0 69 201)"><stop stop-color="#E8DCF7"/><stop offset="1" stop-color="#C4C4C4" stop-opacity="0"/></radialGradient><radialGradient id="paint7_radial" cx="0" cy="0" r="1" gradientUnits="userSpaceOnUse" gradientTransform="matrix(30.9609 0 0 34.6003 84.733 159.335)"><stop stop-color="#45FFCD"/><stop offset="1" stop-color="#22E0FF"/></radialGradient><radialGradient id="paint41_radial" cx="0" cy="0" r="1" gradientUnits="userSpaceOnUse" gradientTransform="matrix(307.971 0 0 352.492 2243.29 1141.8)"><stop stop-color="#45FFCD"/><stop offset="1" stop-color="#22E0FF"/></radialGradient><radialGradient id="paint42_radial" cx="0" cy="0" r="1" gradientUnits="userSpaceOnUse" gradientTransform="matrix(-308.447 0 0 -351.799 -18218.1 1139.18)"><stop stop-color="#45FFCD"/><stop offset="1" stop-color="#22E0FF"/></radialGradient></defs></svg>