<svg width="152" height="223" fill="none" xmlns="http://www.w3.org/2000/svg"><ellipse cx="76" cy="212" rx="56" ry="11" fill="url(#paint0_radial)"/><path d="M54.65 5.975s-7.86 6.119-11.038 19.738c-3.18 13.619 15.108-3.179 15.108-3.179L54.65 5.975z" fill="url(#paint1_linear)"/><path d="M47.738 20.238s5.956-16.392 11.49-19c5.534-2.607 13.691 2.514 13.691 2.514L47.74 20.238z" fill="url(#paint2_linear)"/><path d="M115.813 75.753c-14.362 16.538-69.664 8.082-77.39-3.293-3.04-4.62-4.71-10.135-4.788-15.81C32.821 31.716 56.221-.186 85.203 2.276c19.637 1.672 32.64 22.283 36.077 42.093 2.154 12.383.574 24.454-5.467 31.383z" fill="url(#paint3_linear)"/><path d="M103.481 82.578a95.95 95.95 0 01-25.057 2.265c-13.04-.82-22.346-3.002-27.478-5.61-3.37-1.714-4.94-3.605-4.606-5.433.211-1.101 2.873-1.922 6.894-2.483 11.958-1.589 36.488-.758 49.577 2.234 1.12.26 2.173.53 3.102.82l.584.188h.115c2.24.758 3.829 1.6 4.49 2.545.159.213.273.461.335.727.383 1.911-3.006 3.532-7.956 4.747z" fill="url(#paint4_linear)"/><path style="mix-blend-mode:multiply" opacity=".3" d="M115.813 75.753c-14.362 16.538-69.664 8.082-77.39-3.293-3.04-4.62-4.71-10.135-4.788-15.81 0 0 3.303 8.102 14.496 10.294 11.192 2.192 44.157 2.452 51.108-2.483 6.951-4.934 5.688-29.596 5.688-29.596l16.353 9.516c2.154 12.372.574 24.443-5.467 31.372z" fill="url(#paint5_linear)"/><path style="mix-blend-mode:multiply" opacity=".5" d="M103.481 82.578c-5.486-3.002-21.533-10.897-34.851-8.508-16.334 2.909-17.684 5.194-17.684 5.194-3.37-1.714-4.94-3.604-4.606-5.433.211-1.1 2.873-1.921 6.894-2.482 11.958-1.59 36.488-.759 49.577 2.233 1.359.353 2.594.686 3.686 1.039h.115c2.24.758 3.829 1.6 4.49 2.545.159.213.273.462.335.727.383 1.85-3.006 3.47-7.956 4.685z" fill="url(#paint6_linear)"/><path d="M105.913 74.371c-3.256 3.003-18.192 4.841-26.598 4.312-15.1-.967-24.128-4.156-26.09-7.366 12.982-1.724 40.815-.602 52.688 3.054z" fill="url(#paint7_linear)"/><path d="M33.434 57.76c1.915 7.615 49.701 13.34 62.646 1.04 12.944-12.3 3.743-56.523-21.801-54.113C49.93 6.952 29.882 43.965 33.434 57.761z" fill="#DFE3FB"/><path d="M33.635 56.639c1.963 7.614 49.701 13.328 62.646 1.039 12.944-12.29 3.743-56.44-21.801-54.113-24.348 2.254-44.397 39.278-40.845 53.074z" fill="url(#paint8_linear)"/><path d="M100.168 11.117S97.736 36.735 112.299 45.7c0 0 7.142.8 11.279-3.927 0 0-6.434 6.628-13.29-.208-6.855-6.835-5.304-25.783-.105-31.964 5.199-6.181 12.638-4.602 12.638-4.602l-3.064-2.909s-11.01-2.379-19.589 9.027z" fill="url(#paint9_linear)"/><path d="M119.757 2.09s-8.1-.769-13.71 9.464c-5.956 10.855-1.503 29.554 5.811 32.359 7.315 2.805 14.601-27.529 14.601-27.529l-4.337-12.03c-.542-1.012-1.371-1.807-2.365-2.264z" fill="url(#paint10_linear)"/><path d="M130.356 27.832c-1.015 5.86-3.188 10.648-6.108 13.692l-.814.79a10.4 10.4 0 01-3.84 2.288 9.825 9.825 0 01-4.365.412c-9.872-1.309-11.269-16.787-10.149-25.576 1.273-10.128 9.23-16.268 15.635-15.405 7.535 1.018 11.633 12.34 9.641 23.8z" fill="url(#paint11_linear)"/><path d="M33.367 49.658c-4.903 1.452-9.47 4.008-13.404 7.5-6.52 5.797-8.234 12.871-.201 12.237l3.724-2.368s-4.787.727-4.165-4.57c.623-5.299 13.874-11.823 13.874-11.823l.172-.976z" fill="url(#paint12_linear)"/><path d="M18.354 65.053c-2.412 2.67 2.298 5.08 6.243 5.786 4.423.78 12.447.26 12.16-4.633-.288-4.893-12.744-7.375-18.403-1.153z" fill="url(#paint13_linear)"/><path d="M18.632 65.583c-.173.79 15.712 1.922 16.276-1.101.565-3.023-14.917-4.986-16.276 1.101z" fill="url(#paint14_linear)"/><path d="M74.7 34.532c-.335.51 6.271-4.155 16.803.323 1.034.436-10.043-10.357-16.803-.322z" fill="url(#paint15_linear)"/><path d="M41.505 34.585c-.344.498 3.131-3.117 12.38-.697 1.082.281-6.31-8.258-12.38.697z" fill="url(#paint16_linear)"/><path style="mix-blend-mode:screen" opacity=".5" d="M46.915 24.84c1.091 1.777 10.13-3.324 20.106-2.233 9.977 1.09 20.844 11.687 29.001 10.388 6.473-1.039-2.068-26.303-18.555-28.557C60.98 2.183 45.843 23.054 46.915 24.84z" fill="url(#paint17_linear)"/><path style="mix-blend-mode:screen" opacity=".5" d="M43.976 58.924a64.457 64.457 0 0123.122-1.433c12.791 1.547 14.86 3.023 14.62 4.321-.24 1.299-9.574 3.99-21.284 2.639-11.71-1.35-16.458-5.527-16.458-5.527z" fill="url(#paint18_linear)"/><path style="mix-blend-mode:screen" opacity=".5" d="M33.999 54.613s-1.312-9.744 6.827-23.623c0 0 1.742-2.171 2.546-1.392.805.78-7.343 10.814-9.373 25.015z" fill="url(#paint19_linear)"/><path style="mix-blend-mode:screen" opacity=".72" d="M106.707 31.81s1.092 9.496 7.526 11.511c6.434 2.015 11.652-3.054 13.27-10.19 0 0-1.991 6.16-10.379 4.632-8.387-1.527-10.417-5.952-10.417-5.952z" fill="url(#paint20_linear)"/><path style="mix-blend-mode:screen" opacity=".72" d="M107.808 13.85c.087 1.766 11.873-1.974 15.636-1.455 3.762.52 5.371 5.516 5.974 5.392.603-.125-1.044-11.791-8.033-12.622-6.989-.831-13.634 7.5-13.577 8.684z" fill="url(#paint21_linear)"/><path d="M52.363 44.37s11.727.447 18.383-1.37c0 0-1.58 11.936-9.192 11.936-7.611 0-9.191-10.565-9.191-10.565z" fill="#2F95CD"/><path d="M51.894 114.823s-19.685 12.113-24.32 11.635c-4.634-.478-2.604-11.905-2.604-11.905a49.182 49.182 0 012.04-2.441c7.439-8.487 20.077-19.301 27.335-24.443 3.054-2.172 5.16-3.335 5.515-2.899 2.7 3.241-7.966 30.053-7.966 30.053z" fill="url(#paint22_linear)"/><path d="M24.97 114.543s2.576-2.348 5.745.81-.096 10.731-3.188 11.105c-3.093.374-4.902-7.001-2.557-11.915z" fill="url(#paint23_linear)"/><path style="mix-blend-mode:multiply" opacity=".3" d="M51.894 114.823s-19.685 12.113-24.32 11.635c-4.634-.478-2.604-11.905-2.604-11.905a49.182 49.182 0 012.04-2.441s4.787 3.117 13.691 1.61c8.904-1.506 13.644-26.053 13.644-26.053 3.054-2.172 5.16-3.335 5.515-2.899 2.7 3.241-7.966 30.053-7.966 30.053z" fill="url(#paint24_linear)"/><path d="M74.891 154.361c.297 4.54-4.241 19.987-8.827 24.745a3.83 3.83 0 01-1.182.984c-.45.239-.941.378-1.442.408-3.83-.166-8.272-19.052-9.957-29.825-.651-4.155-.88-7.105-.498-7.271 3.208-1.527 21.543 5.547 21.906 10.959z" fill="url(#paint25_linear)"/><path d="M75.093 155.826s-4.156 3.418-11.777.738c-5.955-2.078-11.03-11.282-10.34-13.173.689-1.89 23.696 5.049 22.117 12.435z" fill="url(#paint26_linear)"/><path style="mix-blend-mode:multiply" opacity=".3" d="M74.891 154.361c.297 4.54-4.241 19.987-8.827 24.745 3.179-5.454 1.915-15.281-1.159-19.353-2.326-3.117-8.54-7.272-11.432-9.069-.65-4.156-.88-7.106-.498-7.272 3.218-1.537 21.553 5.537 21.916 10.949z" fill="url(#paint27_linear)"/><path d="M60.396 161.217c-1.168-.093-.393 3.335-.173 3.522.22.187.766-.966.814-1.901.048-.935-.21-1.621-.641-1.621z" fill="#fff"/><path d="M102.207 126.77c1.159 17.016-5.39 26.584-20.546 31.248-14.86 4.56-28.724-9.91-29.566-31.882-.527-14.024-.163-26.74 4.165-35.974 2.438-5.389 6.6-9.631 11.709-11.937 4.376-2.077 8.856-.623 13.088 2.899 11.001 9.173 20.26 32.526 21.15 45.646z" fill="url(#paint28_linear)"/><path style="mix-blend-mode:multiply" opacity=".3" d="M86.046 99.335a214.137 214.137 0 017.267 20.257c2.71 9.858.162 21.077.162 21.077l8.857-11.021a39.44 39.44 0 00-2.001-13.505c-2.346-6.42-3.667-9.277-3.667-9.277l-10.618-7.531z" fill="url(#paint29_linear)"/><path d="M51.903 128.931s.125-13.183 10.762-16.622c12.743-4.155 25.535 8.384 27.613 19.001 2.077 10.617 1.828 21.275-10.102 25.576 0 .01-22.653 6.742-28.273-27.955z" fill="url(#paint30_linear)"/><path d="M52.43 130.364s.124-13.182 10.761-16.621c12.744-4.155 25.536 8.394 27.613 19 2.078 10.607 1.829 21.275-10.1 25.576 0 .011-22.702 6.742-28.274-27.955z" fill="url(#paint31_radial)"/><path d="M95.582 110.699a2.399 2.399 0 01-1.137-.14 2.57 2.57 0 01-.97-.66c-3.734-2.991-9.574-13.224-11.26-19.415-.65-2.41-.66-4.155.326-4.737 1.618-.873 6.78 4.238 10.867 12.466 2.413 4.83 4.539 11.728 2.174 12.486z" fill="url(#paint32_linear)"/><path d="M93.475 109.899c-3.733-2.991-9.574-13.224-11.26-19.415 2.308 1.807 5.583 5.952 8.36 11.541a36.495 36.495 0 012.9 7.874z" fill="#6340A2"/><path style="mix-blend-mode:multiply" opacity=".5" d="M80.895 81.03S67.098 92.437 60.884 93.632c-5.994 1.173-4.854-3.304-4.787-3.564 2.438-5.394 6.6-9.643 11.71-11.957 4.375-2.025 8.865-.602 13.088 2.92z" fill="url(#paint33_linear)"/><path style="mix-blend-mode:screen" opacity=".72" d="M53.483 128.827c2.518 2.794 7.325-3.387 15.042-4.862 7.716-1.475 12.906 1.506 14.734-.363 1.83-1.87-8.243-11.791-19.847-8.571-9.259 2.556-10.781 12.84-9.929 13.796z" fill="url(#paint34_linear)"/><path style="mix-blend-mode:screen" opacity=".72" d="M70.095 156.241c2.9 1.5 6.197 1.838 9.306.956 5.237-1.475 6.214-4.747 6.214-4.747a10.48 10.48 0 00-6.032 1.61c-2.898 1.719-6.197 2.478-9.488 2.181z" fill="url(#paint35_linear)"/><path d="M73.599 94.161c-.9.312.143 10.389.957 10.461.814.073 1.235-2.254 1.092-5.62-.144-3.366-1.188-5.152-2.05-4.84z" fill="#fff"/><path d="M137.106 124.09c1.408 6.399-4.107 10.71-6.53 10.513-2.106-.177-9.076-2.753-18.239-9.797a104.34 104.34 0 01-4.174-3.407c-11.203-9.64-27.077-30.469-22.022-32.495 14.515-5.88 49.558 28.807 50.965 35.186z" fill="url(#paint36_linear)"/><path d="M125.875 133.096s-2.642-5.017.45-9.349c3.093-4.332 10.207-1.039 10.207-1.039.424.764.699 1.614.811 2.497a7.1 7.1 0 01-.165 2.642 6.78 6.78 0 01-1.112 2.356 6.183 6.183 0 01-1.88 1.688c-5.429 3.636-8.311 1.205-8.311 1.205z" fill="url(#paint37_linear)"/><path style="mix-blend-mode:multiply" opacity=".3" d="M137.106 124.09c1.408 6.399-4.107 10.71-6.53 10.513-2.106-.177-9.076-2.753-18.239-9.796.833.561 6.903 4.529 9.479 2.867 2.767-1.797 3.533-13.609-11.49-27.654-14.505-13.598-23.668-11.292-24.223-11.126 14.553-5.869 49.596 28.817 51.003 35.196z" fill="url(#paint38_linear)"/><path d="M128.48 125.762c1.915-2.15 6.654-2.493 9.019-1.288 2.365 1.205 10.158 7.667 14.361 19.79 0 0-.727 7.147-5.179 8.549-3.38 1.039-9.259-7.936-13.73-14.148-4.471-6.213-7.65-9.35-4.471-12.903z" fill="url(#paint39_linear)"/><path d="M147.418 152.741s-10.637-22.907-20.824-21.141c0 0 1.914 3.595 8.09 10.794 6.175 7.199 10.561 11.053 12.734 10.347z" fill="url(#paint40_linear)"/><path style="mix-blend-mode:multiply" opacity=".5" d="M140.256 141.043s.153 4.519-.804 6.046c-.543.895-1.366 1.544-2.317 1.829l-1.522-13.058a28.94 28.94 0 014.643 5.183z" fill="url(#paint41_linear)"/><path d="M135.613 135.86s-4.893-4.779-8.962-3.636c0 0-.785 5.454 8.215 16.953 0 0 3.217 1.039 3.916-3.116a40.17 40.17 0 00-3.169-10.201z" fill="url(#paint42_linear)"/><path d="M132.463 135.319c1.062-.851 2.939 5.548 2.298 5.88-.642.333-3.179-5.163-2.298-5.88zm-32.908-27.965c-1.292 2.545 2.825 4.457 3.916 4.062 1.092-.395-3.035-5.807-3.916-4.062zm4.768 5.039c-.392.322 1.283 1.932 1.685 2.202.776.519 2.337.748 2.413.436.077-.311-3.648-3.033-4.098-2.638zm-70.248-5.891c.211.728 4.845-1.537 4.864-3.719.02-2.181-5.16 2.66-4.864 3.719z" fill="#fff"/><path d="M117.393 175.429c-.814.893-2.356.862-4.319.207a34.793 34.793 0 01-7.506-4.041h-.048c-7.66-5.121-15.999-13.058-16.449-15.374-1.541-8.01 5.927-18.294 10.695-23.374 1.857-1.994 3.313-3.179 3.638-3.116 1.197.103 18.268 41.106 13.989 45.698z" fill="url(#paint43_linear)"/><path style="mix-blend-mode:multiply" opacity=".3" d="M117.392 175.429c-.813.893-2.355.862-4.318.207l-7.506-4.03c.709.332 8.77 3.833 6.042-8.789-2.873-13.193-12.122-28.973-12.122-28.973l.278-1.039c1.857-1.994 3.313-3.178 3.638-3.116 1.197.145 18.268 41.148 13.988 45.74z" fill="url(#paint44_linear)"/><path d="M95.007 153.52c-1.79 1.205 2.672 5.287 3.18 5.319.507.031.172-2.275-.671-3.699-.737-1.267-1.877-2.046-2.509-1.62zm3.821 5.755c-.259.457 1.12 1.735 1.33 1.267.063-.26.055-.534-.021-.79a1.424 1.424 0 00-.41-.654.731.731 0 00-.9.177zm-87.722-42.727c.058.862 5.678-1.963 5.678-2.982 0-1.018-5.764 1.548-5.678 2.982z" fill="#fff"/><path d="M0 127.217a11.07 11.07 0 001.034 3.937s2.729 2.078 8.08 1.807c5.353-.27 16.345-6.316 17.867-7.417 1.522-1.101 2.336-4.498 2.336-4.498L0 127.217z" fill="url(#paint45_linear)"/><path d="M28.915 114.855c-2.7-1.185-9.66.436-13.921 2.077-4.261 1.642-11.222 6.919-14.994 10.233 0 0 .077 3.116 5.649 3.885 5.572.769 20.556-6.108 23.065-9.09 2.508-2.981.2-7.105.2-7.105z" fill="url(#paint46_linear)"/><path d="M9.651 119.935s9.46-1.382 14.285-5.309c-.038 0-8.167-.374-14.285 5.309z" fill="url(#paint47_linear)"/><path d="M22.471 114.855c-3.513 2.115-7.4 3.4-11.403 3.771 0 0-5.936.083-6.262-.665-.325-.748-.517-3.574.958-4.291 1.474-.716 11.853-2.005 16.707 1.185z" fill="url(#paint48_linear)"/><path d="M10.513 119.789c5.138.586 10.131 2.203 14.725 4.768l.9-.54s-5.534-4.228-15.625-4.228z" fill="url(#paint49_linear)"/><path d="M10.264 128.858a12.592 12.592 0 016.491-1.849s-4.48 2.244-6.491 1.849z" fill="#fff"/><defs><linearGradient id="paint1_linear" x1="49.747" y1="32.076" x2="55.183" y2="6.087" gradientUnits="userSpaceOnUse"><stop stop-color="#45FFCD"/><stop offset="1" stop-color="#22E0FF"/></linearGradient><linearGradient id="paint2_linear" x1="58.472" y1="22.485" x2="63.112" y2=".297" gradientUnits="userSpaceOnUse"><stop stop-color="#B9ACF4"/><stop offset="1" stop-color="#E1D1F5"/></linearGradient><linearGradient id="paint3_linear" x1="68.578" y1="86.076" x2="97.116" y2="5.474" gradientUnits="userSpaceOnUse"><stop stop-color="#CBC1F7"/><stop offset="1" stop-color="#E8DCF7"/></linearGradient><linearGradient id="paint4_linear" x1="46.889" y1="70.728" x2="110.787" y2="82.08" gradientUnits="userSpaceOnUse"><stop stop-color="#8879EA"/><stop offset="1" stop-color="#9E8CEF"/></linearGradient><linearGradient id="paint5_linear" x1="73.065" y1="85.079" x2="84.465" y2="30.566" gradientUnits="userSpaceOnUse"><stop stop-color="#9D68C2"/><stop offset="1" stop-color="#CCEDFF"/></linearGradient><linearGradient id="paint6_linear" x1="77.353" y1="84.759" x2="80.669" y2="68.906" gradientUnits="userSpaceOnUse"><stop stop-color="#8DA4E5"/><stop offset="1" stop-color="#755CBB"/></linearGradient><linearGradient id="paint7_linear" x1="78.447" y1="79.476" x2="80.532" y2="69.044" gradientUnits="userSpaceOnUse"><stop stop-color="#5E36CC"/><stop offset="1" stop-color="#6C4A96"/></linearGradient><linearGradient id="paint8_linear" x1="40002.5" y1="5540.46" x2="40002.5" y2="1269.77" gradientUnits="userSpaceOnUse"><stop stop-color="#0665BD"/><stop offset="1" stop-color="#1A1F77"/></linearGradient><linearGradient id="paint9_linear" x1="3187.26" y1="1696.65" x2="3177.09" y2="-154.957" gradientUnits="userSpaceOnUse"><stop stop-color="#B9ACF4"/><stop offset="1" stop-color="#E1D1F5"/></linearGradient><linearGradient id="paint10_linear" x1="114.967" y1="44.071" x2="114.736" y2="2.093" gradientUnits="userSpaceOnUse"><stop stop-color="#BE9DEA"/><stop offset="1" stop-color="#9E8CEF"/></linearGradient><linearGradient id="paint11_linear" x1="3687.43" y1="1566.18" x2="3678.48" y2="-64.016" gradientUnits="userSpaceOnUse"><stop stop-color="#45FFCD"/><stop offset="1" stop-color="#22E0FF"/></linearGradient><linearGradient id="paint12_linear" x1="419.498" y1="3325.7" x2="569.562" y2="2894.7" gradientUnits="userSpaceOnUse"><stop stop-color="#BE9DEA"/><stop offset="1" stop-color="#9E8CEF"/></linearGradient><linearGradient id="paint13_linear" x1="25.945" y1="71.413" x2="29.241" y2="61.063" gradientUnits="userSpaceOnUse"><stop stop-color="#DD1A8F"/><stop offset="1" stop-color="#FE117E"/></linearGradient><linearGradient id="paint14_linear" x1="27.382" y1="66.571" x2="27.654" y2="61.567" gradientUnits="userSpaceOnUse"><stop stop-color="#D93DE3"/><stop offset="1" stop-color="#FF6DBA"/></linearGradient><linearGradient id="paint15_linear" x1="1928.08" y1="578.523" x2="1928.08" y2="552.094" gradientUnits="userSpaceOnUse"><stop stop-color="#45FFCD"/><stop offset="1" stop-color="#22E0FF"/></linearGradient><linearGradient id="paint16_linear" x1="959.533" y1="550.397" x2="959.533" y2="528.361" gradientUnits="userSpaceOnUse"><stop stop-color="#45FFCD"/><stop offset="1" stop-color="#22E0FF"/></linearGradient><linearGradient id="paint17_linear" x1="49.085" y1="11.985" x2="99.74" y2="20.983" gradientUnits="userSpaceOnUse"><stop/><stop offset="1" stop-color="#6A9BFF"/></linearGradient><linearGradient id="paint18_linear" x1="2839.36" y1="1190.78" x2="4322.19" y2="1190.78" gradientUnits="userSpaceOnUse"><stop/><stop offset="1" stop-color="#6A9BFF"/></linearGradient><linearGradient id="paint19_linear" x1="653.494" y1="3697.43" x2="653.494" y2="3052.98" gradientUnits="userSpaceOnUse"><stop/><stop offset="1" stop-color="#6A9BFF"/></linearGradient><linearGradient id="paint20_linear" x1="117.158" y1="43.758" x2="117.092" y2="31.739" gradientUnits="userSpaceOnUse"><stop stop-color="#D4E2FF"/><stop offset="1"/></linearGradient><linearGradient id="paint21_linear" x1="107.797" y1="11.532" x2="129.502" y2="11.431" gradientUnits="userSpaceOnUse"><stop/><stop offset="1" stop-color="#D4E2FF"/></linearGradient><linearGradient id="paint22_linear" x1="39.485" y1="128.089" x2="45.667" y2="82.766" gradientUnits="userSpaceOnUse"><stop stop-color="#CBC1F7"/><stop offset="1" stop-color="#D4BEF1"/></linearGradient><linearGradient id="paint23_linear" x1="395.626" y1="1728" x2="371.068" y2="1574.55" gradientUnits="userSpaceOnUse"><stop stop-color="#BE9DEA"/><stop offset="1" stop-color="#9E8CEF"/></linearGradient><linearGradient id="paint24_linear" x1="2178.95" y1="5373.94" x2="2178.95" y2="3692.21" gradientUnits="userSpaceOnUse"><stop stop-color="#9D68C2"/><stop offset="1" stop-color="#CCEDFF"/></linearGradient><linearGradient id="paint25_linear" x1="2482.59" y1="4103.58" x2="2542.61" y2="2770.26" gradientUnits="userSpaceOnUse"><stop stop-color="#CBC1F7"/><stop offset="1" stop-color="#E8DCF7"/></linearGradient><linearGradient id="paint26_linear" x1="1927.67" y1="1145.12" x2="2400.61" y2="1078.73" gradientUnits="userSpaceOnUse"><stop stop-color="#8879EA"/><stop offset="1" stop-color="#9E8CEF"/></linearGradient><linearGradient id="paint27_linear" x1="2535.05" y1="3894.64" x2="2324.13" y2="2618.27" gradientUnits="userSpaceOnUse"><stop stop-color="#9D68C2"/><stop offset="1" stop-color="#CCEDFF"/></linearGradient><linearGradient id="paint28_linear" x1="6041.05" y1="1401.74" x2="5325.07" y2="-4903.21" gradientUnits="userSpaceOnUse"><stop stop-color="#CBC1F7"/><stop offset="1" stop-color="#E8DCF7"/></linearGradient><linearGradient id="paint29_linear" x1="2401.14" y1="514.387" x2="1892.22" y2="-1061" gradientUnits="userSpaceOnUse"><stop stop-color="#9D68C2"/><stop offset="1" stop-color="#CCEDFF"/></linearGradient><linearGradient id="paint30_linear" x1="3420.47" y1="-270.286" x2="4880.81" y2="-671.015" gradientUnits="userSpaceOnUse"><stop stop-color="#BE9DEA"/><stop offset="1" stop-color="#9E8CEF"/></linearGradient><linearGradient id="paint32_linear" x1="1780.68" y1="-766.049" x2="1922.49" y2="-804.964" gradientUnits="userSpaceOnUse"><stop stop-color="#8879EA"/><stop offset="1" stop-color="#9E8CEF"/></linearGradient><linearGradient id="paint33_linear" x1="2653.1" y1="-1130.52" x2="2590.2" y2="-1325.21" gradientUnits="userSpaceOnUse"><stop stop-color="#8DA4E5"/><stop offset="1" stop-color="#755CBB"/></linearGradient><linearGradient id="paint34_linear" x1="2583.17" y1="-589.895" x2="3512.6" y2="-844.936" gradientUnits="userSpaceOnUse"><stop/><stop offset="1" stop-color="#D4E2FF"/></linearGradient><linearGradient id="paint35_linear" x1="1698.79" y1="-47.831" x2="1692.94" y2="-65.945" gradientUnits="userSpaceOnUse"><stop stop-color="#D4E2FF"/><stop offset="1"/></linearGradient><linearGradient id="paint36_linear" x1="7359.53" y1="-8247.89" x2="6143.46" y2="-10674.4" gradientUnits="userSpaceOnUse"><stop stop-color="#CBC1F7"/><stop offset="1" stop-color="#E8DCF7"/></linearGradient><linearGradient id="paint37_linear" x1="2013.23" y1="-1885.61" x2="1939.02" y2="-2000.94" gradientUnits="userSpaceOnUse"><stop stop-color="#BE9DEA"/><stop offset="1" stop-color="#9E8CEF"/></linearGradient><linearGradient id="paint38_linear" x1="7460.68" y1="-8241.96" x2="5933.96" y2="-10614.7" gradientUnits="userSpaceOnUse"><stop stop-color="#9D68C2"/><stop offset="1" stop-color="#CCEDFF"/></linearGradient><linearGradient id="paint39_linear" x1="-4909.77" y1="2793.46" x2="-5574.05" y2="2173.6" gradientUnits="userSpaceOnUse"><stop stop-color="#CBC1F7"/><stop offset="1" stop-color="#E8DCF7"/></linearGradient><linearGradient id="paint40_linear" x1="-4121.76" y1="2628.07" x2="-4504.03" y2="2158.3" gradientUnits="userSpaceOnUse"><stop stop-color="#BE9DEA"/><stop offset="1" stop-color="#9E8CEF"/></linearGradient><linearGradient id="paint41_linear" x1="-961.671" y1="390.979" x2="-1052.21" y2="279.72" gradientUnits="userSpaceOnUse"><stop stop-color="#8DA4E5"/><stop offset="1" stop-color="#755CBB"/></linearGradient><linearGradient id="paint42_linear" x1="-2500.99" y1="1338.17" x2="-2738.27" y2="1128.64" gradientUnits="userSpaceOnUse"><stop stop-color="#CBC1F7"/><stop offset="1" stop-color="#E8DCF7"/></linearGradient><linearGradient id="paint43_linear" x1="4623.14" y1="437.674" x2="4272.16" y2="-1665.24" gradientUnits="userSpaceOnUse"><stop stop-color="#CBC1F7"/><stop offset="1" stop-color="#E8DCF7"/></linearGradient><linearGradient id="paint44_linear" x1="3341.66" y1="987.771" x2="2585.31" y2="-1018.51" gradientUnits="userSpaceOnUse"><stop stop-color="#9D68C2"/><stop offset="1" stop-color="#CCEDFF"/></linearGradient><linearGradient id="paint45_linear" x1="1053.07" y1="1694.11" x2="989.248" y2="1482.81" gradientUnits="userSpaceOnUse"><stop stop-color="#BE9DEA"/><stop offset="1" stop-color="#9E8CEF"/></linearGradient><linearGradient id="paint46_linear" x1="13.883" y1="132.224" x2="16.502" y2="113.007" gradientUnits="userSpaceOnUse"><stop stop-color="#E8DCF7"/><stop offset="1" stop-color="#CBC1F7"/></linearGradient><linearGradient id="paint47_linear" x1="507.488" y1="750.278" x2="499.285" y2="720.567" gradientUnits="userSpaceOnUse"><stop stop-color="#BE9DEA"/><stop offset="1" stop-color="#9E8CEF"/></linearGradient><linearGradient id="paint48_linear" x1="533.876" y1="810.643" x2="535.436" y2="772.39" gradientUnits="userSpaceOnUse"><stop stop-color="#CBC1F7"/><stop offset="1" stop-color="#E8DCF7"/></linearGradient><linearGradient id="paint49_linear" x1="460.373" y1="680.302" x2="504.781" y2="787.181" gradientUnits="userSpaceOnUse"><stop stop-color="#BE9DEA"/><stop offset="1" stop-color="#9E8CEF"/></linearGradient><radialGradient id="paint0_radial" cx="0" cy="0" r="1" gradientUnits="userSpaceOnUse" gradientTransform="matrix(0 11 -56 0 76 212)"><stop stop-color="#E8DCF7"/><stop offset="1" stop-color="#C4C4C4" stop-opacity="0"/></radialGradient><radialGradient id="paint31_radial" cx="0" cy="0" r="1" gradientUnits="userSpaceOnUse" gradientTransform="matrix(1090.41666 -352.24753 405.06775 1253.92682 4382.82 257.429)"><stop stop-color="#45FFCD"/><stop offset="1" stop-color="#22E0FF"/></radialGradient></defs></svg>