<svg width="1773" height="779" fill="none" xmlns="http://www.w3.org/2000/svg"><circle cx="1228" cy="286" r="9" fill="#42E8E0"/><circle cx="1261" cy="144" r="6" fill="#42E8E0" fill-opacity=".5"/><circle cx="1767" cy="6" r="6" fill="#42E8E0" fill-opacity=".5"/><circle cx="169" cy="35" r="12" fill="#C0BFF6"/><path d="M1462 105c0 6.627-5.37 12-12 12s-12-5.373-12-12 5.37-12 12-12 12 5.373 12 12zm192 97a5.001 5.001 0 01-10 0 5.001 5.001 0 0110 0z" fill="#C0BFF6" fill-opacity=".5"/><circle cx="1412" cy="194" r="7" fill="#42E6DF"/><circle cx="1728" cy="96" r="7" fill="#22E0FF" fill-opacity=".5"/><circle cx="150" cy="284" r="7" fill="#42E6DF"/><circle cx="326" cy="186" r="5" fill="#42E6DF"/><circle cx="1640.5" cy="61.5" r="2.5" fill="#42E6DF" fill-opacity=".5"/><circle cx="711" cy="59" r="10" fill="#E9E9FD" fill-opacity=".5"/></svg>