<svg width="576" height="2005" fill="none" xmlns="http://www.w3.org/2000/svg"><path d="M864.974 182.073C1336.29 18.653 1185.67 2119.46 657.789 1839.02c-527.88-280.44-231.006-533.56-143.12-908.895 87.887-375.332-121.014-584.631 350.305-748.052z" fill="url(#paint0_linear)" fill-opacity=".2"/><path d="M857.5 252.537C1305.73 97.124 1162.48 2095 660.465 1828.3c-502.015-266.7-219.687-507.42-136.107-864.363 83.581-356.942-115.085-555.986 333.142-711.4z" fill="url(#paint1_linear)"/><g filter="url(#filter0_d)"><path d="M905.251 233.026c27.934-9.686 53.537-10.976 76.879-4.973 23.34 6.003 44.46 19.31 63.41 38.875 37.91 39.143 67.1 103.295 87.97 183.903 41.74 161.202 50.17 387.969 28.9 611.289-21.26 223.32-72.22 443.13-149.19 590.41-38.496 73.65-83.465 129.11-134.429 157.84-50.928 28.71-107.893 30.77-170.504-2.49-125.467-66.66-201.867-131.66-244.624-197.21-42.745-65.53-51.893-131.66-42.767-200.63 9.13-69 36.543-140.83 66.925-217.77 1.767-4.47 3.545-8.97 5.33-13.48 28.882-73.01 59.593-150.64 79.281-234.723 20.908-89.29 24.163-168.7 24.295-239.999.029-15.647-.092-30.9-.21-45.779-.421-52.943-.804-101.154 5.751-145.536 8.393-56.822 28.156-107.32 73.778-153.321 45.637-46.016 117.182-87.565 229.205-126.406z" stroke="url(#paint2_linear)"/></g><defs><linearGradient id="paint0_linear" x1="713.105" y1="1994.67" x2="218.612" y2="69.848" gradientUnits="userSpaceOnUse"><stop stop-color="#180D5B"/><stop offset=".232" stop-color="#24126A" stop-opacity=".94"/><stop offset=".561" stop-color="#1F72BA"/><stop offset=".857" stop-color="#42E8E0"/></linearGradient><linearGradient id="paint1_linear" x1="953.296" y1="2357.49" x2="335.795" y2="146.366" gradientUnits="userSpaceOnUse"><stop stop-color="#180D5B"/><stop offset=".232" stop-color="#24126A" stop-opacity=".94"/><stop offset=".561" stop-color="#1F72BA"/><stop offset=".857" stop-color="#42E8E0"/></linearGradient><linearGradient id="paint2_linear" x1="1155.77" y1="304.624" x2="511.507" y2="1719.33" gradientUnits="userSpaceOnUse"><stop stop-color="#42E8E0"/><stop offset="1" stop-color="#40B6CB"/></linearGradient><filter id="filter0_d" x="409.185" y="215.92" width="772.987" height="1624.94" filterUnits="userSpaceOnUse" color-interpolation-filters="sRGB"><feFlood flood-opacity="0" result="BackgroundImageFix"/><feColorMatrix in="SourceAlpha" values="0 0 0 0 0 0 0 0 0 0 0 0 0 0 0 0 0 0 127 0"/><feOffset/><feGaussianBlur stdDeviation="4"/><feColorMatrix values="0 0 0 0 0.270588 0 0 0 0 1 0 0 0 0 1 0 0 0 0.2 0"/><feBlend in2="BackgroundImageFix" result="effect1_dropShadow"/><feBlend in="SourceGraphic" in2="effect1_dropShadow" result="shape"/></filter></defs></svg>