<svg width="498" height="1870" fill="none" xmlns="http://www.w3.org/2000/svg"><path d="M-77.814 29.79C-202.793-27.895-398.653 1080.57-402.05 1313.2c-3.398 232.63 234.522 629.21 462.28 471.69 227.759-157.52-106.258-691.98-24.92-982.832C116.644 511.205 47.164 87.475-77.815 29.79z" fill="url(#paint0_linear)" fill-opacity=".2"/><path d="M-101.182 23.006C-225.742-34.486-420.946 1070.27-424.333 1302.12c-3.386 231.85 233.737 627.1 460.732 470.11 226.996-156.99-105.902-689.66-24.837-979.542C92.626 502.809 23.379 80.498-101.182 23.006z" fill="url(#paint1_linear)"/><defs><linearGradient id="paint0_linear" x1="290.944" y1="1038.85" x2="-365.974" y2="875.199" gradientUnits="userSpaceOnUse"><stop offset=".097" stop-color="#42E8E0"/><stop offset="1" stop-color="#393091"/></linearGradient><linearGradient id="paint1_linear" x1="266.341" y1="1028.69" x2="-388.377" y2="865.584" gradientUnits="userSpaceOnUse"><stop offset=".097" stop-color="#42E8E0"/><stop offset="1" stop-color="#393091"/></linearGradient></defs></svg>