<svg width="1920" height="1106" fill="none" xmlns="http://www.w3.org/2000/svg"><path d="M875.974 543.724c52.987 258.094 869.346 251.418 1057.266 159.014 187.92-92.404 396.85-467.506 166.53-606.216-230.32-138.71-586.14 239.275-844.19 292.254-258.05 52.979-432.594-103.147-379.606 154.948z" fill="url(#paint0_linear)"/><path d="M836.533 548.332c56.041 272.966 919.437 265.905 1118.187 168.177 198.74-97.728 419.71-494.443 176.12-641.145-243.59-146.702-619.91 253.062-892.83 309.093-272.917 56.032-457.518-109.09-401.477 163.875z" fill="url(#paint1_linear)"/><g filter="url(#filter0_d)"><path d="M995.193 559.439c12.227 51.124 65.687 87.092 141.837 110.945 76.11 23.839 174.7 35.513 276.87 38.187 102.17 2.674 207.89-3.652 298.23-15.797 90.36-12.148 165.27-30.109 205.88-50.679 81.24-41.155 166.29-139.419 205.74-240.125 19.72-50.346 28.02-101.252 18.8-145.902-9.23-44.626-35.97-83.045-86.43-108.452-50.45-25.4-107.37-24.551-167.94-8.096-60.57 16.456-124.73 48.507-189.62 85.441-32.07 18.253-64.3 37.695-96.36 57.031l-1.12.673c-32.43 19.557-64.67 38.991-96.37 56.955-63.38 35.924-124.61 65.995-180.77 79.431-56.14 13.432-107.87 16.104-153.1 15.773-19.13-.139-37.11-.816-53.76-1.443-3.03-.114-6.02-.226-8.97-.334-19.11-.696-36.32-1.174-51.4-.466-30.18 1.417-51.57 7.579-62.451 26.001-5.45 9.228-8.297 21.585-8.237 38.08.06 16.494 3.026 37.094 9.171 62.777z" stroke="url(#paint2_linear)"/></g><circle r="9.886" transform="matrix(-1 0 0 1 598.642 564.476)" fill="#42E8E0"/><circle r="6.591" transform="matrix(-1 0 0 1 562.394 408.5)" fill="#42E8E0" fill-opacity=".5"/><circle r="6.591" transform="matrix(-1 0 0 1 6.59 256.917)" fill="#42E8E0" fill-opacity=".5"/><circle r="13.181" transform="matrix(-1 0 0 1 1761.87 288.771)" fill="#C0BFF6"/><path d="M341.61 365.661c0 7.28 5.902 13.181 13.181 13.181 7.28 0 13.181-5.901 13.181-13.181 0-7.28-5.901-13.181-13.181-13.181-7.279 0-13.181 5.901-13.181 13.181zM130.713 472.208a5.492 5.492 0 1010.984 0 5.492 5.492 0 00-10.984 0z" fill="#C0BFF6" fill-opacity=".5"/><circle r="7.689" transform="matrix(-1 0 0 1 396.531 463.421)" fill="#42E6DF"/><circle r="7.689" transform="matrix(-1 0 0 1 49.43 355.775)" fill="#22E0FF" fill-opacity=".5"/><circle r="7.689" transform="matrix(-1 0 0 1 1782.74 562.279)" fill="#42E6DF"/><circle r="5.492" transform="matrix(-1 0 0 1 1589.42 454.634)" fill="#42E6DF"/><circle r="2.746" transform="matrix(-1 0 0 1 145.541 317.88)" fill="#42E6DF" fill-opacity=".5"/><circle r="10.984" transform="matrix(-1 0 0 1 1166.53 315.134)" fill="#E9E9FD" fill-opacity=".5"/><defs><linearGradient id="paint0_linear" x1="2321.81" y1="-833.919" x2="1466.12" y2="897.822" gradientUnits="userSpaceOnUse"><stop stop-color="#180D5B"/><stop offset=".55" stop-color="#24126A" stop-opacity=".94"/><stop offset=".826" stop-color="#1F72BA"/><stop offset="1" stop-color="#42E8E0"/></linearGradient><linearGradient id="paint1_linear" x1="1485.69" y1="144.228" x2="1619.56" y2="796.252" gradientUnits="userSpaceOnUse"><stop offset=".097" stop-color="#42E8E0"/><stop offset="1" stop-color="#393091"/></linearGradient><linearGradient id="paint2_linear" x1="1525.34" y1="225.629" x2="1642.85" y2="716.786" gradientUnits="userSpaceOnUse"><stop stop-color="#42E8E0"/><stop offset="1" stop-color="#40B6CB"/></linearGradient><filter id="filter0_d" x="943.868" y="83.462" width="1280.45" height="775.491" filterUnits="userSpaceOnUse" color-interpolation-filters="sRGB"><feFlood flood-opacity="0" result="BackgroundImageFix"/><feColorMatrix in="SourceAlpha" values="0 0 0 0 0 0 0 0 0 0 0 0 0 0 0 0 0 0 127 0"/><feOffset/><feGaussianBlur stdDeviation="2"/><feColorMatrix values="0 0 0 0 0.258824 0 0 0 0 0.909804 0 0 0 0 0.878431 0 0 0 0.5 0"/><feBlend in2="BackgroundImageFix" result="effect1_dropShadow"/><feBlend in="SourceGraphic" in2="effect1_dropShadow" result="shape"/></filter></defs></svg>