<svg width="1060" height="857" fill="none" xmlns="http://www.w3.org/2000/svg"><path d="M975.518 495.003c-48.239 234.968-791.452 228.89-962.529 144.766S-348.297 214.154-138.617 87.873C71.063-38.407 394.995 305.708 629.925 353.94c234.929 48.231 393.835-93.905 345.593 141.063z" fill="url(#paint0_linear)"/><path d="M1011.42 499.198C960.406 747.705 174.372 741.276-6.563 652.305c-180.934-88.97-382.103-450.138-160.341-583.694C54.857-64.946 397.454 298.997 645.919 350.008c248.466 51.01 416.521-99.316 365.501 149.19z" fill="url(#paint1_linear)" fill-opacity=".2"/><g filter="url(#filter0_d)"><path d="M866.939 509.3c-11.13 46.518-59.769 79.256-129.095 100.971-69.284 21.701-159.04 32.329-252.055 34.763-93.011 2.434-189.252-3.324-271.494-14.381-82.262-11.059-150.458-27.41-187.417-46.133-73.952-37.462-151.376-126.911-187.285-218.585-17.953-45.83-25.509-92.165-17.111-132.803 8.393-40.613 32.728-75.579 78.658-98.703 45.915-23.117 97.724-22.346 152.857-7.367 55.138 14.98 113.548 44.156 172.619 77.78 29.193 16.617 58.54 34.316 87.729 51.92l1.018.614c29.522 17.804 58.878 35.497 87.734 51.851 57.705 32.706 113.45 60.085 164.582 72.319 51.113 12.229 98.213 14.661 139.399 14.361 17.417-.127 33.78-.743 48.938-1.314 2.762-.104 5.484-.207 8.165-.304 17.401-.635 33.071-1.069 46.791-.425 27.474 1.29 46.929 6.9 56.822 23.65 4.956 8.391 7.547 19.632 7.492 34.644-.054 15.012-2.753 33.762-8.347 57.142z" stroke="url(#paint2_linear)"/></g><defs><linearGradient id="paint0_linear" x1="-340.761" y1="-759.195" x2="438.25" y2="817.372" gradientUnits="userSpaceOnUse"><stop stop-color="#180D5B"/><stop offset=".55" stop-color="#24126A" stop-opacity=".94"/><stop offset=".826" stop-color="#1F72BA"/><stop offset="1" stop-color="#42E8E0"/></linearGradient><linearGradient id="paint1_linear" x1="-380.695" y1="-827.263" x2="443.2" y2="840.142" gradientUnits="userSpaceOnUse"><stop stop-color="#180D5B"/><stop offset=".55" stop-color="#24126A" stop-opacity=".94"/><stop offset=".826" stop-color="#1F72BA"/><stop offset="1" stop-color="#42E8E0"/></linearGradient><linearGradient id="paint2_linear" x1="384.343" y1="205.412" x2="277.357" y2="652.558" gradientUnits="userSpaceOnUse"><stop stop-color="#42E8E0"/><stop offset="1" stop-color="#40B6CB"/></linearGradient><filter id="filter0_d" x="-252.365" y="75.625" width="1166.43" height="706.72" filterUnits="userSpaceOnUse" color-interpolation-filters="sRGB"><feFlood flood-opacity="0" result="BackgroundImageFix"/><feColorMatrix in="SourceAlpha" values="0 0 0 0 0 0 0 0 0 0 0 0 0 0 0 0 0 0 127 0"/><feOffset/><feGaussianBlur stdDeviation="2"/><feColorMatrix values="0 0 0 0 0.258824 0 0 0 0 0.909804 0 0 0 0 0.878431 0 0 0 0.5 0"/><feBlend in2="BackgroundImageFix" result="effect1_dropShadow"/><feBlend in="SourceGraphic" in2="effect1_dropShadow" result="shape"/></filter></defs></svg>