<svg width="47" height="75" fill="none" xmlns="http://www.w3.org/2000/svg"><path d="M29.247 60.88s-.731 1.105-1.718 2.528c-1.593 2.304-3.85 5.425-4.718 5.964-.393.26-.649-.696-.786-2.166-.315-3.468-.032-9.806-.032-9.806s5.367 1.14 7.254 3.48z" fill="url(#paint0_linear)"/><path style="mix-blend-mode:multiply" opacity=".5" d="M29.247 60.88s-.731 1.105-1.718 2.528c0 0-1.447-.236-3.892 1.23a3.713 3.713 0 00-1.573 2.568c-.314-3.468-.031-9.806-.031-9.806s5.327 1.14 7.214 3.48z" fill="url(#paint1_linear)"/><path d="M39.335 54.884c-1.545-.42-3.475-1.93-4.957-4.132-3.2-4.753-6.59-14.688-2.52-16.729.393-.2 2.335 2.23 4.399 5.47 2.437 3.813 5.06 8.75 5.606 11.837.547 3.086-.743 4.034-2.528 3.554z" fill="url(#paint2_linear)"/><path d="M37.22 53.783s1.392-5.35 3.079-5.252c1.686.098 1.934 5.009.83 6-1.106.99-3.291-.13-3.909-.748z" fill="url(#paint3_linear)"/><path style="mix-blend-mode:multiply" opacity=".3" d="M39.335 54.884c-1.545-.42-3.475-1.93-4.957-4.132-3.2-4.753-6.59-14.688-2.52-16.729.393-.2 2.335 2.23 4.399 5.47 0 0-.952 7.115-.267 9.647.684 2.532 2.956 4.081 2.956 4.081l.39 1.663z" fill="url(#paint4_linear)"/><path d="M14.83 50.347c-.22 6.452 2.622 9.97 8.913 11.484 6.164 1.482 11.641-4.21 11.653-12.533 0-5.312-.33-10.116-2.241-13.537a9.36 9.36 0 00-4.981-4.324c-1.825-.704-3.641-.09-5.324 1.309-4.4 3.648-7.847 12.628-8.02 17.601z" fill="url(#paint5_linear)"/><path style="mix-blend-mode:multiply" opacity=".3" d="M21.054 39.709a76.205 76.205 0 00-2.682 7.776c-.963 3.77.393 7.961.393 7.961L15.18 54.31s-.967-5.174.28-8.032a30.53 30.53 0 001.363-3.566l4.23-3.004z" fill="url(#paint6_linear)"/><path d="M35.44 50.39s-.248-4.985-4.664-6.11c-5.291-1.352-10.351 3.587-11.047 7.636-.696 4.05-.429 8.071 4.529 9.506 0 0 9.412 2.178 11.181-11.031z" fill="url(#paint7_linear)"/><path d="M35.31 50.902s-.252-4.982-4.667-6.11c-5.288-1.349-10.348 3.59-11.044 7.635-.696 4.046-.432 8.075 4.537 9.507 0 0 9.404 2.181 11.174-11.032z" fill="url(#paint8_radial)"/><path d="M17.244 44.202a1.094 1.094 0 00.857-.334c1.486-1.18 3.74-5.158 4.325-7.529.228-.92.208-1.6-.205-1.785-.676-.302-2.72 1.715-4.273 4.887-.889 1.84-1.675 4.514-.704 4.761z" fill="url(#paint9_linear)"/><path d="M18.101 43.868c1.486-1.18 3.739-5.158 4.325-7.529-.924.72-2.202 2.34-3.26 4.498a13.13 13.13 0 00-1.065 3.031z" fill="#6340A2"/><path style="mix-blend-mode:screen" opacity=".72" d="M34.79 50.375c-.99 1.097-3.058-1.16-6.247-1.596-3.188-.437-5.272.786-6.05.102-.779-.684 3.212-4.592 8.016-3.562 3.849.822 4.635 4.682 4.281 5.056z" fill="url(#paint10_linear)"/><path style="mix-blend-mode:screen" opacity=".72" d="M28.46 60.974a5.607 5.607 0 01-3.805.511c-2.17-.471-2.618-1.694-2.618-1.694a4.616 4.616 0 012.5.51 6.935 6.935 0 003.924.673z" fill="url(#paint11_linear)"/><path d="M24.922 39.709c.393.106.26 3.168-.074 3.212-.334.043-.932-.099-.92-1.373.011-1.273.633-1.934.994-1.84z" fill="#fff"/><path d="M21.647 74.99c-2.04.051-10.536-18.71-8.496-20.188 3.472-2.524 8.217 2.524 9.983 5.386.32.46.555.972.695 1.514.209 1.65-.137 13.237-2.182 13.288z" fill="url(#paint12_linear)"/><path d="M21.054 36.044c1.144 1.152-2.147 7.51-5.005 8.567-2.858 1.058-9.043-.236-10.014-.645-.971-.409-1.348-3.703-.428-4.97.92-1.265 13.886-4.524 15.447-2.952z" fill="url(#paint13_linear)"/><path style="mix-blend-mode:multiply" opacity=".5" d="M16.415 35.848a17.366 17.366 0 0010.898 3.145c6.479-.346 6.95-2.422 6.95-2.422s-2.138-3.145-3.872-3.688c-.684-.212-7.816-1.482-10.147 2.752-1.53-.003-3.83.213-3.83.213z" fill="url(#paint14_linear)"/><path d="M31.944 1.663s3.295 2.214 4.773 7.34c1.478 5.127-6.24-1.026-6.24-1.026l1.467-6.314z" fill="url(#paint15_linear)"/><path d="M34.264 7.906S33.367 1.07 31.075.157c-2.292-.912-5.264 2.446-5.264 2.446l8.453 5.303z" fill="url(#paint16_linear)"/><path d="M15.923 4.12c-10.265 6.24-9.715 21.828-5.771 27.49 4.584 6.577 28.656 2.441 32.069-8.359 3.424-10.926-13.524-26.888-26.298-19.13z" fill="url(#paint17_linear)"/><path style="mix-blend-mode:multiply" opacity=".5" d="M12.805 20.444s-1.25 5.63-4.47 7.045c0 0-.762-2.752-.762-4.478s5.232-2.567 5.232-2.567z" fill="url(#paint18_linear)"/><path d="M21.97 5.614c-7.938 3.963-9.157 19.988-3.873 25.311 5.284 5.324 23.196-.306 24.443-9.828 1.12-8.48-11.072-20.22-20.57-15.483z" fill="url(#paint19_linear)"/><path style="mix-blend-mode:screen" opacity=".5" d="M23.648 31.17s-3.762.597-5.41-1.62c-1.647-2.218-.892-3.932-.369-4.058.523-.126 2.202 3.208 3.542 4.388 1.341 1.18 2.237 1.29 2.237 1.29z" fill="url(#paint20_linear)"/><path d="M14.7 10.328s1.062 9.688-4.914 13.112c0 0-2.933.318-4.64-1.463 0 0 2.658 2.497 5.458-.106 2.799-2.602 2.127-9.762 0-12.097-2.127-2.335-5.198-1.718-5.198-1.718L6.633 6.95s4.529-.924 8.067 3.377z" fill="url(#paint21_linear)"/><path d="M6.645 6.951s3.326-.307 5.65 3.538c2.468 4.113.675 11.197-2.313 12.27-2.988 1.074-6.038-10.386-6.038-10.386l1.741-4.557c.219-.384.555-.687.96-.865z" fill="url(#paint22_linear)"/><path d="M2.347 16.717c.429 2.213 1.345 4.022 2.525 5.166l.338.299a4.382 4.382 0 003.4 1.014c4.05-.519 4.592-6.385 4.125-9.707-.555-3.837-3.838-6.14-6.452-5.803-3.114.401-4.773 4.694-3.936 9.03z" fill="url(#paint23_linear)"/><path style="mix-blend-mode:screen" opacity=".72" d="M12.066 18.172s-.428 3.593-3.07 4.372c-2.642.778-4.789-1.133-5.465-3.834 0 0 .83 2.328 4.27 1.734 3.44-.594 4.265-2.272 4.265-2.272z" fill="url(#paint24_linear)"/><path style="mix-blend-mode:screen" opacity=".72" d="M11.579 11.378c-.032.668-4.88-.723-6.42-.519-1.542.204-2.198 2.115-2.442 2.052-.244-.063.393-4.466 3.275-4.792 2.882-.327 5.61 2.791 5.587 3.259z" fill="url(#paint25_linear)"/><path d="M36.218 17.924c1.647.912 4.053-1.12 3.448-3.558-.606-2.438-3.433-4.388-4.84-3.617-1.408.77-1.353 5.661 1.392 7.175z" fill="url(#paint26_linear)"/><path d="M21.345 23.365c2.598 1.797 5.405-1.156 5.378-3.778-.028-2.622-2.45-5.201-4.848-4.545-2.626.72-3.196 6.48-.53 8.323z" fill="url(#paint27_linear)"/><path d="M29.27 24.273c-.243.433 2.894 2.56 4.404 1.942 1.765-.727 1.49-4.466 1.18-4.717-.311-.252-5.175 2.036-5.584 2.775z" fill="#2F95CD"/><path style="mix-blend-mode:screen" opacity=".5" d="M16.415 19.43c1.43 1.93 5.44-4.694 9.785-6.92 4.954-2.54 12.152.15 12.636-.633.484-.782-5.657-7.702-13.587-6.471-7.93 1.23-10.155 12.239-8.834 14.024z" fill="url(#paint28_linear)"/><path d="M5.469 22.583s-.287-1.915.936-2.564c0 0 1.836-.094 2.296 1.683 0 0-3.625 11.606-.665 13.462 2.752 1.73 10.026-1.82 10.026-1.82l.59.467s-6.17 3.857-10.07 2.662c-3.9-1.195-3.113-13.89-3.113-13.89z" fill="url(#paint29_linear)"/><path d="M16.245 33.513c-.62 1.27 1.6 1.87 3.224 1.592 1.817-.299 4.758-1.864 4.077-3.59-.68-1.726-5.85-.979-7.3 1.998z" fill="url(#paint30_linear)"/><path d="M16.414 33.666c.028.306 6.35-1.368 6.189-2.52-.162-1.152-6.393.157-6.189 2.52z" fill="url(#paint31_linear)"/><path d="M.94 37.703a2.032 2.032 0 011.31-1.207l.656 2.36L.94 37.702z" fill="url(#paint32_linear)"/><path d="M1.184 31.61s3.35-2.049 10.395-1.884c0 0 2.936 10.714 3.314 18.416a32.181 32.181 0 01-8.65.983 99.798 99.798 0 01-5.06-17.515z" fill="url(#paint33_linear)"/><path d="M11.579 29.726l1.604-.597s2.414 10.764 2.575 18.78l-.865.233-3.314-18.416z" fill="url(#paint34_linear)"/><path style="mix-blend-mode:multiply" opacity=".5" d="M4.227 43.424l.849 2.359s2.359-2.87 2.1-5.603l-2.95 3.244z" fill="url(#paint35_linear)"/><path d="M1.184 31.61s2.46-2.013 11.999-2.481l-1.604.597S7.23 29.644 1.184 31.61z" fill="#FF91FF"/><path d="M1.726 39s.2 4.09 1.734 4.966c0 0 4.396-2.476 3.778-5.028-.428-1.8-5.512.063-5.512.063z" fill="url(#paint36_linear)"/><path d="M.94 37.703s0 3.358 1.93 5.43c0 0 2.568-1.026 3.433-2.068 1.387-1.675.813-2.638.346-3.027-.747-.621-5.71-.334-5.71-.334z" fill="url(#paint37_linear)"/><path d="M12.687 32.887c.27-.239.623-.363.983-.346 0 0 .944 2.662.74 4.836l-.74.205-.983-4.695z" fill="url(#paint38_linear)"/><path d="M12.687 32.887s1.148 2.591 1.349 4.592l.664-.243s-.491-3.425-1.03-4.695a1.486 1.486 0 00-.983.346z" fill="url(#paint39_linear)"/><path d="M8.233 34.397c.177.987-.216 1.871-.948 2.017-.73.145-1.45-.53-1.627-1.502-.177-.971.232-1.871.947-2.013.716-.142 1.435.519 1.628 1.498z" fill="url(#paint40_linear)"/><path d="M8.115 34.456c.15.755-.18 1.455-.74 1.573-.557.118-1.131-.394-1.28-1.18-.15-.786.18-1.458.738-1.572.559-.114 1.133.424 1.282 1.18z" fill="url(#paint41_radial)"/><path d="M7.435 48.099v-.846l4.773-.648.346.75c-1.692.34-3.4.588-5.12.744z" fill="url(#paint42_linear)"/><path style="mix-blend-mode:color-dodge" opacity=".5" d="M11.822 31.06l-6.64 15.19.606 1.66s5.386-3.39 7.67-7.47c0-.02-1.396-8.028-1.636-9.38z" fill="url(#paint43_linear)"/><path style="mix-blend-mode:screen" opacity=".5" d="M29.247 31.142a10.736 10.736 0 005.606-3.653 6.003 6.003 0 015.351-2.445s-4.273 6.098-10.957 6.098z" fill="url(#paint44_linear)"/><path d="M14.893 7.332c0 .641 3.932-2.543 3.424-2.807-.507-.263-3.412 2.068-3.424 2.807z" fill="#fff"/><path style="mix-blend-mode:multiply" opacity=".3" d="M22.02 52.797l-.097-.19c.036.062.069.125.098.19z" fill="url(#paint45_linear)"/><path style="mix-blend-mode:multiply" opacity=".3" d="M21.647 74.99c-2.04.051-10.536-18.71-8.496-20.188 0 0 2.536 11.77 5.63 14.818 3.094 3.047 5.111-4.938 4.545-8.414-.055-.35-.118-.688-.192-1.018.32.46.555.972.695 1.514.209 1.65-.137 13.237-2.182 13.288z" fill="url(#paint46_linear)"/><path d="M16.792 58.022c-.31.51.483 3.597.912 3.538.429-.059.523-1.69.307-2.21-.216-.519-1.148-1.442-1.219-1.328zm1.002 4.049c-.361.181.075 1.113.33 1.081.256-.031 0-1.25-.33-1.08zM28 1.663c.244.511 1.88-.562 1.636-1.006-.244-.445-1.883.491-1.635 1.006zM1.388 38.53c0 .31 1.64-.044 1.518-.304-.122-.26-1.518-.228-1.518.303z" fill="#fff"/><path d="M5.984 21.58c-.424-.145-.621 5.83-.275 5.898.346.066.94-5.681.275-5.898z" fill="url(#paint47_linear)"/><path d="M44.796 52.081s-1.384-1.773-3.267-1.93c-1.883-.158-2.532.393-2.83 1.73-.3 1.336 2.59 5.991 6.062 9.435 1.431.051 1.777-1.722 1.93-2.854-.047-.975-.483-4.148-1.895-6.38z" fill="url(#paint48_linear)"/><path d="M40.145 50.206s3.75 4.718 4.997 7.47a61.25 61.25 0 011.066 2.465s-.787 2.359-2.407.491c-2.276-2.638-5.35-6.62-4.922-8.63.362-1.702.641-2.036 1.266-1.796z" fill="url(#paint49_linear)"/><path style="mix-blend-mode:multiply" opacity=".5" d="M43.322 54.558s-.366 2.626-1.919 3.09l-.55-6.235s1.962 2.367 2.469 3.145z" fill="url(#paint50_linear)"/><path d="M41.698 52.86c.264.59 0 4.548-.393 5.012-.393.464-1.435-.24-1.746-1.022-.31-.782-1.757-5.072-.235-6.538-.016.012 1.273.079 2.374 2.547z" fill="url(#paint51_linear)"/><path d="M41.006 53.422c.177.023.437 1.364.303 1.612-.134.247-.425.236-.578-.063-.153-.299.008-1.585.275-1.55z" fill="#fff"/><defs><linearGradient id="paint0_linear" x1="22.673" y1="69.415" x2="25.834" y2="58.462" gradientUnits="userSpaceOnUse"><stop stop-color="#CBC1F7"/><stop offset="1" stop-color="#D4BEF1"/></linearGradient><linearGradient id="paint1_linear" x1="25.579" y1="67.206" x2="25.579" y2="57.4" gradientUnits="userSpaceOnUse"><stop stop-color="#8DA4E5"/><stop offset="1" stop-color="#755CBB"/></linearGradient><linearGradient id="paint2_linear" x1="1520.3" y1="2935.88" x2="1743.75" y2="1918.27" gradientUnits="userSpaceOnUse"><stop stop-color="#CBC1F7"/><stop offset="1" stop-color="#D4BEF1"/></linearGradient><linearGradient id="paint3_linear" x1="40.401" y1="55.177" x2="38.511" y2="49.324" gradientUnits="userSpaceOnUse"><stop stop-color="#BE9DEA"/><stop offset="1" stop-color="#9E8CEF"/></linearGradient><linearGradient id="paint4_linear" x1="34.653" y1="54.884" x2="34.653" y2="34.008" gradientUnits="userSpaceOnUse"><stop stop-color="#9D68C2"/><stop offset="1" stop-color="#CCEDFF"/></linearGradient><linearGradient id="paint5_linear" x1="23.496" y1="61.982" x2="27.426" y2="31.285" gradientUnits="userSpaceOnUse"><stop stop-color="#CBC1F7"/><stop offset="1" stop-color="#E8DCF7"/></linearGradient><linearGradient id="paint6_linear" x1="-467.278" y1="2202.99" x2="-308.955" y2="1588.69" gradientUnits="userSpaceOnUse"><stop stop-color="#9D68C2"/><stop offset="1" stop-color="#CCEDFF"/></linearGradient><linearGradient id="paint7_linear" x1="379.287" y1="2466.41" x2="-213.961" y2="2313.51" gradientUnits="userSpaceOnUse"><stop stop-color="#BE9DEA"/><stop offset="1" stop-color="#9E8CEF"/></linearGradient><linearGradient id="paint9_linear" x1="21.448" y1="39.903" x2="17.691" y2="38.935" gradientUnits="userSpaceOnUse"><stop stop-color="#8879EA"/><stop offset="1" stop-color="#9E8CEF"/></linearGradient><linearGradient id="paint10_linear" x1="34.987" y1="49.444" x2="22.887" y2="46.326" gradientUnits="userSpaceOnUse"><stop/><stop offset="1" stop-color="#D4E2FF"/></linearGradient><linearGradient id="paint11_linear" x1="24.796" y1="61.674" x2="25.155" y2="60.278" gradientUnits="userSpaceOnUse"><stop stop-color="#D4E2FF"/><stop offset="1"/></linearGradient><linearGradient id="paint12_linear" x1="1082.79" y1="3932.87" x2="1480.04" y2="3100.5" gradientUnits="userSpaceOnUse"><stop stop-color="#CBC1F7"/><stop offset="1" stop-color="#E8DCF7"/></linearGradient><linearGradient id="paint13_linear" x1="1093.34" y1="1113.12" x2="1111.33" y2="866.347" gradientUnits="userSpaceOnUse"><stop stop-color="#CBC1F7"/><stop offset="1" stop-color="#E8DCF7"/></linearGradient><linearGradient id="paint14_linear" x1="1768.85" y1="676.642" x2="1780.51" y2="550.864" gradientUnits="userSpaceOnUse"><stop stop-color="#8DA4E5"/><stop offset="1" stop-color="#755CBB"/></linearGradient><linearGradient id="paint15_linear" x1="-1417.47" y1="665.084" x2="-1470.36" y2="429.481" gradientUnits="userSpaceOnUse"><stop stop-color="#45FFCD"/><stop offset="1" stop-color="#22E0FF"/></linearGradient><linearGradient id="paint16_linear" x1="30.439" y1="8.84" x2="28.532" y2=".344" gradientUnits="userSpaceOnUse"><stop stop-color="#B9ACF4"/><stop offset="1" stop-color="#E1D1F5"/></linearGradient><linearGradient id="paint17_linear" x1="3331.24" y1="2948.2" x2="3652.25" y2="201.027" gradientUnits="userSpaceOnUse"><stop stop-color="#CBC1F7"/><stop offset="1" stop-color="#E8DCF7"/></linearGradient><linearGradient id="paint18_linear" x1="329.498" y1="513.052" x2="329.498" y2="386.8" gradientUnits="userSpaceOnUse"><stop stop-color="#8DA4E5"/><stop offset="1" stop-color="#755CBB"/></linearGradient><linearGradient id="paint19_linear" x1="28.752" y1="32.982" x2="28.752" y2="4.525" gradientUnits="userSpaceOnUse"><stop stop-color="#0665BD"/><stop offset="1" stop-color="#1A1F77"/></linearGradient><linearGradient id="paint20_linear" x1="20.177" y1="31.02" x2="20.826" y2="25.854" gradientUnits="userSpaceOnUse"><stop/><stop offset="1" stop-color="#6A9BFF"/></linearGradient><linearGradient id="paint21_linear" x1="671.512" y1="997.22" x2="671.512" y2="296.771" gradientUnits="userSpaceOnUse"><stop stop-color="#B9ACF4"/><stop offset="1" stop-color="#E1D1F5"/></linearGradient><linearGradient id="paint22_linear" x1="633.505" y1="929.413" x2="633.505" y2="287.482" gradientUnits="userSpaceOnUse"><stop stop-color="#BE9DEA"/><stop offset="1" stop-color="#9E8CEF"/></linearGradient><linearGradient id="paint23_linear" x1="689.265" y1="927.995" x2="689.265" y2="310.955" gradientUnits="userSpaceOnUse"><stop stop-color="#45FFCD"/><stop offset="1" stop-color="#22E0FF"/></linearGradient><linearGradient id="paint24_linear" x1="545.483" y1="280.904" x2="545.483" y2="228.339" gradientUnits="userSpaceOnUse"><stop stop-color="#D4E2FF"/><stop offset="1"/></linearGradient><linearGradient id="paint25_linear" x1="657.55" y1="136.782" x2="455.577" y2="136.782" gradientUnits="userSpaceOnUse"><stop/><stop offset="1" stop-color="#D4E2FF"/></linearGradient><linearGradient id="paint26_linear" x1="1026.32" y1="-43.352" x2="943.857" y2="-169.288" gradientUnits="userSpaceOnUse"><stop stop-color="#45FFCD"/><stop offset="1" stop-color="#22E0FF"/></linearGradient><linearGradient id="paint27_linear" x1="1068.93" y1="47.96" x2="980.181" y2="-132.492" gradientUnits="userSpaceOnUse"><stop stop-color="#45FFCD"/><stop offset="1" stop-color="#22E0FF"/></linearGradient><linearGradient id="paint28_linear" x1="1759.91" y1="467.518" x2="3082.34" y2="467.518" gradientUnits="userSpaceOnUse"><stop/><stop offset="1" stop-color="#6A9BFF"/></linearGradient><linearGradient id="paint29_linear" x1="608.893" y1="1628.09" x2="783.36" y2="993.45" gradientUnits="userSpaceOnUse"><stop stop-color="#BE9DEA"/><stop offset="1" stop-color="#9E8CEF"/></linearGradient><linearGradient id="paint30_linear" x1="19.972" y1="35.119" x2="19.799" y2="30.664" gradientUnits="userSpaceOnUse"><stop stop-color="#DD1A8F"/><stop offset="1" stop-color="#FE117E"/></linearGradient><linearGradient id="paint31_linear" x1="19.665" y1="32.966" x2="19.16" y2="31.139" gradientUnits="userSpaceOnUse"><stop stop-color="#D93DE3"/><stop offset="1" stop-color="#FF6DBA"/></linearGradient><linearGradient id="paint32_linear" x1="80.888" y1="270.242" x2="79.14" y2="255.846" gradientUnits="userSpaceOnUse"><stop stop-color="#BE9DEA"/><stop offset="1" stop-color="#9E8CEF"/></linearGradient><linearGradient id="paint33_linear" x1="705.565" y1="2455.14" x2="969.337" y2="1519.24" gradientUnits="userSpaceOnUse"><stop stop-color="#D93DE3"/><stop offset="1" stop-color="#FF6DBA"/></linearGradient><linearGradient id="paint34_linear" x1="13.018" y1="48.008" x2="14.35" y2="29.211" gradientUnits="userSpaceOnUse"><stop stop-color="#A242EA"/><stop offset="1" stop-color="#FE117E"/></linearGradient><linearGradient id="paint35_linear" x1="141.851" y1="652.919" x2="164.263" y2="652.919" gradientUnits="userSpaceOnUse"><stop stop-color="#8DA4E5"/><stop offset="1" stop-color="#755CBB"/></linearGradient><linearGradient id="paint36_linear" x1="57.395" y1="683.58" x2="69.189" y2="594.242" gradientUnits="userSpaceOnUse"><stop stop-color="#BE9DEA"/><stop offset="1" stop-color="#9E8CEF"/></linearGradient><linearGradient id="paint37_linear" x1="64.233" y1="640.439" x2="93.506" y2="559.629" gradientUnits="userSpaceOnUse"><stop stop-color="#CBC1F7"/><stop offset="1" stop-color="#E8DCF7"/></linearGradient><linearGradient id="paint38_linear" x1="133.315" y1="512.98" x2="161.16" y2="464.351" gradientUnits="userSpaceOnUse"><stop stop-color="#D93DE3"/><stop offset="1" stop-color="#FF6DBA"/></linearGradient><linearGradient id="paint39_linear" x1="13.521" y1="37.444" x2="13.867" y2="32.557" gradientUnits="userSpaceOnUse"><stop stop-color="#B31A8F"/><stop offset="1" stop-color="#92117E"/></linearGradient><linearGradient id="paint40_linear" x1="7.159" y1="36.428" x2="6.716" y2="32.881" gradientUnits="userSpaceOnUse"><stop stop-color="#B31A8F"/><stop offset="1" stop-color="#FE117E"/></linearGradient><linearGradient id="paint42_linear" x1="286.515" y1="226.541" x2="353.162" y2="226.541" gradientUnits="userSpaceOnUse"><stop stop-color="#B31A8F"/><stop offset="1" stop-color="#92117E"/></linearGradient><linearGradient id="paint43_linear" x1="496.024" y1="2084.47" x2="496.024" y2="1362.59" gradientUnits="userSpaceOnUse"><stop/><stop offset="1" stop-color="#6A9BFF"/></linearGradient><linearGradient id="paint44_linear" x1="1374.57" y1="519.473" x2="1382.69" y2="403.756" gradientUnits="userSpaceOnUse"><stop/><stop offset="1" stop-color="#6A9BFF"/></linearGradient><linearGradient id="paint45_linear" x1="30.915" y1="77.95" x2="30.915" y2="77.859" gradientUnits="userSpaceOnUse"><stop stop-color="#9D68C2"/><stop offset="1" stop-color="#CCEDFF"/></linearGradient><linearGradient id="paint46_linear" x1="1176.46" y1="3885.5" x2="1119.19" y2="2828.17" gradientUnits="userSpaceOnUse"><stop stop-color="#9D68C2"/><stop offset="1" stop-color="#CCEDFF"/></linearGradient><linearGradient id="paint47_linear" x1="43.689" y1="434.199" x2="43.689" y2="345.397" gradientUnits="userSpaceOnUse"><stop stop-color="#CBC1F7"/><stop offset="1" stop-color="#E8DCF7"/></linearGradient><linearGradient id="paint48_linear" x1="-588.619" y1="1878.62" x2="-662.632" y2="1553.48" gradientUnits="userSpaceOnUse"><stop stop-color="#CBC1F7"/><stop offset="1" stop-color="#E8DCF7"/></linearGradient><linearGradient id="paint49_linear" x1="-561.185" y1="1869.56" x2="-528.987" y2="1561.36" gradientUnits="userSpaceOnUse"><stop stop-color="#BE9DEA"/><stop offset="1" stop-color="#9E8CEF"/></linearGradient><linearGradient id="paint50_linear" x1="-158.072" y1="999.234" x2="-138.831" y2="905.403" gradientUnits="userSpaceOnUse"><stop stop-color="#8DA4E5"/><stop offset="1" stop-color="#755CBB"/></linearGradient><linearGradient id="paint51_linear" x1="-215.293" y1="1228.81" x2="-266.008" y2="1088.59" gradientUnits="userSpaceOnUse"><stop stop-color="#CBC1F7"/><stop offset="1" stop-color="#E8DCF7"/></linearGradient><radialGradient id="paint8_radial" cx="0" cy="0" r="1" gradientUnits="userSpaceOnUse" gradientTransform="rotate(-165.548 16.361 28.117) scale(11.3814)"><stop stop-color="#45FFCD"/><stop offset="1" stop-color="#22E0FF"/></radialGradient><radialGradient id="paint41_radial" cx="0" cy="0" r="1" gradientUnits="userSpaceOnUse" gradientTransform="matrix(6.40424 -1.2704 1.69023 8.5207 181.163 266.979)"><stop stop-color="#45FFCD"/><stop offset="1" stop-color="#22E0FF"/></radialGradient></defs></svg>