<svg width="244" height="343" fill="none" xmlns="http://www.w3.org/2000/svg"><path d="M127.962 249.32c0 1.263-.367 25.701-5.258 35.563-1.263 2.573-2.845 4.155-4.795 4.075-6.953-.239-22.696-29.505-28.914-46.127a41 41 0 01-2.541-8.903c-.144-1.439 0-2.254.783-2.27a32.811 32.811 0 014.331.192l.576.08c17.246 2.078 33.964 15.808 35.675 17.262l.143.128z" fill="url(#paint0_linear)"/><path d="M127.963 249.32c-22.968 1.997-38.248-10.15-41.557-15.376-.847-1.327-.88-2.206 0-2.27a24.627 24.627 0 015.162.192l.576.08c15.216 2.301 33.805 15.887 35.675 17.262l.144.112z" fill="url(#paint1_linear)"/><path d="M169.487 233.975a45.375 45.375 0 01-3.085 10.342c-6.537 16.782-21.609 44.449-28.37 44.753a4.897 4.897 0 01-4.124-2.925c-5.626-9.142-5.898-36.762-5.898-36.762l.144-.112c1.727-1.454 18.493-15.248 35.771-17.277h.479a32.893 32.893 0 014.348-.192c.639-.064.879.751.735 2.173z" fill="url(#paint2_linear)"/><path d="M169.487 233.975c-3.197 5.195-18.509 17.406-41.557 15.392l.144-.112c1.87-1.39 20.539-15.008 35.771-17.278h.479c1.71-.245 3.44-.309 5.163-.192.863 0 .831.864 0 2.19z" fill="url(#paint3_linear)"/><path style="mix-blend-mode:multiply" opacity=".3" d="M127.962 249.32c0 1.263-.367 25.701-5.258 35.563 0 0-1.359-25.829-8.232-31.679-6.872-5.85-25.477-10.373-25.477-10.373a40.999 40.999 0 01-2.541-8.903c-.847-1.327-.88-2.206 0-2.27a24.627 24.627 0 015.162.192l.576.08c17.246 2.078 33.964 15.808 35.675 17.262l.095.128z" fill="url(#paint4_linear)"/><path style="mix-blend-mode:multiply" opacity=".3" d="M169.487 233.976a45.367 45.367 0 01-3.085 10.341c-3.196.687-20.41 4.667-26.484 15.184-5.083 8.775-6.01 21.082-6.01 26.644-5.626-9.142-5.898-36.761-5.898-36.761l.144-.112c1.727-1.455 18.493-15.248 35.771-17.278h.479c1.71-.245 3.44-.309 5.163-.192.783-.016.751.847-.08 2.174z" fill="url(#paint5_linear)"/><path d="M95.404 159.558a90.111 90.111 0 01-3.084 15.983 64.515 64.515 0 01-4.556 5.69 112.683 112.683 0 01-50.3 32.702c-.622.224-1.246.399-1.885.591-4.188 1.215-11.876-11.348-7.896-22.041a15.635 15.635 0 011.455-2.989 60.48 60.48 0 019.27-10.389 220.112 220.112 0 0146.511-33.053 92.81 92.81 0 0110.853-4.795c.412 6.099.29 12.223-.368 18.301z" fill="url(#paint6_linear)"/><path d="M37.465 213.948a9.183 9.183 0 01-1.519 1.439c-6.233 4.635-15.376 1.95-10.325-17.374a17.239 17.239 0 012.062-5.514 8.919 8.919 0 016.937-4.667c8.535-.767 9.494 18.54 2.845 26.116z" fill="url(#paint7_linear)"/><path style="mix-blend-mode:multiply" opacity=".3" d="M95.404 159.557l-7.64 21.69a112.683 112.683 0 01-50.3 32.702 9.219 9.219 0 01-1.518 1.438c-6.233 4.635-15.376 1.95-10.325-17.374a17.248 17.248 0 012.062-5.514 15.63 15.63 0 011.454-2.989 60.406 60.406 0 019.27-10.389c-.319.575-2.54 5.003 2.174 6.697 5.051 1.806 31.695-4.539 43.411-17.086 11.716-12.547 11.332-24.231.943-22.665a92.977 92.977 0 0110.853-4.795 104.67 104.67 0 01-.384 18.285z" fill="url(#paint8_linear)"/><path d="M32.926 195.631C26.34 194.433 6.36 208.913 0 238.035c0 0 .432 2.35 6.393 2.557 5.962.208 16.063-10.549 22.952-16.942 6.89-6.393 14.577-26.037 3.58-28.019z" fill="url(#paint9_linear)"/><path d="M6.361 240.624s10.357-15.376 12.467-19.26c0 0 3.932-19.18 10.118-23 6.185-3.82 8.231.448 9.59 5.227 1.358 4.779-8.871 33.629-32.175 37.033z" fill="url(#paint10_linear)"/><path style="mix-blend-mode:multiply" opacity=".5" d="M18.3 224.465s2.478 5.69 5.627 6.585c0 0-2.653-18.604 1.998-28.466a57.12 57.12 0 00-7.624 21.881z" fill="url(#paint11_linear)"/><path d="M28.546 199.547s6.394-4.475 9.894 4.044a78.315 78.315 0 01-8.982 28.05s-3.996 1.135-5.53-.527c-3.421-3.772-2.414-26.644 4.618-31.567z" fill="url(#paint12_linear)"/><path d="M170.302 218.567c-3.037 17.982-19.18 29.953-42.196 29.953-20.091 0-37.097-7.48-41.557-23.975-4.459-16.495-2.749-46.943 3.197-65.915a59.623 59.623 0 013.197-8.151 55.504 55.504 0 013.852-6.745c7.32-11.029 18.045-18.237 30.16-18.237a36.769 36.769 0 0115.876 3.136 36.775 36.775 0 0112.99 9.65 42.324 42.324 0 017.161 12.068 116.96 116.96 0 014.954 15.871 1.068 1.068 0 000 .16 134.133 134.133 0 012.366 52.185z" fill="url(#paint13_linear)"/><path style="mix-blend-mode:multiply" opacity=".3" d="M170.302 218.568c-3.037 17.982-19.18 29.953-42.196 29.953-20.091 0-37.097-7.48-41.557-23.975-4.459-16.495-2.749-46.943 3.197-65.915a59.686 59.686 0 013.197-8.152s-12.147 40.278-2.43 65.932c9.718 25.653 54.951 25.125 70.327 7.991 14.577-16.223 7.848-54.343 7.16-57.971a134.152 134.152 0 012.302 52.137z" fill="url(#paint14_linear)"/><path d="M87.38 207.907c3.437-24.119 22.777-40.47 44.274-38.44 23.16 2.19 35.611 24.31 35.275 43.283-.335 18.972-14.193 33.788-39.047 33.788s-43.714-16.063-40.501-38.631z" fill="url(#paint15_linear)"/><path d="M87.556 209.905c3.437-24.119 22.793-40.47 44.274-38.44 23.176 2.19 35.627 24.31 35.291 43.283-.335 18.972-14.209 33.772-39.063 33.772-24.854 0-43.698-16.063-40.501-38.615z" fill="url(#paint16_radial)"/><path style="mix-blend-mode:multiply" opacity=".5" d="M155.837 138.395c-4.923 7.704-31.966 12.195-47.598 10.773-13.618-1.247-11.556-4.923-11.444-5.387 7.32-11.028 18.045-18.237 30.16-18.237a36.765 36.765 0 0128.882 12.851z" fill="url(#paint17_linear)"/><path d="M146.215 151.726c-1.247.415-1.311 10.565 0 12.195 1.311 1.63 3.436 1.135 4.14-1.263.703-2.397-2.238-11.524-4.14-10.932zm2.334 14.928c-1.055.24-1.183 2.765-.688 3.645a1.614 1.614 0 001.404.493 1.61 1.61 0 001.202-.877c.287-1.071-.863-3.516-1.918-3.261z" fill="#fff"/><path style="mix-blend-mode:screen" opacity=".72" d="M101.206 234.471s5.546 9.59 26.229 9.75c20.682.16 29.074-12.227 29.074-12.227a30.115 30.115 0 01-23.176 2.477c-13.65-3.74-27.14-5.834-32.127 0z" fill="url(#paint18_linear)"/><path style="mix-blend-mode:screen" opacity=".72" d="M95.804 194.608c4.092 6.505 20.89 3.037 39.83 4.891 18.94 1.854 22.169 7.992 26.165 6.761 3.996-1.231-2.318-29.761-30.608-31.695-28.291-1.934-36.394 18.413-35.387 20.043z" fill="url(#paint19_linear)"/><path d="M157.323 140.265a11.84 11.84 0 00-3.276-2.781s5.21 26.229 15.6 36.954c0 0-4.508-24.726-12.324-34.173z" fill="url(#paint20_linear)"/><path d="M168.784 16.827s9.989-8.631 22.232-10.134c0 0 3.741 1.838 7.992 15.312 4.252 13.474-3.66 40.118-3.66 40.118l-26.564-45.296z" fill="url(#paint21_linear)"/><path d="M191.017 6.693a43.153 43.153 0 00-9.91 27.715l3.836 2.414 11.188-23.08s-3.74-7.24-5.114-7.049z" fill="url(#paint22_linear)"/><path d="M184.575 35.654s-2.637-14.609 6.969-25.334c0 0 10.869 5.115 15.36 24.087s-7.209 30.368-7.209 30.368l-15.12-29.121z" fill="url(#paint23_linear)"/><path d="M178.981 10.944c-1.838.991-1.694 2.99 2.126 2.494s5.914-3.5 5.498-4.076c-.416-.575-5.546.464-7.624 1.582z" fill="#fff"/><path d="M84.903 19.065s-9.99-8.63-22.233-10.133c0 0-3.74 1.838-7.991 15.312-4.252 13.474 3.66 40.118 3.66 40.118l26.564-45.297z" fill="url(#paint24_linear)"/><path d="M62.67 8.85a43.155 43.155 0 019.91 27.795l-3.836 2.414-11.14-23.192S61.296 8.66 62.67 8.85z" fill="url(#paint25_linear)"/><path d="M69.112 37.813s2.637-14.593-6.985-25.334c0 0-10.853 5.115-15.344 24.087a34.939 34.939 0 008.455 31.6l13.874-30.353z" fill="url(#paint26_linear)"/><path d="M74.77 13.102c1.838 1.007 1.694 2.988-2.126 2.493-3.82-.495-5.913-3.5-5.498-4.076.416-.575 5.482.464 7.624 1.583z" fill="#fff"/><path d="M56.82 111.352c15.313 35.323 129.929 24.31 143.626-4.699C215.423 74.91 180.979-3.537 126.06.123c-46.4 3.102-88.93 65.82-69.24 111.229z" fill="url(#paint27_linear)"/><path d="M63.15 106.364c14.64 28.978 114.68 24.199 129.305-2.445 12.403-22.616-16.911-91.488-67.13-89.043-50.22 2.445-76.24 63.678-62.175 91.488z" fill="url(#paint28_linear)"/><path d="M142.235 6.693c-1.039 1.247 11.189 6.521 12.787 5.786 1.598-.735-9.286-9.958-12.787-5.786z" fill="#fff"/><path style="mix-blend-mode:screen" opacity=".5" d="M80.78 43.902c-1.151 6.905 11.923 6.122 32.845 5.419 25.078-.831 50.38 20.89 65.036 5.274 2.43-2.557-21.625-36.154-50.667-35.403-29.041.751-46.207 18.716-47.214 24.71z" fill="url(#paint29_linear)"/><path style="mix-blend-mode:screen" opacity=".5" d="M93.742 115.922c-1.342 4.987 9.127 9.99 34.86 8.743 31.103-1.598 37.704-7.991 36.186-9.845-.927-1.087-10.245 4.795-35.787-.816-16.878-3.708-33.868-3.356-35.259 1.918z" fill="url(#paint30_linear)"/><path style="mix-blend-mode:screen" opacity=".2" d="M65.93 100.371a68.348 68.348 0 01.193-16.99c1.278-9.734 3.9-15.984 5.45-15.136 1.55.847 1.327 10.42 2.238 19.803.719 7.32 2.125 14.177 2.125 14.177s-6.729 6.425-10.005-1.854z" fill="url(#paint31_linear)"/><path style="mix-blend-mode:multiply" opacity=".5" d="M68.089 123.275s1.598-1.598 9.846-6.553c5.562-3.196 11.412-7.144 12.243-8.567 1.23-3.34-23.831-1.374-23.831-1.374l-9.59 4.571a32.71 32.71 0 0011.332 11.923z" fill="url(#paint32_linear)"/><path d="M48.94 49.433s6.394 4.155 2.223 13.793c0 0-30.209 16.447-28.467 34.38 1.47 14.961 43.155 7.704 43.155 7.704l1.487 5.003s-35.403 6.889-47.63-1.454c0 0-4.156-9.878 6.153-27.684a207.573 207.573 0 0123.08-31.742z" fill="url(#paint33_linear)"/><path d="M60.609 103.887c-3.804 4.3 4.267 8.999 10.9 9.718 7.449.815 20.667-2.126 19.868-9.59-.8-7.464-21.85-10.213-30.768-.128z" fill="url(#paint34_linear)"/><path d="M61.12 104.671c-.24 1.231 26.34 1.599 26.964-3.196.623-4.795-25.222-6.282-26.964 3.196z" fill="url(#paint35_linear)"/><path style="mix-blend-mode:screen" opacity=".72" d="M200.367 18.872s-3.517-4.363-8.328-3.196c-4.811 1.167-5.114 16.287-2.237 16.654 2.877.368 4.091-8.359 6.281-9.733a11.045 11.045 0 016.058-.848l-1.774-2.877z" fill="url(#paint36_linear)"/><path style="mix-blend-mode:multiply" opacity=".5" d="M156.509 129.845s-16.431-16.574-21.674-33.133l41.077 27.06s-13.969 4.891-19.403 6.073z" fill="url(#paint37_linear)"/><path style="mix-blend-mode:screen" opacity=".72" d="M50.795 25.33a6.601 6.601 0 016.026-1.47c4.155.687 6.553 9.222 8.695 8.36 2.141-.864.559-14.69-5.067-18.75-.064.049-7.257 6.234-9.654 11.86z" fill="url(#paint38_linear)"/><path d="M43.139 59.023S28.754 75.788 29.601 76.956c.847 1.166 14.45-16.175 13.538-17.934z" fill="url(#paint39_linear)"/><path d="M81.755 64.777a67.559 67.559 0 0126.26 1.966c1.918.592-4.043-6.393-13.122-7.656-9.079-1.262-13.73 2.542-13.138 5.69z" fill="url(#paint40_radial)"/><path d="M113.561 92.954c2.27-6.873 10.901-6.569 12.659-.415 1.886 6.553-5.69 14.097-9.126 12.914-3.437-1.183-5.211-7.432-3.533-12.499z" fill="#2F95CD"/><path d="M136.274 84.42c-8.104-22.504 13.202-51.37 45.968-55.03 0 0 31.087 19.995 23.975 75.217-.08 0-48.941 38.12-69.943-20.187z" fill="url(#paint41_linear)"/><path d="M182.242 29.39s11.076.095 24.103 10.932c13.026 10.837 19.179 42.628-.208 64.285 0 0 8.663-44.386-23.895-75.217z" fill="url(#paint42_linear)"/><path d="M155.134 77.083c.943 10.26 31.519 9.302 36.458 0 3.964-7.48-7.544-31.823-19.723-30.081-12.18 1.742-18.062 15.616-16.735 30.08z" fill="url(#paint43_radial)"/><path d="M177.83 29.805a47.274 47.274 0 00-43.68 29.186 47.284 47.284 0 0010.249 51.523 47.275 47.275 0 0051.524 10.249 47.275 47.275 0 0029.186-43.68A47.269 47.269 0 00195.925 33.4a47.263 47.263 0 00-18.095-3.594zm0 86.629a39.372 39.372 0 01-36.372-24.305 39.37 39.37 0 0128.702-53.674 39.365 39.365 0 0147.037 38.628 39.343 39.343 0 01-11.531 27.831 39.35 39.35 0 01-27.836 11.52z" fill="url(#paint44_linear)"/><path d="M177.83 26.496a47.274 47.274 0 00-43.68 29.186 47.284 47.284 0 0010.249 51.524 47.275 47.275 0 0051.524 10.248 47.275 47.275 0 0029.186-43.68 47.269 47.269 0 00-29.184-43.683 47.263 47.263 0 00-18.095-3.595zm0 86.63a39.373 39.373 0 01-36.372-24.306 39.37 39.37 0 0128.702-53.674 39.365 39.365 0 0147.037 38.629 39.343 39.343 0 01-11.531 27.831 39.366 39.366 0 01-27.836 11.52z" fill="url(#paint45_linear)"/><path d="M230.463 147.106s-10.229 19.34-23.255 25.781c-13.027 6.442-32.814-1.31-39.223-6.393-8.743-6.953-11.956-30.928-8.264-30.928 3.341 0 6.617 2.542 17.23 3.884 3.427.423 6.873.674 10.325.751a71.647 71.647 0 0024.391-4.011 63.539 63.539 0 006.793-2.701c7.736-.064 12.003 13.617 12.003 13.617z" fill="url(#paint46_linear)"/><path d="M217.197 134.288s-.943 14.225 4.523 16.175c5.466 1.95 8.743-3.356 8.743-3.356l2.717-5.77-15.983-7.049z" fill="url(#paint47_linear)"/><path d="M200.367 117.026s19.499 21.401 32.829 30.08c0 0 8.28-.975 9.894-9.174l-28.466-32.862-14.257 11.956z" fill="url(#paint48_linear)"/><path style="mix-blend-mode:multiply" opacity=".5" d="M235.21 128.822s-18.189-13.97-21.561-15.073a24.75 24.75 0 00-3.788 7.289c-1.151 3.932 19.611 23.447 19.611 23.447s-19.308-15.663-28.13-26.388a118.665 118.665 0 0014.289-11.86l19.579 22.585z" fill="url(#paint49_linear)"/><path d="M211.523 128.902c-.256 1.134-8.215 3.34-10.389-.864a9.377 9.377 0 01-.544-1.262 5.994 5.994 0 012.158-7.337l.112.112c1.167 1.071 8.887 8.296 8.663 9.351z" fill="url(#paint50_linear)"/><path d="M235.21 128.821l-3.884-4.475s-13.058-6.489-15.695-18.109c0 0 3.036-6.201 9.494-6.393 2.573 0 4.891 3.308 6.665 7.88 2.685 6.904 4.155 16.558 3.42 21.097z" fill="url(#paint51_linear)"/><path style="mix-blend-mode:multiply" opacity=".3" d="M230.463 147.106s-10.229 19.34-23.255 25.781c-13.027 6.442-32.814-1.31-39.223-6.393-8.743-6.953-11.956-30.928-8.264-30.928 3.341 0 6.617 2.542 17.23 3.884-.655 0-9.702-.671-11.3 1.886-1.598 2.558 16.591 29.298 34.716 21.881 18.125-7.416 14.385-26.963 11.364-27.027a63.539 63.539 0 006.793-2.701c7.672-.064 11.939 13.617 11.939 13.617z" fill="url(#paint52_linear)"/><path style="mix-blend-mode:multiply" opacity=".3" d="M211.523 128.901c-.256 1.135-8.216 3.341-10.389-.863a9.334 9.334 0 01-.544-1.263c1.743 2.19 4.444 1.807 5.259-.607.815-2.413-2.27-5.834-2.957-6.585 1.135 1.039 8.855 8.263 8.631 9.318z" fill="url(#paint53_linear)"/><path style="mix-blend-mode:multiply" opacity=".3" d="M235.21 128.822l-3.884-4.476s-13.058-6.489-15.695-18.109c.319.624 6.601 10.389 13.314 11.3 4.939.656 2.989-9.19 2.829-9.845 2.701 6.937 4.171 16.59 3.436 21.13z" fill="url(#paint54_linear)"/><path d="M25.925 209.921a12.69 12.69 0 00-1.774 8.167 11.874 11.874 0 001.774-8.167zM8.471 230.843a10.583 10.583 0 013.644-6.314s-1.518 5.355-3.644 6.314zm39.67-55.51c-.495-.847 9.175-10.101 11.94-10.437 2.765-.336-.943.959-3.197 4.411-2.253 3.453-7.831 7.56-8.743 6.026zm14.545-12.419c-1.007-1.134 4.396-3.196 4.396-3.196s-3.34 4.395-4.396 3.196zm115.144-16.863c-.368 2.222 10.933 2.222 10.741 0-.192-2.222-10.357-2.222-10.741 0zm-74.179 114.361c-1.502.703 1.279 8.311 3.357 8.151 2.078-.16-1.598-8.934-3.357-8.151z" fill="#fff"/><path style="mix-blend-mode:screen" opacity=".5" d="M177.814 113.127c21.715 0 39.319-16.974 39.319-37.913 0-20.938-17.604-37.912-39.319-37.912-21.715 0-39.319 16.974-39.319 37.912 0 20.939 17.604 37.913 39.319 37.913z" fill="url(#paint55_radial)"/><path style="mix-blend-mode:screen" opacity=".5" d="M142.971 65.864c.335 6.984 11.684 9.493 33.772-1.391 17.582-8.631 34.428 1.23 35.883-1.47 1.454-2.702-16.91-24.998-36.858-22.49-19.947 2.51-33.101 19.117-32.797 25.35z" fill="url(#paint56_linear)"/><path style="mix-blend-mode:multiply" opacity=".5" d="M135 343c40.317 0 73-7.163 73-16s-32.683-16-73-16-73 7.163-73 16 32.683 16 73 16z" fill="url(#paint57_radial)" fill-opacity=".6"/><defs><linearGradient id="paint0_linear" x1="101.974" y1="287.024" x2="108.623" y2="234.008" gradientUnits="userSpaceOnUse"><stop stop-color="#CBC1F7"/><stop offset="1" stop-color="#E8DCF7"/></linearGradient><linearGradient id="paint1_linear" x1="106.881" y1="249.543" x2="106.881" y2="231.626" gradientUnits="userSpaceOnUse"><stop stop-color="#BE9DEA"/><stop offset="1" stop-color="#9E8CEF"/></linearGradient><linearGradient id="paint2_linear" x1="3968.34" y1="11934.4" x2="4336.93" y2="9803.76" gradientUnits="userSpaceOnUse"><stop stop-color="#CBC1F7"/><stop offset="1" stop-color="#E8DCF7"/></linearGradient><linearGradient id="paint3_linear" x1="4198.19" y1="3432.89" x2="4198.19" y2="3232.67" gradientUnits="userSpaceOnUse"><stop stop-color="#BE9DEA"/><stop offset="1" stop-color="#9E8CEF"/></linearGradient><linearGradient id="paint4_linear" x1="106.88" y1="284.931" x2="106.88" y2="231.626" gradientUnits="userSpaceOnUse"><stop stop-color="#9D68C2"/><stop offset="1" stop-color="#CCEDFF"/></linearGradient><linearGradient id="paint5_linear" x1="4191.59" y1="11226" x2="4191.59" y2="9372.06" gradientUnits="userSpaceOnUse"><stop stop-color="#9D68C2"/><stop offset="1" stop-color="#CCEDFF"/></linearGradient><linearGradient id="paint6_linear" x1="2688.77" y1="11806" x2="3172.94" y2="8154.61" gradientUnits="userSpaceOnUse"><stop stop-color="#CBC1F7"/><stop offset="1" stop-color="#E8DCF7"/></linearGradient><linearGradient id="paint7_linear" x1="445.734" y1="4887.94" x2="445.734" y2="4341.6" gradientUnits="userSpaceOnUse"><stop stop-color="#BE9DEA"/><stop offset="1" stop-color="#9E8CEF"/></linearGradient><linearGradient id="paint8_linear" x1="2956.86" y1="12244.1" x2="2956.86" y2="8623.95" gradientUnits="userSpaceOnUse"><stop stop-color="#9D68C2"/><stop offset="1" stop-color="#CCEDFF"/></linearGradient><linearGradient id="paint9_linear" x1="523.259" y1="8052.88" x2="719.923" y2="6717.29" gradientUnits="userSpaceOnUse"><stop stop-color="#CBC1F7"/><stop offset="1" stop-color="#E8DCF7"/></linearGradient><linearGradient id="paint10_linear" x1="564.071" y1="7790.06" x2="564.071" y2="6594.36" gradientUnits="userSpaceOnUse"><stop stop-color="#BE9DEA"/><stop offset="1" stop-color="#9E8CEF"/></linearGradient><linearGradient id="paint11_linear" x1="22.121" y1="231.05" x2="22.121" y2="202.584" gradientUnits="userSpaceOnUse"><stop stop-color="#8DA4E5"/><stop offset="1" stop-color="#755CBB"/></linearGradient><linearGradient id="paint12_linear" x1="357.799" y1="5861.23" x2="532.616" y2="5182" gradientUnits="userSpaceOnUse"><stop stop-color="#CBC1F7"/><stop offset="1" stop-color="#E8DCF7"/></linearGradient><linearGradient id="paint13_linear" x1="7051.01" y1="22078.9" x2="8678.56" y2="12835.9" gradientUnits="userSpaceOnUse"><stop stop-color="#CBC1F7"/><stop offset="1" stop-color="#E8DCF7"/></linearGradient><linearGradient id="paint14_linear" x1="7394.18" y1="17656.8" x2="7394.18" y2="11641.9" gradientUnits="userSpaceOnUse"><stop stop-color="#9D68C2"/><stop offset="1" stop-color="#CCEDFF"/></linearGradient><linearGradient id="paint15_linear" x1="6693.4" y1="13865.7" x2="6693.4" y2="10133.4" gradientUnits="userSpaceOnUse"><stop stop-color="#BE9DEA"/><stop offset="1" stop-color="#9E8CEF"/></linearGradient><linearGradient id="paint17_linear" x1="4963.62" y1="2910.98" x2="4963.62" y2="2553.72" gradientUnits="userSpaceOnUse"><stop stop-color="#8DA4E5"/><stop offset="1" stop-color="#755CBB"/></linearGradient><linearGradient id="paint18_linear" x1="128.857" y1="244.221" x2="128.857" y2="230.843" gradientUnits="userSpaceOnUse"><stop stop-color="#D4E2FF"/><stop offset="1"/></linearGradient><linearGradient id="paint19_linear" x1="95.724" y1="190.436" x2="162.886" y2="190.436" gradientUnits="userSpaceOnUse"><stop/><stop offset="1" stop-color="#D4E2FF"/></linearGradient><linearGradient id="paint20_linear" x1="154.047" y1="155.961" x2="169.647" y2="155.961" gradientUnits="userSpaceOnUse"><stop stop-color="#8879EA"/><stop offset="1" stop-color="#9E8CEF"/></linearGradient><linearGradient id="paint21_linear" x1="184.575" y1="62.123" x2="184.575" y2="6.693" gradientUnits="userSpaceOnUse"><stop stop-color="#B9ACF4"/><stop offset="1" stop-color="#E1D1F5"/></linearGradient><linearGradient id="paint22_linear" x1="2002.41" y1="1396.09" x2="2002.41" y2="828.095" gradientUnits="userSpaceOnUse"><stop stop-color="#BE9DEA"/><stop offset="1" stop-color="#9E8CEF"/></linearGradient><linearGradient id="paint23_linear" x1="3166.39" y1="3473.66" x2="3166.39" y2="1618.38" gradientUnits="userSpaceOnUse"><stop stop-color="#45FFCD"/><stop offset="1" stop-color="#22E0FF"/></linearGradient><linearGradient id="paint24_linear" x1="-26934.7" y1="3517.1" x2="-26934.7" y2="1594.79" gradientUnits="userSpaceOnUse"><stop stop-color="#B9ACF4"/><stop offset="1" stop-color="#E1D1F5"/></linearGradient><linearGradient id="paint25_linear" x1="-12095.7" y1="1442.72" x2="-12095.7" y2="873.218" gradientUnits="userSpaceOnUse"><stop stop-color="#BE9DEA"/><stop offset="1" stop-color="#9E8CEF"/></linearGradient><linearGradient id="paint26_linear" x1="-19941.5" y1="3672.15" x2="-19941.5" y2="1732.06" gradientUnits="userSpaceOnUse"><stop stop-color="#45FFCD"/><stop offset="1" stop-color="#22E0FF"/></linearGradient><linearGradient id="paint27_linear" x1="12137.1" y1="14379.8" x2="13381.1" y2="3097.88" gradientUnits="userSpaceOnUse"><stop stop-color="#CBC1F7"/><stop offset="1" stop-color="#E8DCF7"/></linearGradient><linearGradient id="paint28_linear" x1="127.323" y1="126.088" x2="127.323" y2="14.812" gradientUnits="userSpaceOnUse"><stop stop-color="#0665BD"/><stop offset="1" stop-color="#1A1F77"/></linearGradient><linearGradient id="paint29_linear" x1="80.716" y1="39.699" x2="178.869" y2="39.699" gradientUnits="userSpaceOnUse"><stop/><stop offset="1" stop-color="#6A9BFF"/></linearGradient><linearGradient id="paint30_linear" x1="4503.72" y1="1403.61" x2="7689.27" y2="1403.61" gradientUnits="userSpaceOnUse"><stop/><stop offset="1" stop-color="#6A9BFF"/></linearGradient><linearGradient id="paint31_linear" x1="70.162" y1="104.564" x2="72.652" y2="68.239" gradientUnits="userSpaceOnUse"><stop/><stop offset="1" stop-color="#00E3FF"/></linearGradient><linearGradient id="paint32_linear" x1="1703.9" y1="1816.56" x2="1703.9" y2="1634.26" gradientUnits="userSpaceOnUse"><stop stop-color="#8DA4E5"/><stop offset="1" stop-color="#755CBB"/></linearGradient><linearGradient id="paint33_linear" x1="1452.27" y1="6042.45" x2="1868.54" y2="3513.97" gradientUnits="userSpaceOnUse"><stop stop-color="#BE9DEA"/><stop offset="1" stop-color="#9E8CEF"/></linearGradient><linearGradient id="paint34_linear" x1="73.119" y1="113.732" x2="77.288" y2="96.151" gradientUnits="userSpaceOnUse"><stop stop-color="#DD1A8F"/><stop offset="1" stop-color="#FE117E"/></linearGradient><linearGradient id="paint35_linear" x1="74.61" y1="105.455" x2="74.61" y2="97.751" gradientUnits="userSpaceOnUse"><stop stop-color="#D93DE3"/><stop offset="1" stop-color="#FF6DBA"/></linearGradient><linearGradient id="paint36_linear" x1="1901.52" y1="656.822" x2="2027.32" y2="656.822" gradientUnits="userSpaceOnUse"><stop/><stop offset="1" stop-color="#D4E2FF"/></linearGradient><linearGradient id="paint37_linear" x1="4260.21" y1="3552.85" x2="4260.21" y2="2866" gradientUnits="userSpaceOnUse"><stop stop-color="#8DA4E5"/><stop offset="1" stop-color="#755CBB"/></linearGradient><linearGradient id="paint38_linear" x1="598.245" y1="717.328" x2="751.018" y2="717.328" gradientUnits="userSpaceOnUse"><stop stop-color="#D4E2FF"/><stop offset="1"/></linearGradient><linearGradient id="paint39_linear" x1="383.351" y1="1341.68" x2="383.351" y2="1139.11" gradientUnits="userSpaceOnUse"><stop stop-color="#CBC1F7"/><stop offset="1" stop-color="#E8DCF7"/></linearGradient><linearGradient id="paint41_linear" x1="8143.8" y1="8441.02" x2="8143.8" y2="3655.36" gradientUnits="userSpaceOnUse"><stop stop-color="#0665BD"/><stop offset="1" stop-color="#1A1F77"/></linearGradient><linearGradient id="paint42_linear" x1="4698.86" y1="6615.43" x2="5528.64" y2="3430.11" gradientUnits="userSpaceOnUse"><stop stop-color="#CBC1F7"/><stop offset="1" stop-color="#E8DCF7"/></linearGradient><linearGradient id="paint44_linear" x1="10314.4" y1="9494.04" x2="11596.6" y2="4048.49" gradientUnits="userSpaceOnUse"><stop stop-color="#DD1A8F"/><stop offset="1" stop-color="#FE117E"/></linearGradient><linearGradient id="paint45_linear" x1="10314.4" y1="9294.99" x2="11596.6" y2="3849.44" gradientUnits="userSpaceOnUse"><stop stop-color="#D93DE3"/><stop offset="1" stop-color="#FF6DBA"/></linearGradient><linearGradient id="paint46_linear" x1="8994.41" y1="5679.96" x2="9079.62" y2="4505.46" gradientUnits="userSpaceOnUse"><stop stop-color="#CBC1F7"/><stop offset="1" stop-color="#E8DCF7"/></linearGradient><linearGradient id="paint47_linear" x1="2529.11" y1="2085.12" x2="2529.11" y2="1912.58" gradientUnits="userSpaceOnUse"><stop stop-color="#BE9DEA"/><stop offset="1" stop-color="#9E8CEF"/></linearGradient><linearGradient id="paint48_linear" x1="220.394" y1="146.211" x2="223.271" y2="105.678" gradientUnits="userSpaceOnUse"><stop stop-color="#A242EA"/><stop offset="1" stop-color="#FE117E"/></linearGradient><linearGradient id="paint49_linear" x1="4935.5" y1="4446.24" x2="4935.5" y2="3530.97" gradientUnits="userSpaceOnUse"><stop stop-color="#8DA4E5"/><stop offset="1" stop-color="#755CBB"/></linearGradient><linearGradient id="paint50_linear" x1="1704.53" y1="1277.68" x2="1713.43" y2="1204.71" gradientUnits="userSpaceOnUse"><stop stop-color="#CBC1F7"/><stop offset="1" stop-color="#E8DCF7"/></linearGradient><linearGradient id="paint51_linear" x1="3051.78" y1="3079.04" x2="3141.5" y2="2591.93" gradientUnits="userSpaceOnUse"><stop stop-color="#CBC1F7"/><stop offset="1" stop-color="#E8DCF7"/></linearGradient><linearGradient id="paint52_linear" x1="9175.03" y1="5689.16" x2="9175.03" y2="4593.26" gradientUnits="userSpaceOnUse"><stop stop-color="#9D68C2"/><stop offset="1" stop-color="#CCEDFF"/></linearGradient><linearGradient id="paint53_linear" x1="1645.85" y1="1262.98" x2="1645.85" y2="1188.41" gradientUnits="userSpaceOnUse"><stop stop-color="#9D68C2"/><stop offset="1" stop-color="#CCEDFF"/></linearGradient><linearGradient id="paint54_linear" x1="3068.37" y1="2447.56" x2="3068.37" y2="2128.44" gradientUnits="userSpaceOnUse"><stop stop-color="#9D68C2"/><stop offset="1" stop-color="#CCEDFF"/></linearGradient><linearGradient id="paint56_linear" x1="142.971" y1="56.098" x2="212.706" y2="56.098" gradientUnits="userSpaceOnUse"><stop stop-color="#6A9BFF"/><stop offset="1"/></linearGradient><radialGradient id="paint16_radial" cx="0" cy="0" r="1" gradientUnits="userSpaceOnUse" gradientTransform="translate(128.522 236.549) scale(58.9304)"><stop stop-color="#45FFCD"/><stop offset="1" stop-color="#22E0FF"/></radialGradient><radialGradient id="paint40_radial" cx="0" cy="0" r="1" gradientUnits="userSpaceOnUse" gradientTransform="matrix(314.706 0 0 93.6908 1760.85 567.628)"><stop stop-color="#45FFCD"/><stop offset="1" stop-color="#22E0FF"/></radialGradient><radialGradient id="paint43_radial" cx="0" cy="0" r="1" gradientUnits="userSpaceOnUse" gradientTransform="matrix(648.796 0 0 650.053 4358.09 2757.03)"><stop stop-color="#45FFCD"/><stop offset="1" stop-color="#22E0FF"/></radialGradient><radialGradient id="paint55_radial" cx="0" cy="0" r="1" gradientUnits="userSpaceOnUse" gradientTransform="matrix(39.3391 0 0 37.7963 177.923 74.842)"><stop/><stop offset=".23" stop-color="#010303"/><stop offset=".37" stop-color="#050B0B"/><stop offset=".48" stop-color="#0B1919"/><stop offset=".58" stop-color="#132D2D"/><stop offset=".67" stop-color="#1F4848"/><stop offset=".75" stop-color="#2C6868"/><stop offset=".83" stop-color="#3D8E8E"/><stop offset=".91" stop-color="#50BABA"/><stop offset=".97" stop-color="#65EBEB"/><stop offset="1" stop-color="#6DFFFF"/></radialGradient><radialGradient id="paint57_radial" cx="0" cy="0" r="1" gradientUnits="userSpaceOnUse" gradientTransform="matrix(73.0179 0 0 15.8129 135 327.331)"><stop stop-color="#BE9DEA"/><stop offset=".39" stop-color="#E0BFF5"/><stop offset="1" stop-color="#fff"/></radialGradient></defs></svg>