<svg width="973" height="794" fill="none" xmlns="http://www.w3.org/2000/svg"><path opacity=".2" d="M0-93h985v887S2.253 536.725 116.927 308.367C231.601 80.01 0-93 0-93z" fill="url(#paint0_linear)"/><path d="M9-93h964v865S11.205 521.106 123.434 298.413C235.663 75.719 9-93 9-93z" fill="url(#paint1_linear)"/><path d="M49.838-120.895l-4.478.128 3.664 2.594.863-1.223c-.863 1.223-.863 1.223-.862 1.224l.007.005.031.022.126.09.503.365c.446.324 1.108.812 1.968 1.459a292.46 292.46 0 017.403 5.773c6.331 5.092 15.263 12.635 25.647 22.426 20.77 19.587 47.329 48.154 70.504 84.08 46.336 71.832 79.096 172.982 25.162 290.73-13.795 30.118-9.857 60.19 7.404 89.59 17.224 29.334 47.733 58.057 87.225 85.74 79 55.377 194.429 106.922 313.125 151.027 118.722 44.114 240.823 80.824 333.235 106.503 46.208 12.841 84.995 22.925 112.235 29.799a3438.89 3438.89 0 0031.68 7.847 2063.018 2063.018 0 0010.53 2.522l.54.128.14.032.04.008.03-.096c.03-.142.11-.492.31-1.352l-.33 1.451 1.9.444-.07-1.947-29.79-906.517-.04-1.499-1.5.043-997.202 28.604z" stroke="url(#paint2_linear)" stroke-opacity=".5" stroke-width="3"/><defs><linearGradient id="paint0_linear" x1="366.236" y1="-93" x2="366.236" y2="794" gradientUnits="userSpaceOnUse"><stop offset=".258" stop-color="#24126A"/><stop offset=".545" stop-color="#1F72BA"/><stop offset="1" stop-color="#278EC3"/><stop offset="1" stop-color="#42E8E0" stop-opacity=".07"/></linearGradient><linearGradient id="paint1_linear" x1="234.64" y1="-34.322" x2="884.451" y2="832.421" gradientUnits="userSpaceOnUse"><stop stop-color="#180D5B"/><stop offset=".414" stop-color="#24126A" stop-opacity=".94"/><stop offset=".711" stop-color="#1F72BA"/><stop offset=".774" stop-color="#278CC2"/><stop offset="1" stop-color="#42E8E0"/></linearGradient><linearGradient id="paint2_linear" x1="420.658" y1="-130.031" x2="446.664" y2="776.594" gradientUnits="userSpaceOnUse"><stop stop-color="#24126A"/><stop offset=".545" stop-color="#1F72BA"/><stop offset="1" stop-color="#42E8E0"/></linearGradient></defs></svg>