<svg width="320" height="887" fill="none" xmlns="http://www.w3.org/2000/svg"><path opacity=".2" d="M-118-27h729v914S-116.333 621.893-31.462 386.585C53.408 151.277-118-27-118-27z" fill="url(#paint0_linear)"/><path d="M-113-27h715v892S-111.365 606.274-28.124 376.63C55.116 146.985-113-27-113-27z" fill="url(#paint1_linear)"/><path d="M-81.869-54.169l-1.425.057 1.009.992.43-.439c-.43.439-.43.44-.428.44l.005.006.024.023.095.095.376.378c.332.337.825.84 1.465 1.51a244.69 244.69 0 015.5 5.958c4.702 5.252 11.333 13.03 19.041 23.127C-40.36-1.83-20.64 27.63-3.428 64.695 30.995 138.82 55.379 243.334 15.27 364.967c-20.201 61.26 11.436 122.255 69.894 179.174 58.48 56.941 143.964 109.972 231.913 155.365 87.958 45.398 178.423 83.178 246.895 109.607 34.236 13.215 62.976 23.593 83.158 30.667a2005.126 2005.126 0 0023.471 8.076c2.715.914 4.799 1.606 6.205 2.071.702.232 1.236.407 1.593.524l.404.132.102.033.026.008c.005.002.008.003.205-.578l-.197.581.827.268-.021-.873-22.072-933.046-.015-.61-.609.024-738.918 29.441z" stroke="url(#paint2_linear)" stroke-opacity=".5" stroke-width="1.22"/><defs><linearGradient id="paint0_linear" x1="153.052" y1="-27" x2="153.052" y2="887" gradientUnits="userSpaceOnUse"><stop offset=".258" stop-color="#24126A"/><stop offset=".545" stop-color="#1F72BA"/><stop offset="1" stop-color="#278EC3"/><stop offset="1" stop-color="#42E8E0" stop-opacity=".07"/></linearGradient><linearGradient id="paint1_linear" x1="54.357" y1="33.51" x2="751.846" y2="702.655" gradientUnits="userSpaceOnUse"><stop stop-color="#180D5B"/><stop offset=".414" stop-color="#24126A" stop-opacity=".94"/><stop offset=".711" stop-color="#1F72BA"/><stop offset=".774" stop-color="#278CC2"/><stop offset="1" stop-color="#42E8E0"/></linearGradient><linearGradient id="paint2_linear" x1="192.885" y1="-64.505" x2="230.037" y2="867.94" gradientUnits="userSpaceOnUse"><stop stop-color="#24126A"/><stop offset=".545" stop-color="#1F72BA"/><stop offset="1" stop-color="#42E8E0"/></linearGradient></defs></svg>