<svg width="159" height="60" fill="none" xmlns="http://www.w3.org/2000/svg"><path d="M20.437 53.66c0-2.643 3.76-2.563 8.395-2.563 4.636 0 8.393-.093 8.393 2.562S33.774 60 29.148 60c-4.625 0-8.711-3.686-8.711-6.34zM7.312 23.532l-3.39.46c-3.057-2.502-1.657-11.284.634-16.33a27.959 27.959 0 012.578-3.963l2.39-2.51c.218-.235.462-.446.728-.626C10.954.077 11.364.021 12.29 0a2.132 2.132 0 011.964 1.237l1.936 4.195c1.434 4.391-3.064 11.326-3.348 11.66l-4.084 4.945c-.276.333-1.192 1.707-1.447 1.495z" fill="#1F72BA"/><path d="M10.43 10.456c2.166-4.24 2.818-8.234 1.457-8.922-1.36-.689-4.22 2.19-6.384 6.43-2.166 4.239-2.818 8.233-1.457 8.921 1.361.688 4.22-2.19 6.385-6.43z" fill="#fff"/><path d="M51.332 23.81l3.39.457c3.06-2.5 1.658-11.284-.634-16.34a27.575 27.575 0 00-2.578-3.964l-2.39-2.512a4.34 4.34 0 00-.73-.626c-.69-.47-1.099-.529-2.023-.547a2.132 2.132 0 00-1.965 1.236L42.467 5.71c-1.434 4.388 3.072 11.323 3.345 11.656l4.086 4.946c.263.333 1.18 1.707 1.434 1.498z" fill="#1F72BA"/><path d="M54.596 17.164c1.36-.688.709-4.683-1.456-8.922-2.166-4.24-5.024-7.118-6.385-6.43-1.36.689-.709 4.683 1.456 8.922 2.166 4.24 5.024 7.118 6.385 6.43z" fill="#fff"/><path d="M57.837 26.6c0 9.738-12.744 9.405-28.46 9.405-15.716 0-28.464.333-28.464-9.405 0-9.74 11.665-23.281 27.387-23.281 15.72 0 29.538 13.54 29.538 23.28z" fill="#1F72BA"/><path d="M46.338 22.576c0 5.992-7.838 5.786-17.506 5.786-9.667 0-17.508.206-17.508-5.786s7.17-14.32 16.845-14.32c9.675 0 18.169 8.328 18.169 14.32z" fill="#fff"/><path d="M21.732 22.28c1.769 0 3.203-1.778 3.203-3.97 0-2.194-1.434-3.972-3.203-3.972-1.768 0-3.202 1.778-3.202 3.971s1.434 3.971 3.202 3.971zm12.403-3.506l-1.593.357a1.01 1.01 0 01-.977-.316 1 1 0 01-.189-1.005c.055-.159.119-.314.191-.468.924-1.976 2.998-2.99 4.59-2.253 1.267.589 1.876 2.126 1.594 3.725a.997.997 0 01-.522.721 1.01 1.01 0 01-.893.024l-1.564-.727a1.004 1.004 0 00-.637-.058z" fill="#1F72BA"/><path d="M21.413 16.968c.317-.547.215-1.197-.228-1.451-.443-.255-1.06-.018-1.377.53-.317.546-.216 1.197.228 1.451.443.255 1.06.017 1.377-.53zm12.644-.021c.463-.383.693-.868.512-1.084-.18-.215-.701-.08-1.164.303-.463.383-.692.868-.512 1.084.18.216.701.08 1.164-.303z" fill="#fff"/><path d="M28.612 36.904c-6.58 0-12.402-.066-15.968 1.056 1.24 1.586 2.031 3.963 2.031 6.653a12.38 12.38 0 01-.751 4.299 24.875 24.875 0 005.889 3.376c.034-.08.074-.159.122-.232.507-1.926 4.277-1.85 8.86-1.85 4.925 0 8.919-.082 8.919 2.325v.156a24.747 24.747 0 005.764-3.324 12.378 12.378 0 01-.74-4.293c0-2.856.897-5.384 2.275-6.946-3.51-1.292-9.545-1.22-16.401-1.22z" fill="#1F72BA"/><path d="M28.832 42.256c.838 0 1.517-.675 1.517-1.508s-.68-1.509-1.517-1.509c-.837 0-1.516.676-1.516 1.509 0 .833.68 1.508 1.517 1.508zm0 4.809c.838 0 1.517-.676 1.517-1.509 0-.833-.68-1.508-1.517-1.508-.837 0-1.516.675-1.516 1.508s.68 1.509 1.517 1.509z" fill="#fff"/><path d="M8.189 52.8c3.045 0 5.514-3.585 5.514-8.007 0-4.423-2.469-8.008-5.514-8.008-3.046 0-5.515 3.585-5.515 8.008 0 4.422 2.469 8.008 5.515 8.008zm41.093 0c3.046 0 5.515-3.585 5.515-8.007 0-4.423-2.469-8.008-5.515-8.008-3.045 0-5.514 3.585-5.514 8.008 0 4.422 2.469 8.008 5.514 8.008zm19.054-7.283v2.85a4.72 4.72 0 00-.714-.058c-1.11 0-1.664.561-1.662 1.683v3.464h-3.24v-7.797h3.08v.84c.574-.655 1.419-.982 2.536-.982zm9.142 4.787h-5.444c.104.287.305.53.569.687a1.97 1.97 0 001.003.235c.294.008.587-.036.866-.13.276-.108.535-.256.767-.44l1.691 1.695c-.764.835-1.906 1.254-3.425 1.255a5.672 5.672 0 01-2.493-.528 3.946 3.946 0 01-1.66-1.448 4.007 4.007 0 010-4.169c.389-.614.94-1.11 1.594-1.432a5.261 5.261 0 014.44-.042 3.687 3.687 0 011.56 1.382c.401.655.603 1.412.582 2.18-.008.05-.021.3-.05.755zm-5.072-2.322c-.23.197-.383.47-.43.768h2.522a1.32 1.32 0 00-.43-.76 1.25 1.25 0 00-.83-.28 1.274 1.274 0 00-.832.272zm7.958 5.104a4.027 4.027 0 01-1.65-1.44 3.81 3.81 0 01-.591-2.098 3.766 3.766 0 01.592-2.087 4.01 4.01 0 011.649-1.432 5.353 5.353 0 012.39-.512 4.656 4.656 0 012.45.612 3.175 3.175 0 011.405 1.697l-2.51 1.225c-.304-.685-.757-1.027-1.359-1.027a1.271 1.271 0 00-.953.399 1.58 1.58 0 00-.38 1.125c-.027.415.109.825.38 1.142a1.254 1.254 0 00.953.399c.6 0 1.053-.342 1.36-1.026l2.509 1.226a3.195 3.195 0 01-1.405 1.697 4.684 4.684 0 01-2.45.612 5.388 5.388 0 01-2.39-.512zm12.599-7.569v2.85a4.715 4.715 0 00-.717-.058c-1.107 0-1.66.561-1.66 1.683v3.464h-3.24v-7.797h3.08v.84c.574-.655 1.42-.982 2.537-.982zm9.484.143v7.796h-3.08v-.743c-.284.29-.629.514-1.01.656-.387.148-.8.224-1.215.221a3.222 3.222 0 01-2.39-.906c-.605-.6-.908-1.507-.908-2.72v-4.305h3.237v3.747c-.032.398.06.797.265 1.14a.894.894 0 00.76.344.989.989 0 00.796-.377c.24-.35.35-.77.316-1.192v-3.662h3.229zm1.641-1.092a1.552 1.552 0 010-2.354c.397-.32.898-.485 1.409-.462a2.149 2.149 0 011.418.44 1.421 1.421 0 01.531 1.142 1.563 1.563 0 01-.531 1.218 2.032 2.032 0 01-1.418.478 2.08 2.08 0 01-1.409-.462zm-.21 1.091h3.242v7.797h-3.24l-.002-7.797zm10.445 7.525a4.041 4.041 0 01-1.991.414c-1.099 0-1.945-.264-2.536-.792-.591-.529-.887-1.321-.889-2.378v-1.995h-1.062V46.08h1.062V43.9h3.239v2.18h1.593v2.354h-1.593V50.4a.792.792 0 00.186.557.63.63 0 00.486.199c.26.005.514-.07.73-.214l.775 2.243zm8.895-2.88h-5.443c.107.285.309.525.574.679.306.166.652.247 1.001.235.294.008.588-.036.868-.13a3.06 3.06 0 00.767-.44l1.689 1.695c-.765.835-1.906 1.254-3.423 1.255a5.674 5.674 0 01-2.493-.528 3.938 3.938 0 01-1.662-1.448 3.796 3.796 0 01-.587-2.082 3.85 3.85 0 01.579-2.087 3.971 3.971 0 011.593-1.432 5.265 5.265 0 014.442-.042 3.702 3.702 0 011.561 1.382c.4.656.601 1.413.579 2.18-.002.058-.016.309-.045.763zm-5.071-2.322a1.27 1.27 0 00-.43.768h2.522a1.3 1.3 0 00-.43-.76 1.25 1.25 0 00-.831-.28 1.273 1.273 0 00-.831.272zm11.746-2.465v2.85a4.716 4.716 0 00-.714-.058c-1.11 0-1.664.561-1.662 1.683v3.464h-3.239v-7.797h3.08v.84c.573-.655 1.418-.982 2.535-.982zm11.662.919a3.387 3.387 0 011.327 1.34 4.221 4.221 0 010 3.912 3.46 3.46 0 01-1.327 1.34 3.734 3.734 0 01-1.891.483 3.52 3.52 0 01-1.813-.475 3.266 3.266 0 01-1.253-1.334v1.754h-.688V42.888h.717v4.832a3.228 3.228 0 011.248-1.29 3.507 3.507 0 011.789-.462 3.758 3.758 0 011.891.468zm-.385 6.037c.456-.265.83-.65 1.08-1.112a3.548 3.548 0 000-3.25 2.855 2.855 0 00-1.08-1.112 3.026 3.026 0 00-1.548-.4 2.98 2.98 0 00-1.54.4c-.455.265-.827.65-1.076 1.112a3.56 3.56 0 000 3.25c.25.461.622.846 1.076 1.112.468.269 1 .407 1.54.399a3.048 3.048 0 001.548-.399zm5.421.555a3.49 3.49 0 01-1.327-1.348 4.142 4.142 0 010-3.891 3.527 3.527 0 011.327-1.348 4.02 4.02 0 013.824 0 3.55 3.55 0 011.341 1.348 4.141 4.141 0 010 3.891 3.51 3.51 0 01-1.341 1.348 4.022 4.022 0 01-3.824 0zm3.452-.555c.454-.266.826-.65 1.075-1.112a3.549 3.549 0 000-3.25 2.862 2.862 0 00-1.075-1.112 3.17 3.17 0 00-3.08 0 2.86 2.86 0 00-1.062 1.112 3.56 3.56 0 000 3.25c.246.46.613.844 1.062 1.112a3.17 3.17 0 003.08 0zm8.13.513a1.805 1.805 0 01-.68.39 2.71 2.71 0 01-.852.135 2.027 2.027 0 01-1.505-.528 2.028 2.028 0 01-.531-1.49v-4.861h-1.376v-.613h1.376v-1.633h.717v1.625h2.389v.613h-2.389v4.79c-.029.399.096.794.35 1.104a1.334 1.334 0 001.038.378 1.67 1.67 0 001.161-.413l.302.503zm-74.4-23.076h-9.888l-1.747 4.513h-8.921L74.59 8.53h8.633l11.374 25.892H85.52l-1.747-4.513zm-2.408-6.288l-2.528-6.51-2.528 6.51h5.056zM95.742 6.978h8.401v27.445h-8.4V6.978zM108.4 11.36a3.836 3.836 0 01-1.394-3.052 3.849 3.849 0 011.394-3.05c.929-.8 2.149-1.2 3.661-1.202 1.512-.002 2.738.38 3.68 1.146a3.699 3.699 0 011.375 2.96 4.074 4.074 0 01-1.375 3.17c-.917.828-2.143 1.24-3.68 1.239-1.536-.002-2.757-.405-3.661-1.21zm-.531 2.83h8.4v20.233h-8.408l.008-20.233zm27.09 19.53c-1.264.715-2.986 1.073-5.167 1.073-2.851 0-5.045-.685-6.579-2.053-1.535-1.369-2.303-3.422-2.305-6.159v-5.18h-2.788V15.3h2.788V9.64h8.401v5.66h4.163v6.1h-4.163v5.105a2.02 2.02 0 00.483 1.442 1.644 1.644 0 001.264.529 3.305 3.305 0 001.896-.555l2.007 5.799zm19.404-17.514c1.884 1.585 2.825 4.033 2.825 7.342v10.875h-7.806V31.76c-.966 2.023-2.887 3.034-5.762 3.033a9.223 9.223 0 01-4.107-.832 5.883 5.883 0 01-2.54-2.216 5.845 5.845 0 01-.899-3.24c0-1.998.769-3.514 2.305-4.55 1.536-1.035 3.866-1.553 6.988-1.553h3.383c-.272-1.585-1.549-2.378-3.829-2.378a9.649 9.649 0 00-2.788.425 7.926 7.926 0 00-2.416 1.165l-2.676-5.498a14.843 14.843 0 014.219-1.682 20.477 20.477 0 014.925-.61c3.569-.003 6.295.792 8.178 2.382zm-6.619 13.076a2.78 2.78 0 001.041-1.443v-1.406h-2.082c-1.71 0-2.565.568-2.565 1.702a1.456 1.456 0 00.531 1.165c.416.328.939.493 1.468.462a2.767 2.767 0 001.607-.48z" fill="#1F72BA"/></svg>