<svg width="45" height="109" fill="none" xmlns="http://www.w3.org/2000/svg"><g filter="url(#filter0_d)"><path d="M32.297 11.977l-2.285 57.89h-15l-2.168-57.89h19.453zm-9.61 85.37c-3.125 0-5.703-.937-7.734-2.812-2.031-1.914-3.047-4.219-3.047-6.914 0-2.812 1.016-5.117 3.047-6.914 2.07-1.797 4.649-2.695 7.735-2.695 3.125 0 5.683.918 7.675 2.754 1.992 1.796 2.989 4.082 2.989 6.855 0 2.813-.996 5.137-2.989 6.973-1.953 1.836-4.511 2.754-7.675 2.754z" fill="url(#paint0_linear)" fill-opacity=".5"/></g><defs><linearGradient id="paint0_linear" x1="15.27" y1="-22" x2="15.27" y2="114" gradientUnits="userSpaceOnUse"><stop stop-color="#180D5B"/><stop offset=".232" stop-color="#24126A" stop-opacity=".94"/><stop offset=".561" stop-color="#1F72BA"/><stop offset=".857" stop-color="#42E8E0"/></linearGradient><filter id="filter0_d" x=".906" y=".977" width="43.445" height="107.371" filterUnits="userSpaceOnUse" color-interpolation-filters="sRGB"><feFlood flood-opacity="0" result="BackgroundImageFix"/><feColorMatrix in="SourceAlpha" values="0 0 0 0 0 0 0 0 0 0 0 0 0 0 0 0 0 0 127 0"/><feOffset/><feGaussianBlur stdDeviation="5.5"/><feColorMatrix values="0 0 0 0 0.396078 0 0 0 0 0.878431 0 0 0 0 1 0 0 0 1 0"/><feBlend in2="BackgroundImageFix" result="effect1_dropShadow"/><feBlend in="SourceGraphic" in2="effect1_dropShadow" result="shape"/></filter></defs></svg>