<svg width="272" height="359" fill="none" xmlns="http://www.w3.org/2000/svg"><path style="mix-blend-mode:multiply" opacity=".5" d="M173 358.453c40.317 0 73-7.163 73-16 0-8.836-32.683-16-73-16s-73 7.164-73 16c0 8.837 32.683 16 73 16z" fill="url(#paint0_radial)" fill-opacity=".6"/><path d="M167.129 275.438c-.645 7.828-13.039 32.885-22.765 39.692a7.166 7.166 0 01-5.212 1.63c-6.985-1.344-10.335-34.802-10.747-53.644-.107-7.29.233-12.359.985-12.538 6.395-1.684 38.474 15.547 37.739 24.86z" fill="url(#paint1_linear)"/><path d="M167.111 278.001s-8.579 4.657-21.977-2.06c-10.478-5.248-17.463-22.335-15.69-25.362 1.773-3.027 42.521 15.278 37.667 27.422z" fill="url(#paint2_linear)"/><path style="mix-blend-mode:multiply" opacity=".3" d="M167.129 275.439c-.644 7.827-13.039 32.885-22.765 39.691 7.29-8.383 7.541-25.488 2.902-33.315-3.582-5.929-13.935-14.741-18.807-18.663-.107-7.29.233-12.359.985-12.538 6.341-1.72 38.42 15.511 37.685 24.825z" fill="url(#paint3_linear)"/><path d="M140.065 204.135s-36.825 20.902-45.494 20.06c-8.669-.842-4.818-20.544-4.818-20.544 1.146-1.361 2.436-2.758 3.815-4.209 13.863-14.633 37.488-33.261 51.083-42.127 5.713-3.744 9.654-5.75 10.317-4.997 5.051 5.588-14.903 51.817-14.903 51.817z" fill="url(#paint4_linear)"/><path d="M89.753 203.651s4.818-4.048 10.747 1.397c5.928 5.445-.18 18.484-5.965 19.147-5.785.663-9.224-12.072-4.782-20.544z" fill="url(#paint5_linear)"/><path style="mix-blend-mode:multiply" opacity=".3" d="M140.065 204.135s-36.825 20.902-45.494 20.06c-8.669-.842-4.818-20.544-4.818-20.544 1.146-1.361 2.436-2.758 3.815-4.209 0 0 8.956 5.373 25.613 2.776 16.657-2.597 25.47-44.903 25.47-44.903 5.713-3.744 9.654-5.75 10.317-4.997 5.051 5.588-14.903 51.817-14.903 51.817z" fill="url(#paint6_linear)"/><path d="M114.434 20.58s-12.43 13.129-13.827 37.38c-1.397 24.253 26.706-10.746 26.706-10.746L114.434 20.58z" fill="url(#paint7_linear)"/><path d="M106.375 47.143s5.642-29.876 14.92-36.216c9.278-6.341 25.971-.61 25.971-.61l-40.891 36.826z" fill="url(#paint8_linear)"/><path d="M249.557 117.014c-21.064 33.1-125.379 38.366-143.29 21.816a48.167 48.167 0 01-13.953-25.076C82.678 71.842 115.26 9.547 169.332 3.457c36.611-4.12 67.221 26.168 79.992 58.48 8.024 20.204 9.063 41.196.233 55.077z" fill="url(#paint9_linear)"/><path d="M229.12 132.938a193.183 193.183 0 01-45.28 12.699c-24.216 3.224-42.019 2.847-52.3.25-6.771-1.791-10.263-4.37-10.228-7.576 0-1.935 4.55-4.263 11.84-6.627 21.493-6.932 66.773-14.222 91.795-13.792 2.149 0 4.155.126 5.982.287l1.128.125h.215c4.371.484 7.541 1.343 9.081 2.723.364.303.657.682.86 1.11 1.325 3.045-4.388 6.985-13.093 10.801z" fill="url(#paint10_linear)"/><path style="mix-blend-mode:multiply" opacity=".3" d="M249.557 117.014c-21.064 33.1-125.379 38.366-143.29 21.816a48.167 48.167 0 01-13.953-25.076s8.705 12.538 29.984 12.305c21.278-.233 81.908-11.499 93.138-22.317 11.23-10.819.806-52.122.806-52.122l33.118 10.317c7.988 20.204 9.027 41.196.197 55.077z" fill="url(#paint11_linear)"/><path style="mix-blend-mode:multiply" opacity=".5" d="M229.12 132.938c-11.051-3.152-43.094-10.747-66.791-2.078-29.052 10.729-30.7 15.1-30.7 15.1-6.77-1.792-10.263-4.371-10.227-7.577 0-1.934 4.55-4.263 11.839-6.627 21.494-6.932 66.773-14.221 91.795-13.792 2.633.108 4.997.251 7.165.412h.215c4.37.484 7.54 1.344 9.081 2.723.363.304.656.682.859 1.11 1.182 2.974-4.531 6.914-13.236 10.729z" fill="url(#paint12_linear)"/><path d="M230.911 118.178c-4.979 6.233-31.792 14.634-47.447 16.711-28.049 3.726-45.673 1.576-50.33-3.224 23.284-7.505 74.779-15.475 97.777-13.487z" fill="url(#paint13_linear)"/><path d="M92.368 115.725c6.09 12.197 95.646 4.979 115.402-20.383s-11.553-96.99-57.692-83.932c-43.99 12.448-68.743 82.212-57.71 104.315z" fill="#DFE3FB"/><path d="M92.368 113.718c6.09 12.198 95.646 4.962 115.402-20.4 19.756-25.363-11.553-96.99-57.692-83.932-43.99 12.484-68.743 82.266-57.71 104.332z" fill="url(#paint14_linear)"/><path d="M219.394 237.306c-6.305 28.657-22.747 41.052-52.211 40.658-28.891-.394-46.569-31.703-37.327-68.457 5.965-23.463 12.86-44.276 25.076-57.226a42.751 42.751 0 0126.849-13.487c8.848-1.039 16.12 3.708 22.03 11.786 15.279 21.081 20.383 64.605 15.583 86.726z" fill="url(#paint15_linear)"/><path d="M212.23 15.762s-4.836 44.134 22.389 59.752c0 0 13.361 1.433 21.135-6.68 0 0-12.09 11.373-24.861-.466-12.771-11.84-9.69-44.492 0-55.113 9.69-10.621 23.679-7.845 23.679-7.845L248.983.377S228.35-3.814 212.23 15.762z" fill="url(#paint16_linear)"/><path style="mix-blend-mode:multiply" opacity=".3" d="M203.847 183.374a347.864 347.864 0 013.009 37.363c0 17.714-10.89 33.297-10.89 33.297l22.103-11.875a62.698 62.698 0 003.116-23.446c-1.039-11.875-2.006-17.285-2.006-17.285l-15.332-18.054z" fill="url(#paint17_linear)"/><path d="M249.001.376s-15.153-1.397-25.738 16.12c-11.248 18.664-3.081 50.94 10.585 55.847 13.667 4.908 27.458-47.25 27.458-47.25l-7.881-20.776a9.346 9.346 0 00-4.424-3.941z" fill="url(#paint18_linear)"/><path d="M268.578 44.868c-1.952 10.084-6.054 18.323-11.553 23.535l-1.54 1.362a19.897 19.897 0 01-15.439 4.549c-18.449-2.346-20.921-29.052-18.753-44.187 2.525-17.481 17.481-27.977 29.392-26.455 14.15 1.899 21.708 21.458 17.893 41.196z" fill="url(#paint19_linear)"/><path d="M128.334 214.289s6.698-21.762 27.457-21.762c24.879 0 41.644 27.494 40.157 46.157-1.486 18.664-7.164 36.127-30.699 36.862 0 .053-44.008-.932-36.915-61.257z" fill="url(#paint20_linear)"/><path d="M128.334 216.707s6.698-21.708 27.457-21.708c24.879 0 41.644 27.494 40.157 46.139-1.486 18.646-7.164 36.127-30.699 36.861 0 0-44.008-.967-36.915-61.292z" fill="url(#paint21_radial)"/><path d="M215.615 207.503c-1.075 0-2.239-.914-3.403-2.454-5.212-6.95-10.747-26.975-10.622-38.115 0-4.317.878-7.29 2.92-7.648 3.313-.573 10.066 10.639 13.344 26.383 1.898 9.17 2.364 21.834-2.239 21.834z" fill="url(#paint22_linear)"/><path d="M212.23 205.065c-5.213-6.949-10.747-26.974-10.622-38.115 3.26 4.227 7.075 12.825 9.314 23.535a60.568 60.568 0 011.308 14.58z" fill="#6340A2"/><path d="M264.853 248.893c-3.368 10.747-16.12 11.947-19.703 9.332-3.242-2.275-12.161-12.753-20.705-31.953a217.164 217.164 0 01-3.725-8.956c-9.529-25.076-16.694-71.036-6.843-69.245 28.569 5.051 54.325 90.022 50.976 100.822z" fill="url(#paint23_linear)"/><path d="M218.499 325.071c-1.935.949-4.657 0-7.738-2.311a67.408 67.408 0 01-10.998-11.194c-10.567-13.022-20.884-31.094-20.365-35.124 1.792-14.007 20.831-26.15 32.133-31.524 4.424-2.095 7.648-3.134 8.203-2.866 1.953.878 8.849 78.111-1.235 83.019z" fill="url(#paint24_linear)"/><path d="M238.864 251.509s.161-9.959 8.955-13.469c8.795-3.511 17.302 8.257 17.302 8.257a11.293 11.293 0 01-3.478 8.241 11.303 11.303 0 01-8.379 3.132c-11.911.179-14.4-6.161-14.4-6.161z" fill="url(#paint25_linear)"/><path d="M99.049 216.08s-7.272 11.463-15.117 17.069c-7.845 5.606-23.285 7.989-23.285 7.989S49.74 236.105 49.74 228.6c0 0 11.75-5.965 16.228-15.404 0 0 15.26-5.373 21.887-3.672a26.171 26.171 0 0111.195 6.556z" fill="url(#paint26_linear)"/><path d="M77.126 212.499l12.466 8.239-15.834-6.824 3.368-1.415z" fill="url(#paint27_linear)"/><path d="M89.592 102.041a67.492 67.492 0 00-22.156 17.428c-10.084 12.125-10.926 24.717 3.582 20.794l6.054-5.373s-8.58 2.938-9.135-6.251c-.555-9.188 21.601-24.932 21.601-24.932l.054-1.666z" fill="url(#paint28_linear)"/><path d="M67.149 133.421c-3.582 5.374 5.857 7.774 13.326 7.577 8.4-.233 22.872-3.959 20.849-12.162-2.024-8.203-25.918-7.953-34.175 4.585z" fill="url(#paint29_linear)"/><path d="M67.722 134.21c0 1.397 29.5-2.311 29.464-7.612-.036-5.302-28.962-3.171-29.464 7.612z" fill="url(#paint30_linear)"/><path d="M102.971 84.935c2.114 6.896 16.353 5.015 20.132-5.785 3.78-10.8-.286-24.503-7.558-25.076-7.272-.573-16.747 17.213-12.574 30.861z" fill="url(#paint31_linear)"/><path d="M160.592 61.777c-.466.985 10.173-9.189 30.95-5.374 2.06.358-21.816-14.006-30.95 5.374z" fill="url(#paint32_linear)"/><path d="M139.707 99.534s19.953-5.23 28.658-21.082c.054 0-3.295 21.44-28.658 21.082z" fill="#2F95CD"/><path style="mix-blend-mode:screen" opacity=".5" d="M106.375 55.22c2.579 2.616 17.535-9.206 36.162-10.89 18.628-1.683 42.109 12.395 56.653 7.272 11.553-4.065-12.376-43.792-43.398-41.768-31.023 2.024-51.961 42.771-49.417 45.386z" fill="url(#paint33_linear)"/><path style="mix-blend-mode:screen" opacity=".5" d="M112.106 113.952a130.746 130.746 0 0142.055-10.621c24.001-1.899 28.282-.143 28.282 2.149 0 2.293-16.227 10.12-38.24 12.001-22.013 1.88-32.097-3.529-32.097-3.529z" fill="url(#paint34_linear)"/><path style="mix-blend-mode:screen" opacity=".5" d="M92.368 110.137s-5.606-16.12 4.818-42.413c0 0 2.508-4.3 4.227-3.26 1.72 1.039-9.94 20.974-9.045 45.673z" fill="url(#paint35_linear)"/><path style="mix-blend-mode:screen" opacity=".72" d="M224.302 51.495s1.952 16.389 13.988 19.917c12.037 3.529 21.816-5.158 24.897-17.445 0 0-3.779 10.603-19.452 7.88-15.672-2.722-19.433-10.352-19.433-10.352z" fill="url(#paint36_linear)"/><path style="mix-blend-mode:screen" opacity=".72" d="M226.559 20.58c.143 3.063 22.227-3.277 29.249-2.346 7.021.931 10.012 9.547 11.122 9.332 1.111-.215-1.791-20.347-14.92-21.834-13.129-1.487-25.595 12.699-25.451 14.848z" fill="url(#paint37_linear)"/><path style="mix-blend-mode:multiply" opacity=".5" d="M203.865 150.615s-30.449 11.464-42.073 10.156c-11.32-1.272-7.075-8.078-6.824-8.454a42.749 42.749 0 0126.813-13.523c8.955-1.003 16.245 3.743 22.084 11.821z" fill="url(#paint38_linear)"/><path style="mix-blend-mode:multiply" opacity=".3" d="M264.853 248.894c-3.368 10.747-16.12 11.947-19.703 9.332-3.241-2.275-12.161-12.753-20.705-31.954.842 1.63 7.165 13.308 12.717 13.308 6.036 0 17.678-16.783 5.911-51.942-11.392-34.031-28.139-39.405-29.16-39.656 28.533 5.141 54.289 90.112 50.94 100.912z" fill="url(#paint39_linear)"/><path d="M249.503 243.146c5.015-1.362 12.896 2.651 15.636 6.698 2.741 4.048 9.601 21.064 5.678 43.077 0 0-7.469 9.887-15.851 7.72-6.377-1.648-7.881-20.616-9.601-34.032-1.719-13.415-4.101-21.242 4.138-23.463z" fill="url(#paint40_linear)"/><path d="M256.184 301.213s3.098-44.115-14.849-51.226c0 0-.089 7.165 3.493 23.715s7.236 26.49 11.356 27.511z" fill="url(#paint41_linear)"/><path style="mix-blend-mode:multiply" opacity=".5" d="M254.966 277.033s-3.726 6.842-6.609 8.203a7.615 7.615 0 01-5.374.484l9.045-20.813a50.182 50.182 0 012.938 12.126z" fill="url(#paint42_linear)"/><path d="M252.064 264.907s-3.582-11.768-11.194-13.953c0 0-6.054 7.326-1.792 32.992 0 0 4.263 4.568 9.064-.931a65.23 65.23 0 003.922-18.108z" fill="url(#paint43_linear)"/><path d="M247.497 261.091c2.454-.251-.179 11.033-1.487 10.908-1.307-.125-.573-10.693 1.487-10.908z" fill="#fff"/><path style="mix-blend-mode:screen" opacity=".72" d="M131.217 214.954c3.135 5.964 14.795-1.666 29.357 0 14.562 1.665 22.389 9.385 26.598 7.271 4.209-2.113-8.956-23.875-31.381-24.753-17.857-.698-25.648 15.458-24.574 17.482z" fill="url(#paint44_linear)"/><path style="mix-blend-mode:screen" opacity=".72" d="M147.266 268.9a25.539 25.539 0 0016.227 6.538c10.102.376 13.469-4.532 13.469-4.532a21.102 21.102 0 00-11.624-.555 31.5 31.5 0 01-18.072-1.451z" fill="url(#paint45_linear)"/><path style="mix-blend-mode:multiply" opacity=".3" d="M218.499 325.071c-1.935.95-4.657 0-7.738-2.31l-11.069-11.213c1.074.968 13.344 11.625 15.654-10.603 2.436-23.284-5.015-54.629-5.015-54.629l1.057-1.487c4.424-2.095 7.648-3.134 8.203-2.865 2.096.967 8.992 78.2-1.092 83.107z" fill="url(#paint46_linear)"/><path d="M219.215 188.176c-4.335 2.561 4.603 20.562 6.699 21.01 2.095.448-3.744-22.747-6.699-21.01zm7.988 24.053c-.913.108.09 4.317.771 4.872a2.398 2.398 0 002.489.287c.394-.466-2.221-5.338-3.26-5.159zm-42.879-43.827c-1.791 0-4.854 17.248-3.421 17.911 1.433.663 3.331-3.081 4.729-8.705 1.397-5.624.394-9.242-1.308-9.206zm-77.591 21.386c.394 1.254 9.063-2.668 9.099-6.412.035-3.743-9.655 4.586-9.099 6.412zm84.612 85.829c-3.833.86 1.791 10.263 2.597 10.621.806.358 1.594-3.582.914-6.448-.538-2.507-2.15-4.46-3.511-4.173zm-52.766 7.416c-2.15-.501-1.594 5.571-1.236 5.947.358.376 1.666-1.433 2.006-3.009.34-1.576-.018-2.776-.77-2.938zm56.259 4.316c-.734.573 1.003 3.493 1.63 2.884a2.457 2.457 0 000-2.633 1.471 1.471 0 00-1.63-.251z" fill="#fff"/><path style="mix-blend-mode:multiply" opacity=".5" d="M50.114 229.84s3.557 6.887 14.2 6.96c10.643.073 13.772-5.703 13.772-5.703l-6.27-3.068-16.497-2.954-5.205 4.765z" fill="url(#paint47_linear)"/><path d="M94.5 206.231s-7.846-8.221-14.33-8.741c-6.484-.519-23.284 6.699-28.317 16.12 0 0 .752 2.257 6.484 3.583 5.731 1.325 18.878-4.711 18.878-4.711l21.923 3.708a16.388 16.388 0 00-4.639-9.959z" fill="url(#paint48_linear)"/><path d="M77.126 212.498s10.585-3.206 11.767-11.069l1.684 1.271s-1.505 8.168-13.451 9.798z" fill="url(#paint49_linear)"/><path d="M58.48 209.185c.108 1.648 11.75-3.743 11.75-5.695 0-1.953-11.947 2.919-11.75 5.695z" fill="#fff"/><defs><linearGradient id="paint1_linear" x1="141.301" y1="317.064" x2="149.379" y2="252.781" gradientUnits="userSpaceOnUse"><stop stop-color="#CBC1F7"/><stop offset="1" stop-color="#E8DCF7"/></linearGradient><linearGradient id="paint2_linear" x1="129.175" y1="264.908" x2="167.523" y2="264.908" gradientUnits="userSpaceOnUse"><stop stop-color="#8879EA"/><stop offset="1" stop-color="#9E8CEF"/></linearGradient><linearGradient id="paint3_linear" x1="147.785" y1="315.13" x2="147.785" y2="250.471" gradientUnits="userSpaceOnUse"><stop stop-color="#9D68C2"/><stop offset="1" stop-color="#CCEDFF"/></linearGradient><linearGradient id="paint4_linear" x1="116.853" y1="226.989" x2="126.704" y2="148.646" gradientUnits="userSpaceOnUse"><stop stop-color="#CBC1F7"/><stop offset="1" stop-color="#D4BEF1"/></linearGradient><linearGradient id="paint5_linear" x1="96.577" y1="223.98" x2="94.338" y2="202.147" gradientUnits="userSpaceOnUse"><stop stop-color="#BE9DEA"/><stop offset="1" stop-color="#9E8CEF"/></linearGradient><linearGradient id="paint6_linear" x1="20677.8" y1="10578.4" x2="20677.8" y2="7678.71" gradientUnits="userSpaceOnUse"><stop stop-color="#9D68C2"/><stop offset="1" stop-color="#CCEDFF"/></linearGradient><linearGradient id="paint7_linear" x1="113.933" y1="66.469" x2="113.933" y2="20.544" gradientUnits="userSpaceOnUse"><stop stop-color="#45FFCD"/><stop offset="1" stop-color="#22E0FF"/></linearGradient><linearGradient id="paint8_linear" x1="126.829" y1="47.143" x2="126.829" y2="7.935" gradientUnits="userSpaceOnUse"><stop stop-color="#B9ACF4"/><stop offset="1" stop-color="#E1D1F5"/></linearGradient><linearGradient id="paint9_linear" x1="54960.7" y1="15058.5" x2="56280.7" y2="3084.83" gradientUnits="userSpaceOnUse"><stop stop-color="#CBC1F7"/><stop offset="1" stop-color="#E8DCF7"/></linearGradient><linearGradient id="paint10_linear" x1="37324.2" y1="2935.84" x2="45511.2" y2="2935.84" gradientUnits="userSpaceOnUse"><stop stop-color="#8879EA"/><stop offset="1" stop-color="#9E8CEF"/></linearGradient><linearGradient id="paint11_linear" x1="55127.4" y1="9886.94" x2="55127.4" y2="4706.81" gradientUnits="userSpaceOnUse"><stop stop-color="#9D68C2"/><stop offset="1" stop-color="#CCEDFF"/></linearGradient><linearGradient id="paint12_linear" x1="181.834" y1="145.888" x2="181.834" y2="117.875" gradientUnits="userSpaceOnUse"><stop stop-color="#8DA4E5"/><stop offset="1" stop-color="#755CBB"/></linearGradient><linearGradient id="paint13_linear" x1="180.937" y1="138.063" x2="180.836" y2="119.713" gradientUnits="userSpaceOnUse"><stop stop-color="#5E36CC"/><stop offset="1" stop-color="#6C4A96"/></linearGradient><linearGradient id="paint14_linear" x1="151.779" y1="119.539" x2="151.779" y2="7.845" gradientUnits="userSpaceOnUse"><stop stop-color="#0665BD"/><stop offset="1" stop-color="#1A1F77"/></linearGradient><linearGradient id="paint15_linear" x1="31346.3" y1="24503.1" x2="33338" y2="13840.7" gradientUnits="userSpaceOnUse"><stop stop-color="#CBC1F7"/><stop offset="1" stop-color="#E8DCF7"/></linearGradient><linearGradient id="paint16_linear" x1="16441.9" y1="4666.76" x2="16441.9" y2="1475.19" gradientUnits="userSpaceOnUse"><stop stop-color="#B9ACF4"/><stop offset="1" stop-color="#E1D1F5"/></linearGradient><linearGradient id="paint17_linear" x1="9211.97" y1="11583.6" x2="9211.97" y2="8796.07" gradientUnits="userSpaceOnUse"><stop stop-color="#9D68C2"/><stop offset="1" stop-color="#CCEDFF"/></linearGradient><linearGradient id="paint18_linear" x1="16395.4" y1="4348.19" x2="16395.4" y2="1425.76" gradientUnits="userSpaceOnUse"><stop stop-color="#BE9DEA"/><stop offset="1" stop-color="#9E8CEF"/></linearGradient><linearGradient id="paint19_linear" x1="18633.3" y1="4340.3" x2="18633.3" y2="1529.77" gradientUnits="userSpaceOnUse"><stop stop-color="#45FFCD"/><stop offset="1" stop-color="#22E0FF"/></linearGradient><linearGradient id="paint20_linear" x1="21406.3" y1="12662.1" x2="24024.3" y2="12662.1" gradientUnits="userSpaceOnUse"><stop stop-color="#BE9DEA"/><stop offset="1" stop-color="#9E8CEF"/></linearGradient><linearGradient id="paint22_linear" x1="6408.67" y1="6038.98" x2="6582.16" y2="6038.98" gradientUnits="userSpaceOnUse"><stop stop-color="#8879EA"/><stop offset="1" stop-color="#9E8CEF"/></linearGradient><linearGradient id="paint23_linear" x1="20816.7" y1="18303.8" x2="22382" y2="12039.1" gradientUnits="userSpaceOnUse"><stop stop-color="#CBC1F7"/><stop offset="1" stop-color="#E8DCF7"/></linearGradient><linearGradient id="paint24_linear" x1="15736.3" y1="16915.3" x2="16608.3" y2="13214.2" gradientUnits="userSpaceOnUse"><stop stop-color="#CBC1F7"/><stop offset="1" stop-color="#E8DCF7"/></linearGradient><linearGradient id="paint25_linear" x1="10222.2" y1="3553.51" x2="10222.2" y2="3323.73" gradientUnits="userSpaceOnUse"><stop stop-color="#BE9DEA"/><stop offset="1" stop-color="#9E8CEF"/></linearGradient><linearGradient id="paint26_linear" x1="13838.6" y1="5158.62" x2="13889.4" y2="4536.42" gradientUnits="userSpaceOnUse"><stop stop-color="#CBC1F7"/><stop offset="1" stop-color="#E8DCF7"/></linearGradient><linearGradient id="paint27_linear" x1="4591.84" y1="1392.1" x2="4589.55" y2="1348.52" gradientUnits="userSpaceOnUse"><stop stop-color="#BE9DEA"/><stop offset="1" stop-color="#9E8CEF"/></linearGradient><linearGradient id="paint28_linear" x1="8342.92" y1="3945.5" x2="8489.33" y2="3056.88" gradientUnits="userSpaceOnUse"><stop stop-color="#BE9DEA"/><stop offset="1" stop-color="#9E8CEF"/></linearGradient><linearGradient id="paint29_linear" x1="83.034" y1="141.523" x2="84.825" y2="122.748" gradientUnits="userSpaceOnUse"><stop stop-color="#DD1A8F"/><stop offset="1" stop-color="#FE117E"/></linearGradient><linearGradient id="paint30_linear" x1="8729.16" y1="-85.638" x2="8722.17" y2="-136.696" gradientUnits="userSpaceOnUse"><stop stop-color="#D93DE3"/><stop offset="1" stop-color="#FF6DBA"/></linearGradient><linearGradient id="paint31_linear" x1="6941.68" y1="2470.83" x2="6941.68" y2="1790.05" gradientUnits="userSpaceOnUse"><stop stop-color="#45FFCD"/><stop offset="1" stop-color="#22E0FF"/></linearGradient><linearGradient id="paint32_linear" x1="10664.2" y1="604.388" x2="10664.2" y2="545.98" gradientUnits="userSpaceOnUse"><stop stop-color="#45FFCD"/><stop offset="1" stop-color="#22E0FF"/></linearGradient><linearGradient id="paint33_linear" x1="106.178" y1="32.67" x2="202.146" y2="32.67" gradientUnits="userSpaceOnUse"><stop/><stop offset="1" stop-color="#6A9BFF"/></linearGradient><linearGradient id="paint34_linear" x1="21361" y1="1346.61" x2="24123.1" y2="1346.61" gradientUnits="userSpaceOnUse"><stop/><stop offset="1" stop-color="#6A9BFF"/></linearGradient><linearGradient id="paint35_linear" x1="3235.58" y1="3778.35" x2="3235.58" y2="2605.42" gradientUnits="userSpaceOnUse"><stop/><stop offset="1" stop-color="#6A9BFF"/></linearGradient><linearGradient id="paint36_linear" x1="243.735" y1="72.218" x2="243.735" y2="51.495" gradientUnits="userSpaceOnUse"><stop stop-color="#D4E2FF"/><stop offset="1"/></linearGradient><linearGradient id="paint37_linear" x1="226.523" y1="16.568" x2="267.11" y2="16.568" gradientUnits="userSpaceOnUse"><stop/><stop offset="1" stop-color="#D4E2FF"/></linearGradient><linearGradient id="paint38_linear" x1="17084.5" y1="2567.08" x2="17084.5" y2="2292.07" gradientUnits="userSpaceOnUse"><stop stop-color="#8DA4E5"/><stop offset="1" stop-color="#755CBB"/></linearGradient><linearGradient id="paint39_linear" x1="19335.9" y1="18458.2" x2="19335.9" y2="11525.9" gradientUnits="userSpaceOnUse"><stop stop-color="#9D68C2"/><stop offset="1" stop-color="#CCEDFF"/></linearGradient><linearGradient id="paint40_linear" x1="-13588.8" y1="12251.3" x2="-14224.5" y2="10526.4" gradientUnits="userSpaceOnUse"><stop stop-color="#CBC1F7"/><stop offset="1" stop-color="#E8DCF7"/></linearGradient><linearGradient id="paint41_linear" x1="-6686.89" y1="10333.5" x2="-6836.93" y2="8848.11" gradientUnits="userSpaceOnUse"><stop stop-color="#BE9DEA"/><stop offset="1" stop-color="#9E8CEF"/></linearGradient><linearGradient id="paint42_linear" x1="-5594.84" y1="4531.63" x2="-5618.74" y2="4295.03" gradientUnits="userSpaceOnUse"><stop stop-color="#8DA4E5"/><stop offset="1" stop-color="#755CBB"/></linearGradient><linearGradient id="paint43_linear" x1="-6739.8" y1="6994.31" x2="-6986.24" y2="6399.51" gradientUnits="userSpaceOnUse"><stop stop-color="#CBC1F7"/><stop offset="1" stop-color="#E8DCF7"/></linearGradient><linearGradient id="paint44_linear" x1="17903.6" y1="3635.69" x2="19706.3" y2="3635.69" gradientUnits="userSpaceOnUse"><stop/><stop offset="1" stop-color="#D4E2FF"/></linearGradient><linearGradient id="paint45_linear" x1="9947.78" y1="1405.49" x2="9947.78" y2="1381.42" gradientUnits="userSpaceOnUse"><stop stop-color="#D4E2FF"/><stop offset="1"/></linearGradient><linearGradient id="paint46_linear" x1="8840.01" y1="17044.2" x2="8840.01" y2="13150.7" gradientUnits="userSpaceOnUse"><stop stop-color="#9D68C2"/><stop offset="1" stop-color="#CCEDFF"/></linearGradient><linearGradient id="paint47_linear" x1="7722.81" y1="2011.33" x2="7727.79" y2="1936.69" gradientUnits="userSpaceOnUse"><stop stop-color="#8DA4E5"/><stop offset="1" stop-color="#755CBB"/></linearGradient><linearGradient id="paint48_linear" x1="13353.3" y1="3025.35" x2="13366.4" y2="2775.78" gradientUnits="userSpaceOnUse"><stop stop-color="#CBC1F7"/><stop offset="1" stop-color="#E8DCF7"/></linearGradient><linearGradient id="paint49_linear" x1="3931.72" y1="1726.09" x2="3926.69" y2="1665.56" gradientUnits="userSpaceOnUse"><stop stop-color="#BE9DEA"/><stop offset="1" stop-color="#9E8CEF"/></linearGradient><radialGradient id="paint0_radial" cx="0" cy="0" r="1" gradientUnits="userSpaceOnUse" gradientTransform="matrix(73.0179 0 0 15.8129 173 342.784)"><stop stop-color="#BE9DEA"/><stop offset=".39" stop-color="#E0BFF5"/><stop offset="1" stop-color="#fff"/></radialGradient><radialGradient id="paint21_radial" cx="0" cy="0" r="1" gradientUnits="userSpaceOnUse" gradientTransform="matrix(1979.07 0 0 2398.71 22758.8 14100.1)"><stop stop-color="#45FFCD"/><stop offset="1" stop-color="#22E0FF"/></radialGradient></defs></svg>