<svg width="111" height="110" fill="none" xmlns="http://www.w3.org/2000/svg"><path d="M64.454 3.348s5.212 3.739 7.32 12.061c2.107 8.323-10.018-1.942-10.018-1.942l2.698-10.12z" fill="url(#paint0_linear)"/><path d="M69.038 12.063S65.089 2.046 61.42.453c-3.67-1.594-9.078 1.535-9.078 1.535l16.696 10.075z" fill="url(#paint1_linear)"/><path d="M23.901 45.989c9.523 10.106 46.19 4.939 51.313-2.012a17.064 17.064 0 003.174-9.662c.54-15.236-14.975-34.732-34.191-33.227-13.02 1.022-21.642 13.617-23.92 25.723-1.429 7.567-.382 14.944 3.624 19.178z" fill="url(#paint2_linear)"/><path d="M32.078 50.16a68.852 68.852 0 0016.614 1.383c8.646-.502 14.816-1.835 18.219-3.428 2.235-1.047 3.276-2.203 3.053-3.32-.14-.673-1.904-1.175-4.57-1.517-7.93-.972-24.193-.464-32.871 1.364a31.35 31.35 0 00-2.057.502l-.388.114h-.076c-1.485.464-2.539.978-2.977 1.555a1.17 1.17 0 00-.222.445c-.254 1.168 1.993 2.158 5.275 2.901z" fill="url(#paint3_linear)"/><path style="mix-blend-mode:multiply" opacity=".3" d="M23.901 45.988c9.523 10.106 46.19 4.939 51.313-2.013a17.064 17.064 0 003.174-9.662s-2.19 4.952-9.61 6.291c-7.422 1.34-29.279 1.498-33.888-1.517-4.608-3.015-3.77-18.086-3.77-18.086l-10.843 5.815c-1.429 7.56-.381 14.937 3.624 19.172z" fill="url(#paint4_linear)"/><path style="mix-blend-mode:multiply" opacity=".5" d="M32.078 50.16c3.638-1.834 14.277-6.659 23.108-5.199 10.83 1.778 11.725 3.174 11.725 3.174 2.235-1.047 3.276-2.202 3.053-3.32-.14-.673-1.904-1.174-4.57-1.517-7.93-.971-24.193-.463-32.871 1.365-.902.216-1.72.419-2.445.635h-.076c-1.485.463-2.539.977-2.977 1.555a1.17 1.17 0 00-.222.444c-.254 1.13 1.993 2.12 5.275 2.864z" fill="url(#paint5_linear)"/><path d="M30.465 45.144c2.159 1.835 12.062 2.958 17.636 2.635 10.011-.59 15.998-2.54 17.299-4.501-8.608-1.054-27.063-.368-34.935 1.866z" fill="url(#paint6_linear)"/><path d="M78.521 34.991c-1.27 4.653-32.953 8.151-41.536.635-8.583-7.516-2.482-34.54 14.455-33.068C67.583 3.942 80.877 26.56 78.52 34.99z" fill="#DFE3FB"/><path d="M78.388 34.31c-1.301 4.653-32.954 8.144-41.537.634C28.27 27.434 34.37.454 51.308 1.876 67.45 3.254 80.743 25.88 78.388 34.31z" fill="url(#paint7_linear)"/><path d="M34.274 6.488s1.613 15.655-8.043 21.134c0 0-4.736.488-7.478-2.4 0 0 4.266 4.05 8.811-.127 4.546-4.177 3.517-15.756.07-19.534-3.447-3.777-8.38-2.812-8.38-2.812L21.287.972s7.3-1.454 12.988 5.516z" fill="url(#paint8_linear)"/><path d="M21.286.972s5.37-.47 9.09 5.783c3.95 6.634.997 18.06-3.853 19.775-4.85 1.714-9.68-16.823-9.68-16.823l2.875-7.351A3.31 3.31 0 0121.286.972z" fill="url(#paint9_linear)"/><path d="M14.258 16.702c.673 3.58 2.114 6.507 4.05 8.367l.54.483a7.039 7.039 0 005.44 1.65c6.546-.8 7.472-10.259 6.73-15.63-.845-6.189-6.12-9.94-10.367-9.414-4.996.623-7.713 7.542-6.393 14.544z" fill="url(#paint10_linear)"/><path d="M78.566 30.041c3.251.888 6.28 2.45 8.888 4.584 4.323 3.542 5.46 7.865.133 7.478l-2.47-1.447s3.175.444 2.762-2.794c-.413-3.237-9.199-7.224-9.199-7.224l-.114-.597z" fill="url(#paint11_linear)"/><path d="M88.52 39.45c1.6 1.631-1.524 3.104-4.14 3.536-2.932.476-8.252.159-8.061-2.831.19-2.99 8.449-4.508 12.2-.705z" fill="url(#paint12_linear)"/><path d="M88.336 39.772c.114.483-10.418 1.175-10.792-.673-.375-1.847 9.89-3.047 10.792.673z" fill="url(#paint13_linear)"/><path d="M51.16 20.799c.223.31-4.157-2.54-11.14.196-.686.267 6.659-6.329 11.14-.196z" fill="url(#paint14_linear)"/><path d="M73.17 20.83c.228.305-2.076-1.904-8.208-.425-.718.171 4.183-5.047 8.208.425z" fill="url(#paint15_linear)"/><path style="mix-blend-mode:screen" opacity=".5" d="M69.583 14.875c-.723 1.085-6.716-2.032-13.331-1.365-6.615.666-13.82 7.141-19.229 6.348-4.291-.635 1.371-16.074 12.303-17.451 10.932-1.378 20.968 11.376 20.257 12.468z" fill="url(#paint16_linear)"/><path style="mix-blend-mode:screen" opacity=".5" d="M71.533 35.704a46.271 46.271 0 00-15.331-.876c-8.481.946-9.853 1.847-9.694 2.64.159.794 6.348 2.439 14.112 1.613 7.764-.825 10.913-3.377 10.913-3.377z" fill="url(#paint17_linear)"/><path style="mix-blend-mode:screen" opacity=".5" d="M78.147 33.068s.87-5.954-4.526-14.435c0 0-1.155-1.327-1.688-.851-.534.476 4.869 6.608 6.214 15.286z" fill="url(#paint18_linear)"/><path style="mix-blend-mode:screen" opacity=".72" d="M29.939 19.136s-.724 5.802-4.99 7.034c-4.266 1.231-7.726-1.867-8.798-6.228 0 0 1.32 3.764 6.881 2.831 5.561-.933 6.907-3.637 6.907-3.637z" fill="url(#paint19_linear)"/><path style="mix-blend-mode:screen" opacity=".72" d="M29.208 8.16c-.057 1.079-7.872-1.207-10.366-.89-2.495.318-3.562 3.372-3.962 3.296-.4-.077.692-7.206 5.326-7.714 4.635-.507 9.04 4.584 9.002 5.308z" fill="url(#paint20_linear)"/><path d="M65.97 26.81s-7.776.273-12.188-.838c0 0 1.048 7.294 6.095 7.294s6.094-6.456 6.094-6.456z" fill="#2F95CD"/><path d="M66.282 69.865s13.052 7.402 16.124 7.11c3.073-.292 1.727-7.275 1.727-7.275a30.696 30.696 0 00-1.352-1.492C77.848 63.02 69.469 56.413 64.657 53.27c-2.025-1.326-3.422-2.037-3.657-1.77-1.79 1.98 5.282 18.365 5.282 18.365z" fill="url(#paint21_linear)"/><path d="M84.133 69.693s-1.708-1.435-3.81.495c-2.1 1.93.064 6.558 2.115 6.787 2.05.228 3.25-4.28 1.695-7.282z" fill="url(#paint22_linear)"/><path style="mix-blend-mode:multiply" opacity=".3" d="M66.282 69.865s13.052 7.402 16.124 7.11c3.073-.292 1.727-7.275 1.727-7.275a30.696 30.696 0 00-1.352-1.492s-3.174 1.904-9.078.984c-5.904-.92-9.046-15.921-9.046-15.921-2.025-1.327-3.422-2.038-3.657-1.772-1.79 1.981 5.282 18.366 5.282 18.366z" fill="url(#paint23_linear)"/><path d="M51.033 94.028c-.197 2.774 2.812 12.214 5.853 15.122a2.483 2.483 0 001.74.85c2.539-.101 5.484-11.642 6.602-18.225.431-2.54.584-4.343.33-4.444-2.127-.934-14.284 3.39-14.525 6.697z" fill="url(#paint24_linear)"/><path d="M50.9 94.922s2.755 2.088 7.808.45c3.949-1.27 7.313-6.894 6.856-8.05-.457-1.155-15.712 3.086-14.664 7.6z" fill="url(#paint25_linear)"/><path style="mix-blend-mode:multiply" opacity=".3" d="M51.034 94.024c-.197 2.775 2.812 12.214 5.853 15.122-2.108-3.333-1.27-9.338.768-11.827 1.542-1.904 5.663-4.444 7.58-5.542.431-2.54.584-4.342.33-4.444-2.133-.94-14.29 3.384-14.531 6.691z" fill="url(#paint26_linear)"/><path d="M60.645 98.215c.774-.058.26 2.037.114 2.152-.146.114-.508-.59-.54-1.162-.031-.572.14-.99.426-.99z" fill="#fff"/><path d="M32.923 77.162c-.769 10.398 3.574 16.245 13.623 19.095 9.852 2.787 19.045-6.056 19.603-19.483.35-8.57.108-16.34-2.761-21.983a15.115 15.115 0 00-7.764-7.295c-2.901-1.27-5.872-.38-8.678 1.772-7.294 5.605-13.433 19.876-14.023 27.894z" fill="url(#paint27_linear)"/><path style="mix-blend-mode:multiply" opacity=".3" d="M43.638 60.397a124.237 124.237 0 00-4.818 12.379c-1.796 6.024-.108 12.88-.108 12.88l-5.872-6.735c-.08-2.81.37-5.61 1.327-8.253 1.555-3.923 2.431-5.669 2.431-5.669l7.04-4.602z" fill="url(#paint28_linear)"/><path d="M66.276 78.485s-.082-8.056-7.135-10.157c-8.45-2.54-16.93 5.123-18.308 11.61-1.378 6.489-1.213 13.002 6.697 15.63 0 .006 15.02 4.12 18.746-17.083z" fill="url(#paint29_linear)"/><path d="M65.927 79.361s-.082-8.056-7.135-10.157c-8.45-2.54-16.93 5.13-18.309 11.61-1.377 6.482-1.212 13.002 6.698 15.63 0 .007 15.052 4.12 18.746-17.083z" fill="url(#paint30_radial)"/><path d="M37.315 67.343a1.714 1.714 0 001.397-.49c2.476-1.828 6.348-8.08 7.465-11.864.432-1.473.438-2.54-.215-2.895-1.073-.533-4.495 2.59-7.206 7.618-1.6 2.952-3.009 7.167-1.44 7.63z" fill="url(#paint31_linear)"/><path d="M38.712 66.854c2.475-1.828 6.348-8.081 7.465-11.865-1.53 1.105-3.7 3.638-5.542 7.053a21.223 21.223 0 00-1.923 4.812z" fill="#6340A2"/><path style="mix-blend-mode:multiply" opacity=".5" d="M47.054 49.212s9.148 6.97 13.268 7.7c3.974.718 3.219-2.018 3.174-2.177a15.14 15.14 0 00-7.764-7.306c-2.9-1.238-5.878-.369-8.678 1.783z" fill="url(#paint32_linear)"/><path style="mix-blend-mode:screen" opacity=".72" d="M65.229 78.42c-1.67 1.707-4.857-2.07-9.973-2.972-5.117-.901-8.558.92-9.77-.222-1.213-1.143 5.466-7.205 13.16-5.237 6.138 1.561 7.148 7.846 6.583 8.43z" fill="url(#paint33_linear)"/><path style="mix-blend-mode:screen" opacity=".72" d="M54.215 95.174a9.033 9.033 0 01-6.17.584c-3.473-.901-4.12-2.9-4.12-2.9a7.401 7.401 0 013.998.983 11.186 11.186 0 006.292 1.333z" fill="url(#paint34_linear)"/><path d="M51.89 57.237c.597.19-.095 6.348-.634 6.393-.54.044-.82-1.378-.724-3.435.095-2.056.787-3.148 1.359-2.958z" fill="#fff"/><path d="M9.782 75.527c-.933 3.91 2.724 6.545 4.33 6.424 1.396-.107 6.018-1.682 12.093-5.986a68.67 68.67 0 002.768-2.082c7.428-5.891 17.953-18.62 14.601-19.857-9.624-3.594-32.858 17.603-33.792 21.501z" fill="url(#paint35_linear)"/><path d="M17.229 81.03s1.752-3.066-.298-5.714c-2.05-2.647-6.768-.635-6.768-.635a4.011 4.011 0 001.556 5.612c3.6 2.222 5.51.737 5.51.737z" fill="url(#paint36_linear)"/><path style="mix-blend-mode:multiply" opacity=".3" d="M9.783 75.525c-.933 3.91 2.723 6.545 4.33 6.425 1.396-.108 6.017-1.683 12.093-5.987-.553.343-4.577 2.768-6.285 1.752-1.835-1.098-2.343-8.316 7.618-16.899 9.617-8.31 15.693-6.9 16.06-6.799-9.648-3.587-32.883 17.61-33.816 21.508z" fill="url(#paint37_linear)"/><path d="M15.502 76.547c-1.27-1.314-4.412-1.523-5.98-.787-1.568.736-6.735 4.685-9.522 12.093 0 0 .482 4.368 3.434 5.225 2.241.635 6.139-4.85 9.104-8.646 2.964-3.797 5.072-5.714 2.964-7.885z" fill="url(#paint38_linear)"/><path d="M2.945 93.033s7.053-13.998 13.808-12.919c0 0-1.27 2.197-5.365 6.596-4.094 4.4-7.002 6.754-8.443 6.323z" fill="url(#paint39_linear)"/><path style="mix-blend-mode:multiply" opacity=".5" d="M7.694 85.885s-.102 2.761.533 3.695c.36.546.906.943 1.536 1.117l1.01-7.98a18.262 18.262 0 00-3.08 3.168z" fill="url(#paint40_linear)"/><path d="M10.772 82.718s3.244-2.92 5.942-2.222c0 0 .52 3.332-5.446 10.36 0 0-2.133.635-2.597-1.905a23.182 23.182 0 012.101-6.233z" fill="url(#paint41_linear)"/><path d="M12.861 82.389c-.705-.52-1.949 3.39-1.524 3.593.426.203 2.108-3.155 1.524-3.593zM34.68 65.298c.857 1.555-1.873 2.724-2.596 2.482-.724-.241 2.012-3.548 2.596-2.482zm-3.16 3.078c.26.197-.851 1.181-1.118 1.346-.514.318-1.55.457-1.6.267-.05-.19 2.419-1.854 2.717-1.613zm46.576-3.598c-.14.445-3.212-.939-3.225-2.272-.012-1.333 3.422 1.625 3.225 2.272z" fill="#fff"/><path d="M22.854 106.899c.54.545 1.562.526 2.863.127a23.782 23.782 0 004.977-2.47h.032c5.078-3.13 10.608-7.98 10.906-9.395 1.022-4.895-3.93-11.18-7.09-14.284-1.233-1.219-2.197-1.942-2.413-1.904-.794.063-12.113 25.12-9.275 27.926z" fill="url(#paint42_linear)"/><path style="mix-blend-mode:multiply" opacity=".3" d="M22.854 106.899c.54.545 1.562.526 2.863.127l4.977-2.464c-.47.204-5.815 2.343-4.006-5.37 1.905-8.063 8.037-17.705 8.037-17.705l-.184-.635c-1.232-1.22-2.197-1.943-2.412-1.905-.794.09-12.113 25.146-9.275 27.952z" fill="url(#paint43_linear)"/><path d="M37.695 93.511c1.188.737-1.77 3.231-2.107 3.25-.337.02-.114-1.39.444-2.26.489-.774 1.244-1.25 1.663-.99zm-2.532 3.516c.172.28-.742 1.06-.882.775a.864.864 0 01.285-.883.514.514 0 01.597.108zm58.163-26.11c-.039.527-3.765-1.2-3.765-1.822 0-.622 3.822.946 3.764 1.822z" fill="#fff"/><path d="M100.689 77.437a6.35 6.35 0 01-.685 2.406s-1.81 1.27-5.358 1.105c-3.549-.165-10.837-3.86-11.846-4.533-1.01-.673-1.55-2.749-1.55-2.749l19.439 3.771z" fill="url(#paint44_linear)"/><path d="M81.517 69.883c1.79-.724 6.406.266 9.23 1.27 2.826 1.002 7.441 4.227 9.942 6.252 0 0-.051 1.905-3.745 2.375-3.695.47-13.63-3.733-15.293-5.555-1.663-1.822-.133-4.342-.133-4.342z" fill="url(#paint45_linear)"/><path d="M94.29 72.986s-6.272-.845-9.471-3.244c.025 0 5.415-.229 9.471 3.244z" fill="url(#paint46_linear)"/><path d="M85.79 69.883a18.893 18.893 0 007.56 2.304s3.936.05 4.152-.406c.216-.457.343-2.184-.635-2.622-.977-.438-7.859-1.225-11.077.724z" fill="url(#paint47_linear)"/><path d="M93.72 72.897a27.653 27.653 0 00-9.764 2.914l-.597-.33s3.67-2.584 10.36-2.584z" fill="url(#paint48_linear)"/><path d="M102.194 39.102a10.157 10.157 0 00-5.745.99s-6.386 3.81-5.834 16.176c.559 12.506 6.05 15.236 6.05 15.236s4.196 1.765 6.348.838c2.152-.927-.819-33.24-.819-33.24z" fill="url(#paint49_linear)"/><path d="M102.194 72.315c-4.75 0-8.602-7.435-8.602-16.607s3.851-16.607 8.602-16.607 8.602 7.435 8.602 16.607-3.851 16.607-8.602 16.607z" fill="#FF7AE8"/><path d="M102.473 72.315c-4.596 0-8.322-7.435-8.322-16.607s3.726-16.607 8.322-16.607c4.597 0 8.323 7.435 8.323 16.607s-3.726 16.607-8.323 16.607z" fill="url(#paint50_linear)"/><path d="M95.744 55.684c0 7.218 2.984 13.07 6.659 13.07a3.51 3.51 0 001.454-.317c2.984-1.27 5.212-6.513 5.212-12.753 0-7.212-2.984-13.071-6.666-13.071a3.805 3.805 0 00-2.221.749c-2.59 1.828-4.438 6.666-4.438 12.322z" fill="url(#paint51_linear)"/><path d="M95.745 55.683c0 7.218 2.984 13.071 6.659 13.071.502 0 .998-.109 1.454-.317 2.577-1.803 4.444-6.634 4.444-12.316 0-7.218-2.984-13.07-6.66-13.07a3.571 3.571 0 00-1.441.31c-2.609 1.829-4.456 6.666-4.456 12.322z" fill="url(#paint52_linear)"/><path d="M98.39 52.04c.004.41.046.818.128 1.219.088.42.222.828.4 1.219.181.386.416.745.698 1.066a3.3 3.3 0 001.022.775c-.34.145-.646.361-.895.634-.384.43-.636.961-.724 1.53a4.45 4.45 0 00-.044.578c-.016.434.058.866.216 1.27.126.325.311.624.546.882.215.231.469.425.749.572.262.138.539.249.825.33.249.072.504.121.762.146.187.022.376.035.565.038.18-.008.36-.025.539-.051.159 0 .33-.064.515-.108.174-.047.341-.12.495-.216a97.626 97.626 0 01-.064-3.625c0-1.638.038-3.256.115-4.856.076-1.6.182-3.212.317-4.837a7.34 7.34 0 00-.876-.21c-.286-.05-.552-.089-.787-.114a10.295 10.295 0 00-.781-.051 3.772 3.772 0 00-1.486.324 4.138 4.138 0 00-.806.457 3.252 3.252 0 00-.71.704 3.649 3.649 0 00-.509 1.003 4.29 4.29 0 00-.21 1.32zm2.388 6.767c.008-.293.073-.582.19-.85a5.71 5.71 0 01.184-.33c.071-.115.159-.218.261-.305.111-.097.235-.178.368-.242a2.13 2.13 0 01.482-.146c0 .635 0 1.334.045 1.994.044.66 0 1.32 0 1.993a2.46 2.46 0 01-.889-.571 1.995 1.995 0 01-.273-.35 3.577 3.577 0 01-.184-.349 2.605 2.605 0 01-.184-.844zm-.534-6.348v-.165a2.61 2.61 0 01.045-.45c.033-.203.079-.402.14-.598a2.3 2.3 0 01.304-.635c.14-.198.317-.369.521-.501.24-.155.515-.247.8-.267.038 1.054.07 2.102.108 3.174.038 1.073.063 2.095.082 3.175a1.967 1.967 0 01-.635-.35 3.049 3.049 0 01-.482-.514 3.51 3.51 0 01-.349-.635 7.391 7.391 0 01-.248-.634 6.954 6.954 0 01-.286-1.594v-.006z" fill="url(#paint53_linear)"/><path d="M101.463 46.155h1.543v2.52h-1.543v-2.52z" fill="url(#paint54_linear)"/><path d="M101.463 61.45h1.543v2.824h-1.543V61.45z" fill="url(#paint55_linear)"/><path d="M99.331 51.931c.002.408.047.814.133 1.213.083.419.217.826.4 1.212.18.388.413.749.692 1.073a3.42 3.42 0 001.003.793c-.34.145-.645.362-.895.635-.204.23-.374.489-.501.768a2.92 2.92 0 00-.216.756 4.738 4.738 0 00-.05.578c-.015.433.058.865.215 1.27.129.322.317.62.552.875.214.235.468.43.749.578.263.135.537.245.819.33.249.073.504.121.762.146.188.01.377.01.565 0a5.41 5.41 0 00.546-.044c.159 0 .33-.064.508-.108a1.75 1.75 0 00.495-.216 115.607 115.607 0 01-.057-3.625 108.005 108.005 0 01.432-9.694 6.342 6.342 0 00-.876-.216c-.292-.05-.553-.089-.788-.114a10.432 10.432 0 00-.787-.044c-.23.004-.459.027-.685.07a4.212 4.212 0 00-.794.247 4.56 4.56 0 00-.812.463c-.284.197-.533.44-.737.718a3.73 3.73 0 00-.508 1.003 4.29 4.29 0 00-.165 1.333zm2.394 6.774c.007-.294.072-.583.19-.851.053-.115.114-.225.184-.33.07-.117.158-.221.26-.311.112-.094.236-.173.369-.235.142-.071.294-.123.45-.153 0 .673.038 1.34.051 1.994.013.654 0 1.327 0 1.993a2.55 2.55 0 01-.508-.247 2.843 2.843 0 01-.381-.318 1.91 1.91 0 01-.273-.349 3.985 3.985 0 01-.19-.355 2.523 2.523 0 01-.152-.838zm-.54-6.349v-.165c.005-.15.02-.301.044-.45.035-.203.083-.402.146-.597.064-.227.165-.441.299-.635.142-.196.319-.366.52-.502a1.78 1.78 0 01.8-.26c.038 1.054.076 2.102.108 3.174.032 1.073.064 2.095.083 3.175a2.051 2.051 0 01-.642-.413 3.055 3.055 0 01-.825-1.111 7.061 7.061 0 01-.247-.635 7.326 7.326 0 01-.286-1.574v-.007z" fill="#FF7AE8"/><path d="M102.403 46.048h1.543v2.52h-1.543v-2.52zm0 15.299h1.543v2.825h-1.543v-2.825z" fill="#FF7AE8"/><path style="mix-blend-mode:screen" opacity=".3" d="M110.688 58.325L95.204 46.047a24.206 24.206 0 00-1.453 6.495l16.372 9.63s.489-2.641.565-3.847z" fill="url(#paint56_linear)"/><path style="mix-blend-mode:screen" opacity=".72" d="M95.204 46.047l-3.021-.253a22.447 22.447 0 00-1.499 6.456l3.067.292s.488-4.317 1.453-6.495z" fill="url(#paint57_linear)"/><path d="M95.973 67.174l-2.806.203s1.65 3.175 3.498 4.101l2.666-.101a9.427 9.427 0 01-3.358-4.203z" fill="#C44FE5" opacity=".5"/><path style="mix-blend-mode:screen" opacity=".72" d="M98.836 40.45c-1.3.17-2.576.478-3.81.92a7.84 7.84 0 011.334-1.168 11.102 11.102 0 015.859-1.066 6.76 6.76 0 00-3.383 1.314z" fill="url(#paint58_linear)"/><path d="M93.884 78.44a8.888 8.888 0 00-4.304-1.13s2.97 1.372 4.304 1.13z" fill="#fff"/><defs><linearGradient id="paint0_linear" x1="67.705" y1="19.298" x2="64.625" y2="3.315" gradientUnits="userSpaceOnUse"><stop stop-color="#45FFCD"/><stop offset="1" stop-color="#22E0FF"/></linearGradient><linearGradient id="paint1_linear" x1="61.921" y1="13.436" x2="59.291" y2="-.209" gradientUnits="userSpaceOnUse"><stop stop-color="#B9ACF4"/><stop offset="1" stop-color="#E1D1F5"/></linearGradient><linearGradient id="paint2_linear" x1="55.22" y1="52.297" x2="38.873" y2="2.202" gradientUnits="userSpaceOnUse"><stop stop-color="#CBC1F7"/><stop offset="1" stop-color="#E8DCF7"/></linearGradient><linearGradient id="paint3_linear" x1="69.601" y1="42.917" x2="27.463" y2="51.04" gradientUnits="userSpaceOnUse"><stop stop-color="#8879EA"/><stop offset="1" stop-color="#9E8CEF"/></linearGradient><linearGradient id="paint4_linear" x1="52.245" y1="51.686" x2="45.783" y2="18.163" gradientUnits="userSpaceOnUse"><stop stop-color="#9D68C2"/><stop offset="1" stop-color="#CCEDFF"/></linearGradient><linearGradient id="paint5_linear" x1="49.402" y1="51.493" x2="47.523" y2="41.744" gradientUnits="userSpaceOnUse"><stop stop-color="#8DA4E5"/><stop offset="1" stop-color="#755CBB"/></linearGradient><linearGradient id="paint6_linear" x1="48.676" y1="48.264" x2="47.495" y2="41.852" gradientUnits="userSpaceOnUse"><stop stop-color="#5E36CC"/><stop offset="1" stop-color="#6C4A96"/></linearGradient><linearGradient id="paint7_linear" x1="58.094" y1="40.308" x2="50.602" y2="1.442" gradientUnits="userSpaceOnUse"><stop stop-color="#0665BD"/><stop offset="1" stop-color="#1A1F77"/></linearGradient><linearGradient id="paint8_linear" x1="-2012.58" y1="1036.51" x2="-2006.86" y2="-95.004" gradientUnits="userSpaceOnUse"><stop stop-color="#B9ACF4"/><stop offset="1" stop-color="#E1D1F5"/></linearGradient><linearGradient id="paint9_linear" x1="24.462" y1="26.626" x2="24.592" y2=".974" gradientUnits="userSpaceOnUse"><stop stop-color="#BE9DEA"/><stop offset="1" stop-color="#9E8CEF"/></linearGradient><linearGradient id="paint10_linear" x1="-2344.22" y1="956.781" x2="-2339.18" y2="-39.43" gradientUnits="userSpaceOnUse"><stop stop-color="#45FFCD"/><stop offset="1" stop-color="#22E0FF"/></linearGradient><linearGradient id="paint11_linear" x1="-177.454" y1="2032.03" x2="-263.373" y2="1764.29" gradientUnits="userSpaceOnUse"><stop stop-color="#BE9DEA"/><stop offset="1" stop-color="#9E8CEF"/></linearGradient><linearGradient id="paint12_linear" x1="83.487" y1="43.337" x2="81.604" y2="36.922" gradientUnits="userSpaceOnUse"><stop stop-color="#DD1A8F"/><stop offset="1" stop-color="#FE117E"/></linearGradient><linearGradient id="paint13_linear" x1="82.534" y1="40.376" x2="82.381" y2="37.316" gradientUnits="userSpaceOnUse"><stop stop-color="#D93DE3"/><stop offset="1" stop-color="#FF6DBA"/></linearGradient><linearGradient id="paint14_linear" x1="-1177.71" y1="353.236" x2="-1177.71" y2="337.084" gradientUnits="userSpaceOnUse"><stop stop-color="#45FFCD"/><stop offset="1" stop-color="#22E0FF"/></linearGradient><linearGradient id="paint15_linear" x1="-535.519" y1="336.034" x2="-535.519" y2="322.568" gradientUnits="userSpaceOnUse"><stop stop-color="#45FFCD"/><stop offset="1" stop-color="#22E0FF"/></linearGradient><linearGradient id="paint16_linear" x1="68.144" y1="7.018" x2="34.739" y2="13.457" gradientUnits="userSpaceOnUse"><stop/><stop offset="1" stop-color="#6A9BFF"/></linearGradient><linearGradient id="paint17_linear" x1="-1781.91" y1="727.381" x2="-2765.09" y2="727.381" gradientUnits="userSpaceOnUse"><stop/><stop offset="1" stop-color="#6A9BFF"/></linearGradient><linearGradient id="paint18_linear" x1="-332.6" y1="2259.19" x2="-332.6" y2="1865.37" gradientUnits="userSpaceOnUse"><stop/><stop offset="1" stop-color="#6A9BFF"/></linearGradient><linearGradient id="paint19_linear" x1="23.01" y1="26.436" x2="23.047" y2="19.092" gradientUnits="userSpaceOnUse"><stop stop-color="#D4E2FF"/><stop offset="1"/></linearGradient><linearGradient id="paint20_linear" x1="29.216" y1="6.744" x2="14.825" y2="6.671" gradientUnits="userSpaceOnUse"><stop/><stop offset="1" stop-color="#D4E2FF"/></linearGradient><linearGradient id="paint21_linear" x1="74.509" y1="77.972" x2="71.018" y2="50.198" gradientUnits="userSpaceOnUse"><stop stop-color="#CBC1F7"/><stop offset="1" stop-color="#D4BEF1"/></linearGradient><linearGradient id="paint22_linear" x1="-161.629" y1="1055.67" x2="-147.745" y2="961.542" gradientUnits="userSpaceOnUse"><stop stop-color="#BE9DEA"/><stop offset="1" stop-color="#9E8CEF"/></linearGradient><linearGradient id="paint23_linear" x1="-1344.04" y1="3283.71" x2="-1344.04" y2="2256.01" gradientUnits="userSpaceOnUse"><stop stop-color="#9D68C2"/><stop offset="1" stop-color="#CCEDFF"/></linearGradient><linearGradient id="paint24_linear" x1="-1545.37" y1="2507.38" x2="-1579.18" y2="1692.35" gradientUnits="userSpaceOnUse"><stop stop-color="#CBC1F7"/><stop offset="1" stop-color="#E8DCF7"/></linearGradient><linearGradient id="paint25_linear" x1="-1177.43" y1="699.476" x2="-1489.93" y2="651.879" gradientUnits="userSpaceOnUse"><stop stop-color="#8879EA"/><stop offset="1" stop-color="#9E8CEF"/></linearGradient><linearGradient id="paint26_linear" x1="-1580.15" y1="2379.7" x2="-1460.87" y2="1596.58" gradientUnits="userSpaceOnUse"><stop stop-color="#9D68C2"/><stop offset="1" stop-color="#CCEDFF"/></linearGradient><linearGradient id="paint27_linear" x1="-3904.76" y1="856.291" x2="-3500.73" y2="-3004.03" gradientUnits="userSpaceOnUse"><stop stop-color="#CBC1F7"/><stop offset="1" stop-color="#E8DCF7"/></linearGradient><linearGradient id="paint28_linear" x1="-1491.36" y1="314.034" x2="-1200.59" y2="-662.574" gradientUnits="userSpaceOnUse"><stop stop-color="#9D68C2"/><stop offset="1" stop-color="#CCEDFF"/></linearGradient><linearGradient id="paint29_linear" x1="-2167.22" y1="-165.475" x2="-3123.61" y2="-450.225" gradientUnits="userSpaceOnUse"><stop stop-color="#BE9DEA"/><stop offset="1" stop-color="#9E8CEF"/></linearGradient><linearGradient id="paint31_linear" x1="-1079.97" y1="-468.437" x2="-1172.85" y2="-496.089" gradientUnits="userSpaceOnUse"><stop stop-color="#8879EA"/><stop offset="1" stop-color="#9E8CEF"/></linearGradient><linearGradient id="paint32_linear" x1="-1658.42" y1="-691.153" x2="-1622.48" y2="-811.849" gradientUnits="userSpaceOnUse"><stop stop-color="#8DA4E5"/><stop offset="1" stop-color="#755CBB"/></linearGradient><linearGradient id="paint33_linear" x1="-1612.05" y1="-360.787" x2="-2220.75" y2="-542.015" gradientUnits="userSpaceOnUse"><stop/><stop offset="1" stop-color="#D4E2FF"/></linearGradient><linearGradient id="paint34_linear" x1="-1025.67" y1="-29.537" x2="-1022.33" y2="-40.766" gradientUnits="userSpaceOnUse"><stop stop-color="#D4E2FF"/><stop offset="1"/></linearGradient><linearGradient id="paint35_linear" x1="-4778.97" y1="-5040.57" x2="-4072.7" y2="-6569.63" gradientUnits="userSpaceOnUse"><stop stop-color="#CBC1F7"/><stop offset="1" stop-color="#E8DCF7"/></linearGradient><linearGradient id="paint36_linear" x1="-1234.16" y1="-1152.61" x2="-1190.44" y2="-1226.34" gradientUnits="userSpaceOnUse"><stop stop-color="#BE9DEA"/><stop offset="1" stop-color="#9E8CEF"/></linearGradient><linearGradient id="paint37_linear" x1="-4846.04" y1="-5036.95" x2="-3946.51" y2="-6553.82" gradientUnits="userSpaceOnUse"><stop stop-color="#9D68C2"/><stop offset="1" stop-color="#CCEDFF"/></linearGradient><linearGradient id="paint38_linear" x1="3356.07" y1="1706.77" x2="3762.95" y2="1294.83" gradientUnits="userSpaceOnUse"><stop stop-color="#CBC1F7"/><stop offset="1" stop-color="#E8DCF7"/></linearGradient><linearGradient id="paint39_linear" x1="2833.58" y1="1605.7" x2="3062.62" y2="1300.31" gradientUnits="userSpaceOnUse"><stop stop-color="#BE9DEA"/><stop offset="1" stop-color="#9E8CEF"/></linearGradient><linearGradient id="paint40_linear" x1="738.32" y1="238.619" x2="792.566" y2="166.29" gradientUnits="userSpaceOnUse"><stop stop-color="#8DA4E5"/><stop offset="1" stop-color="#755CBB"/></linearGradient><linearGradient id="paint41_linear" x1="1758.96" y1="817.442" x2="1904.95" y2="677.566" gradientUnits="userSpaceOnUse"><stop stop-color="#CBC1F7"/><stop offset="1" stop-color="#E8DCF7"/></linearGradient><linearGradient id="paint42_linear" x1="-2964.64" y1="267.156" x2="-2766.15" y2="-1023.19" gradientUnits="userSpaceOnUse"><stop stop-color="#CBC1F7"/><stop offset="1" stop-color="#E8DCF7"/></linearGradient><linearGradient id="paint43_linear" x1="-2114.96" y1="603.318" x2="-1680.84" y2="-646.119" gradientUnits="userSpaceOnUse"><stop stop-color="#9D68C2"/><stop offset="1" stop-color="#CCEDFF"/></linearGradient><linearGradient id="paint44_linear" x1="-597.535" y1="1034.95" x2="-561.134" y2="904.172" gradientUnits="userSpaceOnUse"><stop stop-color="#BE9DEA"/><stop offset="1" stop-color="#9E8CEF"/></linearGradient><linearGradient id="paint45_linear" x1="91.484" y1="80.497" x2="90.005" y2="68.721" gradientUnits="userSpaceOnUse"><stop stop-color="#E8DCF7"/><stop offset="1" stop-color="#CBC1F7"/></linearGradient><linearGradient id="paint46_linear" x1="-235.794" y1="458.183" x2="-231.124" y2="439.831" gradientUnits="userSpaceOnUse"><stop stop-color="#BE9DEA"/><stop offset="1" stop-color="#9E8CEF"/></linearGradient><linearGradient id="paint47_linear" x1="-253.293" y1="495.069" x2="-254.172" y2="471.687" gradientUnits="userSpaceOnUse"><stop stop-color="#CBC1F7"/><stop offset="1" stop-color="#E8DCF7"/></linearGradient><linearGradient id="paint48_linear" x1="-204.554" y1="415.419" x2="-230.132" y2="482.212" gradientUnits="userSpaceOnUse"><stop stop-color="#BE9DEA"/><stop offset="1" stop-color="#9E8CEF"/></linearGradient><linearGradient id="paint49_linear" x1="-178.989" y1="4056.44" x2="-178.989" y2="2280.96" gradientUnits="userSpaceOnUse"><stop stop-color="#DD1A8F"/><stop offset="1" stop-color="#FE117E"/></linearGradient><linearGradient id="paint50_linear" x1="-23.696" y1="3969.31" x2="-622.97" y2="2460.83" gradientUnits="userSpaceOnUse"><stop stop-color="#D93DE3"/><stop offset="1" stop-color="#FF6DBA"/></linearGradient><linearGradient id="paint51_linear" x1="-14.187" y1="2995.36" x2="-381.03" y2="2056.42" gradientUnits="userSpaceOnUse"><stop stop-color="#DD1A8F"/><stop offset="1" stop-color="#FE117E"/></linearGradient><linearGradient id="paint52_linear" x1="104.506" y1="68.431" x2="99.528" y2="43.425" gradientUnits="userSpaceOnUse"><stop stop-color="#D93DE3"/><stop offset="1" stop-color="#E652AD"/></linearGradient><linearGradient id="paint53_linear" x1="43.776" y1="1346.82" x2="-15.892" y2="1346.82" gradientUnits="userSpaceOnUse"><stop stop-color="#DD1A8F"/><stop offset="1" stop-color="#FE117E"/></linearGradient><linearGradient id="paint54_linear" x1="84.078" y1="247.7" x2="80.33" y2="247.7" gradientUnits="userSpaceOnUse"><stop stop-color="#DD1A8F"/><stop offset="1" stop-color="#FE117E"/></linearGradient><linearGradient id="paint55_linear" x1="84.078" y1="356.121" x2="80.33" y2="356.121" gradientUnits="userSpaceOnUse"><stop stop-color="#DD1A8F"/><stop offset="1" stop-color="#FE117E"/></linearGradient><linearGradient id="paint56_linear" x1="110.688" y1="54.11" x2="93.751" y2="54.11" gradientUnits="userSpaceOnUse"><stop/><stop offset="1" stop-color="#FF955C"/></linearGradient><linearGradient id="paint57_linear" x1="-15.806" y1="604.138" x2="-47.988" y2="604.138" gradientUnits="userSpaceOnUse"><stop/><stop offset="1" stop-color="#FF955C"/></linearGradient><linearGradient id="paint58_linear" x1="4.76" y1="195.589" x2="-76.731" y2="195.589" gradientUnits="userSpaceOnUse"><stop/><stop offset="1" stop-color="#FF955C"/></linearGradient><radialGradient id="paint30_radial" cx="0" cy="0" r="1" gradientUnits="userSpaceOnUse" gradientTransform="matrix(-722.98678 -215.25695 231.43708 -777.33123 -2805.29 157.01)"><stop stop-color="#45FFCD"/><stop offset="1" stop-color="#22E0FF"/></radialGradient></defs></svg>