<svg width="0" height="0"><symbol fill="none" xmlns="http://www.w3.org/2000/svg" viewBox="0 0 159 60" id="logo"><path d="M20.437 53.66c0-2.643 3.76-2.563 8.395-2.563 4.636 0 8.393-.093 8.393 2.562S33.774 60 29.148 60c-4.625 0-8.711-3.686-8.711-6.34zM7.312 23.532l-3.39.46c-3.057-2.502-1.657-11.284.634-16.33a27.959 27.959 0 012.578-3.963l2.39-2.51c.218-.235.462-.446.728-.626C10.954.077 11.364.021 12.29 0a2.132 2.132 0 011.964 1.237l1.936 4.195c1.434 4.391-3.064 11.326-3.348 11.66l-4.084 4.945c-.276.333-1.192 1.707-1.447 1.495z" fill="#1F72BA"/><path d="M10.43 10.456c2.166-4.24 2.818-8.234 1.457-8.922-1.36-.689-4.22 2.19-6.384 6.43-2.166 4.239-2.818 8.233-1.457 8.921 1.361.688 4.22-2.19 6.385-6.43z" fill="#fff"/><path d="M51.332 23.81l3.39.457c3.06-2.5 1.658-11.284-.634-16.34a27.575 27.575 0 00-2.578-3.964l-2.39-2.512a4.34 4.34 0 00-.73-.626c-.69-.47-1.099-.529-2.023-.547a2.132 2.132 0 00-1.965 1.236L42.467 5.71c-1.434 4.388 3.072 11.323 3.345 11.656l4.086 4.946c.263.333 1.18 1.707 1.434 1.498z" fill="#1F72BA"/><path d="M54.596 17.164c1.36-.688.709-4.683-1.456-8.922-2.166-4.24-5.024-7.118-6.385-6.43-1.36.689-.709 4.683 1.456 8.922 2.166 4.24 5.024 7.118 6.385 6.43z" fill="#fff"/><path d="M57.837 26.6c0 9.738-12.744 9.405-28.46 9.405-15.716 0-28.464.333-28.464-9.405 0-9.74 11.665-23.281 27.387-23.281 15.72 0 29.538 13.54 29.538 23.28z" fill="#1F72BA"/><path d="M46.338 22.576c0 5.992-7.838 5.786-17.506 5.786-9.667 0-17.508.206-17.508-5.786s7.17-14.32 16.845-14.32c9.675 0 18.169 8.328 18.169 14.32z" fill="#fff"/><path d="M21.732 22.28c1.769 0 3.203-1.778 3.203-3.97 0-2.194-1.434-3.972-3.203-3.972-1.768 0-3.202 1.778-3.202 3.971s1.434 3.971 3.202 3.971zm12.403-3.506l-1.593.357a1.01 1.01 0 01-.977-.316 1 1 0 01-.189-1.005c.055-.159.119-.314.191-.468.924-1.976 2.998-2.99 4.59-2.253 1.267.589 1.876 2.126 1.594 3.725a.997.997 0 01-.522.721 1.01 1.01 0 01-.893.024l-1.564-.727a1.004 1.004 0 00-.637-.058z" fill="#1F72BA"/><path d="M21.413 16.968c.317-.547.215-1.197-.228-1.451-.443-.255-1.06-.018-1.377.53-.317.546-.216 1.197.228 1.451.443.255 1.06.017 1.377-.53zm12.644-.021c.463-.383.693-.868.512-1.084-.18-.215-.701-.08-1.164.303-.463.383-.692.868-.512 1.084.18.216.701.08 1.164-.303z" fill="#fff"/><path d="M28.612 36.904c-6.58 0-12.402-.066-15.968 1.056 1.24 1.586 2.031 3.963 2.031 6.653a12.38 12.38 0 01-.751 4.299 24.875 24.875 0 005.889 3.376c.034-.08.074-.159.122-.232.507-1.926 4.277-1.85 8.86-1.85 4.925 0 8.919-.082 8.919 2.325v.156a24.747 24.747 0 005.764-3.324 12.378 12.378 0 01-.74-4.293c0-2.856.897-5.384 2.275-6.946-3.51-1.292-9.545-1.22-16.401-1.22z" fill="#1F72BA"/><path d="M28.832 42.256c.838 0 1.517-.675 1.517-1.508s-.68-1.509-1.517-1.509c-.837 0-1.516.676-1.516 1.509 0 .833.68 1.508 1.517 1.508zm0 4.809c.838 0 1.517-.676 1.517-1.509 0-.833-.68-1.508-1.517-1.508-.837 0-1.516.675-1.516 1.508s.68 1.509 1.517 1.509z" fill="#fff"/><path d="M8.189 52.8c3.045 0 5.514-3.585 5.514-8.007 0-4.423-2.469-8.008-5.514-8.008-3.046 0-5.515 3.585-5.515 8.008 0 4.422 2.469 8.008 5.515 8.008zm41.093 0c3.046 0 5.515-3.585 5.515-8.007 0-4.423-2.469-8.008-5.515-8.008-3.045 0-5.514 3.585-5.514 8.008 0 4.422 2.469 8.008 5.514 8.008zm19.054-7.283v2.85a4.72 4.72 0 00-.714-.058c-1.11 0-1.664.561-1.662 1.683v3.464h-3.24v-7.797h3.08v.84c.574-.655 1.419-.982 2.536-.982zm9.142 4.787h-5.444c.104.287.305.53.569.687a1.97 1.97 0 001.003.235c.294.008.587-.036.866-.13.276-.108.535-.256.767-.44l1.691 1.695c-.764.835-1.906 1.254-3.425 1.255a5.672 5.672 0 01-2.493-.528 3.946 3.946 0 01-1.66-1.448 4.007 4.007 0 010-4.169c.389-.614.94-1.11 1.594-1.432a5.261 5.261 0 014.44-.042 3.687 3.687 0 011.56 1.382c.401.655.603 1.412.582 2.18-.008.05-.021.3-.05.755zm-5.072-2.322c-.23.197-.383.47-.43.768h2.522a1.32 1.32 0 00-.43-.76 1.25 1.25 0 00-.83-.28 1.274 1.274 0 00-.832.272zm7.958 5.104a4.027 4.027 0 01-1.65-1.44 3.81 3.81 0 01-.591-2.098 3.766 3.766 0 01.592-2.087 4.01 4.01 0 011.649-1.432 5.353 5.353 0 012.39-.512 4.656 4.656 0 012.45.612 3.175 3.175 0 011.405 1.697l-2.51 1.225c-.304-.685-.757-1.027-1.359-1.027a1.271 1.271 0 00-.953.399 1.58 1.58 0 00-.38 1.125c-.027.415.109.825.38 1.142a1.254 1.254 0 00.953.399c.6 0 1.053-.342 1.36-1.026l2.509 1.226a3.195 3.195 0 01-1.405 1.697 4.684 4.684 0 01-2.45.612 5.388 5.388 0 01-2.39-.512zm12.599-7.569v2.85a4.715 4.715 0 00-.717-.058c-1.107 0-1.66.561-1.66 1.683v3.464h-3.24v-7.797h3.08v.84c.574-.655 1.42-.982 2.537-.982zm9.484.143v7.796h-3.08v-.743c-.284.29-.629.514-1.01.656-.387.148-.8.224-1.215.221a3.222 3.222 0 01-2.39-.906c-.605-.6-.908-1.507-.908-2.72v-4.305h3.237v3.747c-.032.398.06.797.265 1.14a.894.894 0 00.76.344.989.989 0 00.796-.377c.24-.35.35-.77.316-1.192v-3.662h3.229zm1.641-1.092a1.552 1.552 0 010-2.354c.397-.32.898-.485 1.409-.462a2.149 2.149 0 011.418.44 1.421 1.421 0 01.531 1.142 1.563 1.563 0 01-.531 1.218 2.032 2.032 0 01-1.418.478 2.08 2.08 0 01-1.409-.462zm-.21 1.091h3.242v7.797h-3.24l-.002-7.797zm10.445 7.525a4.041 4.041 0 01-1.991.414c-1.099 0-1.945-.264-2.536-.792-.591-.529-.887-1.321-.889-2.378v-1.995h-1.062V46.08h1.062V43.9h3.239v2.18h1.593v2.354h-1.593V50.4a.792.792 0 00.186.557.63.63 0 00.486.199c.26.005.514-.07.73-.214l.775 2.243zm8.895-2.88h-5.443c.107.285.309.525.574.679.306.166.652.247 1.001.235.294.008.588-.036.868-.13a3.06 3.06 0 00.767-.44l1.689 1.695c-.765.835-1.906 1.254-3.423 1.255a5.674 5.674 0 01-2.493-.528 3.938 3.938 0 01-1.662-1.448 3.796 3.796 0 01-.587-2.082 3.85 3.85 0 01.579-2.087 3.971 3.971 0 011.593-1.432 5.265 5.265 0 014.442-.042 3.702 3.702 0 011.561 1.382c.4.656.601 1.413.579 2.18-.002.058-.016.309-.045.763zm-5.071-2.322a1.27 1.27 0 00-.43.768h2.522a1.3 1.3 0 00-.43-.76 1.25 1.25 0 00-.831-.28 1.273 1.273 0 00-.831.272zm11.746-2.465v2.85a4.716 4.716 0 00-.714-.058c-1.11 0-1.664.561-1.662 1.683v3.464h-3.239v-7.797h3.08v.84c.573-.655 1.418-.982 2.535-.982zm11.662.919a3.387 3.387 0 011.327 1.34 4.221 4.221 0 010 3.912 3.46 3.46 0 01-1.327 1.34 3.734 3.734 0 01-1.891.483 3.52 3.52 0 01-1.813-.475 3.266 3.266 0 01-1.253-1.334v1.754h-.688V42.888h.717v4.832a3.228 3.228 0 011.248-1.29 3.507 3.507 0 011.789-.462 3.758 3.758 0 011.891.468zm-.385 6.037c.456-.265.83-.65 1.08-1.112a3.548 3.548 0 000-3.25 2.855 2.855 0 00-1.08-1.112 3.026 3.026 0 00-1.548-.4 2.98 2.98 0 00-1.54.4c-.455.265-.827.65-1.076 1.112a3.56 3.56 0 000 3.25c.25.461.622.846 1.076 1.112.468.269 1 .407 1.54.399a3.048 3.048 0 001.548-.399zm5.421.555a3.49 3.49 0 01-1.327-1.348 4.142 4.142 0 010-3.891 3.527 3.527 0 011.327-1.348 4.02 4.02 0 013.824 0 3.55 3.55 0 011.341 1.348 4.141 4.141 0 010 3.891 3.51 3.51 0 01-1.341 1.348 4.022 4.022 0 01-3.824 0zm3.452-.555c.454-.266.826-.65 1.075-1.112a3.549 3.549 0 000-3.25 2.862 2.862 0 00-1.075-1.112 3.17 3.17 0 00-3.08 0 2.86 2.86 0 00-1.062 1.112 3.56 3.56 0 000 3.25c.246.46.613.844 1.062 1.112a3.17 3.17 0 003.08 0zm8.13.513a1.805 1.805 0 01-.68.39 2.71 2.71 0 01-.852.135 2.027 2.027 0 01-1.505-.528 2.028 2.028 0 01-.531-1.49v-4.861h-1.376v-.613h1.376v-1.633h.717v1.625h2.389v.613h-2.389v4.79c-.029.399.096.794.35 1.104a1.334 1.334 0 001.038.378 1.67 1.67 0 001.161-.413l.302.503zm-74.4-23.076h-9.888l-1.747 4.513h-8.921L74.59 8.53h8.633l11.374 25.892H85.52l-1.747-4.513zm-2.408-6.288l-2.528-6.51-2.528 6.51h5.056zM95.742 6.978h8.401v27.445h-8.4V6.978zM108.4 11.36a3.836 3.836 0 01-1.394-3.052 3.849 3.849 0 011.394-3.05c.929-.8 2.149-1.2 3.661-1.202 1.512-.002 2.738.38 3.68 1.146a3.699 3.699 0 011.375 2.96 4.074 4.074 0 01-1.375 3.17c-.917.828-2.143 1.24-3.68 1.239-1.536-.002-2.757-.405-3.661-1.21zm-.531 2.83h8.4v20.233h-8.408l.008-20.233zm27.09 19.53c-1.264.715-2.986 1.073-5.167 1.073-2.851 0-5.045-.685-6.579-2.053-1.535-1.369-2.303-3.422-2.305-6.159v-5.18h-2.788V15.3h2.788V9.64h8.401v5.66h4.163v6.1h-4.163v5.105a2.02 2.02 0 00.483 1.442 1.644 1.644 0 001.264.529 3.305 3.305 0 001.896-.555l2.007 5.799zm19.404-17.514c1.884 1.585 2.825 4.033 2.825 7.342v10.875h-7.806V31.76c-.966 2.023-2.887 3.034-5.762 3.033a9.223 9.223 0 01-4.107-.832 5.883 5.883 0 01-2.54-2.216 5.845 5.845 0 01-.899-3.24c0-1.998.769-3.514 2.305-4.55 1.536-1.035 3.866-1.553 6.988-1.553h3.383c-.272-1.585-1.549-2.378-3.829-2.378a9.649 9.649 0 00-2.788.425 7.926 7.926 0 00-2.416 1.165l-2.676-5.498a14.843 14.843 0 014.219-1.682 20.477 20.477 0 014.925-.61c3.569-.003 6.295.792 8.178 2.382zm-6.619 13.076a2.78 2.78 0 001.041-1.443v-1.406h-2.082c-1.71 0-2.565.568-2.565 1.702a1.456 1.456 0 00.531 1.165c.416.328.939.493 1.468.462a2.767 2.767 0 001.607-.48z" fill="#1F72BA"/></symbol><symbol xmlns="http://www.w3.org/2000/svg" xmlns:xlink="http://www.w3.org/1999/xlink" viewBox="0 0 169.09 231.82" id="advantages-item1"><defs><linearGradient id="m" x1="36.55" y1="-1016.06" x2="201.97" y2="717.02" gradientTransform="matrix(1 0 0 -1 0 234)" gradientUnits="userSpaceOnUse"><stop offset="0"/><stop offset="1" stop-color="#393091"/></linearGradient><linearGradient id="a" x1="-1152.68" y1="-6306.19" x2="-924.83" y2="-5100.09" gradientTransform="matrix(1 0 0 -1 0 234)" gradientUnits="userSpaceOnUse"><stop offset="0" stop-color="#cbc1f7"/><stop offset="1" stop-color="#e8dcf7"/></linearGradient><linearGradient id="n" x1="-1630.97" y1="-7540.75" x2="-1214.67" y2="-5693.39" xlink:href="#a"/><linearGradient id="b" x1="52.52" y1="-2203.29" x2="52.52" y2="-2022.59" gradientTransform="matrix(1 0 0 -1 0 234)" gradientUnits="userSpaceOnUse"><stop offset="0" stop-color="#be9dea"/><stop offset="1" stop-color="#9e8cef"/></linearGradient><linearGradient id="o" x1="84.25" y1="-2635.71" x2="84.25" y2="-2380.24" xlink:href="#b"/><linearGradient id="c" x1="52.55" y1="-6834.42" x2="52.55" y2="-5544.24" gradientTransform="matrix(1 0 0 -1 0 234)" gradientUnits="userSpaceOnUse"><stop offset="0" stop-color="#9d68c2"/><stop offset="1" stop-color="#ccedff"/></linearGradient><linearGradient id="p" x1="84.31" y1="-8089.41" x2="84.31" y2="-6348.5" xlink:href="#c"/><linearGradient id="q" x1="-1877.03" y1="-8219.15" x2="-1138.46" y2="-4999.98" xlink:href="#a"/><linearGradient id="r" x1="23.91" y1="-1412.59" x2="23.91" y2="-1325.3" xlink:href="#b"/><linearGradient id="s" x1="31.37" y1="-7782.32" x2="31.37" y2="-5337.25" xlink:href="#c"/><linearGradient id="t" x1="-1298.1" y1="-5407.58" x2="-1059.48" y2="-4418.91" xlink:href="#a"/><linearGradient id="u" x1="28.04" y1="-5242.3" x2="28.04" y2="-4420.91" xlink:href="#b"/><linearGradient id="f" x1="27.69" y1="-1879.62" x2="27.69" y2="-1757.3" gradientTransform="matrix(1 0 0 -1 0 234)" gradientUnits="userSpaceOnUse"><stop offset="0" stop-color="#8da4e5"/><stop offset="1" stop-color="#755cbb"/></linearGradient><linearGradient id="v" x1="-810.35" y1="-2928.77" x2="-716.26" y2="-2593" xlink:href="#a"/><linearGradient id="d" x1="33.17" y1="-1630.81" x2="33.17" y2="-479.31" gradientTransform="matrix(1 0 0 -1 0 234)" gradientUnits="userSpaceOnUse"><stop offset="0" stop-color="#b9acf4"/><stop offset="1" stop-color="#e1d1f5"/></linearGradient><linearGradient id="w" x1="30.7" y1="-663.3" x2="30.7" y2="-217.42" xlink:href="#b"/><linearGradient id="x" x1="104.13" y1="-1630.81" x2="104.13" y2="-479.31" xlink:href="#d"/><linearGradient id="y" x1="106.67" y1="-503.13" x2="106.67" y2="-162.89" xlink:href="#b"/><linearGradient id="e" x1="111.32" y1="-1654.69" x2="111.32" y2="-543.33" gradientTransform="matrix(1 0 0 -1 0 234)" gradientUnits="userSpaceOnUse"><stop offset="0" stop-color="#45ffcd"/><stop offset="1" stop-color="#22e0ff"/></linearGradient><linearGradient id="z" x1="26.02" y1="-1654.69" x2="26.02" y2="-543.33" xlink:href="#e"/><linearGradient id="A" x1="-787.91" y1="-7579.22" x2="30.72" y2="-180.94" xlink:href="#a"/><linearGradient id="B" x1="68.53" y1="-4529.05" x2="68.53" y2="-917.1" gradientTransform="matrix(1 0 0 -1 0 234)" gradientUnits="userSpaceOnUse"><stop offset="0" stop-color="#0665bd"/><stop offset="1" stop-color="#1a1f77"/></linearGradient><linearGradient id="C" x1="68.82" y1="-5020.78" x2="68.82" y2="-2400.33" xlink:href="#c"/><linearGradient id="g" x1="3747.75" y1="140.98" x2="8359.25" y2="140.98" gradientTransform="matrix(1 0 0 -1 0 234)" gradientUnits="userSpaceOnUse"><stop offset="0" stop-color="#8879ea"/><stop offset="1" stop-color="#9e8cef"/></linearGradient><linearGradient id="D" x1="67.57" y1="-795.28" x2="67.57" y2="-702.76" xlink:href="#f"/><linearGradient id="E" x1="57.55" y1="-490.3" x2="58.81" y2="-415.01" gradientTransform="matrix(1 0 0 -1 0 234)" gradientUnits="userSpaceOnUse"><stop offset="0" stop-color="#5e36cc"/><stop offset="1" stop-color="#6c4a96"/></linearGradient><linearGradient id="F" x1="-1894.79" y1="-11455.24" x2="-952.03" y2="-5906.39" xlink:href="#a"/><linearGradient id="G" x1="1041.32" y1="125.16" x2="1122.97" y2="125.16" xlink:href="#g"/><linearGradient id="H" x1="-445.58" y1="-4277.11" x2="-189.95" y2="-2232.55" xlink:href="#a"/><linearGradient id="I" x1="33.02" y1="-1049.23" x2="33.02" y2="-867.69" xlink:href="#f"/><linearGradient id="J" x1="123.91" y1="-1329.91" x2="123.91" y2="-1049.98" xlink:href="#b"/><linearGradient id="K" x1="87.2" y1="-502.15" x2="87.2" y2="-294.58" xlink:href="#e"/><linearGradient id="L" x1="49.53" y1="-502.15" x2="49.53" y2="-294.58" xlink:href="#e"/><linearGradient id="M" x1="-442.42" y1="-2720.62" x2="-201.29" y2="-1202.46" xlink:href="#b"/><linearGradient id="N" x1="64.08" y1="286.12" x2="88.88" y2="394.65" gradientTransform="matrix(1 0 0 -1 0 234)" gradientUnits="userSpaceOnUse"><stop offset="0" stop-color="#dd1a8f"/><stop offset="1" stop-color="#fe117e"/></linearGradient><linearGradient id="h" x1="3785.8" y1="201.73" x2="7706.13" y2="201.73" gradientTransform="matrix(1 0 0 -1 0 234)" gradientUnits="userSpaceOnUse"><stop offset="0"/><stop offset="1" stop-color="#6a9bff"/></linearGradient><linearGradient id="O" x1="3102.47" y1="162.1" x2="5081.2" y2="162.1" xlink:href="#h"/><linearGradient id="P" x1="112.09" y1="110.73" x2="112.09" y2="112.63" xlink:href="#c"/><linearGradient id="Q" x1="68.25" y1="-10015.1" x2="68.25" y2="-6412.13" xlink:href="#c"/><linearGradient id="R" x1="67.66" y1="-7818.58" x2="67.66" y2="-5582.49" xlink:href="#b"/><linearGradient id="T" x1="67.19" y1="-1443.37" x2="67.19" y2="-1229.23" xlink:href="#f"/><linearGradient id="j" x1="68.83" y1="-1281.43" x2="68.83" y2="-1214.44" gradientTransform="matrix(1 0 0 -1 0 234)" gradientUnits="userSpaceOnUse"><stop offset="0" stop-color="#d4e2ff"/><stop offset="1"/></linearGradient><linearGradient id="U" x1="107.16" y1="-4844.88" x2="107.16" y2="-3004.75" xlink:href="#c"/><linearGradient id="V" x1="-345.62" y1="-2026.2" x2="-96.04" y2="-874.35" xlink:href="#a"/><linearGradient id="W" x1="126.68" y1="-1533.4" x2="126.68" y2="-1002.33" xlink:href="#b"/><linearGradient id="X" x1="125.93" y1="-760.75" x2="125.93" y2="-582.36" xlink:href="#f"/><linearGradient id="Y" x1="-194.22" y1="-799.4" x2="-81.71" y2="-453.16" xlink:href="#a"/><linearGradient id="Z" x1="130.95" y1="-807.74" x2="130.95" y2="-644.68" xlink:href="#b"/><linearGradient id="aa" x1="34.61" y1="-195.31" x2="34.61" y2="-172.89" gradientTransform="matrix(1 0 0 -1 0 234)" gradientUnits="userSpaceOnUse"><stop offset="0" stop-color="#d93de3"/><stop offset="1" stop-color="#ff6dba"/></linearGradient><linearGradient id="ab" x1="33.25" y1="-1326.97" x2="33.25" y2="-829.81" gradientTransform="matrix(1 0 0 -1 0 234)" gradientUnits="userSpaceOnUse"><stop offset="0"/><stop offset="1" stop-color="#00e3ff"/></linearGradient><linearGradient id="i" x1="2944.43" y1="103.4" x2="4696.31" y2="103.4" gradientTransform="matrix(1 0 0 -1 0 234)" gradientUnits="userSpaceOnUse"><stop offset="0"/><stop offset="1" stop-color="#d4e2ff"/></linearGradient><linearGradient id="ac" x1="147.74" y1="233.98" x2="147.74" y2="192.49" gradientTransform="matrix(1 0 0 -1 0 234)" gradientUnits="userSpaceOnUse"><stop offset="0" stop-color="#42e8e0"/><stop offset="1" stop-color="#40b6cb"/></linearGradient><linearGradient id="ad" x1="1228.05" y1="203.65" x2="1306.08" y2="203.65" xlink:href="#i"/><linearGradient id="ae" x1="433.93" y1="204.96" x2="528.66" y2="204.96" xlink:href="#j"/><linearGradient id="af" x1="2.43" y1="-400.11" x2="4.74" y2="-280.27" xlink:href="#a"/><radialGradient id="k" cx="-830.42" cy="673.34" r="1" gradientTransform="matrix(0 9.71 53.48 0 -35945.24 8282.75)" gradientUnits="userSpaceOnUse"><stop offset="0" stop-color="#e8dcf7"/><stop offset="1" stop-color="#c4c4c4" stop-opacity="0"/></radialGradient><radialGradient id="l" cx="-873.72" cy="656.4" r="1" gradientTransform="matrix(3177.19 0 0 -709.22 2783307.17 464444.85)" gradientUnits="userSpaceOnUse"><stop offset="0" stop-color="#be9dea"/><stop offset=".39" stop-color="#e0bff5"/><stop offset="1" stop-color="#fff"/></radialGradient><radialGradient id="S" cx="-873.52" cy="656.75" r="1" gradientTransform="matrix(1829.73 0 0 -1706.23 1602817.87 1128334.67)" xlink:href="#e"/></defs><ellipse cx="65.84" cy="222.12" rx="53.48" ry="9.71" fill="url(#k)"/><path d="M85 231c21.51 0 38.94-3.89 38.94-8.69s-17.43-8.7-38.94-8.7-39 3.89-39 8.7S63.44 231 85 231z" transform="translate(0 -.02)" opacity=".5" fill="url(#l)"/><path d="M166.2 1.17l2.89 1.2-2.89 31.26-2.49 1.06L150.07 36l-1 5.5-9.92-7.88z" transform="translate(0 -.02)" fill="url(#m)"/><path d="M64 168c-1.18 6.65-6.42 22-11.12 20.39-1-.35-2.07-1.59-3.12-3.41-3.22-5.54-6.38-16.44-7.94-23.81-.86-4-1.25-7-.9-7.48 2.1-3 22 10 23.18 11.42.26.3.21 1.37-.1 2.89z" transform="translate(0 -.02)" fill="url(#a)"/><path d="M95.53 159.05c-.08.62-.17 1.26-.25 1.92-1.41 10.1-4.31 24.89-7.44 30.31-.74 1.29-1.51 2-2.26 2.06a1.59 1.59 0 01-.61-.09 5 5 0 01-2.2-1.57C78 186.55 72.67 171 72.49 166.32a2.09 2.09 0 01.17-1.18c2.7-3.54 22.27-15.6 23.34-14.14.31.35.09 3.56-.47 8.05z" transform="translate(0 -.02)" fill="url(#n)"/><path d="M41 153.71c-2.2 2.78 15.74 15.32 23.31 12-.04.05-20.42-15.71-23.31-12z" transform="translate(0 -.02)" fill="url(#b)"/><path d="M72.49 166.31c-.6 1.42 20.13-1.83 23.53-15.32C96 151 78.1 153 72.49 166.31z" transform="translate(0 -.02)" fill="url(#o)"/><path d="M48.8 165.37c-1 1.21.24 16.76 4.11 23-1-.35-2.07-1.59-3.12-3.41-.64-2.73-1.57-6.77-2.46-10.8a48.13 48.13 0 00-5.47-13c-.86-4-1.25-7-.9-7.48 2.1-3 22 10 23.18 11.42.22.28.17 1.35-.11 2.88-.03.02-14.23-3.8-15.23-2.61z" transform="translate(0 -.02)" opacity=".3" fill="url(#c)"/><path d="M83.85 170.98c-.84.26-1 6.77.37 7.12s1.59-7.67-.37-7.12z" fill="#fff"/><path d="M95.53 159.05s-11.33 3.24-14 8.43-1.59 17.52 1.24 24.19C78 186.54 72.67 171 72.49 166.31a2.09 2.09 0 01.17-1.18c2.7-3.54 22.27-15.6 23.36-14.17.29.39.07 3.6-.49 8.09z" transform="translate(0 -.02)" opacity=".3" fill="url(#p)"/><path d="M46.56 108.1c0 5.74-.86 14.11-3.57 20.85-4.5 11.17-11.25 25.22-11.46 25.65-4.12 2.42-9 2.3-12.2 1.86a21.12 21.12 0 01-3.14-.66 89.36 89.36 0 018.68-27.27 110.45 110.45 0 0112.34-19v-.08l.15-.19.09-.1.07-.09.11-.13c4.08-5 7.39-8 8.09-7.66.48.16.85 2.89.84 6.82z" transform="translate(0 -.02)" fill="url(#q)"/><path d="M16.24 155.31S21.55 146.86 27 148s4.49 6.7 4.49 6.7a15.57 15.57 0 01-15.28.65z" transform="translate(0 -.02)" fill="url(#r)"/><path d="M46.56 108.1c0 5.74-.86 14.11-3.57 20.85-4.5 11.17-11.25 25.22-11.46 25.65l-12.21 1.87a21.12 21.12 0 01-3.14-.66 89.27 89.27 0 018.68-27.27 110.45 110.45 0 0112.34-19c-2.29 2.92-11.92 15.67-14.51 26.47-3 12.32 8.93 7.57 13.79 0s9.93-27.91 9.93-27.91z" transform="translate(0 -.02)" opacity=".3" fill="url(#s)"/><path d="M33.28 127.77c-1-.35 4-11.27 5.58-11.36s-4.76 11.66-5.58 11.36zm-.51 1.21c-.76-.38-1.48 1.66-.78 1.92s1.65-1.52.78-1.92z" fill="#fff"/><path d="M25.26 150.5c-2.84-.45-7 2.12-8.24 4.42s-2 15.53 1.28 26.46c0 0 4.58 1.2 8 0s5.82-10.85 6-18.1-2.36-12.04-7.04-12.78z" transform="translate(0 -.02)" fill="url(#t)"/><path d="M24.83 181.74s-4.17-23.28 5.32-28c0 0 2.82 4.62 1.78 13.63s-2.66 13.55-7.1 14.37z" transform="translate(0 -.02)" fill="url(#u)"/><path d="M24.15 168.82s2.44 3.45 4.11 4a4.33 4.33 0 003 0l-6.15-10.53a25.74 25.74 0 00-.96 6.53z" transform="translate(0 -.02)" opacity=".5" fill="url(#f)"/><path d="M25.07 162.22s1.35-6.45 5.39-8c0 0 3.75 3.57 2.8 17.45 0 0-2.09 2.66-5 0a33.93 33.93 0 01-3.19-9.45z" transform="translate(0 -.02)" fill="url(#v)"/><path d="M27.37 159.89c-1.37 0 .72 5.86 1.43 5.75s-.28-5.75-1.43-5.75z" fill="#fff"/><path d="M43 26.09S36.77 20.92 29.18 20c0 0-2.33 1.1-5 9.17s2.27 24 2.27 24z" transform="translate(0 -.02)" fill="url(#d)"/><path d="M26.23 24.05a11.93 11.93 0 013-4s6.24 5.57 5.95 18.86l-1.79 1.8z" transform="translate(0 -.02)" fill="url(#w)"/><path d="M94.35 26.09s6.22-5.17 13.81-6.07c0 0 2.33 1.1 5 9.17s-2.27 24-2.27 24z" transform="translate(0 -.02)" fill="url(#x)"/><path d="M108.16 20A25.36 25.36 0 00102 36.62l2.38 1.44 6.94-13.82S109 19.9 108.16 20z" transform="translate(0 -.02)" fill="url(#y)"/><path d="M104.17 37.36s-1.64-8.75 4.33-15.17c0 0 6.75 3.06 9.54 14.43a19.29 19.29 0 01-4.48 18.19z" transform="translate(0 -.02)" fill="url(#e)"/><path d="M33.17 37.36s1.64-8.75-4.33-15.17c0 0-6.75 3.06-9.54 14.43a19.26 19.26 0 004.48 18.19z" transform="translate(0 -.02)" fill="url(#z)"/><path d="M112.45 85.72c-13.9 18.74-79 17.35-87.44 2.2-5.53-9.9-5-24.78.41-38.47 6.95-18 22.11-33.92 42.17-33.92 23.62 0 41.76 22.7 47.23 43.42 2.76 10.49 2.28 20.47-2.37 26.77z" transform="translate(0 -.02)" fill="url(#A)"/><path d="M29.87 68.33C33 81.09 90.2 82.48 104.26 70.91s-6.19-52.66-37.19-50.86c-28.36 1.65-42.28 27.37-37.2 48.28z" fill="#dfe3fb"/><path d="M29.58 66.8C32.67 79.56 89.91 81 104 69.38s-6.22-52.66-37.23-50.86C38.41 20.13 24.49 45.89 29.58 66.8z" transform="translate(0 -.02)" fill="url(#B)"/><path d="M112.45 85.72c-13.9 18.74-79 17.35-87.44 2.2-5.53-9.9-5-24.78.41-38.47-.23.8-5.68 20-.11 28.44 5.7 8.62 28.23 7.44 52.42 6.45S109.92 80 114 73.36c3.2-5.18 0-16.6-1.52-21.22l2.34 6.86c2.76 10.44 2.28 20.42-2.37 26.72z" transform="translate(0 -.02)" opacity=".3" fill="url(#C)"/><path d="M67.66 99.52c-13.54 0-23.29-1.48-28.78-3.59-3.59-1.39-5.32-3-5.06-4.73.14-1 2.8-1.91 6.94-2.68 12.3-2.15 37.72-2.8 51.44-.8 1.18.18 2.27.37 3.26.58l.62.14h.12c2.36.56 4 1.25 4.78 2.08a1.88 1.88 0 01.39.65c1.35 4.26-21.48 8.36-33.71 8.35z" transform="translate(0 -.02)" fill="url(#g)"/><path d="M101.29 90.16a1.29 1.29 0 01-.23.39c-1.33 1.81-6.7 4.14-6.7 4.14S73.7 86.54 57 90.16 39 95.9 39 95.9c-3.59-1.39-5.32-3-5.07-4.73.15-1 2.81-1.91 7-2.68 12.3-2.15 37.72-2.8 51.44-.79 1.44.24 2.74.48 3.88.71h.12c3.15.74 5.04 1.33 4.92 1.75z" transform="translate(0 -.02)" opacity=".5" fill="url(#D)"/><path d="M95.54 88.3c-3.19 3-18.54 5.55-27.28 5.49-15.68 0-25.2-2.4-27.42-5.27 13.35-2.33 42.22-2.9 54.7-.22z" transform="translate(0 -.02)" fill="url(#E)"/><path d="M94.56 147.47c-1.89 10.76-11.91 17.93-26.2 17.93-12.47 0-23-4.48-25.81-14.36s-1.71-28.12 2-39.48a37.1 37.1 0 012-4.89 34.89 34.89 0 012.35-4c4.6-6.65 11.26-11 18.79-11a23.47 23.47 0 019.83 1.89 22.7 22.7 0 018 5.77 25.25 25.25 0 014.48 7.26 70.64 70.64 0 013.08 9.5v.1a77.64 77.64 0 011.48 31.28z" transform="translate(0 -.02)" fill="url(#F)"/><path d="M84.78 98.55s1.22 12.78 9 20.57c.01 0-2.15-11.92-9-20.57z" transform="translate(0 -.02)" fill="url(#G)"/><path d="M128.79 82.93A69.34 69.34 0 0195 114.23c-5.92-3.69-11-15.75-9-18.11a1 1 0 01.37-.28c26.26-12.12 34.11-24.68 34.11-24.68a8 8 0 014 1.32 7.65 7.65 0 012.71 3.18 16.76 16.76 0 011.6 7.27z" transform="translate(0 -.02)" fill="url(#H)"/><path d="M25 87.92a26.58 26.58 0 018.18-5.56c5.39-2.49 10.35-4.44 11.12-6.44s-14.8-.82-14.8-.82l-7.74 3.24s1.24 6 3.24 9.58z" transform="translate(0 -.02)" opacity=".5" fill="url(#I)"/><path d="M120.52 71.16c-2.19.57-2 14.56.82 16s7.45-4.18 7.45-4.18-.52-13.81-8.27-11.82z" transform="translate(0 -.02)" fill="url(#J)"/><path d="M79.07 46.14c2.06 3.52 15.76.39 16.53-1.69 1-2.8-2.79-11.57-10-10.77s-7.54 10.76-6.53 12.46z" transform="translate(0 -.02)" fill="url(#K)"/><path d="M57.67 46.14c-2.08 3.52-15.78.39-16.54-1.69-1-2.8 2.79-11.57 10-10.77s7.54 10.76 6.54 12.46z" transform="translate(0 -.02)" fill="url(#L)"/><path d="M53.85 52.6s3.89 3.89 15 3.89 16.73-4.51 16.73-4.51-4.89 6.41-16.76 6.41-14.97-5.79-14.97-5.79z" fill="#2f95cd"/><path d="M18.67 40.68s4 2.49 1.38 8.26c0 0-18.76 9.85-17.67 20.59.9 9 26.8 4.63 26.8 4.63l.92 3S8.11 81.3.51 76.3c0 0-2.58-5.91 3.83-16.58a124.17 124.17 0 0114.33-19.04z" transform="translate(0 -.02)" fill="url(#M)"/><path d="M25.91 73.32c-2.36 2.58 2.65 5.4 6.77 5.84 4.63.47 12.85-1.29 12.35-5.75s-13.58-6.13-19.12-.09z" transform="translate(0 -.02)" fill="url(#N)"/><path d="M39 34.49c-.72 4.14 8.82 4 21.83 3.54 15.61-.49 31.29 12.45 40.42 3.16 1.5-1.53-13.44-21.65-31.47-21.2S39.58 30.94 39 34.49z" transform="translate(0 -.02)" opacity=".5" fill="url(#h)"/><path d="M47.81 70.53c-.82 3 5.68 6 21.66 5.24 19.31-1 23.41-4.79 22.46-5.9-.57-.65-6.35 2.87-22.21-.49-10.48-2.22-21.04-2-21.91 1.15z" transform="translate(0 -.02)" opacity=".5" fill="url(#O)"/><path d="M112.33 51.73l-.47-1.35c.07.25.25.71.47 1.35z" transform="translate(0 -.02)" opacity=".3" fill="url(#P)"/><path d="M94.56 147.47c-1.89 10.76-11.91 17.93-26.2 17.93-12.47 0-23-4.48-25.81-14.36s-1.71-28.12 2-39.48a37.1 37.1 0 012-4.89S39 130.8 45 146.18s34.14 15 43.67 4.78c9-9.72 4.87-32.55 4.44-34.72a77.57 77.57 0 011.45 31.23z" transform="translate(0 -.02)" opacity=".3" fill="url(#Q)"/><path d="M43.07 141c2.13-14.44 14.15-24.24 27.49-23 14.38 1.31 22.12 14.56 21.92 25.92s-8.83 20.24-24.26 20.24-27.15-9.6-25.15-23.16z" transform="translate(0 -.02)" fill="url(#R)"/><path d="M43.2 142.24c2.14-14.45 14.15-24.24 27.5-23 14.38 1.31 22.11 14.56 21.91 25.93s-8.82 20.24-24.25 20.24-27.15-9.65-25.16-23.17z" transform="translate(0 -.02)" fill="url(#S)"/><path d="M85.58 99.41c-3 4.62-19.85 7.3-29.56 6.45-8.46-.75-7.17-3-7.11-3.23C53.47 96 60.13 91.7 67.66 91.7a23.62 23.62 0 019.86 1.9 22.79 22.79 0 018.06 5.81z" transform="translate(0 -.02)" opacity=".5" fill="url(#T)"/><path d="M79.57 107.39c-.78.25-.82 6.33 0 7.3s2.13.68 2.56-.75-1.34-6.96-2.56-6.55zm1.48 8.92c-.65.15-.72 1.66-.43 2.19a1 1 0 00.4.25 1.11 1.11 0 00.48 0 1 1 0 00.44-.17.92.92 0 00.3-.35c.18-.61-.53-2.07-1.19-1.92z" fill="#fff"/><path d="M51.65 157s3.45 5.83 16.29 5.83S86 155.46 86 155.46a19 19 0 01-7 2.14 19.36 19.36 0 01-7.34-.64c-8.52-2.23-16.9-3.5-20.01.04z" transform="translate(0 -.02)" opacity=".72" fill="url(#j)"/><path d="M78.64 18.2c-1.37.3 10.14 6.17 10.61 5.47s-6.81-6.37-10.61-5.47zm22.05 4.34c-1.15.61-1 1.79 1.32 1.5s3.67-2.1 3.41-2.45-3.42.28-4.73.95z" fill="#fff"/><path d="M128.79 82.93A69.34 69.34 0 0195 114.23c-5.92-3.69-11-15.75-9-18.11l.37-.28s3.84 13.6 15.1 9.83c13.35-4.47 18.81-26.81 18.81-26.81v-6.61l7 3.41a16.76 16.76 0 011.51 7.27z" transform="translate(0 -.02)" opacity=".3" fill="url(#U)"/><path d="M119.73 75.12s-.1 7.37 4.24 8.56 9.77-6.62 11.78-9.86 5.07-17.85 2.18-21.34-8.48-2.59-12.2 2.29c0 0-5.79 14.06-6 20.35z" transform="translate(0 -.02)" fill="url(#V)"/><path d="M120 72.92s5-3.69 6.17-9.37 7.24-13.17 7.24-13.17-3.21-.29-7.65 4.39S120 72.92 120 72.92z" transform="translate(0 -.02)" fill="url(#W)"/><path d="M124.93 55.75l3.85 1.39a24.27 24.27 0 00-2.4 5.42 24.69 24.69 0 01-3.3 6.26z" transform="translate(0 -.02)" opacity=".5" fill="url(#X)"/><path d="M120 71.53a22.7 22.7 0 01-1.5-8.18c-.19-5.38 1.14-9.58 1.76-10.37s2.79-.65 3.82.55 1.78 7.11 1.78 7.11-1.42 9.58-5.86 10.89z" transform="translate(0 -.02)" fill="url(#Y)"/><path d="M126.14 63.55S128.73 71.77 135 75l.79-1.24a21.73 21.73 0 01-9.37-11.26z" transform="translate(0 -.02)" fill="url(#Z)"/><path d="M121.6 56.98c-.63-.08-.42 5.23.36 5s.52-4.89-.36-5z" fill="#fff"/><path d="M26.23 73.79c-.14.74 16.36 1 16.75-1.91s-15.67-3.76-16.75 1.91z" transform="translate(0 -.02)" fill="url(#aa)"/><path d="M30.29 62.59a39.43 39.43 0 01.12-10.18c.78-5.83 2.41-9.57 3.38-9.06s.82 6.23 1.38 11.86c.45 4.38 1.32 8.49 1.32 8.49s-4.17 3.85-6.2-1.11z" transform="translate(0 -.02)" opacity=".2" fill="url(#ab)"/><path d="M48.31 133.11c2.53 3.89 13 1.82 24.72 2.93s13.77 4.78 16.25 4.05-1.44-17.83-19-19-22.61 11.06-21.97 12.02z" transform="translate(0 -.02)" opacity=".72" fill="url(#i)"/><path d="M129.27 1.17s-.1 22.54 1.68 33.47l18.1 6.87-2.9-4.89 17.57-1.92s1.87-25.34 2.49-33.51c-.01-.02-13.86-2.6-36.94-.02z" transform="translate(0 -.02)" fill="url(#ac)"/><path d="M113.64 27.33s-2.19-2.61-5.16-1.91-3.18 9.75-1.4 10 2.54-5 3.91-5.83a7.06 7.06 0 013.75-.51z" transform="translate(0 -.02)" opacity=".72" fill="url(#ad)"/><path d="M21.54 30.48a4.09 4.09 0 011.75-.88 4.15 4.15 0 012 0c2.59.41 4.08 5.52 5.4 5s.35-8.8-3.15-11.24c-.02.04-4.54 3.75-6 7.12z" transform="translate(0 -.02)" opacity=".72" fill="url(#ae)"/><path d="M18 42.54s-9.11 9.91-8.55 10.61 9.13-9.58 8.55-10.61z" transform="translate(0 -.02)" fill="url(#af)"/><path d="M146.44 25.98a2.2 2.2 0 01-1.66-.71l-5.36-6.07a1.78 1.78 0 01-.35-.63 1.51 1.51 0 010-.7 1.65 1.65 0 01.27-.66 1.92 1.92 0 01.54-.52 2.37 2.37 0 01.73-.31 2.5 2.5 0 01.82 0 2.29 2.29 0 01.77.23 2.16 2.16 0 01.61.47l3.52 4 8.86-12.21a2.07 2.07 0 011.3-.79 2.36 2.36 0 011.57.22 1.65 1.65 0 01.67 2.47l-10.51 14.36a1.92 1.92 0 01-.72.6 2.4 2.4 0 01-1 .25z" fill="#fff"/></symbol><symbol fill="none" xmlns="http://www.w3.org/2000/svg" viewBox="0 0 28 20" id="white-check"><path fill-rule="evenodd" clip-rule="evenodd" d="M26.743 1.056a1.9 1.9 0 010 2.687l-15.2 15.2a1.9 1.9 0 01-2.686 0l-7.6-7.6a1.9 1.9 0 012.686-2.687l6.257 6.257L24.057 1.056a1.9 1.9 0 012.686 0z" fill="#fff"/></symbol><symbol fill="none" xmlns="http://www.w3.org/2000/svg" viewBox="0 0 24 24" id="scroll-btn"><path d="M12 5a1 1 0 00-1 1v4a1 1 0 002 0V6a1 1 0 00-1-1z" fill="#393091"/><path fill-rule="evenodd" clip-rule="evenodd" d="M4 8a8 8 0 1116 0v8a8 8 0 01-16 0V8zm14 0v8a6 6 0 11-12 0V8a6 6 0 1112 0z" fill="#393091"/></symbol><symbol fill="none" xmlns="http://www.w3.org/2000/svg" viewBox="0 0 26 26" id="cross"><path d="M14.527 13l4.659-4.647a1.088 1.088 0 00-1.538-1.539L13 11.473 8.352 6.814a1.088 1.088 0 10-1.538 1.539L11.473 13l-4.659 4.648a1.083 1.083 0 000 1.538 1.083 1.083 0 001.538 0L13 14.527l4.648 4.659a1.082 1.082 0 001.538 0 1.082 1.082 0 000-1.538L14.527 13z" fill="#fff" fill-opacity=".62"/></symbol></svg>