<svg width="1137" height="941" fill="none" xmlns="http://www.w3.org/2000/svg"><path d="M92.974 543.724c52.987 258.094 869.35 251.418 1057.266 159.014 187.92-92.404 396.85-467.506 166.53-606.216-230.32-138.71-586.135 239.275-844.188 292.254C214.53 441.755 39.986 285.629 92.974 543.724z" fill="url(#paint0_linear)"/><path d="M53.533 548.332c56.041 272.966 919.441 265.905 1118.187 168.177 198.74-97.728 419.71-494.443 176.12-641.145-243.59-146.702-619.905 253.062-892.826 309.093-272.921 56.032-457.522-109.09-401.48 163.875z" fill="url(#paint1_linear)"/><g filter="url(#filter0_d)"><path d="M212.193 559.439c12.232 51.124 65.682 87.092 141.834 110.945 76.11 23.839 174.704 35.513 276.877 38.187 102.168 2.674 207.884-3.652 298.224-15.797 90.362-12.148 165.272-30.109 205.882-50.679 81.24-41.155 166.29-139.419 205.74-240.125 19.72-50.346 28.02-101.252 18.8-145.902-9.23-44.626-35.97-83.045-86.43-108.452-50.45-25.4-107.37-24.551-167.94-8.096-60.57 16.456-124.731 48.507-189.617 85.441-32.068 18.253-64.305 37.695-96.367 57.031l-1.116.673c-32.428 19.557-64.673 38.991-96.368 56.955-63.384 35.924-124.611 65.995-180.769 79.431-56.138 13.432-107.87 16.104-153.107 15.773-19.13-.139-37.102-.816-53.752-1.443-3.034-.114-6.025-.226-8.97-.334-19.113-.696-36.328-1.174-51.401-.466-30.179 1.417-51.574 7.579-62.454 26.001-5.45 9.228-8.297 21.585-8.237 38.08.06 16.494 3.026 37.094 9.171 62.777z" stroke="url(#paint2_linear)"/></g><defs><linearGradient id="paint0_linear" x1="1538.81" y1="-833.919" x2="683.123" y2="897.822" gradientUnits="userSpaceOnUse"><stop stop-color="#180D5B"/><stop offset=".55" stop-color="#24126A" stop-opacity=".94"/><stop offset=".826" stop-color="#1F72BA"/><stop offset="1" stop-color="#42E8E0"/></linearGradient><linearGradient id="paint1_linear" x1="702.694" y1="144.228" x2="836.557" y2="796.252" gradientUnits="userSpaceOnUse"><stop offset=".097" stop-color="#42E8E0"/><stop offset="1" stop-color="#393091"/></linearGradient><linearGradient id="paint2_linear" x1="742.335" y1="225.629" x2="859.852" y2="716.786" gradientUnits="userSpaceOnUse"><stop stop-color="#42E8E0"/><stop offset="1" stop-color="#40B6CB"/></linearGradient><filter id="filter0_d" x="160.868" y="83.462" width="1280.45" height="775.491" filterUnits="userSpaceOnUse" color-interpolation-filters="sRGB"><feFlood flood-opacity="0" result="BackgroundImageFix"/><feColorMatrix in="SourceAlpha" values="0 0 0 0 0 0 0 0 0 0 0 0 0 0 0 0 0 0 127 0"/><feOffset/><feGaussianBlur stdDeviation="2"/><feColorMatrix values="0 0 0 0 0.258824 0 0 0 0 0.909804 0 0 0 0 0.878431 0 0 0 0.5 0"/><feBlend in2="BackgroundImageFix" result="effect1_dropShadow"/><feBlend in="SourceGraphic" in2="effect1_dropShadow" result="shape"/></filter></defs></svg>