<svg width="243" height="285" fill="none" xmlns="http://www.w3.org/2000/svg"><path d="M76.698 283.89a2.432 2.432 0 013.922-2.877 2.397 2.397 0 01.13 2.706 2.386 2.386 0 01-.653.694 2.416 2.416 0 01-1.808.445 2.435 2.435 0 01-1.591-.968z" fill="url(#paint0_linear)"/><path d="M77.594 283.218a1.313 1.313 0 01-.21-1.085 1.306 1.306 0 01.696-.858 1.28 1.28 0 01.98-.248 1.27 1.27 0 01.85.547 1.307 1.307 0 01-.26 1.831 1.346 1.346 0 01-2.056-.187z" fill="url(#paint1_linear)"/><path d="M16.88 275.034a1.297 1.297 0 01-.231-.977 1.313 1.313 0 01.53-.853 1.263 1.263 0 01.972-.265 1.281 1.281 0 01.859.526 1.329 1.329 0 01.242.983 1.315 1.315 0 01-.523.867 1.328 1.328 0 01-1.468.067 1.324 1.324 0 01-.381-.348z" fill="url(#paint2_linear)"/><path d="M74.344 74.047a1.607 1.607 0 01.921-2.466 1.53 1.53 0 011.62.598 1.576 1.576 0 01-2.541 1.868z" fill="url(#paint3_linear)"/><path d="M74.941 73.599a.86.86 0 011.383-1.01.86.86 0 010 1.197.822.822 0 01-1.383-.187z" fill="url(#paint4_linear)"/><path d="M35.599 68.293a.896.896 0 01.186-1.196.86.86 0 011.196 0 .822.822 0 01-.187 1.196.823.823 0 01-1.195 0z" fill="url(#paint5_linear)"/><path d="M190.839 53.831a2.396 2.396 0 01-.13-2.705c.169-.273.391-.51.653-.695a2.431 2.431 0 013.635.935 2.43 2.43 0 01-4.158 2.465z" fill="url(#paint6_linear)"/><path d="M191.737 53.346a1.264 1.264 0 01-.265-.972 1.27 1.27 0 01.526-.86 1.33 1.33 0 01.983-.242 1.328 1.328 0 011.086.99 1.336 1.336 0 01-.152 1.001c-.09.149-.208.279-.348.382a1.307 1.307 0 01-1.83-.3z" fill="url(#paint7_linear)"/><path d="M131.022 44.976a1.28 1.28 0 01-.264-.972 1.26 1.26 0 01.526-.859 1.304 1.304 0 011.483-.092c.15.09.281.21.385.354a1.346 1.346 0 01-.299 1.868 1.31 1.31 0 01-1.831-.299z" fill="url(#paint8_linear)"/><path d="M153.029 7.873a2.447 2.447 0 01-1.794 2.952 2.442 2.442 0 01-2.951-1.794 2.464 2.464 0 011.793-2.952 2.428 2.428 0 012.952 1.794z" fill="url(#paint9_linear)"/><path d="M151.945 8.134a1.347 1.347 0 01-1.942 1.312 1.346 1.346 0 111.942-1.312z" fill="url(#paint10_linear)"/><path d="M204.888 38.961a1.345 1.345 0 11-2.604.676 1.345 1.345 0 012.604-.676z" fill="url(#paint11_linear)"/><path d="M49.236 85.705a2.43 2.43 0 113.706-3.142 2.43 2.43 0 01-3.706 3.142z" fill="url(#paint12_linear)"/><path d="M50.133 85.07a1.345 1.345 0 01.299-1.869 1.308 1.308 0 11-.3 1.869z" fill="url(#paint13_linear)"/><path d="M155.831 1.035a2.17 2.17 0 01-.093 2.404 2.163 2.163 0 01-2.255.837 2.163 2.163 0 01-1.639-1.762 2.168 2.168 0 013.987-1.48z" fill="url(#paint14_linear)"/><path d="M154.972 1.52c.11.132.191.286.237.452a1.2 1.2 0 01-1.012 1.504 1.196 1.196 0 11.775-1.956z" fill="url(#paint15_linear)"/><path d="M208.475 13.402a1.166 1.166 0 01.149.882 1.16 1.16 0 01-.523.725 1.152 1.152 0 01-.902.168 1.154 1.154 0 01-.742-.541 1.233 1.233 0 01.411-1.644 1.161 1.161 0 011.607.41z" fill="url(#paint16_linear)"/><path d="M142.157 188.235a1.457 1.457 0 01-.486 1.943 1.418 1.418 0 01-1.858-.536 1.42 1.42 0 01.401-1.893 1.456 1.456 0 011.943.486z" fill="url(#paint17_linear)"/><path d="M141.596 188.571a.748.748 0 01-1.199.876.748.748 0 111.199-.876z" fill="url(#paint18_linear)"/><path d="M176.231 196.269a.782.782 0 01-.224 1.046.783.783 0 01-1.083-.262.82.82 0 01.261-1.046.76.76 0 01.579-.092.74.74 0 01.467.354z" fill="url(#paint19_linear)"/><path d="M36.98 197.502a2.17 2.17 0 01-.709 2.989 2.197 2.197 0 01-2.462-.064 2.2 2.2 0 01-.866-2.305 2.202 2.202 0 011.81-1.67 2.21 2.21 0 012.228 1.05z" fill="url(#paint20_linear)"/><path d="M35.972 198.025a1.16 1.16 0 01-1.294 1.685 1.166 1.166 0 01-.862-.934 1.156 1.156 0 01.512-1.162 1.194 1.194 0 011.33.064 1.2 1.2 0 01.314.347z" fill="url(#paint21_linear)"/><path d="M89.475 209.87a1.187 1.187 0 01.136.907 1.19 1.19 0 01-.547.737 1.195 1.195 0 01-1.233-2.018 1.194 1.194 0 011.644.374z" fill="url(#paint22_linear)"/><path d="M67.058 241.294a2.175 2.175 0 114.298-.673 2.175 2.175 0 01-4.298.673z" fill="url(#paint23_linear)"/><path d="M68.03 241.144a1.196 1.196 0 011.008-1.345 1.194 1.194 0 011.345.972 1.154 1.154 0 01-.215.889 1.167 1.167 0 01-.793.456 1.2 1.2 0 01-1.345-.972z" fill="url(#paint24_linear)"/><path d="M23.157 209.683a1.198 1.198 0 01.971-1.345 1.175 1.175 0 011.186.542 1.174 1.174 0 01-.812 1.774 1.194 1.194 0 01-1.345-.971z" fill="url(#paint25_linear)"/><path d="M165.396 179.716a2.168 2.168 0 11-3.987 1.479 2.178 2.178 0 01.167-1.246c.178-.389.467-.717.831-.943a2.144 2.144 0 011.645-.282 2.12 2.12 0 011.344.992z" fill="url(#paint26_linear)"/><path d="M164.574 180.388a1.198 1.198 0 01-1.295 1.645 1.193 1.193 0 01-.987-1.373 1.192 1.192 0 011.039-.994 1.208 1.208 0 01.949.305c.127.117.227.259.294.417z" fill="url(#paint27_linear)"/><path d="M241.951 156.101a2.172 2.172 0 01-2.4-.127 2.17 2.17 0 01-.163-3.341 2.172 2.172 0 012.376-.36c.387.181.712.473.934.839a2.204 2.204 0 01-.747 2.989z" fill="url(#paint28_linear)"/><path d="M241.428 155.241a1.15 1.15 0 01-.651.152 1.157 1.157 0 111.062-1.758 1.16 1.16 0 01-.066 1.303 1.164 1.164 0 01-.345.303z" fill="url(#paint29_linear)"/><path d="M229.472 208.711a1.155 1.155 0 01-1.329-.026 1.193 1.193 0 01-.25-1.678 1.194 1.194 0 01.778-.47 1.158 1.158 0 011.175.567 1.133 1.133 0 01.166.886 1.13 1.13 0 01-.54.721z" fill="url(#paint30_linear)"/><path d="M54.765 142.052a1.394 1.394 0 01-1.054.155 1.38 1.38 0 01-.851-.641 1.384 1.384 0 01.448-1.943 1.458 1.458 0 011.943.486 1.418 1.418 0 01-.486 1.943z" fill="url(#paint31_linear)"/><path d="M54.43 141.492a.757.757 0 01-.42.097.748.748 0 11.419-.097z" fill="url(#paint32_linear)"/><path d="M46.695 176.129a.748.748 0 11.261-1.046.784.784 0 01-.261 1.046z" fill="url(#paint33_linear)"/><path d="M45.724 36.681A2.166 2.166 0 1143.442 33a2.166 2.166 0 012.282 3.682z" fill="url(#paint34_linear)"/><path d="M45.2 35.859a1.195 1.195 0 11.412-1.644 1.233 1.233 0 01-.411 1.644z" fill="url(#paint35_linear)"/><path d="M34.365 91.16a3.323 3.323 0 01-5.065-2.988 3.325 3.325 0 115.065 2.988z" fill="url(#paint36_linear)"/><path d="M1.86 66.873a2.127 2.127 0 012.466 1.793 2.175 2.175 0 01-4.296.673 2.13 2.13 0 011.83-2.466z" fill="url(#paint37_linear)"/><path d="M2.01 67.844a1.196 1.196 0 011.345.972 1.173 1.173 0 11-2.316.373 1.196 1.196 0 01.971-1.345z" fill="url(#paint38_linear)"/><path d="M33.544 23.006a1.196 1.196 0 011.345 1.009 1.158 1.158 0 11-1.346-1.01z" fill="url(#paint39_linear)"/><path d="M63.135 165.442a2.171 2.171 0 01-2.4-.126 2.17 2.17 0 01-.163-3.341 2.165 2.165 0 013.6 1.278 2.166 2.166 0 01-1.037 2.189z" fill="url(#paint40_linear)"/><path d="M62.724 164.47a1.165 1.165 0 01-1.297-.039 1.171 1.171 0 01-.31-.334 1.198 1.198 0 01.411-1.645 1.175 1.175 0 011.607.411 1.174 1.174 0 01-.411 1.607z" fill="url(#paint41_linear)"/><defs><linearGradient id="paint0_linear" x1="78.667" y1="280.019" x2="78.667" y2="284.886" gradientUnits="userSpaceOnUse"><stop stop-color="#42E8E0"/><stop offset="1" stop-color="#40B6CB"/></linearGradient><linearGradient id="paint1_linear" x1="78.759" y1="281.011" x2="78.759" y2="283.797" gradientUnits="userSpaceOnUse"><stop stop-color="#42E8E0"/><stop offset="1" stop-color="#40B6CB"/></linearGradient><linearGradient id="paint2_linear" x1="17.95" y1="272.926" x2="17.95" y2="275.573" gradientUnits="userSpaceOnUse"><stop stop-color="#42E8E0"/><stop offset="1" stop-color="#40B6CB"/></linearGradient><linearGradient id="paint3_linear" x1="75.626" y1="71.536" x2="75.626" y2="74.69" gradientUnits="userSpaceOnUse"><stop stop-color="#42E8E0"/><stop offset="1" stop-color="#40B6CB"/></linearGradient><linearGradient id="paint4_linear" x1="75.693" y1="72.299" x2="75.693" y2="74.083" gradientUnits="userSpaceOnUse"><stop stop-color="#42E8E0"/><stop offset="1" stop-color="#40B6CB"/></linearGradient><linearGradient id="paint5_linear" x1="36.305" y1="66.855" x2="36.305" y2="68.551" gradientUnits="userSpaceOnUse"><stop stop-color="#42E8E0"/><stop offset="1" stop-color="#40B6CB"/></linearGradient><linearGradient id="paint6_linear" x1="192.788" y1="49.963" x2="192.788" y2="54.821" gradientUnits="userSpaceOnUse"><stop stop-color="#42E8E0"/><stop offset="1" stop-color="#40B6CB"/></linearGradient><linearGradient id="paint7_linear" x1="192.782" y1="51.257" x2="192.782" y2="53.893" gradientUnits="userSpaceOnUse"><stop stop-color="#42E8E0"/><stop offset="1" stop-color="#40B6CB"/></linearGradient><linearGradient id="paint8_linear" x1="132.074" y1="42.865" x2="132.074" y2="45.523" gradientUnits="userSpaceOnUse"><stop stop-color="#42E8E0"/><stop offset="1" stop-color="#40B6CB"/></linearGradient><linearGradient id="paint9_linear" x1="150.658" y1="6.007" x2="150.658" y2="10.895" gradientUnits="userSpaceOnUse"><stop stop-color="#42E8E0"/><stop offset="1" stop-color="#40B6CB"/></linearGradient><linearGradient id="paint10_linear" x1="150.604" y1="6.897" x2="150.604" y2="9.587" gradientUnits="userSpaceOnUse"><stop stop-color="#42E8E0"/><stop offset="1" stop-color="#40B6CB"/></linearGradient><linearGradient id="paint11_linear" x1="203.586" y1="37.955" x2="203.586" y2="40.645" gradientUnits="userSpaceOnUse"><stop stop-color="#42E8E0"/><stop offset="1" stop-color="#40B6CB"/></linearGradient><linearGradient id="paint12_linear" x1="51.089" y1="81.706" x2="51.089" y2="86.563" gradientUnits="userSpaceOnUse"><stop stop-color="#42E8E0"/><stop offset="1" stop-color="#40B6CB"/></linearGradient><linearGradient id="paint13_linear" x1="51.181" y1="82.97" x2="51.181" y2="85.586" gradientUnits="userSpaceOnUse"><stop stop-color="#42E8E0"/><stop offset="1" stop-color="#40B6CB"/></linearGradient><linearGradient id="paint14_linear" x1="153.983" y1="0" x2="153.983" y2="4.334" gradientUnits="userSpaceOnUse"><stop stop-color="#42E8E0"/><stop offset="1" stop-color="#40B6CB"/></linearGradient><linearGradient id="paint15_linear" x1="154.056" y1="1.093" x2="154.056" y2="3.485" gradientUnits="userSpaceOnUse"><stop stop-color="#42E8E0"/><stop offset="1" stop-color="#40B6CB"/></linearGradient><linearGradient id="paint16_linear" x1="207.477" y1="12.822" x2="207.477" y2="15.206" gradientUnits="userSpaceOnUse"><stop stop-color="#42E8E0"/><stop offset="1" stop-color="#40B6CB"/></linearGradient><linearGradient id="paint17_linear" x1="140.977" y1="187.562" x2="140.977" y2="190.331" gradientUnits="userSpaceOnUse"><stop stop-color="#42E8E0"/><stop offset="1" stop-color="#40B6CB"/></linearGradient><linearGradient id="paint18_linear" x1="140.947" y1="188.195" x2="140.947" y2="189.69" gradientUnits="userSpaceOnUse"><stop stop-color="#42E8E0"/><stop offset="1" stop-color="#40B6CB"/></linearGradient><linearGradient id="paint19_linear" x1="175.588" y1="195.893" x2="175.588" y2="197.432" gradientUnits="userSpaceOnUse"><stop stop-color="#42E8E0"/><stop offset="1" stop-color="#40B6CB"/></linearGradient><linearGradient id="paint20_linear" x1="35.094" y1="196.427" x2="35.094" y2="200.836" gradientUnits="userSpaceOnUse"><stop stop-color="#42E8E0"/><stop offset="1" stop-color="#40B6CB"/></linearGradient><linearGradient id="paint21_linear" x1="34.959" y1="197.442" x2="34.959" y2="199.744" gradientUnits="userSpaceOnUse"><stop stop-color="#42E8E0"/><stop offset="1" stop-color="#40B6CB"/></linearGradient><linearGradient id="paint22_linear" x1="88.526" y1="209.314" x2="88.526" y2="211.608" gradientUnits="userSpaceOnUse"><stop stop-color="#42E8E0"/><stop offset="1" stop-color="#40B6CB"/></linearGradient><linearGradient id="paint23_linear" x1="69.206" y1="238.783" x2="69.206" y2="243.132" gradientUnits="userSpaceOnUse"><stop stop-color="#42E8E0"/><stop offset="1" stop-color="#40B6CB"/></linearGradient><linearGradient id="paint24_linear" x1="69.209" y1="239.787" x2="69.209" y2="242.128" gradientUnits="userSpaceOnUse"><stop stop-color="#42E8E0"/><stop offset="1" stop-color="#40B6CB"/></linearGradient><linearGradient id="paint25_linear" x1="24.317" y1="208.323" x2="24.317" y2="210.666" gradientUnits="userSpaceOnUse"><stop stop-color="#42E8E0"/><stop offset="1" stop-color="#40B6CB"/></linearGradient><linearGradient id="paint26_linear" x1="163.548" y1="178.667" x2="163.548" y2="183.015" gradientUnits="userSpaceOnUse"><stop stop-color="#42E8E0"/><stop offset="1" stop-color="#40B6CB"/></linearGradient><linearGradient id="paint27_linear" x1="163.472" y1="179.657" x2="163.472" y2="182.049" gradientUnits="userSpaceOnUse"><stop stop-color="#42E8E0"/><stop offset="1" stop-color="#40B6CB"/></linearGradient><linearGradient id="paint28_linear" x1="240.839" y1="152.069" x2="240.839" y2="156.404" gradientUnits="userSpaceOnUse"><stop stop-color="#42E8E0"/><stop offset="1" stop-color="#40B6CB"/></linearGradient><linearGradient id="paint29_linear" x1="240.85" y1="153.079" x2="240.85" y2="155.396" gradientUnits="userSpaceOnUse"><stop stop-color="#42E8E0"/><stop offset="1" stop-color="#40B6CB"/></linearGradient><linearGradient id="paint30_linear" x1="228.849" y1="206.524" x2="228.849" y2="208.908" gradientUnits="userSpaceOnUse"><stop stop-color="#42E8E0"/><stop offset="1" stop-color="#40B6CB"/></linearGradient><linearGradient id="paint31_linear" x1="54.043" y1="139.436" x2="54.043" y2="142.25" gradientUnits="userSpaceOnUse"><stop stop-color="#42E8E0"/><stop offset="1" stop-color="#40B6CB"/></linearGradient><linearGradient id="paint32_linear" x1="54.058" y1="140.096" x2="54.058" y2="141.59" gradientUnits="userSpaceOnUse"><stop stop-color="#42E8E0"/><stop offset="1" stop-color="#40B6CB"/></linearGradient><linearGradient id="paint33_linear" x1="46.317" y1="174.733" x2="46.317" y2="176.228" gradientUnits="userSpaceOnUse"><stop stop-color="#42E8E0"/><stop offset="1" stop-color="#40B6CB"/></linearGradient><linearGradient id="paint34_linear" x1="44.583" y1="32.672" x2="44.583" y2="37.006" gradientUnits="userSpaceOnUse"><stop stop-color="#42E8E0"/><stop offset="1" stop-color="#40B6CB"/></linearGradient><linearGradient id="paint35_linear" x1="44.581" y1="33.637" x2="44.581" y2="36.028" gradientUnits="userSpaceOnUse"><stop stop-color="#42E8E0"/><stop offset="1" stop-color="#40B6CB"/></linearGradient><linearGradient id="paint36_linear" x1="32.621" y1="85.003" x2="32.621" y2="91.654" gradientUnits="userSpaceOnUse"><stop stop-color="#42E8E0"/><stop offset="1" stop-color="#40B6CB"/></linearGradient><linearGradient id="paint37_linear" x1="2.176" y1="66.842" x2="2.176" y2="71.177" gradientUnits="userSpaceOnUse"><stop stop-color="#42E8E0"/><stop offset="1" stop-color="#40B6CB"/></linearGradient><linearGradient id="paint38_linear" x1="2.198" y1="67.832" x2="2.198" y2="70.176" gradientUnits="userSpaceOnUse"><stop stop-color="#42E8E0"/><stop offset="1" stop-color="#40B6CB"/></linearGradient><linearGradient id="paint39_linear" x1="33.738" y1="22.995" x2="33.738" y2="25.306" gradientUnits="userSpaceOnUse"><stop stop-color="#42E8E0"/><stop offset="1" stop-color="#40B6CB"/></linearGradient><linearGradient id="paint40_linear" x1="62.03" y1="161.411" x2="62.03" y2="165.745" gradientUnits="userSpaceOnUse"><stop stop-color="#42E8E0"/><stop offset="1" stop-color="#40B6CB"/></linearGradient><linearGradient id="paint41_linear" x1="62.122" y1="162.289" x2="62.122" y2="164.65" gradientUnits="userSpaceOnUse"><stop stop-color="#42E8E0"/><stop offset="1" stop-color="#40B6CB"/></linearGradient></defs></svg>