<svg width="243" height="285" fill="none" xmlns="http://www.w3.org/2000/svg"><path d="M166.302.996a2.431 2.431 0 11-3.923 2.877 2.396 2.396 0 01-.13-2.706c.169-.273.391-.509.653-.694a2.436 2.436 0 011.809-.444 2.426 2.426 0 011.591.967z" fill="url(#paint0_linear)"/><path d="M165.406 1.668a1.3 1.3 0 01.209 1.085 1.304 1.304 0 01-.695.858 1.272 1.272 0 01-1.831-.299 1.316 1.316 0 01-.248-.97 1.311 1.311 0 01.51-.86 1.34 1.34 0 011.626-.21c.17.1.316.234.429.396z" fill="url(#paint1_linear)"/><path d="M226.12 9.852a1.314 1.314 0 01.051 1.457 1.31 1.31 0 01-.35.374 1.278 1.278 0 01-.972.264 1.27 1.27 0 01-.859-.526 1.328 1.328 0 01-.068-1.468 1.325 1.325 0 012.198-.101z" fill="url(#paint2_linear)"/><path d="M168.656 210.839a1.607 1.607 0 01-.374 2.205 1.532 1.532 0 01-2.167-.336 1.586 1.586 0 01-.288-1.172 1.575 1.575 0 012.829-.697z" fill="url(#paint3_linear)"/><path d="M168.058 211.288a.857.857 0 01-.231 1.134.857.857 0 01-1.151-.126.858.858 0 010-1.195.816.816 0 011.124-.135.819.819 0 01.258.322z" fill="url(#paint4_linear)"/><path d="M207.401 216.594a.891.891 0 01.138.634.892.892 0 01-.325.561.86.86 0 01-1.196 0 .821.821 0 01.187-1.195.818.818 0 011.196 0z" fill="url(#paint5_linear)"/><path d="M52.16 231.054a2.399 2.399 0 01.46 1.811 2.389 2.389 0 01-.983 1.589 2.426 2.426 0 01-3.833-2.33 2.428 2.428 0 014.356-1.07z" fill="url(#paint6_linear)"/><path d="M51.263 231.54a1.278 1.278 0 01.265.972 1.27 1.27 0 01-.526.859 1.312 1.312 0 01-.983.243 1.335 1.335 0 01-.867-.523 1.327 1.327 0 01-.067-1.468 1.32 1.32 0 01.347-.382 1.313 1.313 0 011.457-.051 1.3 1.3 0 01.374.35z" fill="url(#paint7_linear)"/><path d="M111.977 239.91a1.259 1.259 0 01.265.972 1.281 1.281 0 01-.526.859 1.313 1.313 0 01-1.483.092 1.302 1.302 0 01-.385-.354 1.347 1.347 0 01.299-1.868 1.314 1.314 0 01.977-.232 1.3 1.3 0 01.853.531z" fill="url(#paint8_linear)"/><path d="M89.971 277.013a2.441 2.441 0 114.745-1.158 2.465 2.465 0 01-1.793 2.952 2.43 2.43 0 01-2.952-1.794z" fill="url(#paint9_linear)"/><path d="M91.055 276.752a1.343 1.343 0 011.941-1.311 1.341 1.341 0 01.603 1.804 1.353 1.353 0 01-.882.705 1.34 1.34 0 01-1.493-.646 1.34 1.34 0 01-.17-.552z" fill="url(#paint10_linear)"/><path d="M38.111 245.925a1.344 1.344 0 011.237-1.682 1.348 1.348 0 011.285.777 1.346 1.346 0 01-1.916 1.718 1.346 1.346 0 01-.605-.813z" fill="url(#paint11_linear)"/><path d="M193.763 199.182a2.431 2.431 0 01-.428 3.537 2.442 2.442 0 01-1.9.415 2.438 2.438 0 01-1.595-1.113 2.425 2.425 0 01.647-3.236 2.427 2.427 0 013.276.397z" fill="url(#paint12_linear)"/><path d="M192.867 199.817a1.345 1.345 0 01-.299 1.868 1.31 1.31 0 01-1.44.029 1.306 1.306 0 011.131-2.34c.242.085.453.239.608.443z" fill="url(#paint13_linear)"/><path d="M87.168 283.851a2.167 2.167 0 113.696-2.264 2.167 2.167 0 01-3.696 2.264z" fill="url(#paint14_linear)"/><path d="M88.028 283.366a1.198 1.198 0 01.292-1.789 1.186 1.186 0 01.99-.118 1.19 1.19 0 01.735.674 1.195 1.195 0 01-2.017 1.233z" fill="url(#paint15_linear)"/><path d="M34.525 271.484a1.166 1.166 0 01-.15-.882 1.165 1.165 0 01.523-.725 1.16 1.16 0 011.644.374 1.231 1.231 0 01-.41 1.644 1.167 1.167 0 01-.89.133 1.15 1.15 0 01-.717-.544z" fill="url(#paint16_linear)"/><path d="M100.843 96.651a1.457 1.457 0 01.486-1.943 1.418 1.418 0 012.029 1.562 1.42 1.42 0 01-.572.867 1.457 1.457 0 01-1.943-.486z" fill="url(#paint17_linear)"/><path d="M101.404 96.315a.746.746 0 111.046.262.75.75 0 01-1.046-.262z" fill="url(#paint18_linear)"/><path d="M66.768 88.618a.785.785 0 01.224-1.047.785.785 0 011.084.262.822.822 0 01-.262 1.046.747.747 0 01-1.046-.261z" fill="url(#paint19_linear)"/><path d="M206.019 87.384a2.16 2.16 0 01.709-2.99 2.209 2.209 0 012.462.065 2.202 2.202 0 01-2.218 3.79 2.199 2.199 0 01-.953-.865z" fill="url(#paint20_linear)"/><path d="M207.027 86.861a1.159 1.159 0 111.644.411 1.194 1.194 0 01-1.644-.411z" fill="url(#paint21_linear)"/><path d="M153.524 75.017a1.194 1.194 0 01.064-1.33 1.2 1.2 0 01.347-.314 1.196 1.196 0 011.233 2.017 1.196 1.196 0 01-1.644-.373z" fill="url(#paint22_linear)"/><path d="M175.941 43.592a2.17 2.17 0 01-1.812 2.485 2.172 2.172 0 01-2.484-1.812 2.162 2.162 0 01.391-1.618 2.167 2.167 0 011.421-.867 2.17 2.17 0 011.617.392 2.174 2.174 0 01.867 1.42z" fill="url(#paint23_linear)"/><path d="M174.97 43.742a1.194 1.194 0 01-1.009 1.345 1.194 1.194 0 01-1.345-.971 1.166 1.166 0 01.215-.89 1.172 1.172 0 01.794-.456 1.195 1.195 0 011.345.972z" fill="url(#paint24_linear)"/><path d="M219.842 75.203a1.195 1.195 0 01-.971 1.346 1.168 1.168 0 01-1.185-.543 1.163 1.163 0 01-.143-.886 1.166 1.166 0 011.823-.674c.251.181.422.453.476.757z" fill="url(#paint25_linear)"/><path d="M77.604 105.17a2.167 2.167 0 112.989.71 2.125 2.125 0 01-2.989-.71z" fill="url(#paint26_linear)"/><path d="M78.426 104.498a1.196 1.196 0 112.204-.929 1.196 1.196 0 01-2.204.929z" fill="url(#paint27_linear)"/><path d="M1.048 128.785a2.171 2.171 0 012.4.126 2.17 2.17 0 01.164 3.341 2.165 2.165 0 01-3.31-.478 2.205 2.205 0 01.746-2.989z" fill="url(#paint28_linear)"/><path d="M1.571 129.644a1.162 1.162 0 011.7 1.291 1.16 1.16 0 01-2.267-.115 1.161 1.161 0 01.567-1.176z" fill="url(#paint29_linear)"/><path d="M13.527 76.175a1.157 1.157 0 011.644.374 1.196 1.196 0 01-.842 1.8 1.16 1.16 0 01-1.176-.568 1.121 1.121 0 01.374-1.606z" fill="url(#paint30_linear)"/><path d="M188.234 142.835a1.382 1.382 0 011.906.485 1.388 1.388 0 01-.04 1.57c-.11.151-.249.278-.409.373a1.458 1.458 0 01-1.943-.485 1.422 1.422 0 01.486-1.943z" fill="url(#paint31_linear)"/><path d="M188.57 143.395a.747.747 0 11.747 1.298.747.747 0 01-.747-1.298z" fill="url(#paint32_linear)"/><path d="M196.305 108.757a.757.757 0 01.419-.097.749.749 0 01.07 1.484.753.753 0 01-.751-.34.787.787 0 01.262-1.047z" fill="url(#paint33_linear)"/><path d="M197.276 248.205a2.17 2.17 0 012.412.087 2.16 2.16 0 01.894 1.839 2.165 2.165 0 01-3.752 1.392 2.156 2.156 0 01-.552-1.129 2.16 2.16 0 01.998-2.189z" fill="url(#paint34_linear)"/><path d="M197.799 249.027a1.193 1.193 0 011.738.624 1.194 1.194 0 01-2.149 1.02 1.233 1.233 0 01.411-1.644z" fill="url(#paint35_linear)"/><path d="M208.634 193.726a3.33 3.33 0 012.532-.399 3.32 3.32 0 012.533 3.388 3.329 3.329 0 01-2.186 2.968 3.32 3.32 0 01-3.582-.874 3.323 3.323 0 01.703-5.083z" fill="url(#paint36_linear)"/><path d="M241.139 218.014a2.137 2.137 0 01-1.611-.377 2.128 2.128 0 01-.855-1.417 2.176 2.176 0 014.297-.673 2.12 2.12 0 01-1.024 2.192 2.144 2.144 0 01-.807.275z" fill="url(#paint37_linear)"/><path d="M240.99 217.042a1.195 1.195 0 01-1.345-.971 1.177 1.177 0 01.207-.874 1.171 1.171 0 011.638-.264c.252.182.422.457.471.764a1.196 1.196 0 01-.971 1.345z" fill="url(#paint38_linear)"/><path d="M209.456 261.881a1.2 1.2 0 01-1.345-1.009 1.16 1.16 0 112.276.139 1.157 1.157 0 01-.931.87z" fill="url(#paint39_linear)"/><path d="M179.865 119.444a2.163 2.163 0 012.399.127 2.165 2.165 0 01-.97 3.88 2.167 2.167 0 01-1.429-4.007z" fill="url(#paint40_linear)"/><path d="M180.275 120.416a1.153 1.153 0 01.882-.149 1.164 1.164 0 01.725.523 1.205 1.205 0 01-.064 1.33 1.174 1.174 0 11-1.543-1.704z" fill="url(#paint41_linear)"/><defs><linearGradient id="paint0_linear" x1="164.332" y1="4.867" x2="164.332" y2="0" gradientUnits="userSpaceOnUse"><stop stop-color="#42E8E0"/><stop offset="1" stop-color="#40B6CB"/></linearGradient><linearGradient id="paint1_linear" x1="164.241" y1="3.875" x2="164.241" y2="1.089" gradientUnits="userSpaceOnUse"><stop stop-color="#42E8E0"/><stop offset="1" stop-color="#40B6CB"/></linearGradient><linearGradient id="paint2_linear" x1="225.05" y1="11.96" x2="225.05" y2="9.314" gradientUnits="userSpaceOnUse"><stop stop-color="#42E8E0"/><stop offset="1" stop-color="#40B6CB"/></linearGradient><linearGradient id="paint3_linear" x1="167.373" y1="213.351" x2="167.373" y2="210.197" gradientUnits="userSpaceOnUse"><stop stop-color="#42E8E0"/><stop offset="1" stop-color="#40B6CB"/></linearGradient><linearGradient id="paint4_linear" x1="167.307" y1="212.587" x2="167.307" y2="210.803" gradientUnits="userSpaceOnUse"><stop stop-color="#42E8E0"/><stop offset="1" stop-color="#40B6CB"/></linearGradient><linearGradient id="paint5_linear" x1="206.695" y1="218.031" x2="206.695" y2="216.336" gradientUnits="userSpaceOnUse"><stop stop-color="#42E8E0"/><stop offset="1" stop-color="#40B6CB"/></linearGradient><linearGradient id="paint6_linear" x1="50.212" y1="234.922" x2="50.212" y2="230.065" gradientUnits="userSpaceOnUse"><stop stop-color="#42E8E0"/><stop offset="1" stop-color="#40B6CB"/></linearGradient><linearGradient id="paint7_linear" x1="50.217" y1="233.629" x2="50.217" y2="230.993" gradientUnits="userSpaceOnUse"><stop stop-color="#42E8E0"/><stop offset="1" stop-color="#40B6CB"/></linearGradient><linearGradient id="paint8_linear" x1="110.926" y1="242.021" x2="110.926" y2="239.362" gradientUnits="userSpaceOnUse"><stop stop-color="#42E8E0"/><stop offset="1" stop-color="#40B6CB"/></linearGradient><linearGradient id="paint9_linear" x1="92.341" y1="278.879" x2="92.341" y2="273.992" gradientUnits="userSpaceOnUse"><stop stop-color="#42E8E0"/><stop offset="1" stop-color="#40B6CB"/></linearGradient><linearGradient id="paint10_linear" x1="92.395" y1="277.989" x2="92.395" y2="275.299" gradientUnits="userSpaceOnUse"><stop stop-color="#42E8E0"/><stop offset="1" stop-color="#40B6CB"/></linearGradient><linearGradient id="paint11_linear" x1="39.413" y1="246.932" x2="39.413" y2="244.241" gradientUnits="userSpaceOnUse"><stop stop-color="#42E8E0"/><stop offset="1" stop-color="#40B6CB"/></linearGradient><linearGradient id="paint12_linear" x1="191.911" y1="203.181" x2="191.911" y2="198.323" gradientUnits="userSpaceOnUse"><stop stop-color="#42E8E0"/><stop offset="1" stop-color="#40B6CB"/></linearGradient><linearGradient id="paint13_linear" x1="191.818" y1="201.916" x2="191.818" y2="199.3" gradientUnits="userSpaceOnUse"><stop stop-color="#42E8E0"/><stop offset="1" stop-color="#40B6CB"/></linearGradient><linearGradient id="paint14_linear" x1="89.016" y1="284.886" x2="89.016" y2="280.552" gradientUnits="userSpaceOnUse"><stop stop-color="#42E8E0"/><stop offset="1" stop-color="#40B6CB"/></linearGradient><linearGradient id="paint15_linear" x1="88.944" y1="283.793" x2="88.944" y2="281.402" gradientUnits="userSpaceOnUse"><stop stop-color="#42E8E0"/><stop offset="1" stop-color="#40B6CB"/></linearGradient><linearGradient id="paint16_linear" x1="35.523" y1="272.064" x2="35.523" y2="269.68" gradientUnits="userSpaceOnUse"><stop stop-color="#42E8E0"/><stop offset="1" stop-color="#40B6CB"/></linearGradient><linearGradient id="paint17_linear" x1="102.022" y1="97.324" x2="102.022" y2="94.555" gradientUnits="userSpaceOnUse"><stop stop-color="#42E8E0"/><stop offset="1" stop-color="#40B6CB"/></linearGradient><linearGradient id="paint18_linear" x1="102.052" y1="96.691" x2="102.052" y2="95.197" gradientUnits="userSpaceOnUse"><stop stop-color="#42E8E0"/><stop offset="1" stop-color="#40B6CB"/></linearGradient><linearGradient id="paint19_linear" x1="67.411" y1="88.994" x2="67.411" y2="87.454" gradientUnits="userSpaceOnUse"><stop stop-color="#42E8E0"/><stop offset="1" stop-color="#40B6CB"/></linearGradient><linearGradient id="paint20_linear" x1="207.905" y1="88.46" x2="207.905" y2="84.05" gradientUnits="userSpaceOnUse"><stop stop-color="#42E8E0"/><stop offset="1" stop-color="#40B6CB"/></linearGradient><linearGradient id="paint21_linear" x1="208.041" y1="87.444" x2="208.041" y2="85.142" gradientUnits="userSpaceOnUse"><stop stop-color="#42E8E0"/><stop offset="1" stop-color="#40B6CB"/></linearGradient><linearGradient id="paint22_linear" x1="154.474" y1="75.572" x2="154.474" y2="73.279" gradientUnits="userSpaceOnUse"><stop stop-color="#42E8E0"/><stop offset="1" stop-color="#40B6CB"/></linearGradient><linearGradient id="paint23_linear" x1="173.793" y1="46.103" x2="173.793" y2="41.754" gradientUnits="userSpaceOnUse"><stop stop-color="#42E8E0"/><stop offset="1" stop-color="#40B6CB"/></linearGradient><linearGradient id="paint24_linear" x1="173.79" y1="45.099" x2="173.79" y2="42.759" gradientUnits="userSpaceOnUse"><stop stop-color="#42E8E0"/><stop offset="1" stop-color="#40B6CB"/></linearGradient><linearGradient id="paint25_linear" x1="218.683" y1="76.564" x2="218.683" y2="74.22" gradientUnits="userSpaceOnUse"><stop stop-color="#42E8E0"/><stop offset="1" stop-color="#40B6CB"/></linearGradient><linearGradient id="paint26_linear" x1="79.452" y1="106.22" x2="79.452" y2="101.871" gradientUnits="userSpaceOnUse"><stop stop-color="#42E8E0"/><stop offset="1" stop-color="#40B6CB"/></linearGradient><linearGradient id="paint27_linear" x1="79.528" y1="105.229" x2="79.528" y2="102.838" gradientUnits="userSpaceOnUse"><stop stop-color="#42E8E0"/><stop offset="1" stop-color="#40B6CB"/></linearGradient><linearGradient id="paint28_linear" x1="2.16" y1="132.816" x2="2.16" y2="128.482" gradientUnits="userSpaceOnUse"><stop stop-color="#42E8E0"/><stop offset="1" stop-color="#40B6CB"/></linearGradient><linearGradient id="paint29_linear" x1="2.149" y1="131.807" x2="2.149" y2="129.49" gradientUnits="userSpaceOnUse"><stop stop-color="#42E8E0"/><stop offset="1" stop-color="#40B6CB"/></linearGradient><linearGradient id="paint30_linear" x1="14.151" y1="78.362" x2="14.151" y2="75.978" gradientUnits="userSpaceOnUse"><stop stop-color="#42E8E0"/><stop offset="1" stop-color="#40B6CB"/></linearGradient><linearGradient id="paint31_linear" x1="188.956" y1="145.451" x2="188.956" y2="142.637" gradientUnits="userSpaceOnUse"><stop stop-color="#42E8E0"/><stop offset="1" stop-color="#40B6CB"/></linearGradient><linearGradient id="paint32_linear" x1="188.942" y1="144.791" x2="188.942" y2="143.296" gradientUnits="userSpaceOnUse"><stop stop-color="#42E8E0"/><stop offset="1" stop-color="#40B6CB"/></linearGradient><linearGradient id="paint33_linear" x1="196.683" y1="110.153" x2="196.683" y2="108.659" gradientUnits="userSpaceOnUse"><stop stop-color="#42E8E0"/><stop offset="1" stop-color="#40B6CB"/></linearGradient><linearGradient id="paint34_linear" x1="198.417" y1="252.214" x2="198.417" y2="247.88" gradientUnits="userSpaceOnUse"><stop stop-color="#42E8E0"/><stop offset="1" stop-color="#40B6CB"/></linearGradient><linearGradient id="paint35_linear" x1="198.418" y1="251.25" x2="198.418" y2="248.858" gradientUnits="userSpaceOnUse"><stop stop-color="#42E8E0"/><stop offset="1" stop-color="#40B6CB"/></linearGradient><linearGradient id="paint36_linear" x1="210.378" y1="199.883" x2="210.378" y2="193.232" gradientUnits="userSpaceOnUse"><stop stop-color="#42E8E0"/><stop offset="1" stop-color="#40B6CB"/></linearGradient><linearGradient id="paint37_linear" x1="240.823" y1="218.044" x2="240.823" y2="213.709" gradientUnits="userSpaceOnUse"><stop stop-color="#42E8E0"/><stop offset="1" stop-color="#40B6CB"/></linearGradient><linearGradient id="paint38_linear" x1="240.801" y1="217.054" x2="240.801" y2="214.711" gradientUnits="userSpaceOnUse"><stop stop-color="#42E8E0"/><stop offset="1" stop-color="#40B6CB"/></linearGradient><linearGradient id="paint39_linear" x1="209.262" y1="261.892" x2="209.262" y2="259.58" gradientUnits="userSpaceOnUse"><stop stop-color="#42E8E0"/><stop offset="1" stop-color="#40B6CB"/></linearGradient><linearGradient id="paint40_linear" x1="180.97" y1="123.476" x2="180.97" y2="119.141" gradientUnits="userSpaceOnUse"><stop stop-color="#42E8E0"/><stop offset="1" stop-color="#40B6CB"/></linearGradient><linearGradient id="paint41_linear" x1="180.877" y1="122.598" x2="180.877" y2="120.237" gradientUnits="userSpaceOnUse"><stop stop-color="#42E8E0"/><stop offset="1" stop-color="#40B6CB"/></linearGradient></defs></svg>